<?xml version="1.0" standalone="no"?>
<!DOCTYPE svg PUBLIC "-//W3C//DTD SVG 20010904//EN"
 "http://www.w3.org/TR/2001/REC-SVG-20010904/DTD/svg10.dtd">
<svg version="1.0" xmlns="http://www.w3.org/2000/svg"
 width="118.000000pt" height="119.000000pt" viewBox="0 0 118.000000 119.000000"
 preserveAspectRatio="xMidYMid meet">
<metadata>
Created by potrace 1.16, written by Peter Selinger 2001-2019
</metadata>
<g transform="translate(0.000000,119.000000) scale(0.100000,-0.100000)"
fill="#000000" stroke="none">
<path d="M292 1158 c-7 -7 -16 -14 -20 -14 -36 -7 -52 -18 -47 -33 3 -8 3 -12
-1 -8 -11 11 -34 -13 -34 -37 0 -15 -3 -17 -9 -7 -6 9 -10 10 -16 2 -4 -7 -1
-19 6 -27 10 -12 9 -13 -7 -7 -17 6 -18 5 -4 -12 9 -11 10 -16 3 -11 -8 4 -13
1 -13 -9 0 -9 5 -13 10 -10 16 10 12 -5 -11 -41 -11 -19 -17 -34 -14 -34 4 0
1 -8 -6 -17 -10 -11 -10 -14 -1 -9 16 10 15 -5 -3 -30 -8 -12 -12 -24 -9 -27
3 -3 0 -15 -6 -27 -10 -18 -10 -21 2 -14 11 6 11 5 -1 -9 -7 -9 -10 -17 -6
-17 4 0 2 -7 -5 -15 -7 -8 -9 -15 -6 -15 4 0 2 -9 -4 -19 -7 -13 -7 -22 0 -26
7 -4 5 -14 -5 -28 -18 -26 -19 -41 -3 -31 7 4 4 -3 -6 -15 -20 -22 -20 -22 0
-15 16 7 17 5 7 -8 -7 -8 -9 -18 -5 -22 4 -4 0 -6 -8 -4 -11 2 -14 -5 -13 -27
1 -16 -3 -33 -10 -37 -9 -6 -9 -10 1 -17 11 -7 11 -9 -2 -14 -9 -4 -13 -13
-10 -22 4 -8 1 -21 -5 -28 -12 -16 -12 -107 0 -107 5 0 9 -5 9 -11 0 -5 -4 -7
-10 -4 -5 3 -10 1 -10 -4 0 -6 7 -11 16 -11 11 0 15 -6 11 -20 -3 -13 1 -21
14 -25 10 -4 19 -11 19 -16 0 -6 -5 -7 -12 -3 -7 4 -8 3 -4 -5 4 -6 12 -9 17
-6 5 4 12 0 15 -9 3 -8 12 -12 20 -9 7 3 21 -3 30 -12 14 -13 19 -14 25 -3 6
9 9 10 9 1 0 -7 7 -10 15 -7 8 4 15 1 15 -6 0 -7 8 -10 20 -7 11 3 18 1 14 -4
-5 -8 11 -11 74 -12 12 -1 22 -6 22 -11 0 -6 5 -4 10 4 8 13 11 13 22 1 11
-11 11 -13 -1 -6 -10 6 -12 4 -7 -4 6 -9 11 -9 24 1 9 7 13 8 9 2 -7 -12 52
-29 86 -25 9 1 17 -2 17 -7 0 -5 16 -8 35 -7 19 0 35 -2 35 -6 0 -4 7 -10 16
-13 8 -3 12 -2 9 4 -11 17 7 11 20 -7 11 -15 15 -16 31 -3 12 10 15 11 10 2
-6 -9 -1 -11 18 -8 15 3 26 0 26 -6 0 -6 9 -8 20 -5 10 3 21 0 23 -7 3 -8 9
-7 21 3 14 12 16 12 11 0 -4 -10 3 -14 20 -14 14 0 25 3 25 8 0 4 5 7 11 7 5
0 7 -5 4 -10 -3 -6 -1 -10 4 -10 6 0 11 6 11 13 0 8 4 7 11 -3 8 -11 12 -12
16 -2 2 6 14 12 24 12 14 0 18 4 13 13 -5 7 -1 7 10 -2 15 -13 19 -13 26 -1 5
8 6 18 3 24 -3 5 -1 6 4 3 12 -8 46 27 36 36 -3 4 0 7 8 7 12 0 11 2 -1 10
-13 9 -13 11 0 20 8 5 16 20 18 32 1 13 3 29 4 36 1 6 6 12 11 12 5 0 3 8 -4
17 -12 14 -12 16 0 8 11 -6 13 -2 9 19 -3 14 -2 26 2 26 4 0 7 10 6 22 -1 13
4 34 10 46 7 13 10 37 7 53 -2 16 0 29 5 29 5 0 12 11 14 25 3 14 2 25 -2 25
-4 0 -5 11 -2 25 2 14 9 25 14 25 5 0 6 -6 2 -12 -4 -7 -3 -9 2 -5 12 12 13
57 0 57 -6 0 -4 5 4 10 8 5 15 26 16 47 3 55 3 55 15 47 8 -5 9 -2 1 11 -7 14
-6 22 4 33 16 15 19 36 4 27 -7 -4 -7 2 -1 18 6 14 7 28 4 31 -4 3 -2 6 3 6 5
0 11 11 12 25 1 14 -2 25 -6 25 -4 0 -8 12 -7 27 0 36 -60 103 -93 103 -15 0
-21 4 -16 12 5 8 2 9 -9 5 -10 -3 -17 -3 -17 2 0 8 -51 22 -96 26 -11 1 -27 5
-34 10 -9 6 -11 4 -5 -4 5 -9 3 -10 -11 -2 -35 18 -84 30 -84 20 0 -6 -7 -6
-17 -1 -10 5 -24 7 -32 4 -8 -3 -11 0 -7 6 8 13 -57 28 -73 17 -6 -3 -11 -1
-11 6 0 7 -10 9 -25 7 -14 -3 -28 -1 -31 4 -3 5 -13 7 -21 4 -8 -3 -11 -2 -8
4 3 5 -12 8 -35 6 -22 -2 -40 1 -40 6 0 5 -4 7 -9 4 -5 -4 -11 -1 -13 6 -3 7
-23 12 -46 12 -23 1 -42 5 -42 9 0 13 -44 3 -58 -13 -10 -13 -11 -13 -6 3 7
20 3 22 -14 5z m387 -103 c188 -41 350 -80 358 -87 9 -7 22 -27 29 -45 13 -29
8 -59 -56 -355 -38 -178 -75 -336 -81 -351 -15 -36 -46 -57 -85 -57 -32 0
-610 122 -671 141 -43 14 -73 53 -73 96 0 63 138 674 157 695 17 20 47 36 68
37 6 1 165 -33 354 -74z"/>
<path d="M567 871 c-38 -41 -118 -165 -186 -290 -48 -86 -60 -116 -51 -125 9
-8 16 -5 31 13 25 30 54 22 45 -14 -13 -52 32 -21 53 36 l16 43 60 -2 c115 -5
115 -5 115 -77 0 -40 5 -67 13 -74 11 -8 13 -5 9 19 -2 17 0 30 6 30 6 0 17 3
26 6 12 5 16 0 16 -19 0 -37 10 -57 28 -57 13 0 14 14 8 108 -7 120 -30 282
-49 356 -13 49 -14 50 -65 61 -49 12 -52 11 -75 -14z"/>
</g>
</svg>
