<?xml version="1.0" standalone="no"?>
<!DOCTYPE svg PUBLIC "-//W3C//DTD SVG 20010904//EN"
 "http://www.w3.org/TR/2001/REC-SVG-20010904/DTD/svg10.dtd">
<svg version="1.0" xmlns="http://www.w3.org/2000/svg"
 width="133.000000pt" height="133.000000pt" viewBox="0 0 133.000000 133.000000"
 preserveAspectRatio="xMidYMid meet">
<metadata>
Created by potrace 1.16, written by Peter Selinger 2001-2019
</metadata>
<g transform="translate(0.000000,133.000000) scale(0.100000,-0.100000)"
fill="#000000" stroke="none">
<path d="M620 1298 c0 -4 -6 -5 -14 -2 -8 3 -17 0 -21 -5 -3 -6 -10 -9 -15 -6
-5 3 -24 -13 -43 -35 -18 -22 -39 -40 -46 -40 -7 0 -9 -4 -6 -10 3 -5 1 -10
-5 -10 -6 0 -8 -5 -5 -10 4 -6 3 -9 -2 -8 -5 2 -21 -7 -37 -19 -16 -13 -23
-23 -16 -23 7 0 10 -3 6 -7 -4 -4 -15 -8 -24 -8 -10 0 -18 -9 -20 -22 -2 -13
-9 -23 -17 -23 -7 0 -15 -5 -17 -11 -2 -5 -12 -11 -23 -13 -13 -2 -22 -13 -25
-32 -3 -16 -9 -28 -15 -26 -5 2 -12 -5 -16 -15 -5 -12 -8 -13 -8 -4 -1 11 -5
10 -15 -4 -8 -11 -12 -23 -10 -27 5 -8 -11 -12 -29 -9 -5 1 -6 -3 -3 -8 8 -12
-18 -33 -29 -23 -5 4 -5 -1 -2 -11 4 -10 3 -16 -2 -12 -12 7 -70 -48 -109
-105 -31 -45 -39 -96 -19 -127 5 -8 3 -13 -3 -13 -6 0 -8 -5 -5 -10 4 -6 12
-7 18 -4 9 5 9 4 0 -6 -15 -16 -6 -40 13 -33 10 4 12 0 8 -11 -3 -9 -1 -16 4
-16 6 0 22 -18 35 -40 13 -22 27 -37 30 -33 4 3 7 1 7 -5 0 -6 9 -13 19 -17
11 -3 23 -15 26 -26 4 -13 12 -18 21 -15 10 4 14 0 12 -11 -2 -9 3 -18 11 -21
9 -3 11 0 6 8 -5 9 -4 11 4 6 6 -4 9 -12 5 -17 -7 -12 45 -68 64 -69 7 0 17
-11 24 -25 6 -13 15 -22 19 -19 5 3 9 1 9 -4 0 -14 41 -57 52 -54 5 1 7 -2 4
-7 -4 -5 13 -21 36 -35 24 -14 37 -26 30 -26 -7 0 -10 -5 -7 -10 4 -6 14 -9
23 -8 10 2 16 -3 14 -10 -3 -18 43 -65 59 -60 8 3 19 -1 24 -8 13 -16 60 -30
51 -15 -4 6 -2 11 3 11 6 0 11 -5 11 -10 0 -12 60 -3 74 11 6 5 18 9 28 9 9 0
22 8 27 18 6 9 11 14 11 10 0 -4 10 3 23 15 13 12 22 25 20 28 -1 4 9 14 22
23 14 9 23 21 20 26 -4 6 1 10 10 10 9 0 14 4 10 9 -3 5 -1 12 5 16 5 3 10 1
10 -4 0 -6 9 -3 19 6 11 9 18 20 15 25 -3 4 0 8 6 8 6 0 16 11 22 25 6 14 19
25 28 25 9 0 23 11 30 25 7 13 18 23 24 22 6 -1 10 4 9 11 -2 6 2 12 8 12 5 0
8 3 6 8 -3 4 5 16 16 27 11 12 17 14 13 5 -4 -8 -1 -6 8 5 30 39 37 45 46 40
6 -3 7 0 4 8 -3 8 6 21 21 31 14 9 23 22 19 28 -4 6 -3 8 3 5 5 -4 23 8 39 25
16 18 20 26 9 18 -11 -7 -8 -2 7 13 30 30 51 118 29 125 -6 2 -9 8 -6 12 8 13
-19 73 -41 90 -15 11 -16 11 -6 0 6 -8 12 -19 12 -25 0 -5 -10 6 -22 25 -28
44 -38 54 -61 63 -10 4 -16 11 -13 16 3 4 -4 17 -16 27 -12 11 -18 13 -13 5 6
-10 4 -12 -4 -7 -7 5 -10 15 -6 23 5 14 3 14 -12 2 -11 -9 -14 -10 -9 -1 4 7
1 15 -8 18 -9 3 -14 10 -11 15 7 11 -30 30 -40 21 -5 -4 -5 -1 -1 6 9 14 -12
45 -24 37 -5 -3 -11 4 -15 15 -3 11 -15 20 -26 20 -10 0 -18 3 -18 8 4 21 -3
32 -18 32 -9 0 -14 2 -11 5 6 6 -105 122 -113 118 -4 -1 -17 13 -30 32 -13 19
-31 34 -39 32 -8 -1 -21 4 -28 13 -8 8 -11 9 -7 3 4 -8 0 -13 -10 -13 -9 0
-13 5 -10 10 9 14 -18 12 -34 -2 -10 -9 -12 -9 -7 -1 4 8 -1 11 -14 10 -11 -1
-20 -5 -20 -9z m225 -448 l100 -100 -28 -27 -27 -28 -102 102 -102 102 24 26
c13 14 26 25 29 25 4 0 51 -45 106 -100z m-37 -161 c23 -10 42 -22 42 -27 0
-5 -11 -19 -25 -32 l-25 -24 -44 21 -43 21 -49 -49 -48 -49 21 -44 22 -44 -25
-23 c-13 -12 -26 -20 -28 -18 -3 2 -43 83 -91 178 l-86 174 32 33 31 32 137
-65 c75 -36 155 -73 179 -84z"/>
</g>
</svg>
