<?xml version="1.0" standalone="no"?>
<!DOCTYPE svg PUBLIC "-//W3C//DTD SVG 20010904//EN"
 "http://www.w3.org/TR/2001/REC-SVG-20010904/DTD/svg10.dtd">
<svg version="1.0" xmlns="http://www.w3.org/2000/svg"
 width="119.000000pt" height="119.000000pt" viewBox="0 0 119.000000 119.000000"
 preserveAspectRatio="xMidYMid meet">
<metadata>
Created by potrace 1.16, written by Peter Selinger 2001-2019
</metadata>
<g transform="translate(0.000000,119.000000) scale(0.100000,-0.100000)"
fill="#000000" stroke="none">
<path d="M291 1157 c-7 -7 -15 -13 -19 -13 -34 -7 -52 -19 -48 -31 3 -8 1 -11
-4 -8 -16 10 -37 -18 -32 -43 3 -16 1 -23 -6 -19 -5 4 -13 0 -16 -9 -3 -8 -2
-12 4 -9 6 3 7 -1 4 -9 -3 -9 -9 -14 -13 -11 -4 2 -8 -2 -8 -10 0 -8 4 -12 9
-9 13 8 9 -10 -8 -34 -8 -12 -14 -32 -13 -45 2 -12 1 -26 -2 -32 -4 -5 -10
-28 -14 -50 -4 -22 -10 -44 -13 -50 -11 -17 -11 -35 0 -35 5 0 2 -7 -7 -16
-11 -12 -13 -20 -5 -29 7 -9 6 -16 -5 -25 -13 -11 -13 -15 -3 -21 9 -6 9 -9 1
-9 -6 0 -10 -11 -9 -25 2 -14 -3 -30 -10 -36 -8 -6 -14 -17 -14 -23 0 -6 5 -4
10 4 5 8 10 10 10 4 0 -5 -5 -15 -10 -20 -6 -6 -12 -25 -13 -42 -1 -18 -5 -32
-8 -32 -4 0 -6 -15 -5 -34 1 -19 -2 -32 -6 -30 -8 5 -16 -26 -17 -65 0 -13 7
-30 15 -38 7 -8 14 -24 14 -35 0 -25 49 -78 72 -78 10 0 18 -4 18 -9 0 -5 7
-12 16 -15 14 -5 15 -4 5 8 -10 12 -9 14 8 9 12 -3 18 -10 14 -16 -3 -6 -1 -7
6 -3 6 4 18 2 26 -4 8 -6 19 -9 25 -5 5 3 10 1 10 -6 0 -7 11 -10 30 -7 17 3
30 1 30 -4 0 -4 5 -8 11 -8 5 0 7 6 3 13 -6 9 -5 9 8 0 8 -7 18 -9 22 -5 4 4
13 0 19 -9 12 -16 61 -30 105 -29 12 0 22 -4 22 -8 0 -4 24 -8 52 -9 29 -1 54
-6 56 -12 4 -12 38 -15 45 -3 2 4 2 1 1 -5 -3 -13 22 -13 43 0 9 6 11 3 6 -9
-5 -13 -2 -15 15 -9 14 4 22 2 22 -5 0 -8 6 -8 20 0 15 8 20 8 20 -1 0 -7 11
-9 30 -5 23 4 29 3 24 -7 -6 -9 -4 -9 8 1 13 10 17 10 22 0 5 -10 7 -10 12 0
3 6 15 12 25 12 11 0 18 4 15 8 -3 5 5 8 17 8 13 -1 21 4 20 11 -2 7 0 12 5
12 22 -4 32 3 32 21 0 11 6 20 13 20 8 0 7 3 -3 10 -12 8 -12 10 4 16 11 4 16
14 13 25 -3 11 -2 19 2 19 7 0 9 15 14 80 1 17 6 30 10 30 5 0 5 5 2 10 -3 6
-1 10 6 10 6 0 9 8 6 20 -3 11 -1 23 5 26 5 3 8 15 5 25 -3 11 -1 19 5 19 6 0
8 9 5 20 -3 11 -1 20 4 20 4 0 6 7 3 15 -4 9 -1 15 7 15 10 0 10 3 1 12 -18
18 -15 41 4 34 8 -3 13 -2 10 2 -2 4 -1 14 4 22 5 8 5 21 -1 31 -7 13 -5 21 8
29 13 8 15 13 5 17 -10 4 -10 8 -1 19 6 8 8 14 3 14 -5 0 -2 5 6 10 10 6 11
10 3 10 -7 0 -13 5 -13 11 0 5 4 8 9 5 5 -4 7 2 4 12 -2 11 4 27 14 37 13 13
14 20 5 23 -6 2 -12 11 -12 20 0 15 2 15 10 2 8 -12 10 -10 12 10 4 58 3 90
-3 90 -3 0 -6 7 -7 15 -1 8 -3 22 -4 30 -1 8 -5 12 -10 9 -4 -3 -8 1 -8 8 0
14 -53 48 -76 48 -9 0 -12 5 -8 12 5 8 0 9 -14 6 -13 -4 -22 -1 -22 5 0 7 -12
13 -28 14 -28 3 -67 10 -67 13 0 1 -10 3 -23 6 -16 3 -21 0 -16 -8 4 -6 -3 -4
-17 5 -13 9 -33 17 -44 17 -12 0 -27 6 -34 13 -10 10 -11 9 -5 -6 5 -13 2 -16
-10 -11 -9 3 -13 11 -10 16 4 6 -3 5 -15 -1 -17 -10 -20 -9 -15 4 7 18 -7 20
-25 3 -11 -11 -12 -10 -6 0 5 10 0 13 -21 10 -17 -2 -34 3 -40 12 -10 11 -15
12 -27 2 -11 -9 -17 -10 -22 -2 -11 18 -56 32 -69 21 -7 -6 -18 -6 -26 -1 -8
5 -18 6 -22 4 -4 -3 -8 -1 -8 4 0 16 -54 31 -73 20 -11 -5 -17 -5 -17 1 0 13
-66 11 -79 -2z m232 -287 c10 -9 61 -379 53 -387 -3 -3 -20 -2 -38 3 -29 9
-34 15 -39 52 -3 23 -7 44 -10 46 -3 3 -33 12 -68 20 l-62 15 -20 -32 c-10
-18 -19 -35 -19 -39 0 -10 -52 -10 -68 0 -9 6 13 50 83 165 52 87 95 162 95
168 0 12 79 3 93 -11z m223 -143 c4 -10 19 -13 52 -9 41 3 52 0 80 -23 38 -32
41 -66 13 -190 -16 -72 -20 -80 -42 -83 -47 -5 -51 7 -30 102 25 112 17 136
-41 136 -33 0 -35 -2 -53 -91 -26 -128 -22 -120 -53 -113 -15 4 -30 10 -34 13
-4 4 5 66 20 139 27 131 27 132 55 132 15 0 30 -6 33 -13z"/>
</g>
</svg>
