<?xml version="1.0" standalone="no"?>
<!DOCTYPE svg PUBLIC "-//W3C//DTD SVG 20010904//EN"
 "http://www.w3.org/TR/2001/REC-SVG-20010904/DTD/svg10.dtd">
<svg version="1.0" xmlns="http://www.w3.org/2000/svg"
 width="480.000000pt" height="482.000000pt" viewBox="0 0 480.000000 482.000000"
 preserveAspectRatio="xMidYMid meet">
<metadata>
Created by potrace 1.16, written by Peter Selinger 2001-2019
</metadata>
<g transform="translate(0.000000,482.000000) scale(0.100000,-0.100000)"
fill="#000000" stroke="none">
<path d="M1970 4800 c-125 -25 -205 -48 -265 -75 -30 -14 -65 -29 -79 -35 -39
-15 -188 -116 -220 -149 -37 -39 -47 -39 -69 0 -16 29 -21 31 -54 26 -20 -4
-53 -18 -74 -32 -59 -42 -230 -223 -278 -297 -35 -54 -50 -67 -76 -72 -40 -8
-75 -50 -115 -139 -68 -152 -80 -289 -41 -467 12 -52 21 -110 21 -130 0 -63
51 -213 98 -288 10 -16 14 -48 13 -100 -2 -125 32 -525 48 -550 3 -6 18 -13
32 -17 22 -5 28 -2 39 24 7 17 15 31 19 31 4 0 27 -20 51 -45 63 -64 79 -59
108 35 33 107 95 293 126 376 20 57 28 101 35 220 12 187 34 289 70 322 166
155 286 203 560 223 216 16 244 12 322 -40 35 -24 80 -58 99 -76 75 -70 135
-83 162 -35 30 53 57 42 167 -64 95 -92 141 -120 163 -98 19 19 -3 69 -67 146
-63 75 -73 106 -35 106 64 0 170 -144 286 -387 l74 -154 -38 8 c-87 19 -219
-3 -264 -44 -21 -19 -23 -62 -4 -88 13 -19 16 -19 100 9 97 33 165 32 232 -2
22 -10 44 -18 49 -15 7 2 18 -43 29 -109 27 -171 55 -320 61 -326 8 -8 6 14
-10 107 -8 47 -24 149 -35 226 -12 77 -23 147 -26 156 -3 12 4 19 23 24 15 3
37 17 49 30 22 23 44 100 44 151 0 15 12 38 30 56 27 27 30 36 30 94 0 61 1
64 24 64 13 0 35 9 50 21 23 18 26 28 26 77 0 30 5 71 12 89 10 28 9 45 -5
101 -16 61 -16 68 -2 78 30 22 23 86 -18 166 -37 72 -37 73 -17 88 31 23 42
76 25 111 -16 30 -75 74 -137 104 -43 20 -47 31 -17 40 45 15 76 110 47 147
-16 19 -71 38 -109 38 -36 0 -37 12 -3 39 21 16 28 32 31 69 4 41 2 50 -22 72
-25 24 -32 25 -133 23 -59 -1 -145 -9 -192 -17 -47 -9 -89 -16 -93 -16 -11 0
3 41 19 58 21 20 18 102 -3 118 -25 19 -205 18 -299 -2 -42 -8 -113 -26 -157
-40 -132 -41 -127 -40 -127 -10 0 59 -12 66 -113 65 -51 -1 -130 -9 -177 -19z"/>
<path d="M2015 3009 c-98 -9 -204 -39 -304 -85 -94 -43 -124 -69 -110 -95 13
-26 42 -24 140 10 99 34 231 61 302 61 28 0 89 -5 135 -12 l84 -12 24 27 c48
57 20 92 -81 102 -33 3 -71 7 -85 9 -14 1 -61 -1 -105 -5z"/>
<path d="M2820 2882 c-103 -52 -128 -94 -132 -222 -3 -106 18 -150 85 -174 89
-32 112 -30 155 9 22 19 44 35 50 35 18 0 24 -18 12 -40 -8 -14 -8 -20 0 -20
17 0 50 81 50 124 0 77 -74 176 -132 176 -32 0 -19 19 18 26 94 18 174 -22
220 -110 47 -91 78 -61 33 32 -43 88 -151 129 -261 98 -80 -22 -134 -58 -166
-111 -15 -25 -31 -45 -36 -45 -5 0 -6 21 -3 46 6 58 53 108 146 158 64 35 65
35 31 35 -19 0 -51 -8 -70 -17z"/>
<path d="M1885 2726 c-122 -39 -224 -140 -225 -223 0 -36 16 -27 29 16 6 22
32 61 57 88 25 26 34 33 20 15 -33 -43 -49 -105 -41 -158 5 -38 10 -44 53 -62
26 -11 75 -26 109 -32 l63 -13 44 37 c24 20 49 36 55 36 14 0 14 -26 0 -52 -9
-16 -8 -19 2 -16 7 2 23 24 36 48 72 135 -40 294 -196 277 l-46 -4 35 15 c20
9 64 15 105 16 125 0 209 -54 266 -171 l28 -58 1 42 c0 54 -11 82 -52 128 -52
60 -117 85 -218 84 -47 0 -103 -6 -125 -13z"/>
<path d="M1084 2417 c-16 -14 -28 -36 -30 -57 -5 -46 29 -246 66 -387 17 -62
30 -118 30 -125 0 -7 -20 -24 -43 -37 -35 -19 -52 -22 -82 -17 -57 11 -130 90
-188 204 -26 51 -47 88 -47 81 0 -23 96 -193 133 -235 22 -25 56 -50 82 -59
41 -16 47 -16 86 -1 37 15 44 15 63 2 36 -26 51 -40 66 -62 69 -100 311 -297
486 -397 99 -56 168 -85 314 -131 338 -108 732 -86 926 52 67 48 126 121 205
257 181 309 237 498 196 658 -9 34 -18 71 -20 82 -3 11 -5 -28 -6 -87 -1 -94
-4 -111 -21 -128 -33 -33 -81 -30 -162 11 -70 35 -137 38 -230 9 -84 -26 -97
-25 -65 4 14 13 31 43 37 66 11 43 7 69 -5 31 -17 -54 -202 -111 -300 -92 -27
5 -53 7 -58 4 -16 -10 36 -53 72 -60 32 -7 28 -9 -39 -14 -41 -4 -144 -7 -227
-8 -176 -1 -207 -10 -315 -84 -79 -54 -119 -67 -206 -67 -137 0 -299 85 -430
225 -79 85 -129 166 -179 292 -41 104 -57 114 -109 70z m1913 -451 c-30 -23
-284 -83 -437 -104 -116 -15 -380 -3 -380 18 0 4 87 11 193 14 264 10 373 21
507 55 135 34 141 35 117 17z m93 -87 c22 -81 -18 -197 -93 -272 -57 -57 -98
-68 -140 -37 -30 23 -31 23 -101 7 -39 -9 -91 -20 -116 -23 -51 -8 -74 -17
-112 -50 -39 -32 -95 -39 -167 -20 -126 32 -199 85 -247 178 -28 54 -30 94
-10 143 16 37 30 44 39 21 3 -8 17 -22 31 -31 23 -15 26 -15 44 3 24 24 77 28
398 37 175 4 213 3 223 -9 10 -11 6 -16 -16 -25 -28 -11 -28 -11 6 -6 29 4 33
3 28 -15 -4 -17 -2 -18 16 -8 43 23 114 99 138 147 l24 50 22 -24 c12 -14 27
-44 33 -66z"/>
</g>
</svg>
