<?xml version="1.0" standalone="no"?>
<!DOCTYPE svg PUBLIC "-//W3C//DTD SVG 20010904//EN"
 "http://www.w3.org/TR/2001/REC-SVG-20010904/DTD/svg10.dtd">
<svg version="1.0" xmlns="http://www.w3.org/2000/svg"
 width="474.000000pt" height="388.000000pt" viewBox="0 0 474.000000 388.000000"
 preserveAspectRatio="xMidYMid meet">
<metadata>
Created by potrace 1.16, written by Peter Selinger 2001-2019
</metadata>
<g transform="translate(0.000000,388.000000) scale(0.100000,-0.100000)"
fill="#000000" stroke="none">
<path d="M526 3794 c-3 -7 0 -14 6 -16 7 -3 8 -10 4 -17 -6 -9 -11 -10 -15 -2
-4 5 -17 8 -29 4 -18 -4 -20 -8 -11 -19 10 -12 8 -13 -6 -8 -14 6 -16 4 -10
-6 5 -8 4 -11 -2 -7 -6 4 -16 0 -23 -8 -7 -8 -17 -12 -23 -8 -6 3 -7 1 -3 -5
4 -7 2 -12 -3 -12 -6 0 -11 -5 -11 -11 0 -5 4 -8 9 -4 5 3 12 1 16 -5 4 -6 11
-7 17 -4 7 4 8 2 4 -4 -7 -11 -31 -7 -52 9 -6 5 -14 7 -17 4 -4 -3 -5 -2 -2 1
2 4 -3 13 -11 21 -11 11 -18 12 -28 4 -7 -6 -16 -8 -20 -4 -4 4 -4 0 0 -10 3
-9 14 -17 23 -18 12 0 11 -2 -4 -8 -11 -5 -23 -7 -27 -5 -4 3 -9 0 -13 -6 -3
-5 -1 -10 4 -10 6 0 11 -4 11 -10 0 -5 -7 -7 -15 -4 -10 4 -14 14 -10 28 5 18
4 19 -7 6 -18 -20 -46 -27 -30 -7 7 8 9 17 5 21 -4 4 8 5 27 2 19 -3 30 -3 23
0 -7 3 -9 13 -6 22 5 14 3 15 -8 5 -16 -15 -33 -17 -24 -3 3 6 1 10 -5 10 -6
0 -16 -13 -21 -30 -7 -18 -16 -27 -22 -23 -7 3 -9 2 -4 -2 4 -5 -3 -19 -15
-32 -16 -17 -19 -26 -11 -34 14 -14 45 -8 51 10 3 8 0 11 -7 7 -6 -4 -11 -3
-11 2 0 6 7 13 16 16 25 10 13 -37 -13 -49 -25 -11 -30 -30 -10 -39 6 -3 3 -4
-8 -3 -12 2 -19 10 -19 19 1 9 -5 19 -12 22 -8 3 -14 -2 -15 -12 -1 -9 -2 -28
-2 -42 -1 -16 -8 -25 -17 -24 -9 1 -17 -8 -17 -18 -2 -16 1 -17 13 -7 12 10
13 9 8 -6 -6 -14 -4 -16 6 -10 9 6 11 4 6 -4 -5 -7 -14 -10 -22 -7 -8 3 -14
-1 -14 -8 0 -8 -6 -17 -12 -20 -10 -3 -8 -9 4 -19 10 -8 18 -17 18 -20 0 -7
-22 -3 -38 7 -7 4 -16 5 -19 2 -4 -3 -1 -6 4 -6 7 0 9 -12 7 -30 -4 -22 -1
-30 10 -30 9 0 13 -8 12 -24 -2 -14 3 -27 10 -30 8 -3 14 -13 14 -23 -1 -17
-1 -17 -14 -1 -7 10 -16 15 -19 11 -4 -3 -5 3 -3 14 3 11 0 26 -6 34 -8 11 -9
11 -4 -3 3 -10 2 -20 -3 -22 -13 -8 -5 -51 9 -48 8 2 10 -3 6 -13 -3 -9 -6
-24 -7 -33 0 -14 -2 -13 -10 3 -6 14 -7 6 -3 -25 3 -25 14 -54 23 -65 15 -18
15 -19 -1 -7 -12 10 -18 10 -24 1 -4 -7 -3 -9 2 -6 6 3 15 -3 22 -13 9 -14 9
-21 0 -26 -7 -5 -8 -2 -3 7 7 12 6 12 -7 1 -9 -7 -15 -21 -13 -30 2 -9 4 -17
5 -17 1 0 3 -8 5 -17 2 -10 -2 -18 -8 -18 -7 0 -5 -5 3 -10 19 -12 33 -13 25
-1 -3 6 4 8 15 6 11 -2 18 0 15 5 -3 5 -1 11 5 15 11 7 13 -5 4 -29 -3 -8 -12
-12 -21 -9 -12 5 -14 3 -7 -8 12 -20 15 -49 5 -49 -5 0 -16 -3 -25 -6 -9 -3
-16 -1 -16 6 0 6 5 8 10 5 6 -3 10 -3 11 2 0 4 2 16 4 25 3 18 -21 33 -30 18
-4 -6 -1 -10 5 -10 8 0 8 -6 0 -21 -9 -16 -8 -24 4 -38 14 -16 14 -19 0 -33
-21 -21 -10 -38 24 -39 24 -1 23 -3 -8 -9 -19 -4 -29 -8 -22 -9 15 -1 16 -33
1 -48 -7 -7 -3 -10 14 -8 27 3 55 -29 35 -41 -6 -4 -8 -3 -4 4 3 6 2 13 -3 16
-5 4 -12 -8 -16 -25 -5 -20 -10 -27 -15 -19 -5 8 -9 7 -14 -6 -9 -25 -2 -27
31 -10 25 12 30 13 30 1 0 -8 -3 -12 -6 -10 -4 2 -17 -3 -31 -12 -24 -13 -24
-14 -2 -10 15 4 22 0 22 -10 0 -9 -6 -13 -15 -9 -10 3 -15 -1 -15 -12 0 -15
-2 -15 -10 -2 -6 9 -10 10 -10 3 0 -6 4 -14 9 -17 5 -3 7 -16 3 -28 -3 -15 -2
-19 7 -14 7 4 11 17 9 28 -4 27 18 35 24 10 3 -11 -4 -28 -18 -41 -13 -13 -25
-31 -25 -40 -4 -51 -3 -81 1 -81 3 0 5 -15 4 -33 -1 -22 3 -34 11 -34 7 0 11
6 8 14 -3 7 -1 13 4 13 5 0 9 -9 10 -20 1 -11 -4 -20 -11 -20 -8 0 -19 -7 -26
-15 -10 -13 -11 -18 -1 -28 10 -9 11 -8 5 8 -7 18 -6 19 11 5 11 -9 16 -10 11
-2 -4 6 -2 12 3 12 6 0 11 -5 11 -11 0 -16 -26 -39 -35 -31 -5 4 -5 1 -1 -6 6
-11 11 -11 24 0 12 10 14 10 8 1 -7 -12 5 -18 28 -14 5 1 4 -4 -2 -12 -7 -8
-10 -21 -6 -30 3 -8 0 -18 -7 -23 -8 -4 -10 -3 -5 4 4 7 2 12 -4 12 -6 0 -8 5
-4 12 5 8 2 9 -9 5 -10 -3 -17 -2 -17 3 0 6 5 10 10 10 6 0 10 4 10 9 0 5 -7
8 -16 7 -12 -2 -17 -15 -18 -55 -1 -29 2 -55 6 -57 5 -3 8 0 8 5 0 6 5 11 10
11 15 0 12 -16 -5 -34 -20 -20 -21 -43 0 -26 15 13 15 13 29 -33 2 -8 -2 -14
-9 -14 -7 0 -11 6 -8 14 3 7 -1 13 -10 13 -10 0 -14 -10 -13 -30 0 -17 4 -30
8 -30 4 0 5 -7 1 -16 -4 -10 -8 -12 -12 -5 -4 6 -7 -4 -7 -23 0 -28 2 -31 14
-20 7 8 17 14 21 14 10 0 31 -22 31 -34 0 -5 -7 -1 -15 10 -19 25 -19 5 0 -23
10 -14 12 -24 5 -28 -6 -4 -15 8 -21 25 l-11 31 -12 -23 c-12 -23 -2 -43 16
-32 4 3 8 -2 8 -11 0 -9 4 -14 9 -10 6 3 15 -3 20 -14 8 -14 7 -20 -3 -24 -9
-4 -12 0 -9 13 4 15 1 18 -18 13 -15 -4 -20 -3 -15 5 4 7 2 12 -5 12 -6 0 -9
-8 -6 -20 3 -10 0 -21 -7 -24 -7 -3 -7 -5 2 -5 7 -1 10 -5 7 -11 -3 -5 -1 -10
4 -10 6 0 11 -5 11 -11 0 -5 -4 -7 -10 -4 -5 3 -10 1 -10 -5 0 -6 13 -13 30
-16 16 -4 30 -10 30 -15 0 -5 -7 -6 -16 -2 -12 4 -15 2 -12 -8 3 -8 14 -13 24
-11 14 2 16 1 5 -6 -10 -7 -10 -11 -1 -17 6 -4 9 -13 6 -21 -3 -8 -1 -14 5
-14 6 0 7 -4 4 -10 -3 -5 -1 -10 6 -10 7 0 10 -3 7 -6 -4 -3 -16 0 -28 6 -16
8 -19 15 -11 24 8 10 6 20 -9 39 -11 14 -20 31 -20 38 0 27 -11 -1 -16 -40 -3
-29 -1 -40 7 -39 7 2 13 -9 14 -23 1 -14 5 -31 9 -37 4 -7 2 -12 -3 -12 -6 0
-11 -4 -11 -9 0 -6 12 -6 31 -1 22 7 29 6 26 -3 -2 -6 -20 -12 -40 -13 -30 -2
-35 0 -31 14 5 14 4 15 -4 2 -13 -17 2 -40 27 -41 10 0 12 -2 3 -6 -6 -2 -10
-9 -6 -14 3 -5 -1 -9 -8 -9 -8 0 -14 -9 -14 -20 0 -11 5 -20 11 -20 5 0 3 -5
-5 -10 -8 -5 -10 -10 -5 -10 6 0 3 -5 -5 -11 -10 -7 -11 -12 -4 -15 7 -3 9
-14 6 -26 -3 -14 -1 -19 6 -15 5 4 12 1 15 -5 3 -10 8 -10 18 1 9 9 9 11 1 7
-6 -4 -12 -2 -12 3 0 19 19 12 31 -10 7 -14 7 -19 0 -15 -6 4 -18 -2 -28 -14
-10 -11 -22 -20 -28 -20 -14 0 -19 -66 -6 -74 14 -9 24 13 13 27 -6 8 -3 18
10 32 19 20 19 20 9 -9 -10 -25 -9 -27 5 -22 15 6 15 4 3 -11 -7 -10 -22 -26
-34 -35 -11 -10 -15 -18 -10 -18 6 0 11 -11 11 -25 1 -16 -2 -23 -10 -19 -6 3
-1 -3 12 -15 13 -11 18 -22 12 -26 -5 -3 -10 -11 -10 -16 0 -6 4 -7 10 -4 5 3
10 -1 10 -10 0 -10 5 -13 12 -9 7 4 8 3 4 -4 -4 -7 -2 -12 3 -12 6 0 11 -5 11
-11 0 -6 -5 -7 -12 -2 -24 14 -48 13 -48 -3 0 -8 4 -13 9 -10 5 3 11 -1 15 -9
3 -8 11 -15 17 -15 8 0 7 6 -2 18 -13 15 -12 16 4 3 13 -11 15 -17 6 -28 -9
-11 -9 -12 4 -8 8 4 17 2 20 -2 3 -5 -4 -10 -15 -10 -29 -3 -33 -10 -17 -30
12 -16 11 -17 -4 -3 -9 9 -18 28 -19 43 -3 37 -18 34 -18 -4 0 -17 8 -38 18
-47 9 -10 13 -14 8 -9 -18 13 -32 7 -33 -13 -1 -11 1 -20 5 -20 9 0 8 -72 -1
-87 -5 -7 -4 -13 2 -13 5 0 7 -13 5 -29 -4 -23 -1 -30 18 -34 21 -5 21 -5 5 7
-15 12 -15 15 -2 26 14 12 17 8 14 -16 0 -3 7 -11 17 -18 13 -10 14 -15 4 -21
-9 -5 -11 -4 -6 3 4 7 3 12 -3 12 -6 0 -15 -9 -20 -19 -8 -14 -7 -20 4 -25 8
-3 15 -13 15 -23 -1 -17 -1 -17 -14 -1 -7 10 -16 15 -19 11 -4 -3 -5 3 -3 14
3 11 0 26 -6 34 -8 11 -9 11 -4 -3 3 -10 2 -20 -3 -22 -13 -8 -5 -51 9 -48 8
2 10 -3 6 -13 -3 -9 -6 -24 -7 -33 0 -14 -2 -13 -10 3 -6 14 -7 6 -3 -25 10
-71 13 -81 25 -96 6 -8 8 -14 4 -14 -4 0 -2 -7 5 -15 14 -16 34 -10 24 7 -4 7
-2 8 5 4 9 -6 8 -14 -4 -32 -8 -13 -13 -25 -10 -25 3 -1 10 -3 15 -4 6 -1 12
-3 15 -4 3 0 -2 -16 -11 -33 -16 -32 -16 -32 1 -18 16 14 17 13 11 -7 -4 -14
-1 -27 11 -39 10 -10 18 -21 18 -25 0 -4 3 -10 7 -14 4 -4 4 -13 1 -21 -4 -10
0 -12 13 -7 14 5 16 3 11 -11 -4 -10 -3 -15 3 -11 16 10 12 25 -12 46 -13 10
-17 18 -10 19 6 0 12 -5 12 -11 0 -6 8 -9 18 -7 14 4 18 0 16 -21 -1 -14 -2
-26 -3 -26 -2 0 -4 -7 -6 -16 -2 -12 4 -17 23 -17 l25 0 -24 14 c-19 11 -20
13 -6 14 15 0 16 3 6 23 -10 20 -10 20 4 7 16 -15 32 -84 18 -75 -4 2 -8 -2
-8 -9 0 -7 9 -11 22 -8 12 2 27 -4 34 -12 14 -17 36 -22 26 -7 -3 5 -1 12 5
16 5 3 10 11 10 16 0 6 -5 7 -10 4 -9 -6 -14 8 -11 28 1 5 -4 5 -11 1 -10 -5
-10 -4 0 7 11 12 15 11 24 -5 8 -15 12 -16 19 -5 6 10 8 7 7 -11 -2 -14 -10
-31 -18 -38 -13 -12 -12 -13 5 -7 41 15 63 17 70 5 5 -8 11 -6 19 6 11 15 14
15 28 1 14 -14 18 -14 37 5 12 11 25 17 29 13 4 -4 1 -10 -6 -12 -11 -4 -10
-8 2 -22 11 -12 12 -20 5 -31 -9 -12 -10 -12 -5 3 4 12 2 17 -6 14 -7 -2 -12
-9 -11 -14 1 -5 -7 -9 -17 -8 -22 1 -39 14 -22 16 7 1 17 2 24 3 13 1 24 26
11 26 -5 0 -15 -6 -22 -12 -10 -11 -15 -9 -27 6 -11 16 -14 17 -14 4 0 -9 6
-19 13 -21 6 -3 4 -6 -7 -6 -10 -1 -24 7 -31 16 -12 16 -15 16 -47 1 l-33 -16
25 -10 c17 -6 29 -6 37 0 9 7 13 7 13 0 0 -5 10 -8 22 -4 15 3 19 2 14 -7 -5
-8 0 -10 18 -7 16 3 25 0 23 -7 -1 -7 5 -10 13 -8 8 2 26 4 40 5 34 2 50 14
43 31 -3 8 -1 15 5 15 5 0 9 -8 9 -18 0 -9 4 -27 8 -40 6 -18 10 -20 21 -11
19 16 18 40 -1 33 -8 -4 -15 -1 -15 7 0 7 3 9 7 6 7 -8 33 11 33 25 0 6 -6 8
-14 5 -10 -4 -12 0 -8 16 3 12 7 16 10 9 2 -7 7 -10 11 -8 4 3 8 -5 8 -16 3
-28 10 -33 28 -18 12 10 15 10 15 -3 0 -8 3 -24 6 -34 5 -17 5 -17 -9 0 -15
18 -28 23 -26 10 3 -20 -2 -27 -11 -13 -7 12 -9 10 -7 -7 0 -12 6 -19 11 -16
11 7 133 6 145 -1 4 -3 8 1 8 9 0 8 -5 11 -11 8 -7 -5 -7 -2 0 8 6 8 14 21 18
29 3 8 4 5 2 -7 -2 -13 0 -26 5 -29 5 -3 7 -8 5 -12 -2 -4 11 -7 29 -7 27 -1
32 2 23 12 -6 8 -8 16 -4 20 3 3 6 2 6 -4 0 -6 7 -14 16 -17 8 -3 13 -2 9 3
-9 15 6 41 24 40 10 0 11 -2 3 -6 -6 -2 -9 -10 -6 -15 5 -7 2 -8 -7 -4 -8 4
-6 1 3 -7 10 -8 14 -18 10 -22 -4 -5 -2 -5 5 -1 7 4 10 14 7 24 -5 15 -4 15 6
-1 6 -9 15 -15 21 -12 5 4 9 1 9 -6 0 -7 3 -10 6 -7 3 4 -2 18 -11 32 -15 23
-15 26 -2 26 9 0 19 -5 22 -10 4 -6 9 -9 13 -6 4 2 16 0 27 -5 18 -8 18 -8 -4
-6 -13 1 -26 -3 -28 -10 -6 -16 41 -11 62 7 13 11 15 10 9 -4 -3 -9 -1 -16 5
-16 6 0 11 5 11 10 0 7 6 7 19 0 25 -13 31 -13 31 0 0 6 -6 10 -14 10 -8 0
-16 5 -18 11 -2 5 -11 11 -20 13 -10 1 -21 6 -25 11 -4 4 -2 5 5 1 6 -4 12 -2
12 4 0 6 7 4 16 -5 12 -12 19 -13 24 -5 5 8 9 4 13 -9 3 -14 10 -19 21 -15 10
4 16 1 16 -8 0 -7 9 -14 20 -15 17 -2 20 2 15 20 -4 15 -3 18 3 9 5 -8 12 -13
16 -13 19 3 26 0 23 -11 -2 -11 72 -15 147 -9 4 1 6 10 3 21 -3 11 -1 18 3 15
5 -3 13 2 18 11 8 14 10 12 10 -11 0 -20 -3 -23 -10 -14 -7 11 -8 9 -6 -6 3
-21 22 -26 50 -13 9 4 18 4 20 -2 2 -6 14 -4 30 4 15 8 29 11 31 8 2 -4 2 -2
1 5 -2 7 1 15 6 18 6 4 10 -3 10 -14 0 -12 4 -21 8 -21 10 0 9 30 0 45 -3 6 1
16 9 24 13 12 14 11 8 -8 -8 -27 6 -27 23 0 7 12 16 18 20 15 8 -9 12 -37 3
-32 -3 2 -17 -2 -31 -10 -14 -7 -19 -13 -12 -14 7 0 11 -4 7 -9 -3 -5 0 -13 6
-17 8 -4 9 -3 5 4 -4 7 -2 12 3 12 6 0 11 -5 11 -12 0 -6 3 -8 6 -5 4 4 1 13
-6 22 -17 20 -8 19 35 -5 19 -11 35 -15 35 -9 0 6 8 6 21 -2 17 -8 23 -8 30 2
6 10 11 10 22 1 12 -10 16 -9 21 3 3 9 2 14 -2 11 -5 -3 -9 1 -9 9 0 8 8 12
19 10 11 -2 22 2 25 10 7 19 20 19 20 0 0 -8 -2 -13 -5 -10 -2 2 -11 -3 -20
-11 -21 -21 -2 -40 26 -25 10 6 23 7 27 3 5 -4 5 -1 1 6 -4 6 -2 12 4 12 6 0
9 4 5 9 -3 6 7 8 22 5 25 -4 26 -3 11 10 -10 7 -18 17 -18 21 0 5 9 0 20 -10
11 -10 17 -22 14 -27 -3 -5 6 -6 20 -2 17 4 26 2 26 -6 0 -6 -4 -8 -10 -5 -5
3 -10 2 -10 -4 0 -17 16 -21 49 -11 19 5 29 5 26 -1 -4 -5 -2 -9 4 -9 23 0 20
21 -5 30 -21 8 -29 7 -38 -5 -9 -13 -11 -12 -12 8 -1 15 6 26 22 34 13 6 24 7
24 2 0 -5 -5 -9 -11 -9 -5 0 -7 -5 -4 -10 3 -6 13 -10 21 -10 9 0 12 5 8 12
-4 7 -3 8 5 4 6 -4 9 -11 6 -15 -2 -5 5 -17 17 -27 14 -12 18 -14 13 -4 -8 13
-6 13 8 2 9 -8 22 -10 29 -6 7 5 21 7 30 6 16 -3 65 37 61 49 -1 3 4 6 12 6
10 0 11 -4 2 -19 -7 -10 -15 -18 -19 -18 -16 0 -7 -16 10 -17 9 -1 26 -2 37
-3 11 -1 29 1 40 3 11 2 27 0 35 -6 12 -9 13 -8 3 2 -16 18 12 50 29 33 11
-11 38 -5 38 8 0 5 -8 11 -17 13 -16 4 -16 5 -1 6 27 2 34 -21 10 -37 -25 -17
-28 -29 -7 -29 8 0 12 4 9 9 -3 4 0 8 5 8 6 0 11 -6 11 -12 0 -9 3 -8 9 2 6 8
7 18 5 22 -3 4 0 8 6 8 6 0 8 6 4 13 -4 7 -3 8 2 4 5 -5 9 -16 9 -24 0 -10 9
-17 26 -17 20 -1 25 2 21 14 -4 11 0 10 16 -4 22 -19 112 -32 112 -17 0 4 12
13 27 20 l28 13 -20 -24 c-11 -12 -13 -18 -6 -11 7 6 20 9 29 6 11 -5 13 -3 7
8 -5 8 2 5 16 -6 16 -13 19 -14 11 -3 -11 14 -10 18 5 27 10 6 12 11 6 11 -7
0 -13 4 -13 10 0 5 8 6 18 3 14 -6 15 -4 5 8 -10 13 -10 16 2 16 7 0 13 -5 12
-11 -1 -6 8 -15 21 -21 29 -13 30 -45 1 -38 -13 4 -17 8 -9 13 8 5 7 9 -3 13
-19 7 -32 -24 -15 -34 23 -15 78 -7 78 10 1 13 4 12 16 -4 15 -19 15 -19 10 8
-3 16 -11 36 -18 45 -8 10 -8 13 -1 9 6 -4 14 -1 16 5 3 7 6 1 7 -14 2 -16 3
-34 4 -40 1 -7 12 -12 24 -11 13 2 21 -1 18 -5 -3 -5 1 -9 9 -9 8 0 13 3 10 5
-3 3 1 12 8 21 11 14 10 14 -5 2 -16 -12 -18 -11 -18 3 0 11 7 16 18 14 11 -2
26 3 36 11 14 12 16 12 11 -1 -4 -9 1 -18 9 -21 11 -4 16 -1 16 10 0 15 2 15
13 -1 13 -17 14 -17 20 -2 5 12 -1 19 -20 27 -14 5 -23 12 -20 15 3 3 15 1 26
-6 12 -6 26 -8 31 -5 10 6 8 -30 -2 -40 -11 -11 -67 -14 -73 -4 -4 5 -11 9
-17 9 -6 0 -8 -3 -5 -7 4 -3 2 -11 -3 -18 -7 -8 -1 -11 20 -11 17 0 30 2 30 5
0 3 19 6 43 6 23 0 45 4 49 10 5 6 12 5 20 -4 11 -11 11 -13 -1 -6 -10 6 -12
4 -7 -4 6 -8 12 -9 20 -2 7 6 17 7 21 3 5 -4 5 1 2 10 -3 10 1 22 11 29 9 8
14 9 10 5 -4 -5 -3 -16 4 -23 9 -11 9 -17 -3 -24 -12 -7 -12 -9 2 -9 8 0 20 5
27 12 17 17 15 39 -3 32 -8 -4 -15 -1 -15 6 0 6 4 9 9 6 5 -3 14 1 21 10 10
11 15 12 21 3 6 -10 11 -10 23 0 13 11 16 11 16 -2 0 -8 3 -24 6 -34 5 -17 5
-17 -9 0 -15 18 -28 23 -26 9 3 -19 -2 -26 -11 -12 -7 12 -9 10 -7 -7 0 -12 6
-19 11 -16 11 7 133 6 145 -1 4 -3 8 1 8 9 0 8 -5 11 -11 8 -7 -5 -7 -2 0 8 6
8 14 21 18 29 3 8 4 5 2 -7 -2 -13 0 -26 5 -29 5 -3 7 -8 5 -12 -2 -4 11 -7
29 -7 27 -1 32 2 23 12 -6 8 -8 16 -4 20 3 3 6 2 6 -4 0 -6 7 -14 16 -17 8 -3
13 -2 9 3 -9 15 6 41 24 40 10 0 11 -2 3 -6 -6 -2 -9 -10 -6 -15 5 -7 2 -8 -7
-4 -8 4 -6 1 3 -7 10 -8 14 -18 10 -22 -4 -5 -2 -5 5 -1 7 4 10 14 7 24 -5 15
-4 15 6 -1 6 -9 15 -15 21 -12 5 4 9 1 9 -6 0 -7 3 -10 6 -7 3 4 -2 18 -11 32
-15 23 -15 26 -2 26 9 0 19 -5 22 -10 4 -6 9 -9 13 -6 4 2 16 0 27 -5 18 -8
18 -8 -4 -6 -13 1 -26 -3 -28 -10 -6 -16 41 -11 62 7 13 11 15 10 9 -4 -3 -9
-1 -16 5 -16 6 0 11 5 11 10 0 7 6 7 19 0 25 -13 31 -13 31 0 0 6 -6 10 -14
10 -8 0 -16 5 -18 11 -2 5 -11 11 -20 13 -10 1 -21 6 -25 11 -4 4 -2 5 5 1 6
-4 12 -2 12 4 0 6 7 4 16 -5 12 -12 19 -13 24 -5 5 8 9 4 13 -9 3 -14 10 -19
21 -15 10 4 16 1 16 -8 0 -7 9 -14 20 -15 17 -2 20 2 15 20 -4 15 -3 18 3 9 5
-8 12 -13 16 -13 19 3 26 0 23 -11 -2 -11 72 -15 147 -9 4 1 6 10 3 21 -3 11
-1 18 3 15 5 -3 13 2 18 11 8 14 10 12 10 -11 -1 -20 -3 -23 -10 -14 -7 11 -8
9 -6 -6 3 -21 22 -26 49 -14 11 6 15 18 12 36 -3 27 -3 27 8 6 6 -12 18 -24
27 -28 12 -4 12 -1 -2 20 -9 14 -12 25 -6 25 5 0 10 -5 10 -11 0 -6 8 -8 19
-4 13 4 23 0 29 -11 6 -10 12 -13 16 -6 3 6 2 13 -4 17 -20 12 16 33 50 29 36
-4 54 -14 26 -14 -9 0 -15 -4 -12 -8 2 -4 -4 -9 -15 -9 -12 -1 -19 5 -19 15 0
13 -2 14 -13 3 -10 -11 -9 -14 1 -18 6 -3 10 -8 8 -11 -2 -4 9 -7 26 -7 31 0
62 30 51 48 -3 6 -1 7 5 3 7 -4 12 -2 12 3 0 6 7 11 15 11 8 0 15 5 15 11 0 5
-6 7 -12 4 -7 -4 -2 3 12 14 30 25 40 26 40 5 0 -8 -4 -13 -9 -10 -9 6 -26
-22 -23 -36 1 -4 -4 -5 -12 -2 -7 3 -19 -3 -27 -12 -9 -12 -10 -15 -2 -10 8 4
13 2 13 -6 0 -8 3 -9 8 -3 9 13 32 18 32 7 0 -4 9 -8 20 -9 11 -1 19 4 17 10
-1 6 8 13 21 15 13 2 25 9 28 17 3 7 15 11 27 8 18 -4 19 -3 7 6 -9 6 -10 11
-3 11 14 0 43 28 43 40 0 5 -7 7 -15 4 -8 -4 -15 -13 -15 -21 0 -13 -3 -13
-15 -3 -17 14 -20 40 -5 40 5 0 7 -7 3 -16 -6 -15 -4 -15 19 0 13 9 28 13 31
9 4 -3 7 -1 7 5 0 7 -4 12 -10 12 -5 0 -10 5 -10 10 0 6 9 10 19 10 11 0 22 6
24 13 4 9 6 9 6 0 1 -7 5 -13 11 -13 5 0 7 6 4 14 -5 14 20 46 37 46 6 0 7 5
4 10 -4 6 -12 5 -21 -4 -15 -16 -48 -11 -38 5 3 5 10 7 15 4 5 -4 15 -3 22 2
6 4 17 8 22 8 6 0 10 5 10 10 0 6 4 16 9 24 6 9 5 12 -1 8 -16 -10 -25 23 -12
39 9 11 9 18 0 28 -7 8 -8 17 -3 20 6 3 15 -1 22 -9 15 -18 31 -10 24 10 -4 8
-10 12 -15 9 -5 -3 -9 -1 -9 4 0 5 9 12 21 15 18 5 19 8 8 20 -8 8 -17 13 -21
10 -5 -2 -8 1 -8 6 0 6 10 11 23 11 18 0 19 2 7 10 -10 6 -11 10 -2 10 16 0
15 25 -2 39 -10 8 -16 9 -21 1 -3 -5 1 -10 9 -10 20 0 21 -16 1 -24 -8 -3 -14
-2 -14 2 1 4 0 9 -1 12 -13 35 9 50 39 26 12 -9 12 -8 1 11 -8 12 -21 20 -32
18 -10 -2 -16 0 -13 6 4 5 11 7 16 4 5 -4 9 2 9 12 1 15 4 13 16 -7 8 -14 13
-17 10 -7 -3 9 0 17 7 17 7 1 1 8 -13 16 -14 8 -17 13 -7 10 18 -6 24 9 7 19
-7 4 -7 13 0 26 6 10 7 19 3 19 -4 0 -2 5 5 12 16 16 15 28 -1 28 -7 0 -18 9
-24 19 -10 16 -9 20 6 24 13 3 17 14 16 48 0 24 -4 50 -8 57 -5 6 -4 12 1 12
13 0 10 33 -3 43 -6 4 -4 11 5 18 13 9 12 10 -2 5 -23 -7 -23 1 -1 22 16 16
15 17 -5 20 -12 2 -20 8 -16 13 3 5 10 7 15 4 8 -6 14 17 10 39 -1 5 3 12 10
16 6 4 -2 7 -18 7 -21 -1 -30 -6 -28 -17 1 -8 10 -14 20 -13 11 1 14 -2 8 -8
-5 -5 -19 -6 -30 -2 -16 6 -19 13 -12 31 5 12 16 22 24 22 9 0 13 5 10 10 -3
6 0 13 9 16 13 5 19 43 6 42 -20 -2 -21 4 -3 17 18 13 20 20 13 45 -13 44 -14
45 -29 42 -11 -3 -11 -1 0 11 8 8 17 13 22 10 4 -2 7 3 7 12 0 9 -12 18 -30
22 -36 7 -40 21 -5 18 14 -2 25 1 25 6 0 5 -7 9 -15 9 -8 0 -15 7 -15 16 0 8
-5 12 -10 9 -6 -4 -8 -11 -5 -16 4 -5 1 -9 -4 -9 -21 0 -11 17 29 51 22 19 40
37 40 40 0 10 -34 5 -42 -6 -5 -6 -8 -5 -8 3 0 21 26 42 39 31 8 -6 8 -6 1 3
-5 7 -10 20 -10 30 0 10 -4 18 -10 18 -5 0 -9 3 -9 8 3 20 -2 23 -18 11 -15
-13 -15 -12 -2 9 8 12 22 25 32 28 15 5 16 8 5 21 -13 16 -13 20 3 39 6 7 4
16 -6 24 -14 12 -14 15 0 36 9 13 11 24 5 24 -5 0 -10 5 -10 11 0 5 4 8 9 5 5
-4 8 2 6 11 -2 10 -4 24 -4 31 -1 7 -5 10 -11 7 -6 -3 -7 1 -4 9 3 9 9 14 13
12 3 -2 6 10 5 27 0 17 -7 33 -14 35 -9 3 -11 -1 -7 -11 4 -11 2 -14 -8 -11
-20 8 -12 33 20 58 21 17 25 25 15 31 -8 5 -11 4 -7 -2 4 -6 0 -13 -8 -16 -9
-4 -12 -1 -9 8 3 7 -2 15 -13 18 -11 3 -6 5 12 6 22 1 26 4 15 10 -8 6 -18 7
-24 4 -5 -4 -6 -1 -2 6 5 7 14 10 22 7 8 -3 11 0 7 10 -3 8 -10 14 -17 13 -38
-5 -46 1 -36 25 6 17 5 26 -3 30 -7 2 -4 5 6 5 14 1 17 -4 12 -19 -8 -25 1
-41 21 -33 13 5 12 7 -2 17 -14 11 -14 13 2 27 16 13 17 12 11 -5 -6 -15 -5
-17 6 -7 16 12 16 48 2 71 -11 16 -14 59 -5 58 20 -2 21 4 4 17 -10 8 -13 15
-7 15 8 0 11 9 9 23 -2 14 -9 21 -20 19 -18 -3 -22 13 -5 23 7 5 5 15 -5 30
-11 17 -12 25 -4 27 7 3 5 7 -6 11 -9 4 -15 3 -11 -2 3 -5 0 -13 -6 -17 -9 -5
-10 0 -6 17 4 13 7 30 7 37 0 8 8 10 25 6 16 -4 25 -2 25 6 0 6 4 9 10 5 5 -3
3 7 -5 21 -10 19 -11 33 -4 46 15 27 -24 36 -60 14 -9 -6 -12 -5 -7 2 3 5 0
13 -6 16 -7 3 -2 5 12 5 69 -3 68 -3 65 53 -2 28 0 61 5 73 5 13 3 29 -7 45
-8 14 -12 17 -9 8 8 -28 -2 -21 -19 11 -16 31 -4 54 13 25 7 -13 10 -5 10 30
1 26 -3 46 -9 46 -6 0 -8 -7 -5 -16 4 -11 1 -14 -12 -12 -9 1 -22 0 -27 -4 -6
-4 -17 -2 -25 3 -12 8 -11 9 4 7 16 -2 20 3 20 24 1 32 29 64 46 53 6 -4 10
-16 7 -26 -3 -11 0 -19 5 -19 6 0 8 12 5 30 -5 20 -2 30 6 31 6 0 1 5 -13 10
-23 10 -24 11 -7 21 17 9 17 11 1 29 -12 14 -21 16 -35 9 -12 -7 -20 -6 -25 2
-4 6 -3 8 3 5 6 -4 18 0 28 7 16 12 21 11 37 -8 9 -11 17 -15 18 -8 0 6 -4 12
-9 12 -4 0 -6 12 -3 28 5 25 4 26 -13 12 -15 -12 -17 -12 -10 -1 6 11 4 13 -8
8 -10 -3 -17 -2 -17 3 0 6 9 10 20 10 11 0 20 3 20 6 0 11 -28 33 -34 27 -3
-4 -6 -1 -6 5 0 7 10 12 23 12 18 0 19 2 7 10 -10 6 -11 10 -2 10 16 0 15 25
-2 39 -10 8 -16 9 -21 1 -3 -5 1 -10 9 -10 20 0 21 -16 1 -24 -8 -3 -14 -2
-14 2 1 4 0 9 -1 12 -13 35 9 50 39 26 12 -9 12 -8 1 11 -8 12 -21 20 -32 18
-10 -2 -16 0 -13 6 4 5 11 7 16 4 5 -4 9 2 9 12 1 15 4 13 16 -7 8 -14 13 -17
10 -7 -3 9 0 17 7 17 7 1 1 8 -13 16 -14 8 -17 13 -7 10 18 -6 24 9 7 19 -7 4
-7 13 0 26 6 10 7 19 3 19 -4 0 -2 5 5 12 15 15 15 28 1 28 -6 0 -28 19 -49
41 -26 28 -43 39 -52 33 -9 -5 -9 -2 2 11 14 17 13 18 -5 11 -16 -6 -18 -5 -7
5 28 29 -5 61 -37 37 -12 -9 -11 -7 2 9 11 12 14 24 8 27 -12 8 -43 -22 -36
-35 4 -5 2 -9 -4 -9 -13 0 -10 40 4 40 5 0 2 5 -8 11 -9 5 -23 7 -30 3 -9 -5
-9 -4 -1 5 9 10 17 10 34 1 25 -13 55 4 46 26 -3 8 0 11 10 7 13 -5 13 -8 -1
-23 -17 -19 -11 -30 16 -30 29 0 32 18 7 44 -13 13 -24 30 -26 37 -2 8 -10 21
-18 30 -8 9 -12 18 -9 21 3 3 -1 8 -10 12 -9 3 -13 2 -10 -4 3 -6 -1 -10 -9
-10 -9 0 -16 -5 -16 -11 0 -6 9 -8 23 -3 12 3 18 3 14 -2 -11 -12 -67 -14 -67
-2 0 5 -4 6 -10 3 -6 -3 -10 0 -11 7 0 7 -4 4 -9 -7 -5 -13 -3 -26 6 -36 8 -8
14 -20 14 -25 0 -4 -8 3 -17 16 -10 14 -17 29 -15 34 1 4 -3 14 -9 22 -10 12
-6 13 27 8 32 -5 36 -4 26 8 -6 8 -9 18 -6 21 4 3 -5 12 -19 18 -15 7 -24 17
-20 23 3 6 3 8 -1 4 -5 -4 -19 -3 -32 2 -14 6 -24 6 -24 0 0 -5 9 -12 20 -15
11 -3 20 -11 20 -16 0 -6 -4 -7 -10 -4 -5 3 -10 2 -10 -4 0 -5 6 -12 13 -14 7
-3 5 -6 -5 -6 -20 -1 -24 -17 -7 -23 7 -2 6 -8 -4 -16 -11 -10 -17 -9 -28 5
-13 16 -12 17 4 4 10 -8 17 -9 17 -3 0 16 -38 34 -52 26 -7 -4 -8 -3 -4 5 5 7
16 9 28 5 15 -4 18 -3 13 6 -5 8 -4 11 2 7 6 -4 14 0 17 9 4 12 2 15 -9 10
-10 -4 -15 1 -15 14 0 11 -7 20 -15 20 -8 0 -15 -5 -15 -11 0 -5 4 -8 8 -5 4
2 9 -5 9 -16 2 -21 2 -21 -13 1 -9 12 -13 29 -10 37 4 10 1 14 -6 11 -7 -2
-12 -9 -11 -15 2 -6 -4 -9 -12 -6 -8 4 -15 10 -15 16 0 5 -4 6 -10 3 -5 -3
-10 -16 -10 -28 0 -14 3 -18 8 -10 6 9 15 7 37 -7 17 -11 28 -20 25 -21 -28
-7 -60 -6 -60 2 0 5 -7 9 -16 9 -8 0 -13 4 -10 9 3 5 -1 12 -10 15 -11 4 -15
2 -11 -8 3 -8 -2 -16 -14 -19 -10 -3 -19 -3 -19 -1 0 9 35 41 53 47 9 4 17 12
17 18 0 8 -4 8 -15 -1 -16 -14 -21 0 -5 16 6 6 0 9 -15 9 -18 0 -21 -3 -13
-13 8 -9 7 -11 -5 -6 -10 3 -17 -1 -20 -13 -4 -15 -5 -15 -6 -2 -1 18 -27 33
-42 23 -14 -8 -11 -36 4 -28 6 4 8 3 4 -1 -12 -13 -55 -17 -62 -6 -3 6 3 8 15
6 11 -2 18 0 15 6 -4 5 -11 7 -16 4 -5 -4 -9 1 -9 9 0 9 6 13 14 10 8 -3 16
-1 20 4 3 5 -4 8 -16 7 -12 -1 -26 -12 -31 -26 l-10 -24 -7 30 c-4 17 -8 25
-9 18 0 -7 -7 -10 -15 -7 -7 3 -21 -2 -30 -11 -15 -16 -20 -13 -17 10 1 6 -6
1 -14 -9 -15 -19 -15 -19 -15 3 0 12 -4 20 -9 17 -5 -3 -7 -16 -4 -29 4 -15 2
-19 -5 -12 -5 6 -12 19 -14 29 -3 19 -3 19 -18 1 -9 -11 -10 -16 -2 -11 6 4
12 2 12 -3 0 -17 -20 -13 -27 4 -5 14 -8 14 -26 -2 -18 -16 -20 -16 -14 -1 7
19 -29 33 -40 16 -3 -7 -1 -8 5 -4 17 10 15 -9 -2 -24 -8 -6 -13 -17 -10 -25
3 -7 1 -16 -5 -19 -7 -4 -9 7 -6 33 4 38 3 39 -21 35 -15 -3 -23 -1 -20 5 7
10 -20 9 -30 -2 -4 -4 -21 -7 -38 -7 -19 0 -26 3 -19 8 8 5 -2 8 -23 9 -33 1
-36 -1 -31 -23 2 -13 0 -21 -4 -18 -5 3 -9 15 -10 27 0 19 -1 20 -8 4 -8 -21
-19 -22 -42 -1 -17 15 -53 9 -43 -7 3 -5 0 -9 -6 -9 -6 0 -13 7 -16 15 -4 8
-10 12 -16 9 -5 -3 1 -14 13 -25 12 -10 17 -19 11 -19 -14 0 -42 28 -42 42 0
6 -9 3 -19 -6 -15 -13 -20 -14 -25 -4 -3 7 -4 4 -1 -8 4 -14 0 -21 -9 -21 -8
0 -12 6 -9 12 3 9 -4 11 -23 7 -19 -3 -25 -1 -20 7 4 6 11 9 16 6 5 -3 11 -1
14 4 5 8 -15 8 -34 1 -3 -1 -9 -3 -15 -4 -10 -1 -15 -9 -15 -23 0 -5 5 -1 10
7 8 13 10 12 10 -4 0 -12 -5 -16 -15 -12 -8 3 -15 1 -15 -4 0 -6 -8 -10 -17
-10 -15 0 -16 2 -3 10 8 5 11 10 6 10 -6 0 -5 5 2 12 16 16 15 25 -3 25 -8 0
-12 -4 -9 -9 3 -4 0 -8 -5 -8 -6 0 -11 5 -11 12 0 6 -7 3 -16 -8 -11 -13 -14
-14 -11 -3 3 10 -1 15 -14 14 -20 -1 -40 -15 -22 -15 6 0 10 -14 8 -30 -3 -36
-15 -53 -15 -21 0 12 -4 20 -8 17 -5 -3 -9 1 -9 9 0 8 4 12 9 9 4 -3 5 3 1 12
-6 16 -7 15 -20 -2 -7 -10 -13 -23 -14 -28 0 -6 -4 -2 -8 9 -5 13 -3 23 6 30
12 9 10 11 -6 11 -12 0 -21 -4 -21 -9 0 -4 -5 -5 -10 -2 -6 4 -9 1 -8 -6 2 -7
-7 -18 -19 -24 -18 -9 -20 -14 -10 -25 10 -12 9 -12 -5 -1 -18 14 -14 43 6 35
6 -2 12 4 13 16 2 24 -5 25 -29 3 -12 -10 -18 -12 -18 -4 0 7 -4 9 -10 6 -5
-3 -10 -1 -10 4 0 6 -4 11 -10 11 -5 0 -7 -8 -3 -17 6 -17 5 -17 -14 0 -17 15
-22 15 -31 4 -12 -14 -6 -27 12 -27 6 0 5 4 -3 9 -9 6 -10 11 -2 15 6 4 13 0
16 -8 3 -9 7 -23 10 -32 4 -12 -2 -11 -24 5 -22 16 -31 18 -35 9 -3 -7 -3 -2
1 12 5 22 4 23 -11 11 -14 -12 -16 -11 -16 5 0 16 -2 17 -10 4 -7 -11 -10 -12
-10 -2 0 8 -6 12 -12 9 -7 -2 -12 -11 -10 -18 3 -11 1 -12 -9 -1 -21 20 -29
14 -19 -15 l10 -28 -24 28 c-25 27 -48 39 -29 15 6 -7 13 -22 17 -32 5 -16 4
-17 -9 -6 -9 7 -13 15 -10 18 6 6 -14 32 -26 32 -4 0 -10 -10 -12 -22 -4 -19
-4 -18 -6 5 0 17 -5 26 -12 22 -6 -4 -8 -14 -5 -24 4 -9 -1 -7 -11 6 -20 25
-57 22 -67 -4 -4 -10 -2 -13 7 -10 7 3 13 -3 13 -13 0 -14 -4 -16 -19 -6 -10
6 -16 18 -13 29 3 11 2 16 -1 13 -4 -3 -12 -1 -20 5 -8 8 -13 8 -13 1 0 -6 6
-13 13 -16 9 -3 7 -8 -5 -15 -10 -7 -14 -19 -11 -33 4 -20 3 -21 -7 -5 -6 9
-17 15 -23 11 -7 -3 -1 4 13 15 34 28 10 27 -26 -1 -15 -13 -25 -17 -20 -10 4
6 2 12 -3 12 -6 0 -11 11 -11 24 0 22 -4 24 -31 21 -18 -3 -34 -6 -36 -9 -3
-3 -16 -1 -29 4 -17 7 -24 6 -24 -3 0 -8 -4 -7 -11 3 -9 13 -10 13 -6 -2 7
-21 -29 -32 -37 -11 -3 8 -2 11 3 8 5 -3 12 -1 15 4 8 12 -66 2 -79 -11 -7 -7
-2 -8 14 -3 16 5 21 4 17 -4 -4 -6 -18 -11 -32 -11 -14 0 -22 -4 -19 -10 3 -5
1 -10 -5 -10 -6 0 -8 -4 -5 -10 3 -5 0 -7 -7 -5 -20 8 -20 43 0 41 9 0 17 8
19 19 1 11 0 15 -3 9 -2 -6 -19 -10 -37 -8 -23 3 -28 1 -17 -6 11 -7 12 -10 2
-10 -7 0 -20 6 -28 14 -8 9 -24 12 -37 9 -12 -2 -31 -5 -42 -4 -10 0 -25 -5
-32 -11 -10 -8 -17 -6 -28 8 -8 10 -15 14 -15 7 0 -6 5 -15 10 -18 6 -4 7 -11
4 -17 -4 -6 -2 -8 4 -4 6 3 14 2 17 -4 4 -6 1 -9 -7 -8 -7 2 -12 -3 -10 -10 1
-8 -2 -11 -8 -7 -6 4 -9 9 -6 12 3 3 0 15 -6 27 -7 11 -11 26 -9 31 1 6 -3 5
-10 -2 -8 -8 -18 -9 -31 -2 -13 7 -18 6 -18 -2 0 -8 -5 -7 -16 2 -15 12 -16
11 -9 -11 4 -14 4 -22 0 -18 -5 4 -15 2 -23 -5 -13 -10 -14 -9 -3 11 10 19 9
22 -8 22 -11 0 -28 3 -38 6 -15 5 -15 4 -3 -5 13 -9 12 -11 -3 -11 -10 0 -16
-4 -13 -8 2 -4 -3 -13 -13 -19 -16 -10 -18 -8 -17 10 1 13 -5 22 -14 23 -23 1
-71 -26 -65 -36 3 -6 -1 -7 -9 -4 -9 3 -16 11 -16 18 0 6 -7 2 -15 -8 -8 -10
-12 -23 -8 -28 3 -6 -4 -5 -15 1 -17 9 -21 8 -25 -7 -4 -16 -5 -16 -6 1 -1 10
9 21 24 27 37 14 29 44 -12 46 -18 0 -20 -2 -11 -13 8 -10 7 -12 -5 -7 -10 3
-17 -1 -20 -13 -4 -15 -5 -15 -6 -2 -1 18 -27 33 -42 23 -14 -8 -11 -36 4 -28
6 4 8 3 4 -1 -12 -13 -55 -17 -62 -6 -3 6 3 8 15 6 11 -2 18 0 15 6 -4 5 -11
7 -16 4 -5 -4 -9 1 -9 9 0 9 6 13 14 10 8 -3 16 -1 20 4 3 5 -4 8 -16 7 -12
-1 -26 -12 -31 -26 l-10 -24 -7 30 c-4 17 -8 25 -9 18 0 -7 -7 -10 -15 -7 -7
3 -21 -2 -30 -11 -15 -16 -20 -13 -17 10 1 6 -6 1 -14 -9 -15 -19 -15 -19 -15
3 0 12 -4 20 -9 17 -5 -3 -7 -16 -4 -29 4 -15 2 -19 -5 -12 -5 6 -12 19 -14
29 -3 19 -3 19 -18 1 -9 -11 -10 -16 -2 -11 6 4 12 2 12 -3 0 -17 -20 -13 -27
4 -5 14 -8 14 -26 -2 -18 -16 -20 -16 -14 -1 7 19 -29 33 -40 16 -3 -7 -1 -8
5 -4 17 10 15 -9 -2 -24 -8 -6 -13 -17 -10 -25 3 -7 1 -16 -5 -19 -7 -4 -9 7
-6 33 4 38 3 39 -21 35 -15 -3 -23 -1 -20 5 7 10 -20 9 -30 -2 -4 -4 -21 -7
-38 -7 -19 0 -26 3 -19 8 8 5 -2 8 -23 9 -33 1 -36 -1 -31 -23 2 -13 0 -21 -4
-18 -5 3 -9 15 -10 27 0 19 -1 20 -8 4 -8 -21 -19 -22 -42 -1 -17 15 -53 9
-43 -7 3 -5 0 -9 -6 -9 -6 0 -13 7 -16 15 -4 8 -10 12 -16 9 -5 -3 1 -14 13
-25 12 -10 17 -19 11 -19 -14 0 -42 28 -42 42 0 6 -9 3 -19 -6 -15 -13 -20
-14 -25 -4 -3 7 -4 4 -1 -8 4 -14 0 -21 -9 -21 -8 0 -12 6 -9 12 3 9 -4 11
-23 7 -19 -3 -25 -1 -20 7 4 6 11 9 16 6 5 -3 11 -1 14 4 5 8 -15 8 -34 1 -3
-1 -11 -3 -17 -4 -7 0 -13 -4 -13 -8 0 -21 1 -22 10 -8 8 13 10 12 10 -4 0
-12 -5 -16 -15 -12 -8 3 -15 1 -15 -4 0 -6 -8 -10 -17 -10 -15 0 -16 2 -3 10
8 5 11 10 6 10 -6 0 -5 5 2 12 16 16 15 25 -3 25 -8 0 -12 -4 -9 -9 3 -4 0 -8
-5 -8 -6 0 -11 5 -11 12 0 6 -7 3 -16 -8 -11 -13 -14 -14 -11 -3 3 10 -1 15
-14 14 -19 -1 -40 -15 -23 -15 6 0 10 -18 10 -39 -1 -22 -4 -37 -8 -34 -5 2
-8 13 -8 24 0 11 -4 18 -8 15 -5 -3 -9 1 -9 9 0 8 4 12 9 9 4 -3 5 3 1 12 -6
16 -7 15 -20 -2 -7 -10 -13 -23 -14 -28 0 -6 -4 -2 -8 9 -5 13 -3 23 6 30 12
9 10 11 -6 11 -11 0 -23 -6 -25 -12z m1022 -296 c-3 -18 4 -23 52 -34 30 -7
58 -13 61 -14 4 0 10 16 13 35 5 27 12 35 28 35 18 0 20 -4 14 -40 -6 -39 -6
-39 31 -49 87 -21 82 -22 93 17 5 21 10 45 10 55 0 16 37 17 629 17 l628 0
-17 -52 -17 -53 90 -22 c98 -24 111 -21 104 24 -2 12 -1 20 3 18 4 -3 10 4 13
14 3 15 0 17 -17 14 -15 -3 -17 -2 -8 5 9 6 -11 15 -65 28 l-78 19 530 3 c340
2 543 -1 565 -7 43 -13 98 -64 116 -108 10 -24 14 -91 14 -256 l0 -225 -36
-98 c-19 -55 -57 -157 -84 -229 -27 -71 -87 -233 -133 -360 -184 -501 -280
-751 -291 -762 -8 -8 -63 -9 -221 -2 -571 25 -1391 59 -1563 65 -126 5 -195
11 -197 18 -2 6 -6 23 -9 38 -3 14 -27 47 -52 72 -48 49 -86 65 -42 19 37 -40
78 -103 78 -121 0 -13 -26 -14 -202 -8 -120 4 -198 3 -190 -2 18 -12 34 -83
21 -98 -8 -10 30 -74 67 -111 13 -13 38 -85 49 -142 7 -33 7 -34 -21 -28 -59
12 -105 38 -167 96 -56 53 -64 58 -74 42 -6 -10 -36 -47 -67 -83 -31 -37 -56
-72 -56 -79 0 -7 9 -23 21 -35 l21 -23 87 47 c56 30 93 43 104 39 15 -5 4 -20
-60 -76 -80 -71 -193 -185 -193 -194 0 -2 30 -25 68 -50 68 -46 150 -123 141
-131 -3 -3 -34 15 -70 39 -108 73 -179 107 -195 94 -11 -9 4 -22 71 -62 85
-51 166 -126 219 -205 48 -71 25 -56 -54 34 -69 80 -112 114 -141 114 -7 0 15
-26 48 -57 67 -64 105 -123 79 -123 -19 0 -178 147 -191 177 -5 12 -27 33 -47
47 l-38 25 -29 -24 c-16 -14 -36 -25 -45 -25 -9 0 -22 -11 -28 -25 -6 -14 -33
-41 -60 -60 -27 -20 -50 -46 -54 -60 -6 -26 -18 -32 -29 -15 -4 6 -9 8 -13 6
-10 -6 -47 72 -39 81 4 3 17 -2 29 -13 23 -19 23 -19 6 2 -26 30 -22 41 6 15
l24 -22 16 22 c9 13 16 29 16 35 0 7 25 35 56 63 30 28 54 56 53 63 -3 28 2
37 23 40 12 2 23 8 25 14 6 18 -28 26 -46 10 -41 -37 -89 -84 -118 -118 -20
-24 -43 -39 -66 -43 -33 -6 -34 -6 -31 21 1 16 -3 35 -9 42 -6 8 -13 34 -14
57 -3 39 -1 43 17 38 14 -4 20 -14 20 -32 0 -58 16 -54 69 17 28 38 51 74 51
80 0 13 -48 52 -64 52 -7 0 -20 -15 -30 -32 -41 -71 -41 -71 -146 -2 -52 35
-106 72 -120 82 -14 10 -40 27 -58 37 l-32 19 0 113 c0 62 2 113 5 113 3 0 37
-20 77 -45 39 -24 75 -42 79 -39 5 3 7 -1 4 -8 -3 -7 4 -19 16 -26 25 -16 41
-6 19 11 -8 7 -15 20 -15 31 0 13 -23 31 -80 61 -44 23 -86 44 -93 46 -9 3
-12 18 -10 47 l3 42 67 -45 c75 -50 88 -54 88 -25 0 11 -3 19 -7 18 -5 -1 -41
16 -80 37 -67 37 -73 42 -73 73 0 31 1 32 22 21 13 -7 38 -24 57 -38 l34 -26
-6 55 c-4 30 -7 65 -7 78 0 20 -5 22 -47 22 l-48 1 25 20 c62 50 82 70 77 75
-3 4 -18 -3 -34 -13 -74 -52 -73 -53 -73 37 l0 80 56 -37 56 -37 22 27 c12 15
29 27 39 27 14 0 17 -9 17 -48 0 -47 12 -72 36 -72 7 0 21 27 32 60 12 33 30
72 42 87 l21 27 -20 8 c-28 10 -26 18 3 18 51 0 56 -20 30 -117 -32 -118 -31
-134 7 -157 26 -15 33 -16 40 -5 5 8 9 18 9 22 0 9 34 59 75 109 17 20 37 46
46 59 26 37 40 15 19 -29 -37 -76 -36 -88 8 -136 21 -23 47 -55 57 -69 9 -15
23 -27 30 -27 15 0 28 27 19 41 -3 5 0 9 7 9 7 0 26 12 41 27 38 36 53 21 34
-33 -25 -71 -58 -138 -91 -184 -17 -25 -38 -61 -45 -80 -7 -19 -22 -43 -32
-53 -18 -18 -25 -47 -10 -47 4 0 34 -5 67 -10 l60 -10 77 77 c43 43 78 82 78
88 0 6 -11 26 -25 45 -37 50 -30 61 11 16 32 -37 36 -39 51 -24 15 16 15 19 0
42 -10 14 -17 33 -17 43 1 16 3 15 20 -5 10 -12 20 -28 23 -35 2 -6 7 -9 11
-5 4 3 2 16 -4 28 -11 20 -10 21 10 10 27 -14 35 -8 21 17 -5 11 -11 42 -13
70 -2 31 -7 49 -14 46 -15 -5 -30 16 -37 53 -5 24 -2 31 11 31 9 0 25 -7 36
-16 24 -21 91 -19 194 8 45 12 94 21 109 22 25 0 22 3 -22 25 -34 16 -43 24
-28 24 12 0 33 -4 48 -10 36 -14 23 4 -14 20 -17 7 -29 17 -28 24 1 6 -6 10
-15 10 -10 -1 -15 2 -13 7 6 9 -126 79 -147 79 -7 -1 16 -16 52 -35 95 -49 67
-43 -44 11 -83 40 -105 47 -168 49 -118 4 -120 8 -5 14 68 4 111 10 115 18 10
15 74 -1 182 -45 41 -17 131 -52 200 -77 136 -50 150 -59 132 -77 -15 -15 -15
-24 1 -26 6 -1 27 -5 45 -8 20 -4 32 -2 32 5 0 6 5 11 11 11 5 0 8 -4 5 -8 -2
-4 4 -8 15 -8 23 0 24 9 5 26 -8 6 -12 18 -9 26 3 9 -1 14 -12 14 -10 0 -52
33 -95 73 -42 41 -90 82 -107 92 -17 10 -37 29 -44 41 -6 12 -25 28 -42 35
-17 7 -57 35 -90 62 -60 50 -62 56 -41 111 5 13 -1 16 -25 16 -32 0 -39 -8
-20 -27 18 -18 -6 -23 -31 -6 -12 9 -43 27 -68 40 -26 14 -62 37 -82 53 -50
40 -225 96 -360 115 -25 4 -79 25 -120 48 -87 48 -146 53 -244 24 -72 -23 -70
-30 4 -11 56 15 137 18 164 8 23 -9 20 -29 -6 -41 -20 -9 -18 -10 21 -17 49
-8 46 -17 -14 -37 l-40 -14 60 -3 c77 -3 91 -8 76 -25 -15 -19 -1 -33 94 -102
44 -32 93 -71 109 -87 l28 -28 -38 1 c-31 0 -35 2 -19 9 30 13 -56 13 -90 0
-32 -12 -24 7 9 20 16 7 7 9 -35 9 -45 1 -64 -5 -102 -29 l-46 -29 -86 11
c-47 7 -85 15 -85 20 0 4 23 19 50 33 51 26 68 41 28 26 -56 -22 -132 -62
-246 -129 -22 -13 -22 -12 -22 58 l0 70 69 0 c61 0 178 26 167 37 -2 3 -30 0
-63 -6 -32 -6 -84 -12 -115 -15 l-58 -5 0 130 0 129 28 5 c63 13 159 39 180
49 20 8 21 11 7 16 -9 3 -15 9 -13 13 5 12 -39 37 -99 55 l-58 18 -2 44 c-6
106 -14 150 -29 150 -12 0 -14 44 -14 280 0 305 2 320 56 374 56 56 48 55 592
56 l503 0 -3 -22z m-558 -1122 c0 -27 31 -39 113 -43 81 -4 131 -18 121 -35
-3 -4 -17 -5 -31 -2 -15 4 -28 2 -32 -5 -11 -17 -38 -16 -104 3 -31 10 -62 16
-68 14 -6 -2 14 -23 45 -46 51 -39 87 -82 69 -82 -5 0 -43 28 -86 62 -73 57
-78 64 -73 91 3 16 6 36 6 43 0 8 9 14 20 14 11 0 20 -6 20 -14z m3305 -168
c40 -47 48 -69 43 -119 -2 -28 -10 -38 -42 -54 -27 -14 -42 -30 -47 -49 -4
-15 -15 -36 -23 -45 -15 -16 -14 -19 8 -29 23 -10 26 -8 36 23 6 19 23 44 38
56 l27 21 3 -21 c2 -11 -6 -30 -17 -42 -11 -12 -29 -41 -40 -65 -26 -54 -37
-61 -45 -28 -5 20 -12 25 -26 21 -12 -3 -20 0 -20 7 0 6 -14 20 -31 30 -35 21
-35 26 9 145 17 46 34 76 45 79 18 5 23 18 8 24 -5 2 -7 15 -4 31 4 19 11 27
25 27 17 0 18 3 8 15 -8 9 -8 15 -2 15 6 0 27 -19 47 -42z m-3532 -135 c4 -3
0 -15 -10 -25 -18 -20 -20 -19 57 -22 34 -1 45 -5 48 -18 3 -16 -7 -18 -96
-18 -54 0 -141 -3 -192 -7 -91 -6 -92 -6 -82 14 6 11 9 23 6 26 -3 3 4 10 15
17 12 6 19 15 16 20 -3 6 0 7 8 4 8 -3 18 -1 22 5 7 12 197 16 208 4z m3577
-231 c0 -66 -18 -117 -36 -100 -4 4 -12 1 -18 -7 -6 -7 -24 -17 -40 -21 -26
-6 -27 -5 -17 15 14 25 5 27 -21 4 -17 -15 -18 -15 -18 8 0 18 -3 20 -9 10 -5
-7 -14 -10 -20 -7 -6 4 -11 0 -11 -11 -1 -28 -28 -59 -41 -46 -13 13 16 87 31
78 11 -7 12 0 4 33 -4 12 -10 22 -15 22 -5 0 -9 -10 -9 -22 -1 -27 -29 -81
-30 -58 0 8 -8 2 -16 -13 -14 -26 -14 -32 0 -60 10 -23 12 -35 4 -44 -17 -20
-26 -15 -37 20 -15 46 7 118 49 157 36 34 46 36 86 15 16 -8 32 -11 38 -5 6 4
28 11 49 15 32 6 37 5 38 -11 0 -13 4 -10 11 9 8 23 7 31 -8 43 -18 14 -18 14
0 29 11 8 23 15 28 15 4 0 8 -31 8 -68z m-3854 -855 c27 -23 67 -56 88 -72 23
-17 34 -31 27 -33 -8 -3 -3 -14 15 -33 45 -47 22 -42 -53 11 -39 28 -74 50
-78 50 -4 0 -24 12 -46 28 -31 22 -39 33 -39 60 0 45 26 42 86 -11z m1688
-219 c106 -84 242 -191 302 -238 l109 -85 -624 -3 c-343 -1 -627 0 -630 4 -3
3 2 12 12 19 16 11 26 11 63 -2 42 -14 46 -14 64 2 24 22 25 40 5 79 -8 15
-13 32 -10 36 3 5 1 11 -5 15 -13 8 -40 72 -40 93 0 27 24 -15 50 -86 13 -34
26 -65 31 -67 4 -3 38 5 75 17 100 33 133 70 174 196 17 56 33 114 33 130 1
15 6 30 12 34 5 4 50 8 98 8 l89 0 192 -152z m-1248 -225 c50 -53 61 -69 47
-71 -10 -1 -29 -5 -43 -9 l-25 -6 25 -7 c14 -5 -52 -8 -146 -9 -146 -1 -174 1
-185 15 -9 11 -23 14 -49 11 -34 -6 -34 -5 -12 10 14 10 22 26 22 45 0 28 2
30 27 23 23 -5 25 -4 14 9 -17 21 2 21 23 1 8 -8 26 -15 39 -15 14 0 27 -7 31
-15 3 -9 18 -15 39 -15 61 0 98 -12 107 -34 7 -17 9 -13 9 19 0 22 -6 51 -14
65 -44 77 12 66 91 -17z"/>
<path d="M2887 2793 c-7 -37 -5 -39 45 -48 24 -4 35 -10 26 -12 -9 -2 -32 0
-51 5 -34 10 -35 9 -46 -32 -26 -88 -26 -84 -2 -58 22 23 37 30 26 12 -3 -5
-2 -10 4 -10 5 0 12 -8 14 -17 4 -15 5 -15 6 2 1 15 4 17 10 7 4 -7 6 -24 3
-37 -4 -22 -8 -24 -48 -18 -41 5 -44 4 -55 -23 -6 -16 -12 -38 -13 -49 -1 -12
-6 -26 -10 -33 -4 -7 -1 -12 8 -12 9 0 16 -5 16 -10 0 -6 -7 -10 -16 -8 -10 2
-19 -3 -21 -9 -3 -7 2 -13 11 -13 9 0 16 -4 16 -10 0 -5 -9 -10 -21 -10 -12 0
-19 -5 -16 -12 2 -7 11 -12 21 -10 9 2 16 -1 16 -6 0 -16 -13 -21 -30 -12 -15
8 -19 5 -24 -16 -4 -15 -4 -29 -1 -32 3 -3 30 -5 60 -4 30 1 55 -3 55 -8 0 -6
14 -10 30 -10 17 0 30 2 30 5 0 2 30 100 66 216 36 116 63 218 60 226 -4 9 -2
11 6 7 7 -5 9 -2 5 9 -3 9 -1 17 5 19 6 2 -22 10 -63 17 -41 7 -84 15 -95 18
-17 4 -22 -1 -27 -24z"/>
<path d="M3150 2758 c0 -7 -3 -23 -6 -35 -5 -18 -2 -23 12 -24 14 -1 13 -3 -6
-9 -14 -4 -19 -8 -12 -9 6 -1 12 -8 12 -17 0 -14 -3 -14 -15 -4 -12 10 -15 10
-15 -3 0 -9 5 -19 10 -22 17 -10 11 -25 -10 -25 -41 0 -18 -18 33 -25 48 -7
50 -9 22 -15 -16 -4 -42 -5 -57 -2 -21 3 -28 0 -28 -11 0 -9 8 -18 18 -20 13
-4 12 -5 -5 -6 -14 -1 -25 -11 -32 -32 -6 -18 -11 -32 -11 -33 0 -1 21 -2 48
-3 65 -3 94 -11 89 -26 -4 -13 -38 -15 -103 -5 l-41 6 -22 -70 c-26 -78 -22
-88 34 -87 17 1 48 -2 70 -6 l41 -7 67 211 c38 116 65 216 62 221 -3 6 -2 10
3 10 6 0 13 7 16 16 3 8 2 12 -4 9 -6 -3 -10 -2 -10 2 0 5 -32 14 -70 21 -87
15 -90 15 -90 0z"/>
<path d="M875 1634 c-3 -11 -17 -41 -30 -69 -24 -50 -95 -234 -95 -247 0 -7
56 -28 74 -28 20 0 188 233 175 243 -2 2 -17 13 -32 25 -16 11 -41 37 -58 58
-25 31 -29 34 -34 18z"/>
<path d="M676 1558 c-8 -18 -24 -73 -36 -122 -18 -73 -20 -90 -8 -97 21 -14
28 -11 39 19 14 40 70 174 80 194 15 30 10 38 -27 38 -30 0 -37 -4 -48 -32z"/>
<path d="M901 1207 c-6 -6 -11 -16 -11 -22 0 -5 -9 -16 -20 -23 -11 -7 -20
-17 -20 -23 0 -6 -12 -26 -26 -44 -30 -40 -27 -49 22 -65 36 -12 37 -12 81 35
25 25 43 48 41 49 -1 1 -18 13 -36 25 -42 29 -36 37 11 15 35 -17 67 -14 67 6
0 5 -22 21 -49 34 -36 19 -51 22 -60 13z"/>
</g>
</svg>
