<?xml version="1.0" standalone="no"?>
<!DOCTYPE svg PUBLIC "-//W3C//DTD SVG 20010904//EN"
 "http://www.w3.org/TR/2001/REC-SVG-20010904/DTD/svg10.dtd">
<svg version="1.0" xmlns="http://www.w3.org/2000/svg"
 width="392.000000pt" height="567.000000pt" viewBox="0 0 392.000000 567.000000"
 preserveAspectRatio="xMidYMid meet">
<metadata>
Created by potrace 1.16, written by Peter Selinger 2001-2019
</metadata>
<g transform="translate(0.000000,567.000000) scale(0.100000,-0.100000)"
fill="#000000" stroke="none">
<path d="M3890 4720 c-13 -9 -13 -10 0 -10 10 0 4 -10 -15 -28 -17 -15 -26
-25 -20 -22 6 3 0 -5 -13 -16 -15 -13 -22 -27 -18 -35 5 -9 3 -9 -6 1 -7 8
-19 16 -26 18 -10 2 -10 -2 -1 -19 8 -15 8 -19 0 -15 -6 4 -11 0 -11 -9 0 -10
-7 -15 -17 -14 -22 4 -65 -19 -58 -30 3 -5 -2 -22 -11 -37 -13 -24 -15 -25
-11 -6 4 17 1 22 -15 22 -14 0 -18 -5 -15 -15 4 -8 1 -17 -5 -21 -7 -5 -8 -2
-3 7 7 12 5 12 -6 1 -12 -11 -12 -14 1 -22 11 -8 9 -9 -10 -6 -14 3 -29 5 -33
5 -5 1 -6 5 -2 10 3 5 0 13 -6 17 -7 4 -9 3 -5 -4 3 -6 2 -13 -4 -17 -5 -3
-10 -1 -10 4 0 6 -5 11 -11 11 -5 0 -7 -5 -3 -12 5 -8 2 -9 -10 -5 -14 6 -15
3 -6 -13 6 -11 13 -20 16 -20 3 0 3 4 -1 9 -13 22 14 19 35 -4 l22 -24 -22 6
c-16 4 -21 3 -16 -5 4 -7 1 -12 -10 -12 -12 0 -14 -3 -6 -13 8 -10 6 -13 -9
-14 -11 -1 -17 3 -13 9 4 6 -2 6 -15 -1 -20 -11 -30 -24 -13 -19 4 2 8 -1 9
-6 1 -5 7 -13 15 -17 7 -5 8 -9 2 -9 -5 0 -20 9 -32 20 -12 12 -22 19 -23 18
-7 -29 -7 -48 0 -43 5 3 13 0 17 -6 4 -7 3 -9 -3 -6 -6 4 -14 0 -17 -9 -6 -15
-8 -15 -28 2 -20 19 -21 19 -13 -5 5 -17 4 -21 -5 -16 -6 4 -20 -1 -32 -12
-11 -10 -23 -17 -27 -15 -3 1 -6 -2 -6 -7 0 -5 -4 -13 -9 -18 -5 -5 -6 -2 -2
7 5 8 -3 2 -18 -15 -14 -16 -25 -33 -26 -36 0 -4 -7 -9 -14 -12 -11 -4 -13 -1
-9 10 4 10 2 14 -4 10 -15 -9 -24 -49 -10 -41 9 5 9 4 1 -5 -6 -7 -20 -13 -31
-14 -16 -1 -20 -7 -17 -27 1 -14 1 -19 -2 -12 -10 22 -24 13 -25 -15 l-1 -28
-7 25 c-7 25 -7 25 -19 -8 -6 -19 -16 -31 -21 -28 -12 8 -41 -4 -41 -16 0 -6
7 -4 17 3 15 13 15 12 2 -8 -12 -21 -15 -21 -36 -8 -29 19 -44 19 -19 0 16
-12 17 -17 6 -30 -7 -8 -16 -12 -21 -9 -5 3 -17 0 -26 -6 -16 -10 -16 -11 -1
-6 11 3 15 0 12 -7 -5 -14 -43 -15 -65 -2 -12 8 -12 6 0 -8 7 -9 10 -17 6 -17
-5 0 0 -9 10 -20 18 -20 18 -21 0 -14 -13 6 -16 4 -10 -6 5 -8 3 -11 -6 -8 -8
3 -13 12 -11 19 1 8 -4 5 -13 -5 -8 -11 -15 -23 -15 -28 0 -4 -7 -8 -15 -8 -8
0 -15 5 -15 11 0 8 -4 9 -13 0 -8 -6 -18 -7 -22 -3 -5 4 -5 1 -1 -6 4 -7 11
-10 16 -7 4 3 10 -2 14 -10 3 -8 0 -17 -6 -21 -7 -5 -8 -2 -3 6 6 10 4 12 -9
7 -10 -4 -20 -7 -22 -7 -2 0 -4 -7 -4 -15 0 -8 -7 -15 -15 -15 -9 0 -12 -6 -9
-15 5 -11 2 -13 -10 -9 -9 3 -13 10 -10 15 3 5 1 9 -5 9 -5 0 -8 -13 -6 -28 3
-26 1 -28 -26 -24 -17 2 -29 0 -29 -7 0 -6 7 -8 17 -4 11 5 14 3 9 -6 -5 -7
-17 -11 -27 -8 -10 3 -22 0 -26 -5 -4 -7 -1 -8 8 -3 11 6 12 5 2 -6 -7 -7 -13
-22 -14 -33 -1 -12 -5 -6 -9 14 -5 20 -5 40 1 46 5 7 3 18 -6 30 -14 17 -14
17 -9 1 5 -14 2 -18 -11 -15 -11 2 -19 -4 -21 -15 -2 -14 1 -16 11 -7 9 8 14
5 19 -12 9 -34 7 -45 -4 -28 -8 12 -10 10 -10 -8 0 -16 4 -21 13 -16 6 4 3 -2
-8 -13 -11 -11 -23 -19 -27 -16 -11 6 -50 -36 -43 -46 3 -5 -5 -7 -17 -4 -19
4 -20 3 -8 -6 13 -9 11 -11 -7 -11 -12 0 -24 6 -26 13 -4 9 -6 9 -6 0 -1 -6 3
-14 9 -18 5 -3 7 -12 4 -20 -4 -8 -10 -13 -15 -10 -4 3 -30 -8 -56 -26 -26
-17 -40 -28 -31 -25 10 3 20 1 23 -4 4 -6 -5 -10 -18 -10 -14 0 -27 -7 -31
-15 -3 -8 -10 -15 -16 -15 -6 0 -8 5 -4 12 4 7 3 8 -4 4 -7 -4 -12 -16 -12
-27 0 -11 -4 -17 -10 -14 -5 3 -10 -1 -10 -10 0 -10 5 -13 13 -9 6 4 8 3 4 -1
-12 -14 -38 -15 -30 -2 4 7 -1 6 -10 -2 -10 -8 -20 -11 -23 -8 -8 8 -28 -13
-37 -38 -7 -20 -7 -20 8 -1 8 11 15 15 15 10 0 -17 -22 -33 -37 -27 -7 3 -22
-2 -33 -12 -11 -10 -24 -14 -32 -9 -7 4 -5 -2 5 -13 16 -19 16 -21 -5 -39
l-23 -19 19 23 c20 23 11 30 -14 9 -9 -7 -15 -22 -14 -34 1 -12 -3 -20 -8 -17
-4 3 -6 10 -3 15 9 14 -5 11 -22 -6 -8 -8 -20 -12 -26 -8 -7 4 -6 -1 2 -11 8
-9 10 -16 5 -15 -22 4 -34 -2 -34 -19 0 -13 -7 -18 -27 -18 -22 1 -28 -3 -27
-21 0 -15 -5 -20 -18 -18 -10 2 -30 -7 -45 -19 -25 -22 -26 -24 -10 -40 24
-25 21 -29 -8 -10 -14 9 -22 21 -18 27 3 6 1 7 -5 3 -9 -5 -8 -13 3 -30 13
-20 13 -23 0 -23 -8 0 -15 5 -15 11 0 6 -5 3 -11 -7 -5 -9 -8 -21 -5 -25 2 -4
-4 -9 -15 -9 -12 -1 -17 2 -13 10 4 7 4 9 -1 5 -4 -4 -14 0 -21 10 -7 9 -14
12 -14 6 0 -6 12 -23 26 -37 20 -20 21 -25 8 -23 -10 2 -20 8 -22 15 -4 13
-25 -15 -38 -51 -4 -10 -12 -14 -22 -11 -11 5 -14 1 -10 -13 4 -15 -1 -19 -20
-21 -16 0 -20 2 -12 7 8 5 9 10 2 14 -6 4 -16 -3 -22 -14 -6 -11 -16 -17 -22
-14 -7 5 -8 2 -3 -6 4 -7 2 -16 -6 -21 -10 -6 -11 -9 -1 -9 6 0 12 -7 12 -15
0 -8 -5 -15 -11 -15 -5 0 -7 5 -4 10 3 6 1 10 -4 10 -6 0 -11 -7 -11 -16 0 -8
-5 -12 -10 -9 -6 4 -8 11 -5 16 3 5 -1 6 -9 3 -9 -3 -14 -10 -11 -14 3 -4 -4
-10 -15 -13 -11 -3 -20 -10 -20 -17 0 -6 4 -9 9 -5 5 3 13 0 17 -6 4 -7 3 -9
-4 -5 -6 3 -13 2 -17 -3 -3 -5 -14 -8 -24 -6 -11 2 -27 -5 -36 -15 -15 -17
-15 -19 2 -29 27 -16 10 -13 -24 4 -24 12 -30 20 -26 36 4 16 8 18 14 7 5 -7
9 -8 9 -3 0 21 -15 33 -25 21 -14 -15 -12 -43 3 -58 20 -20 14 -28 -20 -29
-22 -1 -26 -3 -13 -6 11 -3 25 -9 30 -15 6 -6 4 -7 -6 -3 -19 7 -35 -10 -19
-20 13 -8 13 -25 -1 -25 -5 0 -8 4 -5 9 7 11 -22 36 -31 28 -3 -4 0 -14 8 -24
8 -9 9 -14 3 -10 -7 4 -14 -2 -17 -13 -5 -21 -27 -28 -27 -9 0 5 5 7 10 4 5
-3 10 -2 10 4 0 5 -4 12 -9 15 -15 10 -22 -25 -9 -42 9 -11 9 -14 1 -9 -6 4
-14 3 -18 -3 -4 -6 -11 -8 -16 -4 -6 3 -21 -6 -34 -20 -13 -14 -21 -26 -18
-26 3 0 0 -7 -7 -15 -10 -12 -9 -15 5 -15 10 0 16 -3 12 -6 -10 -11 -48 7 -40
19 5 8 2 8 -9 0 -8 -7 -18 -10 -21 -7 -4 4 -4 -3 -2 -15 3 -18 0 -22 -18 -21
-36 3 -42 1 -26 -12 8 -7 12 -12 10 -11 -2 2 -10 -2 -18 -8 -7 -6 -13 -8 -13
-3 0 4 -7 -1 -16 -12 -14 -17 -15 -17 -10 -1 4 11 2 16 -5 12 -6 -4 -8 -13 -5
-20 2 -7 -1 -18 -7 -24 -9 -9 -7 -11 8 -5 l20 7 -20 -16 c-24 -20 -42 -21 -48
-4 -3 7 -6 6 -6 -5 -1 -9 -6 -20 -13 -24 -6 -4 -8 -3 -5 4 5 6 0 8 -13 5 -11
-3 -20 -12 -20 -19 0 -20 -38 -17 -43 4 -2 9 4 26 12 36 16 19 16 19 -11 0
-15 -10 -28 -27 -28 -36 0 -12 -5 -15 -16 -11 -11 4 -15 2 -12 -7 7 -23 26
-22 33 1 5 16 9 18 15 9 5 -7 6 -19 3 -27 -3 -7 0 -13 7 -13 6 0 8 5 5 10 -3
6 4 10 17 10 17 0 19 -3 9 -9 -7 -5 -11 -13 -7 -19 4 -7 -3 -9 -18 -6 -18 3
-26 -1 -31 -16 -3 -11 -11 -19 -17 -17 -6 1 -13 -4 -16 -12 -3 -9 0 -11 8 -6
9 5 11 4 6 -4 -6 -9 -11 -9 -21 -1 -9 7 -15 7 -19 1 -4 -5 -16 -8 -27 -6 -18
4 -19 2 -8 -13 21 -27 23 -28 15 -7 -5 15 -4 17 5 8 14 -14 4 -33 -17 -33 -8
0 -13 4 -9 9 3 5 0 13 -6 17 -7 4 -9 3 -5 -4 3 -6 2 -13 -4 -17 -5 -3 -10 -12
-10 -18 0 -7 4 -6 10 3 6 9 10 10 10 3 0 -6 -5 -15 -10 -18 -6 -4 -8 -10 -5
-15 6 -9 -21 -7 -31 2 -12 12 -33 -4 -29 -23 2 -10 0 -21 -6 -24 -5 -4 -10 4
-10 17 -1 17 -3 18 -6 6 -2 -10 -9 -18 -14 -18 -6 0 -6 -7 0 -18 8 -16 5 -18
-27 -18 -30 1 -36 -2 -34 -16 2 -12 -4 -18 -15 -18 -13 0 -14 -3 -6 -8 10 -7
10 -12 0 -27 -11 -14 -16 -15 -22 -5 -6 9 -4 11 5 5 10 -6 12 -4 7 9 -4 10 -7
20 -7 22 0 2 -8 4 -17 4 -15 0 -16 -2 -3 -10 12 -7 12 -12 2 -22 -9 -9 -15 -8
-28 8 -15 18 -15 18 -4 -4 6 -12 15 -22 21 -22 6 0 7 -5 4 -10 -3 -6 -17 -8
-31 -6 -20 4 -27 -1 -35 -20 -5 -14 -6 -30 -3 -36 4 -7 2 -8 -4 -4 -14 8 -64
-3 -57 -13 5 -9 -31 -41 -46 -41 -5 0 -8 4 -4 9 3 5 1 13 -5 16 -6 4 -10 3 -9
-2 1 -4 0 -10 -1 -13 -1 -3 -3 -13 -5 -24 -3 -14 -1 -16 8 -7 21 21 28 11 7
-11 -26 -28 -65 -36 -56 -11 6 15 5 16 -6 5 -11 -11 -10 -16 6 -28 11 -7 17
-17 13 -20 -4 -4 -14 -1 -24 7 -15 12 -16 12 -10 -3 4 -13 1 -16 -14 -13 -15
3 -19 0 -15 -11 3 -8 -4 -24 -16 -36 -18 -18 -24 -19 -41 -9 -15 10 -18 10
-11 0 5 -9 2 -10 -9 -6 -10 3 -17 2 -17 -4 0 -6 -5 -7 -11 -4 -6 4 -8 14 -4
22 5 13 3 14 -10 3 -14 -12 -14 -15 -2 -22 17 -9 17 -23 -1 -54 -6 -12 -8 -25
-4 -29 4 -5 1 -5 -6 -1 -7 4 -22 4 -35 0 l-22 -8 25 -7 25 -7 -27 -1 c-17 -1
-28 5 -31 17 -4 13 -5 11 -6 -5 0 -13 -7 -22 -13 -20 -8 1 -13 -9 -13 -25 1
-18 -3 -24 -10 -18 -7 6 -15 2 -23 -10 -6 -10 -22 -20 -34 -22 -15 -2 -29 -16
-40 -38 -9 -19 -17 -30 -18 -25 0 6 -5 3 -10 -5 -6 -9 -10 -274 -10 -673 l0
-657 39 -43 40 -42 1920 -3 1921 -2 0 2365 c0 1301 -4 2365 -8 2365 -4 0 -14
-5 -22 -10z"/>
</g>
</svg>
