<?xml version="1.0" standalone="no"?>
<!DOCTYPE svg PUBLIC "-//W3C//DTD SVG 20010904//EN"
 "http://www.w3.org/TR/2001/REC-SVG-20010904/DTD/svg10.dtd">
<svg version="1.0" xmlns="http://www.w3.org/2000/svg"
 width="323.000000pt" height="323.000000pt" viewBox="0 0 323.000000 323.000000"
 preserveAspectRatio="xMidYMid meet">
<metadata>
Created by potrace 1.16, written by Peter Selinger 2001-2019
</metadata>
<g transform="translate(0.000000,323.000000) scale(0.100000,-0.100000)"
fill="#000000" stroke="none">
<path d="M1488 3115 c-9 -9 -166 -45 -196 -45 -90 -1 -368 -107 -396 -152 -6
-10 -15 -18 -21 -18 -5 0 -20 -12 -33 -27 l-24 -28 7 33 c5 22 3 32 -6 32 -20
0 -88 -78 -94 -108 -26 -127 -26 -127 -77 -132 -71 -9 -125 -80 -60 -80 16 0
31 -3 35 -6 3 -4 -15 -27 -40 -53 -25 -25 -57 -70 -70 -99 -20 -47 -23 -68
-23 -188 0 -159 29 -306 86 -442 19 -44 18 -73 -1 -66 -22 9 -18 -16 7 -43 15
-16 23 -40 26 -79 4 -42 9 -58 22 -61 12 -3 20 -23 28 -67 17 -90 16 -106 -8
-106 -11 0 -20 -5 -20 -11 0 -7 12 -10 30 -7 17 3 30 0 31 -6 3 -52 46 -141
93 -194 11 -12 16 -22 11 -22 -11 0 139 -146 159 -153 9 -4 16 -11 16 -17 0
-5 5 -10 11 -10 6 0 25 -11 43 -25 18 -14 38 -25 44 -25 7 0 12 -4 12 -10 0
-5 8 -10 18 -10 10 0 22 -4 27 -8 23 -20 101 -33 192 -32 123 0 164 4 193 20
13 7 35 16 50 20 28 8 28 8 18 -28 -6 -20 -7 -59 -3 -87 4 -27 9 -63 10 -80 9
-86 91 -190 182 -232 59 -27 170 -53 228 -52 95 0 193 49 239 120 14 21 26 41
26 44 0 3 9 15 20 27 21 23 26 38 12 38 -4 0 -16 -14 -26 -32 -60 -100 -135
-149 -241 -156 -145 -9 -255 35 -342 136 -58 68 -73 112 -80 238 -5 81 -3 108
10 133 l16 32 -38 -30 c-51 -40 -76 -49 -176 -60 -99 -12 -239 0 -289 24 -45
22 -206 161 -257 222 -49 60 -100 156 -133 253 -23 70 -25 90 -28 298 -2 122
0 222 4 222 4 0 8 43 8 95 0 165 36 271 116 345 l46 42 82 -4 c49 -3 104 -14
138 -27 75 -29 168 -100 227 -172 25 -32 49 -58 53 -58 16 -2 18 80 3 147 -8
40 -15 78 -15 83 0 22 124 -57 171 -109 49 -54 95 -129 85 -139 -3 -3 -26 -9
-53 -14 -51 -10 -69 -21 -59 -38 5 -7 32 -9 79 -5 l72 6 29 -71 c39 -94 61
-97 53 -6 -8 83 -5 83 104 17 36 -22 49 -45 49 -88 0 -11 6 -29 14 -40 14 -19
15 -18 41 6 l26 25 -6 -163 c-3 -89 -13 -204 -21 -255 -23 -144 -38 -286 -31
-293 7 -8 37 20 37 35 0 6 3 11 8 11 4 0 16 21 26 48 25 62 33 71 56 65 11 -3
20 0 20 6 0 6 -5 11 -11 11 -16 0 -3 92 21 144 10 22 21 62 25 88 5 38 13 52
43 77 28 22 34 32 26 41 -9 9 -17 9 -33 1 -16 -9 -21 -9 -21 1 1 34 37 162 76
271 21 57 18 238 -5 328 -38 145 -87 240 -192 375 -27 34 -49 65 -49 68 0 4
-8 19 -18 34 -10 15 -36 54 -58 87 -51 78 -129 154 -187 183 -60 30 -88 26
-102 -13 -11 -33 -33 -58 -59 -68 -15 -6 -17 -3 -13 15 4 13 9 42 13 66 6 37
4 42 -13 42 -11 0 -22 -2 -25 -5z m310 -789 c47 -52 70 -117 79 -226 l6 -74
-30 24 c-17 14 -44 32 -60 41 -29 16 -30 20 -36 105 -4 49 -10 108 -13 132 -8
54 3 54 54 -2z"/>
<path d="M924 1806 c-27 -27 -34 -42 -34 -74 l0 -40 73 -13 c39 -7 79 -13 87
-14 9 0 20 -4 26 -8 14 -8 34 35 34 74 0 65 -47 109 -116 109 -28 0 -44 -8
-70 -34z"/>
<path d="M1605 1828 c-37 -20 -55 -51 -55 -99 0 -70 11 -74 125 -53 l95 18 0
39 c0 55 -52 107 -106 107 -22 0 -48 -6 -59 -12z"/>
<path d="M1646 1342 c-3 -6 -1 -12 6 -14 6 -2 -8 -12 -31 -22 -81 -32 -183
-48 -301 -48 -109 0 -141 5 -289 48 l-24 7 23 -42 c29 -51 75 -82 104 -71 12
4 20 13 19 18 -3 12 280 5 317 -8 69 -24 87 -22 124 11 41 36 81 108 67 122
-5 5 -11 5 -15 -1z"/>
<path d="M2219 937 c-20 -19 -40 -42 -43 -53 -19 -57 -116 -75 -193 -36 -55
29 -86 28 -150 -4 -58 -30 -64 -39 -51 -74 l10 -25 16 24 c55 77 97 90 169 51
62 -33 117 -27 179 20 52 39 54 40 64 19 19 -34 85 -59 128 -47 33 9 73 37 55
39 -4 0 -31 0 -59 -1 -42 -1 -56 3 -73 21 -28 30 -34 54 -21 79 14 27 11 26
-31 -13z"/>
</g>
</svg>
