<?xml version="1.0" standalone="no"?>
<!DOCTYPE svg PUBLIC "-//W3C//DTD SVG 20010904//EN"
 "http://www.w3.org/TR/2001/REC-SVG-20010904/DTD/svg10.dtd">
<svg version="1.0" xmlns="http://www.w3.org/2000/svg"
 width="392.000000pt" height="567.000000pt" viewBox="0 0 392.000000 567.000000"
 preserveAspectRatio="xMidYMid meet">
<metadata>
Created by potrace 1.16, written by Peter Selinger 2001-2019
</metadata>
<g transform="translate(0.000000,567.000000) scale(0.100000,-0.100000)"
fill="#000000" stroke="none">
<path d="M3899 4273 c0 -43 -2 -85 -4 -94 -1 -8 -6 -118 -9 -245 -4 -126 -9
-256 -11 -289 -17 -285 -25 -1495 -14 -2126 l4 -247 27 32 27 31 1 1502 c0
991 -3 1504 -10 1508 -6 4 -10 -23 -11 -72z"/>
<path d="M0 2834 c0 -844 4 -1485 9 -1493 6 -9 10 8 13 50 13 201 15 1547 4
2104 -12 561 -18 810 -22 814 -2 2 -4 -661 -4 -1475z"/>
</g>
</svg>
