<?xml version="1.0" standalone="no"?>
<!DOCTYPE svg PUBLIC "-//W3C//DTD SVG 20010904//EN"
 "http://www.w3.org/TR/2001/REC-SVG-20010904/DTD/svg10.dtd">
<svg version="1.0" xmlns="http://www.w3.org/2000/svg"
 width="119.000000pt" height="119.000000pt" viewBox="0 0 119.000000 119.000000"
 preserveAspectRatio="xMidYMid meet">
<metadata>
Created by potrace 1.16, written by Peter Selinger 2001-2019
</metadata>
<g transform="translate(0.000000,119.000000) scale(0.100000,-0.100000)"
fill="#000000" stroke="none">
<path d="M292 1158 c-7 -7 -16 -13 -20 -13 -19 -1 -52 -27 -46 -37 4 -7 3 -8
-4 -4 -11 7 -38 -32 -28 -41 9 -10 -15 -44 -26 -37 -7 4 -8 2 -4 -5 4 -6 2
-19 -6 -28 -9 -12 -9 -15 0 -9 16 10 15 -6 -3 -30 -17 -22 -20 -38 -5 -29 6 3
10 -1 10 -10 0 -9 -5 -13 -10 -10 -7 4 -9 -3 -6 -19 3 -18 1 -24 -6 -20 -8 5
-9 -4 -5 -30 4 -25 2 -34 -5 -30 -7 5 -9 -2 -6 -20 3 -14 1 -26 -4 -26 -6 0
-8 -7 -4 -15 3 -8 0 -15 -7 -15 -8 0 -6 -4 3 -10 12 -7 12 -10 1 -10 -7 0 -11
-6 -8 -14 3 -8 -1 -20 -9 -27 -12 -10 -12 -14 -2 -20 9 -6 9 -9 1 -9 -6 0 -10
-11 -8 -25 1 -14 -2 -28 -7 -31 -4 -3 -6 -10 -2 -15 3 -5 1 -15 -4 -22 -15
-20 -25 -70 -11 -62 6 4 4 -3 -4 -16 -24 -37 -36 -132 -21 -161 7 -12 13 -30
14 -39 0 -23 51 -79 71 -79 11 0 19 -4 19 -9 0 -5 7 -12 16 -15 14 -5 15 -4 5
8 -10 12 -9 14 8 9 12 -3 18 -9 15 -14 -3 -5 2 -6 10 -3 9 4 16 1 16 -6 0 -7
8 -10 20 -7 11 3 20 2 20 -3 0 -12 49 -18 54 -6 3 7 5 7 5 -1 1 -7 6 -13 12
-13 5 0 7 6 4 13 -4 6 0 4 8 -6 11 -14 16 -15 20 -5 5 10 9 9 19 -3 13 -16 79
-34 111 -30 9 1 17 -1 17 -6 0 -4 15 -8 33 -7 17 0 41 -7 51 -15 11 -9 16 -10
12 -4 -10 18 2 16 21 -2 12 -13 18 -13 31 -3 13 11 14 11 8 0 -6 -9 -1 -11 18
-8 15 3 26 0 26 -6 0 -6 9 -8 20 -5 11 3 20 1 20 -4 0 -6 9 -5 21 2 17 9 20 8
14 -2 -6 -9 1 -11 29 -6 22 3 34 2 31 -4 -4 -5 -1 -9 4 -9 6 0 11 6 11 13 0 8
4 7 10 -3 9 -13 11 -13 20 0 9 13 11 13 20 0 6 -10 10 -11 10 -2 0 6 7 12 15
12 23 0 74 50 68 66 -3 8 1 14 11 14 9 0 15 3 14 8 0 4 2 15 7 26 5 12 3 21
-6 27 -9 5 -9 9 -2 9 6 0 10 8 8 17 -1 10 3 28 11 40 8 12 11 29 8 37 -4 9 -1
16 6 16 8 0 11 11 8 30 -3 16 0 30 5 30 5 0 7 11 5 25 -3 15 -1 22 5 18 6 -4
8 4 5 21 -3 14 -1 26 3 26 5 0 6 7 3 15 -4 8 -2 15 4 15 5 0 7 12 4 26 -4 21
-2 25 9 19 11 -7 11 -5 -1 10 -8 10 -10 16 -3 12 17 -11 26 10 13 32 -8 15 -7
22 4 28 18 11 31 53 16 53 -7 0 -5 6 4 16 20 19 20 28 2 21 -12 -5 -13 -1 -4
24 5 16 14 26 19 23 5 -3 9 2 9 10 0 9 -4 16 -10 16 -5 0 -10 5 -10 11 0 5 4
8 9 5 21 -13 23 93 2 131 -5 11 -7 24 -3 28 4 5 1 5 -5 1 -8 -4 -13 -2 -13 6
0 14 -53 48 -76 48 -9 0 -12 5 -8 12 5 8 0 9 -14 6 -13 -4 -22 -1 -22 5 0 7
-10 12 -22 13 -22 1 -73 11 -73 14 0 1 -10 3 -22 4 -12 1 -20 -1 -16 -6 3 -5
-3 -5 -13 1 -33 18 -84 30 -84 21 0 -5 -7 -7 -15 -4 -8 4 -12 11 -8 18 3 6 1
6 -8 -1 -15 -15 -30 -17 -27 -4 2 5 -1 9 -7 9 -5 0 -9 -4 -7 -10 1 -5 -2 -7
-8 -3 -6 3 -7 11 -4 17 5 7 -3 9 -23 6 -17 -2 -35 2 -42 9 -9 10 -16 11 -26 3
-10 -8 -15 -8 -20 0 -10 16 -55 31 -68 23 -19 -12 -37 -12 -37 0 0 5 -3 8 -6
4 -4 -3 -13 1 -22 9 -10 10 -27 14 -49 12 -18 -2 -33 0 -33 5 0 13 -44 4 -58
-13 -10 -13 -11 -13 -6 3 7 20 3 22 -14 5z m395 -93 c332 -72 349 -76 376
-105 15 -17 27 -42 27 -55 0 -35 -138 -670 -152 -701 -13 -29 -56 -54 -90 -54
-13 1 -173 34 -356 74 -293 64 -336 76 -359 98 -19 19 -26 36 -25 65 0 47 136
672 152 703 9 16 52 45 77 50 1 0 158 -34 350 -75z"/>
<path d="M320 772 c0 -10 43 -97 96 -193 53 -96 93 -165 90 -155 -10 29 -86
322 -86 330 0 7 -29 19 -72 30 -23 5 -28 3 -28 -12z"/>
<path d="M700 554 c-58 -71 -107 -132 -109 -137 -4 -12 291 212 301 227 10 16
-2 24 -47 31 l-40 7 -105 -128z"/>
</g>
</svg>
