<?xml version="1.0" standalone="no"?>
<!DOCTYPE svg PUBLIC "-//W3C//DTD SVG 20010904//EN"
 "http://www.w3.org/TR/2001/REC-SVG-20010904/DTD/svg10.dtd">
<svg version="1.0" xmlns="http://www.w3.org/2000/svg"
 width="65.000000pt" height="170.000000pt" viewBox="0 0 65.000000 170.000000"
 preserveAspectRatio="xMidYMid meet">
<metadata>
Created by potrace 1.16, written by Peter Selinger 2001-2019
</metadata>
<g transform="translate(0.000000,170.000000) scale(0.100000,-0.100000)"
fill="#000000" stroke="none">
<path d="M390 888 c0 -4 4 -8 8 -8 9 0 -2 -80 -24 -179 -37 -161 -164 -315
-322 -388 l-52 -24 0 -135 c0 -74 4 -134 8 -134 18 0 120 38 172 65 85 43 139
82 213 154 119 115 199 253 237 413 19 81 28 237 13 239 -32 6 -253 3 -253 -3z"/>
</g>
</svg>
