<?xml version="1.0" standalone="no"?>
<!DOCTYPE svg PUBLIC "-//W3C//DTD SVG 20010904//EN"
 "http://www.w3.org/TR/2001/REC-SVG-20010904/DTD/svg10.dtd">
<svg version="1.0" xmlns="http://www.w3.org/2000/svg"
 width="60.000000pt" height="60.000000pt" viewBox="0 0 60.000000 60.000000"
 preserveAspectRatio="xMidYMid meet">
<metadata>
Created by potrace 1.16, written by Peter Selinger 2001-2019
</metadata>
<g transform="translate(0.000000,60.000000) scale(0.100000,-0.100000)"
fill="#000000" stroke="none">
<path d="M185 540 c-49 -28 -102 -63 -117 -77 -28 -27 -28 -27 -28 -163 0
-136 0 -136 27 -162 41 -38 203 -128 232 -128 29 0 180 81 227 122 l34 30 0
137 c0 137 0 137 -27 163 -42 39 -204 128 -233 128 -14 0 -65 -23 -115 -50z
m84 -131 l33 -31 32 31 c36 35 61 39 88 14 34 -30 22 -55 -74 -149 -68 -66
-105 -94 -136 -104 -23 -7 -45 -10 -49 -7 -10 10 18 89 41 115 l20 22 -32 33
c-18 18 -32 37 -32 42 0 13 52 65 65 65 7 0 27 -14 44 -31z"/>
</g>
</svg>
