<?xml version="1.0" standalone="no"?>
<!DOCTYPE svg PUBLIC "-//W3C//DTD SVG 20010904//EN"
 "http://www.w3.org/TR/2001/REC-SVG-20010904/DTD/svg10.dtd">
<svg version="1.0" xmlns="http://www.w3.org/2000/svg"
 width="60.000000pt" height="60.000000pt" viewBox="0 0 60.000000 60.000000"
 preserveAspectRatio="xMidYMid meet">
<metadata>
Created by potrace 1.16, written by Peter Selinger 2001-2019
</metadata>
<g transform="translate(0.000000,60.000000) scale(0.100000,-0.100000)"
fill="#000000" stroke="none">
<path d="M185 540 c-49 -28 -102 -63 -117 -77 -28 -27 -28 -27 -28 -163 0
-136 0 -136 27 -162 41 -38 203 -128 232 -128 29 0 180 81 227 122 l34 30 0
137 c0 137 0 137 -27 163 -42 39 -204 128 -233 128 -14 0 -65 -23 -115 -50z"/>
</g>
</svg>
