<?xml version="1.0" standalone="no"?>
<!DOCTYPE svg PUBLIC "-//W3C//DTD SVG 20010904//EN"
 "http://www.w3.org/TR/2001/REC-SVG-20010904/DTD/svg10.dtd">
<svg version="1.0" xmlns="http://www.w3.org/2000/svg"
 width="70.000000pt" height="70.000000pt" viewBox="0 0 70.000000 70.000000"
 preserveAspectRatio="xMidYMid meet">
<metadata>
Created by potrace 1.16, written by Peter Selinger 2001-2019
</metadata>
<g transform="translate(0.000000,70.000000) scale(0.100000,-0.100000)"
fill="#000000" stroke="none">
<path d="M275 691 c3 -5 -58 -72 -136 -148 l-140 -138 3 -80 c7 -133 71 -229
198 -296 39 -21 59 -24 150 -24 101 0 108 1 168 34 67 36 114 85 153 161 21
39 24 59 24 150 0 101 -1 108 -34 168 -36 67 -86 114 -161 153 -36 19 -63 24
-138 26 -52 1 -90 -1 -87 -6z m75 -206 c0 -24 -3 -25 -60 -25 l-60 0 0 -45 c0
-45 0 -45 35 -45 32 0 35 2 35 30 0 25 4 30 25 30 24 0 25 -3 25 -55 l0 -55
-85 0 -85 0 0 83 c0 51 5 88 12 95 7 7 42 12 85 12 71 0 73 -1 73 -25z m100 2
c105 -70 96 -223 -16 -277 -55 -27 -74 -26 -74 5 0 17 6 25 18 25 33 0 80 38
92 74 9 28 9 44 0 72 -12 36 -59 74 -92 74 -12 0 -18 8 -18 25 0 21 5 25 29
25 15 0 43 -10 61 -23z"/>
</g>
</svg>
