<?xml version="1.0" standalone="no"?>
<!DOCTYPE svg PUBLIC "-//W3C//DTD SVG 20010904//EN"
 "http://www.w3.org/TR/2001/REC-SVG-20010904/DTD/svg10.dtd">
<svg version="1.0" xmlns="http://www.w3.org/2000/svg"
 width="163.000000pt" height="52.000000pt" viewBox="0 0 163.000000 52.000000"
 preserveAspectRatio="xMidYMid meet">
<metadata>
Created by potrace 1.16, written by Peter Selinger 2001-2019
</metadata>
<g transform="translate(0.000000,52.000000) scale(0.100000,-0.100000)"
fill="#000000" stroke="none">
<path d="M335 488 c1 -18 -4 -37 -9 -41 -7 -5 -5 -7 4 -5 8 1 33 -2 55 -7 22
-5 43 -9 46 -9 3 -1 22 -15 41 -31 66 -56 81 -158 34 -230 -36 -55 -154 -105
-157 -67 -1 10 -3 24 -4 32 -1 8 -3 23 -4 33 0 10 -9 17 -23 17 -12 0 -18 -3
-15 -7 4 -3 3 -11 -2 -17 -5 -6 -14 -38 -21 -71 -10 -47 -14 -56 -21 -40 -6
16 -8 13 -8 -15 -1 -26 2 -31 9 -20 6 10 10 11 10 3 0 -8 14 -13 34 -13 33 0
35 2 39 38 l4 37 1 -37 c2 -37 3 -38 41 -38 82 0 182 71 217 155 19 46 18 172
-2 220 -22 52 -102 130 -143 138 -18 4 -54 7 -80 7 -46 0 -47 0 -46 -32z"/>
</g>
</svg>
