<?xml version="1.0" standalone="no"?>
<!DOCTYPE svg PUBLIC "-//W3C//DTD SVG 20010904//EN"
 "http://www.w3.org/TR/2001/REC-SVG-20010904/DTD/svg10.dtd">
<svg version="1.0" xmlns="http://www.w3.org/2000/svg"
 width="392.000000pt" height="567.000000pt" viewBox="0 0 392.000000 567.000000"
 preserveAspectRatio="xMidYMid meet">
<metadata>
Created by potrace 1.16, written by Peter Selinger 2001-2019
</metadata>
<g transform="translate(0.000000,567.000000) scale(0.100000,-0.100000)"
fill="#000000" stroke="none">
<path d="M3890 4720 c-13 -9 -13 -10 0 -10 10 0 4 -10 -15 -28 -17 -15 -26
-25 -20 -22 6 3 0 -5 -13 -16 -15 -13 -22 -27 -18 -35 5 -9 3 -9 -6 1 -7 8
-19 16 -26 18 -10 2 -10 -2 -1 -19 8 -15 8 -19 0 -15 -6 4 -11 0 -11 -10 0
-11 -6 -15 -20 -11 -36 9 -42 -17 -12 -46 16 -15 31 -24 35 -20 4 3 7 1 7 -6
0 -7 25 -43 56 -82 l57 -70 -7 -147 c-3 -81 -8 -210 -11 -287 -3 -77 -8 -192
-10 -255 -20 -520 -27 -1670 -11 -2131 l7 -235 -39 -50 c-57 -72 -224 -236
-317 -311 -349 -281 -755 -460 -1205 -529 -159 -25 -528 -25 -691 -1 -544 81
-1003 312 -1395 702 -78 77 -156 160 -173 185 l-32 45 7 140 c9 173 9 1752 1
2045 -4 118 -10 343 -13 500 -3 157 -8 287 -10 289 -2 2 -4 -946 -4 -2108 l0
-2112 39 -42 40 -42 1920 -3 1921 -2 0 2365 c0 1301 -4 2365 -8 2365 -4 0 -14
-5 -22 -10z"/>
<path d="M2017 4119 c-33 -9 -91 -23 -130 -29 -227 -37 -351 -87 -455 -185
l-65 -60 7 38 c9 46 -1 47 -43 3 -30 -31 -40 -57 -65 -167 -5 -22 -13 -27 -46
-32 -23 -3 -52 -12 -65 -21 -28 -18 -36 -62 -9 -52 8 3 24 1 35 -4 18 -10 15
-15 -32 -62 -68 -68 -89 -118 -96 -226 -7 -120 9 -245 53 -392 48 -164 51
-182 30 -174 -23 9 -20 -15 6 -43 15 -16 23 -40 26 -79 4 -42 9 -58 22 -61 12
-3 20 -23 28 -67 17 -91 16 -104 -10 -109 -18 -3 -17 -5 7 -6 27 -1 32 -7 54
-63 35 -93 95 -181 175 -255 160 -148 283 -203 455 -203 57 0 178 23 231 44
13 5 14 -5 12 -66 -11 -225 97 -357 330 -403 80 -16 142 -10 210 18 44 19 109
82 141 139 35 60 35 74 1 23 -70 -106 -133 -146 -239 -153 -145 -9 -255 35
-342 136 -58 68 -73 112 -80 238 -5 81 -3 108 10 133 l16 32 -38 -30 c-51 -40
-76 -49 -176 -60 -99 -12 -239 0 -289 24 -45 22 -206 161 -257 222 -49 60
-100 156 -133 253 -23 70 -25 90 -28 298 -2 122 0 222 4 222 4 0 8 43 8 95 0
165 36 271 116 345 l46 42 82 -4 c49 -3 104 -14 138 -27 75 -29 168 -100 227
-172 25 -32 49 -58 53 -58 16 -2 18 80 3 147 -8 40 -15 78 -15 83 0 22 124
-57 171 -109 49 -54 95 -129 85 -139 -3 -3 -26 -9 -53 -14 -51 -10 -69 -21
-59 -38 5 -7 32 -9 79 -5 l72 6 29 -71 c39 -94 61 -97 53 -6 -8 83 -5 83 104
17 36 -22 49 -45 49 -88 0 -11 6 -29 14 -40 14 -19 15 -18 41 6 l26 25 -6
-163 c-3 -89 -13 -204 -21 -255 -23 -149 -38 -287 -31 -294 10 -9 30 20 69 99
27 56 37 68 58 68 18 0 21 3 11 9 -17 11 -7 87 19 146 10 22 21 61 25 87 5 38
13 52 43 77 28 22 34 32 26 41 -9 9 -17 9 -34 0 -22 -12 -22 -11 -15 32 4 23
25 100 46 170 33 107 39 141 39 216 0 175 -63 347 -189 517 -36 50 -84 119
-105 155 -82 136 -153 213 -234 254 -43 22 -86 18 -90 -9 -5 -28 -52 -75 -74
-75 -22 0 -21 -5 -2 59 8 30 12 57 7 61 -4 4 -34 -1 -66 -11z m341 -773 c47
-52 70 -117 79 -226 l6 -74 -30 24 c-17 14 -44 32 -60 41 -29 16 -30 20 -36
105 -4 49 -10 108 -13 132 -8 54 3 54 54 -2z"/>
<path d="M1484 2826 c-27 -27 -34 -42 -34 -74 l0 -40 73 -13 c39 -7 79 -13 87
-14 9 0 20 -4 26 -8 14 -8 34 35 34 74 0 65 -47 109 -116 109 -28 0 -44 -8
-70 -34z"/>
<path d="M2165 2848 c-37 -20 -55 -51 -55 -99 0 -70 11 -74 125 -53 l95 18 0
39 c0 55 -52 107 -106 107 -22 0 -48 -6 -59 -12z"/>
<path d="M2206 2362 c-3 -6 -1 -12 6 -14 6 -2 -8 -12 -31 -22 -81 -32 -183
-48 -301 -48 -109 0 -141 5 -289 48 l-24 7 23 -42 c29 -51 75 -82 104 -71 12
4 20 13 19 18 -3 12 280 5 317 -8 69 -24 87 -22 124 11 41 36 81 108 67 122
-5 5 -11 5 -15 -1z"/>
<path d="M2779 1957 c-20 -19 -40 -42 -43 -53 -19 -57 -116 -75 -193 -36 -55
29 -86 28 -150 -4 -58 -30 -64 -39 -51 -74 l10 -25 16 24 c55 77 97 90 169 51
62 -33 117 -27 179 20 52 39 54 40 64 19 17 -31 86 -59 122 -48 31 8 58 26 58
38 0 4 -18 5 -40 3 -60 -6 -85 4 -105 41 -14 27 -15 38 -6 55 15 29 13 28 -30
-11z"/>
</g>
</svg>
