<?xml version="1.0" standalone="no"?>
<!DOCTYPE svg PUBLIC "-//W3C//DTD SVG 20010904//EN"
 "http://www.w3.org/TR/2001/REC-SVG-20010904/DTD/svg10.dtd">
<svg version="1.0" xmlns="http://www.w3.org/2000/svg"
 width="226.000000pt" height="227.000000pt" viewBox="0 0 226.000000 227.000000"
 preserveAspectRatio="xMidYMid meet">
<metadata>
Created by potrace 1.16, written by Peter Selinger 2001-2019
</metadata>
<g transform="translate(0.000000,227.000000) scale(0.100000,-0.100000)"
fill="#000000" stroke="none">
<path d="M939 2260 c-483 -88 -860 -473 -929 -949 -18 -118 -8 -354 19 -453
110 -416 413 -719 829 -829 109 -29 335 -37 458 -15 473 82 839 449 925 926
19 106 16 316 -5 420 -75 355 -299 644 -620 800 -163 79 -259 101 -461 105
-93 2 -191 0 -216 -5z m255 -855 c51 -39 58 -40 86 -23 17 11 25 7 65 -32 34
-33 48 -41 56 -33 9 9 4 22 -20 52 -30 37 -31 41 -12 41 27 0 102 -111 125
-186 6 -18 3 -21 -18 -17 -38 8 -96 -15 -96 -37 0 -17 7 -18 68 -14 37 3 73 1
80 -4 7 -5 16 -26 19 -47 l6 -39 -28 22 c-32 25 -74 28 -113 8 -83 -44 -82
-126 2 -126 14 0 28 5 31 10 9 15 27 12 20 -2 -4 -7 1 -4 10 7 21 26 12 64
-23 92 -26 22 -26 23 -5 23 34 0 69 -20 84 -46 9 -18 15 -21 21 -12 5 9 8 6 8
-10 0 -12 10 -61 21 -107 13 -49 19 -95 15 -111 -6 -24 -10 -26 -44 -19 -20 4
-60 7 -89 8 -41 0 -50 3 -45 15 4 12 1 14 -14 8 -45 -19 -79 -25 -103 -20 -24
5 -25 4 -8 -9 15 -13 7 -15 -76 -19 -81 -4 -98 -9 -137 -34 -101 -67 -235 -2
-312 151 -37 74 -34 71 -53 55 -20 -16 -19 -58 4 -152 20 -87 14 -106 -33 -94
-31 8 -62 51 -88 123 -28 82 -13 143 37 143 13 0 25 6 28 13 3 8 10 7 26 -7
11 -11 24 -16 27 -13 14 14 74 212 74 243 0 157 90 233 277 234 78 0 83 -1
127 -35z m316 -695 c0 -14 -11 -42 -25 -61 -23 -36 -25 -36 -88 -36 -47 1 -75
-5 -106 -21 -61 -32 -136 -10 -167 49 -19 37 -12 88 10 70 7 -6 20 -9 27 -7
30 9 250 16 245 7 -3 -5 1 -11 9 -14 15 -6 65 45 65 66 1 24 30 -28 30 -53z"/>
<path d="M1014 1066 c-35 -16 -74 -61 -73 -85 0 -10 4 -7 11 9 11 25 11 25 17
-10 5 -31 11 -36 44 -44 28 -7 44 -6 58 2 11 7 24 10 29 7 5 -3 12 6 16 20 7
30 -18 75 -47 82 -22 6 -26 23 -5 23 34 0 79 -26 101 -58 16 -24 25 -31 25
-19 0 9 -13 31 -28 48 -33 37 -98 48 -148 25z"/>
</g>
</svg>
