<?xml version="1.0" standalone="no"?>
<!DOCTYPE svg PUBLIC "-//W3C//DTD SVG 20010904//EN"
 "http://www.w3.org/TR/2001/REC-SVG-20010904/DTD/svg10.dtd">
<svg version="1.0" xmlns="http://www.w3.org/2000/svg"
 width="226.000000pt" height="227.000000pt" viewBox="0 0 226.000000 227.000000"
 preserveAspectRatio="xMidYMid meet">
<metadata>
Created by potrace 1.16, written by Peter Selinger 2001-2019
</metadata>
<g transform="translate(0.000000,227.000000) scale(0.100000,-0.100000)"
fill="#000000" stroke="none">
<path d="M939 2260 c-483 -88 -860 -473 -929 -949 -18 -118 -8 -354 19 -453
110 -416 413 -719 829 -829 109 -29 335 -37 458 -15 473 82 839 449 925 926
19 106 16 316 -5 420 -75 355 -299 644 -620 800 -163 79 -259 101 -461 105
-93 2 -191 0 -216 -5z m146 -730 c33 -5 127 -16 208 -25 162 -17 195 -27 250
-74 47 -42 70 -111 72 -220 l1 -84 32 -15 c38 -18 42 -49 12 -77 -11 -10 -20
-28 -20 -40 0 -14 8 -25 20 -28 19 -5 29 -37 12 -37 -5 0 -26 -16 -48 -35 -34
-31 -46 -35 -99 -37 l-60 -2 53 -3 c38 -3 52 -8 52 -19 0 -21 -28 -29 -60 -17
-16 6 -34 7 -41 2 -9 -6 -10 -9 -2 -9 6 0 24 -5 40 -12 15 -6 31 -12 35 -12
36 -5 -8 -85 -92 -166 -37 -36 -102 -85 -146 -110 l-79 -45 -110 1 c-169 1
-216 23 -327 151 -98 113 -130 178 -136 277 -4 63 -2 78 9 74 7 -2 16 -15 19
-28 7 -30 29 -36 171 -44 63 -4 121 -9 129 -11 26 -8 85 49 99 94 17 57 62 79
95 45 15 -14 16 -13 16 9 0 33 -22 49 -61 45 -29 -3 -34 -8 -49 -56 -20 -61
-45 -92 -74 -92 -17 0 -18 -2 -6 -10 13 -8 12 -10 -5 -11 -11 -1 -33 -3 -50
-4 -65 -6 -219 15 -235 31 -14 15 -12 16 13 10 42 -10 32 2 -11 14 -22 5 -49
19 -62 30 -13 11 -24 20 -24 20 -1 0 -2 -37 -1 -82 0 -67 -3 -83 -15 -83 -22
0 -39 60 -39 137 -1 89 11 122 44 116 22 -5 25 -2 25 24 0 15 -5 37 -12 47
-18 29 3 69 38 73 29 3 29 2 58 108 22 78 68 144 119 169 47 23 142 27 242 11z"/>
<path d="M1009 1171 c9 -6 -29 -10 -105 -13 -91 -2 -128 -7 -157 -22 -44 -22
-70 -65 -61 -101 9 -36 21 -31 29 11 3 20 17 47 30 60 29 28 57 33 32 6 -26
-29 -21 -49 6 -24 12 11 35 26 51 31 l28 11 -26 -31 c-47 -56 -27 -113 40
-113 22 0 47 4 57 8 14 7 16 5 11 -10 -4 -15 -1 -13 16 6 16 18 21 34 18 61
-3 31 -1 36 10 26 8 -6 18 -20 22 -32 8 -18 9 -18 9 -1 1 10 -15 34 -34 53
l-35 35 36 -6 c19 -4 41 -9 48 -12 8 -3 16 2 19 11 7 17 -25 55 -45 55 -9 0
-9 -3 1 -9z"/>
<path d="M1250 1125 c-6 -8 -14 -34 -17 -57 l-6 -43 22 28 c15 17 32 27 49 27
l27 0 -33 -26 c-17 -14 -37 -35 -43 -47 -10 -22 -10 -22 10 1 25 28 29 28 23
-3 -13 -69 32 -100 103 -71 35 15 37 15 31 -2 -4 -11 0 -9 14 7 26 30 25 61
-1 95 -11 14 -17 26 -13 26 19 0 72 -43 84 -67 8 -18 14 -23 17 -15 3 8 -5 27
-17 44 l-22 29 29 -15 c31 -16 56 -42 66 -70 4 -11 11 -16 14 -12 13 13 -28
72 -68 98 -44 29 -157 60 -224 62 -48 1 -48 12 0 19 l30 4 -31 2 c-17 0 -37
-6 -44 -14z"/>
</g>
</svg>
