<?xml version="1.0" standalone="no"?>
<!DOCTYPE svg PUBLIC "-//W3C//DTD SVG 20010904//EN"
 "http://www.w3.org/TR/2001/REC-SVG-20010904/DTD/svg10.dtd">
<svg version="1.0" xmlns="http://www.w3.org/2000/svg"
 width="226.000000pt" height="227.000000pt" viewBox="0 0 226.000000 227.000000"
 preserveAspectRatio="xMidYMid meet">
<metadata>
Created by potrace 1.16, written by Peter Selinger 2001-2019
</metadata>
<g transform="translate(0.000000,227.000000) scale(0.100000,-0.100000)"
fill="#000000" stroke="none">
<path d="M940 2261 c-287 -53 -543 -210 -715 -439 -111 -148 -190 -334 -215
-511 -18 -118 -8 -354 19 -453 110 -416 413 -719 829 -829 109 -29 335 -37
458 -15 473 82 839 449 925 926 19 106 16 316 -5 420 -75 355 -299 644 -620
800 -163 79 -259 101 -461 105 -93 2 -190 0 -215 -4z m495 -694 c49 -27 81
-75 129 -192 55 -131 54 -125 13 -125 -20 0 -60 9 -89 21 -66 26 -113 20 -186
-24 -58 -35 -95 -77 -67 -77 13 0 13 -3 3 -20 -10 -16 -24 -20 -66 -20 -32 0
-67 -7 -90 -19 -32 -16 -41 -17 -62 -6 -22 12 -22 13 -4 17 17 4 17 5 -6 18
-16 9 -57 14 -119 15 l-93 0 -32 -36 c-28 -32 -64 -59 -80 -59 -3 0 -6 6 -6
14 0 7 -6 26 -14 41 -24 46 -30 164 -12 227 27 93 89 134 230 150 50 6 161 30
246 54 181 50 245 55 305 21z m113 -353 c62 -43 84 -168 42 -242 -45 -79 -166
-109 -241 -59 -45 30 -90 106 -96 161 -5 42 -3 48 28 77 68 64 216 99 267 63z
m-548 -139 c20 -10 32 -27 39 -52 6 -20 9 -38 7 -40 -2 -2 -15 1 -30 7 -65 24
-161 9 -208 -32 -20 -18 -23 -23 -8 -14 33 22 40 20 40 -8 0 -34 24 -50 68
-43 70 10 92 23 92 57 0 33 2 35 31 20 41 -23 10 -137 -48 -178 -61 -43 -136
-46 -193 -8 -92 61 -119 224 -44 268 78 46 190 56 254 23z m220 -2 c0 -34 40
-120 69 -150 38 -40 82 -57 146 -57 101 -1 178 52 205 140 7 24 8 17 9 -35 2
-153 -43 -280 -146 -408 -93 -115 -164 -163 -241 -163 -88 0 -317 121 -403
214 -25 26 -83 126 -77 131 2 3 22 0 43 -6 47 -13 103 -5 155 21 83 42 124
143 102 248 -11 54 -11 58 11 74 14 12 40 18 75 18 50 0 52 -1 52 -27z"/>
<path d="M1382 1105 c-44 -19 -92 -54 -92 -66 0 -6 4 -8 9 -4 6 3 15 -4 21
-15 12 -23 40 -25 105 -9 48 12 61 32 50 76 -6 25 -5 25 30 19 25 -5 35 -4 30
3 -9 16 -114 13 -153 -4z"/>
</g>
</svg>
