<?xml version="1.0" standalone="no"?>
<!DOCTYPE svg PUBLIC "-//W3C//DTD SVG 20010904//EN"
 "http://www.w3.org/TR/2001/REC-SVG-20010904/DTD/svg10.dtd">
<svg version="1.0" xmlns="http://www.w3.org/2000/svg"
 width="226.000000pt" height="227.000000pt" viewBox="0 0 226.000000 227.000000"
 preserveAspectRatio="xMidYMid meet">
<metadata>
Created by potrace 1.16, written by Peter Selinger 2001-2019
</metadata>
<g transform="translate(0.000000,227.000000) scale(0.100000,-0.100000)"
fill="#000000" stroke="none">
<path d="M1337 2239 c-10 -6 -24 -8 -31 -6 -8 3 -18 1 -22 -3 -5 -5 -19 -11
-31 -13 -13 -2 -26 -6 -29 -10 -4 -4 -17 -7 -29 -7 -11 0 -25 -4 -30 -8 -6 -5
-44 -21 -85 -37 -41 -15 -85 -37 -98 -49 -13 -11 -27 -20 -30 -20 -13 3 -37
-10 -45 -23 -4 -7 -13 -13 -19 -13 -12 0 -111 -70 -116 -82 -2 -5 -8 -8 -14
-8 -6 0 -29 -16 -52 -36 -50 -43 -59 -50 -68 -52 -5 -1 -26 -19 -47 -39 -22
-21 -53 -50 -68 -64 -15 -15 -34 -36 -42 -47 -8 -12 -18 -19 -22 -16 -4 2 -11
-6 -15 -18 -4 -12 -19 -36 -35 -53 -75 -81 -93 -103 -116 -142 -14 -24 -29
-43 -33 -43 -5 0 -17 -16 -26 -35 -9 -19 -20 -35 -24 -35 -4 0 -14 -15 -21
-32 -7 -18 -28 -59 -46 -90 -17 -32 -30 -58 -28 -58 2 0 -7 -22 -20 -49 -14
-26 -26 -58 -28 -69 -2 -12 -6 -25 -10 -28 -4 -4 -7 -18 -7 -30 0 -13 -5 -26
-10 -29 -6 -4 -8 -10 -5 -15 7 -11 -5 -41 -15 -35 -13 8 1 -66 31 -160 127
-399 469 -699 878 -770 107 -19 285 -19 393 0 466 81 834 451 919 925 19 106
16 316 -5 420 -59 280 -213 523 -436 689 -156 116 -411 221 -463 190z m-161
-630 c45 -10 91 -19 101 -19 33 0 135 -57 191 -105 44 -39 52 -43 52 -26 0 34
15 32 55 -9 21 -22 42 -37 46 -34 5 2 15 -9 24 -27 20 -38 16 -136 -14 -324
-11 -71 -25 -168 -31 -215 -6 -48 -21 -107 -35 -135 -50 -104 -235 -242 -355
-264 -131 -23 -273 25 -373 126 -60 61 -177 217 -177 237 -1 6 -9 29 -20 51
-11 22 -20 56 -21 75 l-2 35 -6 -35 c-4 -20 -12 -34 -19 -32 -7 1 -12 -5 -12
-14 0 -9 -6 -14 -12 -12 -26 9 -38 54 -38 148 0 77 4 101 20 128 23 37 33 39
68 12 14 -11 29 -17 32 -13 4 4 19 40 33 78 86 235 130 320 184 359 72 50 148
54 309 15z"/>
<path d="M844 1176 c-17 -8 -34 -21 -37 -29 -5 -12 2 -11 30 5 l35 21 -7 -24
c-8 -26 -9 -31 -7 -66 3 -30 68 -51 103 -33 17 10 24 10 27 1 7 -21 31 8 38
45 5 29 9 33 21 22 9 -7 19 -21 23 -33 9 -20 9 -20 9 1 1 11 -11 32 -26 47
-56 53 -144 71 -209 43z"/>
<path d="M1386 1085 c-26 -7 -55 -20 -64 -30 -9 -10 -11 -15 -4 -11 8 5 12 -1
12 -18 0 -52 61 -82 112 -55 15 8 22 8 28 -1 11 -18 30 20 30 60 0 40 17 36
48 -11 l24 -34 -4 29 c-6 59 -95 93 -182 71z"/>
</g>
</svg>
