<?xml version="1.0" standalone="no"?>
<!DOCTYPE svg PUBLIC "-//W3C//DTD SVG 20010904//EN"
 "http://www.w3.org/TR/2001/REC-SVG-20010904/DTD/svg10.dtd">
<svg version="1.0" xmlns="http://www.w3.org/2000/svg"
 width="1729.000000pt" height="812.000000pt" viewBox="0 0 1729.000000 812.000000"
 preserveAspectRatio="xMidYMid meet">
<metadata>
Created by potrace 1.16, written by Peter Selinger 2001-2019
</metadata>
<g transform="translate(0.000000,812.000000) scale(0.100000,-0.100000)"
fill="#000000" stroke="none">
<path d="M0 5330 l0 -2790 25 -6 c14 -3 25 -10 25 -15 0 -5 13 -9 29 -9 20 0
31 -6 34 -17 4 -17 5 -17 6 0 2 33 18 17 24 -25 3 -23 13 -45 21 -50 9 -5 16
-16 16 -23 0 -10 10 -15 30 -15 20 0 30 -5 30 -15 0 -10 10 -15 30 -15 17 0
30 -4 30 -9 0 -6 20 -13 45 -17 28 -4 45 -11 45 -20 0 -8 6 -14 14 -14 8 0 17
-13 21 -30 5 -23 12 -30 31 -30 15 0 24 -6 24 -15 0 -10 11 -15 35 -15 24 0
35 -5 35 -14 0 -8 14 -17 30 -21 16 -4 30 -13 30 -21 0 -8 7 -14 15 -14 8 0
15 -7 15 -15 0 -8 9 -15 19 -15 11 0 21 -5 23 -11 2 -5 22 -13 46 -16 26 -4
42 -11 42 -19 0 -9 10 -13 28 -12 75 5 132 -2 132 -17 0 -13 32 -15 230 -15
198 0 230 2 230 15 0 12 16 15 80 15 61 0 80 3 80 14 0 8 16 15 41 19 23 3 45
10 48 15 3 5 27 12 53 16 27 4 48 11 48 15 0 5 19 11 41 14 23 3 45 10 48 15
3 5 24 12 45 15 22 4 43 11 46 18 4 6 28 14 54 16 30 4 46 10 46 19 0 10 16
14 60 14 33 0 60 4 60 9 0 5 27 12 60 16 41 5 60 11 60 21 0 8 7 14 15 14 8 0
15 -7 15 -15 0 -13 21 -15 125 -15 104 0 125 2 125 15 0 13 20 15 124 15 115
0 124 -1 129 -20 4 -16 11 -19 34 -14 20 4 35 1 46 -10 20 -20 47 -21 47 -1 0
8 7 15 15 15 8 0 15 -7 15 -15 0 -10 10 -15 30 -15 20 0 30 -5 30 -15 0 -8 7
-15 15 -15 9 0 15 9 15 25 0 19 5 25 23 25 12 0 32 3 45 6 16 5 22 2 22 -10 0
-9 6 -16 14 -16 7 0 16 -9 19 -20 4 -16 14 -20 51 -20 25 0 46 -4 46 -10 0 -5
7 -10 15 -10 8 0 15 5 15 10 0 6 20 10 45 10 33 0 45 -4 45 -15 0 -8 -4 -15
-10 -15 -5 0 -10 -4 -10 -10 0 -14 27 -12 33 3 3 8 9 7 19 -6 13 -17 27 -18
174 -13 87 3 189 5 227 6 65 0 67 1 67 25 0 22 4 25 36 25 28 0 35 -3 30 -15
-7 -20 20 -20 32 0 6 11 32 17 95 22 l87 6 0 28 c0 26 4 29 30 29 20 0 30 5
30 15 0 12 14 15 65 15 51 0 65 3 65 15 0 10 10 15 29 15 25 0 31 5 36 30 4
16 13 30 21 30 9 0 14 11 14 29 0 28 3 30 42 33 38 3 43 6 46 29 3 27 23 39
70 39 12 0 22 4 22 9 0 5 23 11 50 15 34 5 50 11 50 21 0 8 7 15 15 15 10 0
15 10 15 30 0 20 5 30 15 30 10 0 15 10 15 30 0 38 18 40 22 3 3 -30 38 -47
38 -19 0 9 7 16 15 16 8 0 15 7 15 15 0 8 7 15 15 15 22 0 19 -47 -2 -53 -10
-3 -3 -5 15 -6 29 -1 32 2 32 28 0 30 18 41 67 41 19 0 24 7 29 40 6 34 10 40
30 40 13 0 24 -4 24 -10 0 -5 9 -10 20 -10 11 0 20 7 20 15 0 8 -7 15 -15 15
-8 0 -15 7 -15 15 0 11 12 15 45 15 33 0 45 4 45 15 0 18 27 20 33 3 2 -7 2
-1 0 15 -4 23 -1 27 21 27 26 0 66 -31 66 -50 0 -5 9 -10 20 -10 11 0 20 6 20
14 0 8 6 17 13 19 9 4 9 6 0 6 -7 1 -13 8 -13 16 0 8 -7 15 -15 15 -9 0 -15 9
-15 25 0 32 9 31 40 -5 18 -22 32 -30 55 -29 16 1 22 3 13 6 -24 6 -27 113 -3
113 10 0 15 -10 15 -30 0 -27 3 -30 30 -30 20 0 30 5 30 15 0 8 7 15 15 15 8
0 16 10 17 23 1 12 2 33 3 47 4 58 5 60 29 60 15 0 26 -7 29 -17 3 -10 5 -3 6
15 1 31 21 47 21 17 0 -8 9 -15 20 -15 11 0 20 7 20 15 0 8 7 15 15 15 8 0 15
7 15 15 0 8 7 15 15 15 8 0 15 7 15 15 0 10 10 15 30 15 27 0 30 -3 30 -30 0
-26 3 -30 29 -30 23 0 30 5 34 27 7 37 1 43 -33 36 -28 -5 -30 -3 -30 23 0 66
8 74 66 74 40 0 54 4 54 14 0 8 -6 16 -12 19 -8 2 -9 8 -4 13 5 5 11 4 13 -3
6 -16 40 -17 45 -2 2 5 22 13 46 16 l42 6 0 43 0 43 63 3 62 3 3 48 c3 45 5
47 33 47 l29 0 0 75 0 75 30 0 30 0 2 -82 c1 -46 1 -99 1 -118 0 -19 2 -25 4
-12 5 25 23 31 23 7 0 -8 7 -15 15 -15 8 0 15 -4 15 -10 0 -5 9 -10 20 -10 15
0 20 7 20 25 0 14 -7 28 -15 31 -8 4 -15 12 -15 20 0 8 -9 14 -20 14 -11 0
-20 7 -20 15 0 8 -4 15 -10 15 -5 0 -10 7 -10 15 0 8 5 15 10 15 6 0 10 -7 10
-15 0 -11 11 -15 35 -15 23 0 35 5 34 13 -3 26 1 47 11 47 6 0 10 -13 10 -30
0 -24 4 -30 21 -30 18 0 20 4 14 28 -3 15 -11 29 -16 30 -5 2 -9 17 -9 33 l0
29 90 0 90 0 0 45 c0 25 5 45 10 45 17 0 50 -39 50 -60 0 -11 7 -20 15 -20 10
0 15 10 15 28 0 15 5 34 10 42 9 13 12 13 21 -2 5 -10 17 -18 24 -18 10 0 15
-10 15 -30 0 -20 5 -30 15 -30 11 0 15 12 15 45 0 43 -1 45 -30 45 -20 0 -30
5 -30 15 0 9 -7 18 -15 21 -27 11 -17 34 15 34 20 0 30 -5 30 -15 0 -8 7 -15
15 -15 12 0 15 13 15 60 l0 60 95 0 95 0 0 59 c0 38 4 61 13 64 9 4 9 6 0 6
-16 1 -17 31 -2 31 6 0 13 -9 16 -20 3 -11 12 -20 19 -20 10 0 14 -15 14 -54
l0 -54 48 -4 47 -3 -3 123 c-3 104 -1 122 12 122 13 0 16 -21 18 -122 3 -101
6 -123 18 -123 15 0 16 26 20 523 0 17 5 32 10 32 6 0 10 -7 10 -15 0 -8 7
-15 15 -15 8 0 15 -7 15 -15 0 -8 -7 -15 -15 -15 -13 0 -15 -21 -15 -125 l0
-125 30 0 c29 0 30 2 30 44 0 24 3 51 6 60 8 20 34 21 34 1 0 -8 7 -15 15 -15
13 0 15 21 15 125 0 104 2 125 15 125 11 0 15 -12 15 -45 0 -33 4 -45 15 -45
10 0 15 10 15 30 0 39 27 41 33 3 2 -16 3 -10 1 11 -1 23 -9 43 -18 48 -24 13
-20 55 5 61 18 5 20 2 14 -23 -4 -17 -2 -31 5 -35 17 -11 23 0 22 47 -1 76 9
168 19 168 5 0 10 -28 10 -62 1 -35 4 -52 6 -38 7 33 19 40 76 40 46 0 47 1
47 30 0 20 -5 30 -15 30 -8 0 -15 7 -15 15 0 8 -7 15 -15 15 -9 0 -18 7 -21
15 -10 25 -24 17 -24 -15 0 -20 -5 -30 -15 -30 -18 0 -20 26 -2 34 6 3 0 4
-15 1 -27 -5 -28 -4 -28 40 0 44 12 60 24 30 3 -8 16 -15 30 -15 13 0 26 -7
30 -15 3 -9 18 -15 36 -15 l30 0 0 65 0 65 -45 0 -45 0 0 120 c0 73 4 120 10
120 6 0 10 -12 10 -26 0 -17 6 -28 20 -31 11 -3 20 -12 20 -19 0 -9 11 -14 30
-14 27 0 30 -3 30 -30 0 -27 3 -30 30 -30 20 0 30 -5 30 -15 0 -8 7 -15 15
-15 10 0 15 -10 15 -30 l0 -30 146 0 147 0 -6 41 c-3 23 -11 45 -17 49 -9 6
-9 9 0 12 8 2 14 29 15 73 l3 70 171 3 171 2 0 30 c0 20 -5 30 -15 30 -8 0
-15 7 -15 15 0 10 -10 15 -30 15 -20 0 -30 5 -30 15 0 8 -7 15 -15 15 -8 0
-15 7 -15 15 0 10 -11 15 -35 15 -24 0 -35 5 -35 15 0 8 -7 15 -15 15 -10 0
-15 10 -15 29 0 29 1 30 63 35 34 3 153 5 265 3 l202 -2 0 32 c0 23 -5 33 -15
33 -8 0 -15 7 -15 15 0 8 -7 15 -15 15 -8 0 -15 7 -15 15 0 8 -6 15 -14 15 -7
0 -16 9 -19 20 -3 14 -14 20 -31 20 -26 0 -26 1 -26 75 0 73 1 75 25 75 21 0
25 -5 25 -29 0 -16 -6 -31 -15 -35 -41 -15 7 -96 58 -96 23 0 27 -4 27 -30 0
-27 3 -30 30 -30 20 0 30 -5 30 -15 0 -8 7 -15 15 -15 10 0 15 -10 15 -30 l0
-30 140 0 140 0 0 109 c0 121 8 201 21 201 5 0 9 -13 9 -30 0 -27 3 -30 30
-30 27 0 30 3 30 30 0 42 28 40 32 -2 3 -33 3 -33 66 -36 l62 -3 0 -74 0 -75
125 0 125 0 0 45 0 44 78 3 c74 3 77 4 80 28 2 14 10 29 18 33 8 4 14 21 14
37 0 20 5 30 15 30 25 0 20 -56 -6 -63 -16 -4 -20 -12 -17 -34 5 -41 38 -45
38 -4 0 21 5 31 15 31 10 0 15 11 15 35 l0 35 60 0 60 0 0 -30 c0 -20 -5 -30
-15 -30 -10 0 -15 -11 -15 -35 0 -28 4 -35 20 -35 18 0 20 7 20 65 0 37 4 65
10 65 9 0 12 -24 12 -95 0 -27 0 -27 5 -5 3 14 11 29 19 33 8 4 14 21 14 37 0
40 18 38 22 -2 2 -22 9 -34 21 -36 14 -3 17 4 17 47 l0 51 65 0 c51 0 65 3 65
15 0 8 -9 15 -20 15 -11 0 -20 7 -20 15 0 11 12 15 50 15 38 0 50 -4 50 -15 0
-8 7 -15 15 -15 8 0 15 -7 15 -15 0 -8 4 -15 8 -15 13 0 22 208 15 318 -3 50
-10 92 -14 92 -5 0 -9 54 -9 120 l0 120 45 0 45 0 0 -126 0 -125 48 3 47 3 3
123 c2 99 5 122 17 122 13 0 15 37 15 250 l0 250 30 0 30 0 0 -125 0 -125 60
0 60 0 0 125 0 125 -30 0 -30 0 0 125 0 125 45 0 45 0 0 -125 0 -125 48 1 c26
0 41 3 35 6 -10 3 -13 38 -13 124 0 99 3 119 15 119 13 0 15 21 15 125 l0 125
125 0 125 0 0 250 0 250 125 0 125 0 0 95 0 95 -5635 0 -5635 0 0 -2790z
m8770 325 l0 -95 30 0 c27 0 30 -3 30 -30 0 -16 -4 -30 -10 -30 -5 0 -10 7
-10 15 0 8 -9 15 -20 15 -11 0 -20 7 -20 15 0 8 -7 15 -15 15 -8 0 -15 7 -15
15 0 10 -10 15 -30 15 -20 0 -30 5 -30 15 0 8 -7 15 -15 15 -10 0 -15 10 -15
30 0 20 5 30 15 30 10 0 15 11 15 35 0 35 0 35 45 35 l45 0 0 -95z m-968 -495
c-2 -16 -9 -30 -16 -30 -8 0 -8 -2 0 -8 6 -4 14 -14 17 -22 3 -8 6 2 6 23 1
26 5 37 16 37 8 0 15 -7 15 -15 0 -8 7 -15 15 -15 9 0 15 9 15 25 0 19 5 25
23 25 12 0 32 3 45 6 19 6 22 3 22 -25 0 -21 -5 -31 -15 -31 -8 0 -15 7 -15
15 0 8 -7 15 -15 15 -10 0 -15 -11 -15 -35 0 -24 -5 -35 -15 -35 -10 0 -15
-10 -15 -30 0 -20 -5 -30 -15 -30 -8 0 -15 7 -15 15 0 8 -7 15 -15 15 -11 0
-15 -12 -15 -45 0 -38 -3 -45 -20 -45 -16 0 -20 7 -20 30 0 25 -4 30 -25 30
-16 0 -25 6 -25 15 0 8 -5 15 -11 15 -15 0 -59 42 -59 58 0 6 -7 12 -15 12 -9
0 -15 9 -15 25 0 23 4 25 45 25 40 0 45 -3 45 -22 0 -26 44 -73 59 -63 6 3 8
19 4 35 -7 35 1 60 20 60 9 0 12 -9 9 -30z"/>
<path d="M10767 1694 c-4 -4 -4 -18 -1 -30 l6 -24 -126 0 -126 0 0 -50 c0 -43
-3 -50 -20 -50 -16 0 -20 -7 -20 -30 0 -20 5 -30 15 -30 8 0 15 -7 15 -15 0
-11 -11 -15 -40 -15 -29 0 -40 4 -40 15 0 8 -7 15 -15 15 -8 0 -15 -7 -15 -15
0 -13 -28 -15 -190 -15 l-190 0 0 -97 0 -96 -184 6 c-101 4 -277 4 -390 0
l-206 -6 0 -29 c0 -18 5 -28 15 -28 10 0 15 -10 15 -30 l0 -30 125 0 125 0 0
30 0 30 125 0 125 0 0 -30 0 -30 -125 0 c-104 0 -125 -2 -125 -15 0 -13 -22
-15 -140 -15 -133 0 -140 -1 -140 -20 0 -11 7 -20 15 -20 8 0 15 -4 15 -10 0
-5 -13 -10 -30 -10 -20 0 -30 5 -30 15 0 8 -7 15 -15 15 -8 0 -15 7 -15 15 0
8 -9 15 -20 15 -16 0 -20 -7 -20 -36 0 -31 -2 -35 -21 -29 -11 4 -36 4 -55 0
-32 -6 -34 -8 -34 -45 0 -28 4 -40 14 -40 8 0 13 -8 11 -17 -1 -10 0 -13 2 -6
2 6 23 13 47 15 37 3 42 1 38 -14 -3 -13 2 -18 17 -18 12 0 21 -6 21 -15 0
-23 -87 -21 -93 3 -4 15 -5 15 -6 0 -1 -10 -11 -18 -28 -20 -26 -3 -28 -7 -31
-51 -3 -48 -3 -48 -33 -42 -25 6 -29 4 -29 -14 0 -12 6 -21 15 -21 9 0 15 -9
15 -24 0 -26 -21 -36 -82 -36 -35 0 -38 -2 -38 -30 0 -16 5 -30 10 -30 6 0 10
-7 10 -15 0 -9 -9 -15 -25 -15 -16 0 -25 -6 -25 -15 0 -8 7 -15 15 -15 22 0
18 -27 -5 -33 -16 -4 -20 -14 -20 -47 0 -33 4 -43 20 -47 14 -4 20 -14 20 -34
0 -19 5 -29 15 -29 10 0 14 -9 13 -27 -4 -67 2 -103 18 -103 14 0 16 -8 10
-52 -4 -29 -13 -56 -19 -60 -8 -5 -6 -8 6 -8 14 0 17 -9 17 -44 0 -34 4 -46
18 -49 16 -4 16 -5 0 -6 -10 0 -18 -8 -18 -16 0 -13 471 -15 4180 -15 l4180 0
0 315 0 315 -35 0 c-24 0 -35 5 -35 15 0 8 -9 15 -20 15 -11 0 -20 6 -20 14 0
14 -29 26 -67 26 -14 0 -23 6 -23 15 0 8 -6 15 -14 15 -8 0 -17 7 -20 16 -5
13 -16 14 -60 9 -48 -6 -54 -5 -59 14 -4 16 -13 21 -36 21 -21 0 -31 5 -31 15
0 10 -10 15 -30 15 -16 0 -30 5 -30 10 0 6 -14 10 -31 10 -22 0 -32 5 -36 20
-3 11 -9 20 -14 20 -5 0 -9 7 -9 15 0 8 -7 15 -15 15 -8 0 -15 6 -15 14 0 7
-9 16 -20 19 -14 3 -20 14 -20 31 0 22 -4 26 -30 26 -23 0 -30 4 -30 20 0 16
-7 20 -30 20 -20 0 -30 5 -30 15 0 8 -7 15 -15 15 -8 0 -15 -9 -15 -20 0 -15
-7 -20 -29 -20 -20 0 -30 6 -34 20 -4 15 -14 20 -36 20 -17 0 -31 4 -31 9 0 5
-27 12 -59 16 -37 4 -62 12 -65 21 -3 8 -17 14 -31 14 -16 0 -25 6 -25 15 0 8
-7 15 -15 15 -8 0 -15 7 -15 15 0 11 -12 15 -50 15 -49 0 -50 1 -50 30 0 27
-3 30 -30 30 -27 0 -30 -3 -30 -30 0 -27 -3 -30 -30 -30 -20 0 -30 5 -30 15 0
9 -7 18 -15 21 -25 10 -17 24 15 24 20 0 30 5 30 15 0 8 -7 15 -15 15 -8 0
-15 6 -15 13 0 27 -45 51 -102 55 -41 3 -58 9 -58 18 0 11 -28 14 -140 14
-118 0 -140 -2 -140 -15 0 -13 -20 -15 -120 -15 -98 0 -122 -3 -126 -15 -7
-16 -30 -20 -36 -7 -2 5 -22 12 -45 16 -43 6 -43 6 -43 -24 0 -38 -18 -38 -50
0 -16 20 -33 30 -52 30 -26 0 -28 3 -28 39 0 48 -8 51 -147 51 -85 0 -103 3
-103 15 0 8 -7 15 -15 15 -8 0 -15 7 -15 15 0 12 -17 15 -87 15 -49 1 -144 3
-212 6 -116 5 -125 7 -147 31 -19 20 -24 22 -24 9 0 -9 -4 -16 -10 -16 -5 0
-10 7 -10 15 0 10 -11 15 -35 15 -23 0 -35 5 -35 14 0 17 -31 26 -97 26 -40 0
-53 4 -53 15 0 8 -7 15 -15 15 -8 0 -15 7 -15 15 0 8 -9 15 -20 15 -16 0 -20
-7 -20 -30 0 -20 -5 -30 -15 -30 -10 0 -15 10 -15 30 0 20 -5 30 -15 30 -8 0
-15 5 -15 10 0 6 -7 10 -15 10 -8 0 -15 -4 -15 -10 0 -5 7 -10 15 -10 10 0 15
-10 15 -30 l0 -30 -190 0 -190 0 0 40 c0 29 -4 40 -15 40 -11 0 -15 -11 -15
-40 l0 -40 -40 0 c-29 0 -40 4 -40 15 0 8 7 15 15 15 9 0 15 9 15 25 0 18 -5
25 -20 25 -15 0 -20 -7 -20 -25 0 -16 -6 -25 -15 -25 -9 0 -15 9 -15 25 0 16
-6 25 -15 25 -11 0 -15 -11 -15 -40 0 -38 -2 -40 -30 -40 -20 0 -30 5 -30 15
0 8 -7 15 -15 15 -8 0 -15 7 -15 15 0 8 -7 15 -15 15 -8 0 -15 5 -15 10 0 6
-16 10 -35 10 -43 0 -44 -9 -5 -40 16 -14 29 -28 30 -32 0 -5 -20 -8 -45 -8
-33 0 -45 4 -45 15 0 8 -7 15 -15 15 -8 0 -15 7 -15 15 0 8 -7 15 -15 15 -8 0
-15 6 -15 13 0 9 -60 13 -265 15 -262 3 -265 3 -265 -17 0 -17 -6 -21 -30 -21
-20 0 -30 -5 -30 -15 0 -8 7 -15 15 -15 8 0 15 -4 15 -10 0 -5 -20 -10 -45
-10 -33 0 -45 4 -45 15 0 8 -7 15 -15 15 -8 0 -15 7 -15 15 0 11 12 15 45 15
31 0 45 4 45 13 0 11 -105 14 -595 15 l-595 1 0 -29 0 -30 -200 0 -200 0 0 30
c0 29 -2 30 -43 30 -24 0 -47 -3 -50 -6z"/>
</g>
</svg>
