<?xml version="1.0" standalone="no"?>
<!DOCTYPE svg PUBLIC "-//W3C//DTD SVG 20010904//EN"
 "http://www.w3.org/TR/2001/REC-SVG-20010904/DTD/svg10.dtd">
<svg version="1.0" xmlns="http://www.w3.org/2000/svg"
 width="1040.000000pt" height="901.000000pt" viewBox="0 0 1040.000000 901.000000"
 preserveAspectRatio="xMidYMid meet">
<metadata>
Created by potrace 1.16, written by Peter Selinger 2001-2019
</metadata>
<g transform="translate(0.000000,901.000000) scale(0.100000,-0.100000)"
fill="#000000" stroke="none">
<path d="M0 6182 l0 -2828 38 -3 c83 -6 98 -8 121 -15 16 -6 21 -5 17 3 -4 7
-1 9 7 5 8 -3 18 -1 21 5 4 7 15 7 31 1 13 -5 27 -6 29 -1 8 13 59 0 73 -18 8
-10 15 -12 20 -6 12 15 84 13 79 -2 -4 -9 2 -10 17 -5 12 4 45 7 72 5 96 -4
186 -3 195 2 6 3 7 -1 4 -9 -5 -12 0 -14 23 -8 15 5 35 8 43 7 8 -1 23 2 32 7
14 7 16 5 11 -8 -5 -14 -3 -15 15 -5 13 7 22 8 22 2 0 -5 12 -4 27 4 26 14 48
11 38 -5 -6 -10 53 -2 75 10 10 6 21 3 33 -8 11 -10 21 -12 25 -7 4 6 14 11
22 12 8 1 27 4 42 7 15 4 30 1 33 -5 5 -7 14 -4 28 8 11 10 17 12 12 4 -6 -10
-2 -11 16 -6 13 4 26 11 29 14 3 4 15 6 28 5 12 -1 22 3 22 8 0 5 5 6 10 3 13
-8 14 -11 -15 86 -238 786 -229 1601 23 2349 241 713 691 1331 1306 1792 111
83 132 96 138 81 6 -15 7 -15 7 4 1 12 5 25 11 28 5 3 7 0 4 -8 -3 -8 0 -18 7
-22 8 -6 4 -12 -12 -22 -23 -13 -23 -14 -1 -8 14 4 22 2 22 -6 0 -8 3 -9 13 0
10 8 14 7 14 -4 0 -8 -4 -15 -8 -15 -6 0 -6 -11 1 -40 0 -3 7 6 14 19 11 20
14 21 19 7 4 -10 3 -15 -3 -11 -6 3 -10 1 -10 -4 0 -6 11 -11 25 -11 14 0 25
-4 25 -9 0 -5 -9 -7 -20 -4 -23 6 -26 -3 -6 -23 17 -16 30 -19 21 -4 -3 6 -2
10 3 10 5 0 14 -12 20 -26 7 -14 16 -23 21 -20 5 4 7 -3 4 -14 -3 -12 0 -20 7
-20 9 0 9 -4 -1 -17 -11 -13 -11 -15 -1 -9 9 6 12 3 10 -9 -2 -10 4 -20 12
-22 12 -4 12 -3 2 5 -11 7 -9 11 8 15 14 4 19 10 14 18 -5 8 -3 10 5 5 7 -5
10 -10 7 -13 -9 -9 14 -42 27 -39 6 1 9 1 4 -1 -4 -3 -4 -10 0 -16 4 -8 1 -7
-9 1 -13 10 -17 10 -22 -4 -4 -10 -2 -22 4 -28 8 -8 9 -6 4 8 -5 14 -3 17 7
14 8 -3 14 -10 14 -16 0 -5 3 -14 8 -18 4 -4 7 -20 7 -36 0 -15 5 -28 11 -28
5 0 7 5 4 11 -4 6 2 19 14 30 22 20 36 25 26 9 -3 -5 -1 -11 4 -11 6 -1 16 -3
21 -4 6 -1 13 -3 17 -4 4 0 2 -6 -5 -13 -8 -8 -15 -8 -25 0 -11 9 -14 8 -14
-4 0 -12 8 -15 29 -12 32 5 32 4 17 -24 -8 -15 -8 -19 0 -14 6 4 11 2 11 -3 0
-6 5 -11 10 -11 7 0 7 6 0 20 -7 14 -7 20 0 20 5 0 10 -4 10 -10 0 -5 7 -6 17
-3 11 4 14 3 9 -5 -4 -8 -2 -10 8 -6 8 3 12 12 9 20 -4 10 0 12 13 8 11 -4 24
-11 31 -16 7 -5 13 -4 17 4 3 7 4 4 3 -7 -2 -13 -9 -19 -20 -17 -9 2 -17 -1
-17 -7 0 -10 14 -9 42 4 10 4 15 11 12 16 -11 18 8 8 27 -13 10 -13 18 -18 19
-11 0 6 -6 14 -12 16 -7 3 1 6 19 6 17 1 34 -3 38 -8 3 -6 19 -17 36 -25 29
-14 30 -14 18 2 -13 16 -12 16 13 -1 26 -16 27 -16 23 3 -5 24 17 27 35 5 7
-9 21 -13 35 -9 13 3 26 1 29 -5 5 -7 0 -9 -11 -5 -12 5 -11 1 5 -11 13 -9 26
-14 29 -11 4 3 1 6 -6 6 -7 0 -9 5 -6 10 4 6 13 7 24 1 13 -7 21 -5 31 10 18
23 32 25 23 2 -5 -13 -2 -15 11 -10 10 4 20 7 22 7 3 0 2 5 -2 11 -4 8 0 9 15
4 14 -4 54 7 119 33 184 75 415 138 644 174 107 17 186 21 406 23 213 2 276 5
285 16 10 11 9 11 -5 0 -15 -11 -18 -9 -23 12 -4 15 0 37 9 56 9 17 12 31 6
31 -5 0 -10 7 -10 15 0 8 4 15 8 15 30 0 80 245 74 365 -1 10 2 24 6 30 4 5 5
33 2 60 -5 47 -7 39 -43 -125 -22 -96 -45 -186 -52 -200 -14 -26 -53 -50 -82
-50 -38 0 -680 144 -701 157 -13 8 -30 29 -37 47 -12 29 -9 51 30 231 74 342
105 477 115 496 16 28 52 49 86 49 40 0 668 -136 694 -150 45 -24 57 -83 34
-166 -5 -20 1 -21 98 -33 282 -34 702 -143 917 -237 29 -13 56 -24 60 -24 3 0
7 14 9 30 1 17 3 44 5 60 1 17 5 30 8 30 3 0 5 11 4 25 -2 14 1 25 7 25 5 0 6
9 3 20 -4 12 -1 28 7 37 11 14 11 16 -2 9 -13 -7 -13 -6 0 6 8 7 14 27 13 46
-1 17 3 30 8 27 5 -4 6 0 3 8 -3 8 -1 18 5 21 7 4 7 15 1 31 -8 20 -6 23 7 18
10 -4 14 -2 10 4 -4 6 0 10 10 9 13 -1 16 8 17 42 0 27 4 42 12 42 7 0 16 5
20 12 4 6 3 8 -3 5 -7 -4 -10 11 -8 41 1 26 -2 55 -7 64 -6 14 -5 16 7 12 13
-5 14 -2 5 21 -9 24 -9 26 4 16 11 -9 16 -9 22 0 4 8 3 9 -4 5 -8 -5 -12 1
-12 14 0 12 5 18 10 15 12 -8 12 -8 1 33 -6 18 -6 30 -2 27 5 -2 8 9 7 25 -1
17 -5 30 -9 30 -5 0 -5 5 -2 11 4 6 13 8 19 6 8 -3 12 3 11 16 -1 12 3 28 9
36 8 11 8 13 0 8 -7 -4 -14 0 -18 8 -3 8 -2 15 2 15 4 0 7 14 8 30 l1 30
-3268 0 -3269 0 0 -2828z"/>
<path d="M4520 8292 c0 -10 43 -97 96 -193 53 -96 93 -165 90 -155 -10 29 -86
322 -86 330 0 7 -29 19 -72 30 -23 5 -28 3 -28 -12z"/>
<path d="M4900 8074 c-58 -71 -107 -132 -109 -137 -4 -12 291 212 301 227 10
16 -2 24 -47 31 l-40 7 -105 -128z"/>
<path d="M2565 7034 c-16 -8 -128 -113 -248 -232 -164 -163 -221 -227 -233
-259 -31 -80 -27 -85 239 -351 l243 -242 45 0 c68 0 110 33 335 261 166 168
204 212 215 247 23 78 14 92 -221 333 -118 122 -228 230 -245 240 -37 23 -90
24 -130 3z m240 -404 l100 -100 -28 -27 -27 -28 -102 102 -102 102 24 26 c13
14 26 25 29 25 4 0 51 -45 106 -100z m-37 -161 c23 -10 42 -22 42 -27 0 -5
-11 -19 -25 -32 l-25 -24 -44 21 -43 21 -49 -49 -48 -49 21 -44 22 -44 -25
-23 c-13 -12 -26 -20 -28 -18 -3 2 -43 83 -91 178 l-86 174 32 33 31 32 137
-65 c75 -36 155 -73 179 -84z"/>
<path d="M6990 6919 c-151 -32 -287 -64 -303 -70 -43 -18 -87 -74 -87 -113 0
-61 130 -649 148 -669 26 -29 67 -47 108 -47 34 0 508 96 596 120 20 6 51 22
67 36 58 49 58 56 -18 412 -73 342 -77 352 -138 378 -48 21 -73 17 -373 -47z
m40 -252 c37 -19 70 -74 70 -118 0 -55 -44 -102 -112 -121 -29 -9 -52 -20 -51
-25 1 -5 5 -32 9 -60 l6 -50 -33 -7 c-17 -3 -33 -5 -34 -4 -7 11 -75 361 -71
365 10 10 111 31 151 32 22 0 51 -5 65 -12z m294 -23 c14 -36 7 -51 -21 -47
-36 6 -83 -12 -83 -32 0 -8 12 -17 28 -21 82 -18 103 -27 117 -47 18 -25 19
-60 4 -89 -15 -27 -85 -58 -135 -58 -35 0 -43 4 -48 23 -10 39 -7 42 49 42 93
0 100 46 8 60 -115 17 -127 131 -18 170 54 19 91 19 99 -1z"/>
<path d="M4810 6425 c-73 -21 -92 -31 -158 -84 l-63 -51 -62 10 c-103 17 -146
13 -214 -20 -115 -54 -212 -167 -223 -259 -5 -40 -9 -45 -55 -70 -27 -14 -88
-41 -135 -60 -80 -32 -91 -40 -191 -144 -65 -67 -118 -133 -135 -166 -16 -31
-58 -87 -93 -126 -96 -106 -150 -226 -171 -378 -16 -120 -12 -186 20 -387 36
-222 37 -322 8 -498 -20 -120 -21 -140 -9 -210 14 -81 29 -120 56 -142 24 -20
33 -3 46 85 15 110 19 117 36 75 22 -52 43 -72 60 -59 7 6 13 15 13 20 0 4 5
20 10 34 l10 26 34 -35 c27 -30 40 -36 73 -36 44 0 57 -10 67 -51 3 -15 24
-57 46 -93 103 -170 197 -261 378 -367 142 -83 190 -106 272 -126 114 -27 219
-24 305 11 39 16 81 39 95 51 19 17 78 45 95 45 1 0 5 -24 8 -52 17 -170 134
-318 306 -389 60 -25 92 -46 151 -103 86 -83 156 -121 250 -135 121 -19 254
22 353 109 25 22 52 40 60 40 23 0 171 77 192 100 20 22 15 26 -13 10 -26 -14
-153 -57 -251 -85 -98 -27 -264 -50 -313 -42 -99 15 -276 88 -310 129 -22 25
-23 81 -3 98 11 9 22 9 47 1 18 -6 59 -17 90 -26 31 -8 70 -22 86 -32 29 -18
122 -21 122 -4 0 4 -19 17 -42 29 -24 12 -50 26 -58 31 -8 5 -66 26 -129 45
-142 45 -181 72 -181 125 0 61 38 95 85 76 119 -46 145 -55 157 -55 7 0 23 -7
35 -15 12 -8 28 -13 37 -10 53 17 50 14 31 34 -22 25 -97 60 -215 101 -52 18
-105 42 -117 53 -34 30 -30 72 10 112 29 29 39 33 72 29 37 -4 118 -27 163
-45 13 -5 32 -9 43 -9 33 0 19 33 -21 50 -110 46 -216 107 -230 133 -14 25
-13 30 5 64 31 57 54 65 170 58 55 -3 127 -12 160 -21 33 -9 74 -18 91 -21 41
-6 105 26 139 71 28 37 30 55 26 207 -3 106 20 169 84 228 57 53 109 68 177
52 28 -6 53 -10 55 -7 8 7 -19 221 -38 306 -22 102 -46 178 -87 285 -36 92
-77 247 -92 343 -18 112 -51 234 -82 300 -31 64 -119 183 -178 237 -17 17 -45
58 -61 93 -111 244 -305 414 -549 480 -152 41 -269 50 -350 27z m-357 -991
c132 -30 251 -101 369 -221 91 -92 121 -130 114 -141 -3 -5 -39 -12 -79 -15
-83 -7 -206 -48 -233 -78 -17 -18 -17 -21 -1 -36 15 -15 21 -16 50 -4 99 40
148 54 204 58 97 9 126 -1 180 -59 26 -28 84 -74 128 -103 44 -29 104 -74 132
-100 55 -49 108 -115 82 -101 -11 6 -11 5 1 -6 16 -14 22 -60 10 -68 -4 -3
-10 -41 -14 -85 -7 -106 -18 -161 -64 -315 -76 -253 -135 -355 -317 -556 -109
-120 -120 -130 -198 -181 -112 -74 -148 -86 -238 -81 -69 4 -89 10 -181 57
-127 63 -144 74 -288 177 -143 102 -222 183 -288 299 -120 207 -133 247 -157
485 -8 74 -21 182 -30 240 -36 245 -28 323 48 480 33 69 58 102 132 175 111
111 160 141 257 156 40 6 111 17 158 24 116 18 140 17 223 -1z m1227 -690 c61
-120 21 -488 -55 -518 -27 -10 -55 -7 -55 7 1 6 7 41 15 77 8 36 18 126 21
200 l6 135 35 36 c28 30 32 38 20 47 -11 10 -20 8 -40 -8 -30 -23 -35 -18 -43
43 -6 39 -4 46 12 49 30 7 57 -15 84 -68z"/>
<path d="M3912 4919 c-102 -13 -265 -120 -249 -163 9 -22 21 -20 55 9 81 68
189 100 308 90 67 -5 82 -4 94 10 34 41 -78 70 -208 54z"/>
<path d="M4836 4774 c-65 -20 -146 -101 -169 -168 -19 -56 -22 -86 -7 -86 6 0
10 6 10 13 0 7 14 35 31 63 l32 49 14 -55 c7 -30 24 -66 38 -79 l24 -24 118
38 c65 21 123 45 130 52 15 19 6 79 -19 122 l-19 33 28 -6 c31 -8 123 -66 123
-78 0 -5 4 -8 10 -8 20 0 -23 66 -60 92 -43 31 -135 58 -195 57 -22 0 -62 -7
-89 -15z"/>
<path d="M3865 4622 c-92 -45 -152 -118 -138 -170 8 -31 17 -27 31 12 12 32
72 96 91 96 4 0 6 -24 3 -52 -2 -29 1 -66 7 -81 l11 -28 135 2 135 3 10 37 c6
20 7 50 4 68 -4 17 -2 31 3 31 5 0 29 -20 54 -45 39 -39 48 -43 58 -31 17 20
4 58 -18 54 -9 -2 -42 18 -71 44 -72 63 -112 81 -190 86 -56 3 -74 -1 -125
-26z"/>
<path d="M4307 4160 c-17 -62 4 -120 53 -145 73 -38 224 -5 255 56 15 27 21
79 10 79 -3 0 -22 -17 -43 -39 -28 -29 -50 -41 -87 -49 -96 -20 -162 12 -174
85 -6 35 -7 36 -14 13z"/>
<path d="M4915 4019 c-69 -28 -351 -97 -449 -109 -44 -6 -138 -13 -208 -17
-70 -3 -133 -10 -140 -14 -23 -14 51 -79 137 -119 187 -87 373 -66 570 65 87
58 155 140 155 187 0 33 0 33 -65 7z"/>
<path d="M7630 5160 c-42 -7 -69 -22 -92 -47 -15 -17 -148 -611 -148 -664 0
-31 32 -83 65 -105 14 -9 85 -29 158 -45 512 -113 513 -113 567 -76 18 12 37
29 42 37 5 8 39 159 77 335 52 242 66 326 59 345 -14 39 -69 89 -108 100 -28
7 -288 63 -550 119 -19 4 -51 4 -70 1z m180 -255 c4 -2 10 -33 14 -67 4 -35
15 -123 25 -196 l18 -133 -31 6 c-39 9 -56 30 -56 72 0 27 -4 34 -27 39 -16 3
-46 10 -67 16 -36 9 -41 7 -58 -14 -10 -12 -20 -31 -24 -40 -6 -18 -22 -21
-62 -10 -21 7 -18 15 80 175 l102 169 40 -6 c21 -4 42 -9 46 -11z m206 -135
c8 0 14 -6 14 -13 0 -10 13 -13 53 -9 60 5 101 -19 110 -64 4 -22 -29 -221
-38 -232 -2 -2 -19 0 -38 3 l-35 7 19 86 c24 111 24 118 -6 138 -20 13 -31 14
-48 7 -19 -9 -26 -27 -42 -107 -18 -91 -20 -96 -44 -96 -49 0 -50 7 -25 130
35 170 33 163 50 156 9 -3 22 -6 30 -6z"/>
<path d="M2197 3771 c-38 -41 -118 -165 -186 -290 -48 -86 -60 -116 -51 -125
9 -8 16 -5 31 13 25 30 54 22 45 -14 -13 -52 32 -21 53 36 l16 43 60 -2 c115
-5 115 -5 115 -77 0 -40 5 -67 13 -74 11 -8 13 -5 9 19 -2 17 0 30 6 30 6 0
17 3 26 6 12 5 16 0 16 -19 0 -37 10 -57 28 -57 13 0 14 14 8 108 -7 120 -30
282 -49 356 -13 49 -14 50 -65 61 -49 12 -52 11 -75 -14z"/>
<path d="M8098 2543 c6 -2 12 -8 12 -11 0 -10 -63 -8 -79 2 -11 7 -13 5 -8 -7
4 -10 0 -17 -9 -19 -8 -2 -39 -34 -67 -73 l-52 -70 -402 -3 c-398 -2 -403 -2
-414 -23 -7 -13 -7 -19 -1 -15 6 3 13 3 15 -1 8 -13 -12 -53 -25 -53 -9 0 -9
3 2 10 8 5 11 12 7 17 -9 8 -27 -15 -27 -36 0 -8 6 -11 15 -7 10 4 15 -1 15
-14 0 -21 -20 -28 -20 -7 -1 15 -29 -34 -30 -51 0 -7 5 -10 10 -7 6 4 7 11 4
17 -4 7 -2 8 5 4 6 -4 9 -12 6 -17 -4 -5 -1 -9 4 -9 6 0 11 -16 11 -35 0 -28
-4 -35 -20 -36 -11 -1 -26 -2 -32 -3 -17 -1 -31 -24 -23 -37 4 -5 1 -17 -7
-26 -11 -14 -11 -16 1 -8 11 6 13 4 8 -9 -6 -14 -3 -16 14 -11 11 4 26 1 34
-5 11 -9 15 -9 15 -1 0 8 24 11 78 9 73 -3 77 -4 80 -27 4 -27 -15 -43 -37
-32 -9 5 -22 6 -28 4 -8 -3 -13 4 -13 16 0 12 -4 21 -10 21 -5 0 -10 -9 -10
-20 0 -11 -4 -20 -10 -20 -5 0 -10 9 -10 20 0 11 -4 20 -10 20 -5 0 -10 -9
-10 -21 0 -14 -5 -19 -13 -16 -8 3 -20 1 -27 -3 -8 -5 -22 -4 -31 1 -13 7 -21
4 -32 -11 -7 -11 -17 -17 -20 -13 -4 3 -7 1 -7 -5 0 -7 4 -12 10 -12 5 0 7 -7
4 -15 -4 -8 -10 -15 -16 -15 -5 0 -7 4 -3 9 3 5 1 12 -4 16 -6 3 -8 -3 -6 -15
2 -11 0 -20 -4 -20 -14 0 -21 -43 -10 -57 6 -6 7 -18 3 -24 -6 -11 -13 -43
-16 -77 -1 -8 -11 -18 -23 -24 -31 -14 -48 -45 -29 -52 8 -3 13 -2 10 2 -2 4
0 14 5 22 7 12 8 10 6 -7 -2 -12 -6 -26 -10 -29 -4 -4 -7 -20 -7 -34 0 -15 -7
-34 -17 -41 -15 -13 -15 -12 -4 9 13 25 7 43 -8 26 -16 -17 -23 -72 -9 -71 7
0 53 -1 103 -1 l90 -2 -51 -34 c-264 -178 -586 -339 -874 -438 -207 -71 -513
-145 -713 -173 -44 -6 -46 -8 -36 -27 6 -11 12 -31 14 -44 2 -19 0 -22 -11
-13 -18 15 -31 -15 -15 -35 6 -7 7 -17 3 -21 -4 -5 -2 -5 5 -1 8 4 15 -2 19
-19 3 -14 11 -22 17 -18 5 3 8 2 6 -3 -3 -5 -11 -21 -19 -37 -11 -23 -11 -29
0 -40 7 -6 10 -7 7 -2 -3 6 -1 17 4 25 7 12 8 11 6 -5 -2 -11 -9 -31 -14 -45
-11 -27 3 -64 21 -53 5 4 7 -2 4 -13 -3 -11 1 -26 9 -33 20 -18 13 -66 -9 -65
-10 1 -15 -2 -12 -8 3 -5 14 -6 25 -3 12 4 19 2 19 -6 0 -7 -3 -9 -7 -6 -8 9
-33 -12 -33 -27 0 -6 5 -4 10 4 8 13 10 13 10 -2 0 -9 3 -18 8 -21 4 -2 1 -2
-5 -1 -18 5 -16 -22 3 -40 8 -9 12 -16 8 -16 -3 0 0 -8 7 -17 10 -12 11 -15 1
-9 -9 6 -11 1 -8 -18 2 -14 -1 -27 -7 -30 -9 -3 -9 -5 1 -5 6 -1 12 -10 12
-22 0 -15 4 -19 16 -15 14 5 15 4 4 -9 -7 -8 -9 -15 -5 -15 4 0 2 -6 -4 -14
-10 -11 -8 -17 6 -25 16 -9 16 -10 2 -11 -19 0 -36 -33 -20 -38 6 -2 8 -16 4
-33 l-5 -29 2285 0 c2251 0 2286 0 2349 20 155 48 280 173 328 329 19 61 20
97 20 961 0 589 -3 901 -10 905 -5 3 -10 1 -10 -4 0 -15 -30 -14 -30 2 -1 8
-5 7 -13 -4 -9 -11 -20 -14 -39 -8 -15 4 -29 4 -32 1 -3 -3 -6 0 -6 7 0 7 -4
9 -10 6 -5 -3 -10 0 -10 7 0 9 -3 9 -10 -2 -5 -8 -10 -10 -10 -4 0 7 -11 9
-26 6 -16 -3 -25 -1 -21 5 3 5 -7 8 -24 7 -19 -1 -32 3 -36 12 -4 12 -8 12
-21 2 -12 -10 -16 -10 -19 0 -3 6 -9 10 -14 6 -5 -3 -39 7 -75 21 -37 15 -75
24 -85 22 -11 -3 -25 1 -33 8 -7 8 -16 11 -20 8 -3 -3 -12 0 -21 7 -8 7 -21
10 -30 7 -8 -4 -17 -1 -21 4 -3 6 -15 9 -25 6 -10 -3 -22 -1 -25 5 -3 5 -12 7
-20 4 -7 -3 -20 2 -29 10 -8 9 -15 11 -15 5 0 -6 -6 -8 -12 -6 -7 3 -28 7 -47
9 -18 2 -37 9 -41 16 -5 7 -10 8 -14 2 -6 -11 -67 -6 -75 6 -3 4 -16 7 -28 6
-13 -1 -23 3 -23 7 0 5 -9 9 -21 9 -15 0 -19 -4 -14 -19 5 -16 2 -18 -15 -14
-14 4 -17 8 -10 13 8 5 6 11 -5 20 -12 10 -15 10 -15 -4 0 -20 -14 -20 -45 0
-14 9 -25 12 -25 8 0 -5 -5 -2 -10 6 -8 12 -10 10 -10 -10 -1 -25 -1 -25 -10
-2 -5 12 -15 23 -22 23 -7 1 -23 3 -36 4 -12 1 -25 -2 -28 -6 -3 -5 -14 -5
-24 1 -10 5 -26 7 -35 4 -9 -4 -22 1 -31 12 -15 18 -15 18 -9 -1 3 -11 3 -16
-1 -12 -4 4 -13 2 -20 -4 -8 -7 -14 -7 -19 1 -4 6 -1 9 6 8 6 -2 13 2 16 8 2
6 -7 10 -19 10 -14 -1 -22 4 -20 12 2 10 -2 10 -17 2 -11 -5 -27 -7 -35 -4 -9
3 -16 1 -16 -5 0 -6 -7 -11 -15 -11 -8 0 -15 4 -15 9 0 6 -9 8 -20 6 -12 -2
-23 2 -27 10 -3 8 -9 15 -15 15 -5 0 -6 -6 -2 -12 6 -10 4 -10 -7 -2 -8 6 -24
10 -36 9 -13 -1 -23 3 -24 9 0 6 -4 2 -9 -9 l-9 -20 0 20 c-1 17 -3 18 -11 5
-8 -12 -12 -12 -18 -2 -5 8 -16 10 -27 6 -13 -5 -16 -4 -11 4 10 17 0 15 -18
-4 -10 -9 -16 -11 -16 -4 0 7 -8 9 -19 5 -11 -3 -23 0 -27 6 -5 8 -3 9 6 4 8
-5 11 -4 7 3 -9 13 -43 8 -40 -6 2 -6 -6 -10 -17 -9 -10 1 -17 4 -14 8 2 4 -3
10 -12 13 -22 8 -26 8 -19 -3 9 -16 -12 -22 -27 -9 -21 20 -38 20 -38 1 -1
-16 -2 -15 -12 2 -18 32 -30 35 -57 14 l-25 -20 -13 23 c-7 13 -12 17 -13 10
0 -7 -5 -10 -11 -7 -5 4 -18 -2 -28 -14 -10 -11 -21 -18 -24 -14 -4 3 1 12 10
19 15 10 9 11 -31 7 -31 -4 -47 -2 -43 4 3 5 0 10 -7 10 -9 0 -12 -7 -8 -16 5
-14 3 -14 -10 -3 -12 9 -18 10 -23 2 -5 -8 -13 -5 -26 9 -11 12 -25 21 -32 20
-9 0 -9 -2 1 -6z m-1013 -714 c4 -11 20 -25 36 -31 33 -11 36 -20 13 -38 -9
-8 -14 -25 -12 -44 2 -26 0 -30 -17 -28 -35 6 -60 5 -78 -3 -16 -7 -18 -4 -16
23 2 20 -3 38 -16 52 -16 18 -17 23 -5 30 8 6 22 10 31 10 9 0 21 11 27 25 14
30 28 32 37 4z m289 -39 c21 0 21 -29 1 -37 -11 -4 -15 -16 -13 -37 2 -24 -1
-30 -12 -27 -8 3 -26 5 -40 5 -14 0 -32 -2 -40 -5 -11 -3 -14 3 -12 24 2 20
-4 34 -20 47 l-23 19 37 15 c20 9 40 25 43 37 7 20 8 20 35 -10 16 -17 36 -31
44 -31z"/>
</g>
</svg>
