<?xml version="1.0" standalone="no"?>
<!DOCTYPE svg PUBLIC "-//W3C//DTD SVG 20010904//EN"
 "http://www.w3.org/TR/2001/REC-SVG-20010904/DTD/svg10.dtd">
<svg version="1.0" xmlns="http://www.w3.org/2000/svg"
 width="50.000000pt" height="50.000000pt" viewBox="0 0 50.000000 50.000000"
 preserveAspectRatio="xMidYMid meet">
<metadata>
Created by potrace 1.16, written by Peter Selinger 2001-2019
</metadata>
<g transform="translate(0.000000,50.000000) scale(0.100000,-0.100000)"
fill="#000000" stroke="none">
<path d="M110 271 l0 -170 54 -15 c67 -20 76 -20 76 -1 0 12 13 15 60 15 l60
0 0 60 c0 47 -3 60 -15 60 -11 0 -15 -12 -15 -45 l0 -45 -44 0 -45 0 -3 140
-3 140 48 0 47 0 0 -40 c0 -29 4 -40 15 -40 12 0 15 13 15 55 l0 55 -125 0
-125 0 0 -169z"/>
</g>
</svg>
