<?xml version="1.0" standalone="no"?>
<!DOCTYPE svg PUBLIC "-//W3C//DTD SVG 20010904//EN"
 "http://www.w3.org/TR/2001/REC-SVG-20010904/DTD/svg10.dtd">
<svg version="1.0" xmlns="http://www.w3.org/2000/svg"
 width="950.000000pt" height="250.000000pt" viewBox="0 0 950.000000 250.000000"
 preserveAspectRatio="xMidYMid meet">
<metadata>
Created by potrace 1.16, written by Peter Selinger 2001-2019
</metadata>
<g transform="translate(0.000000,250.000000) scale(0.100000,-0.100000)"
fill="#000000" stroke="none">
<path d="M1637 1638 c-14 -18 -31 -52 -38 -76 -11 -36 -10 -51 4 -96 9 -29 28
-63 41 -75 l24 -23 -5 64 c-6 60 -5 62 12 48 17 -14 18 -13 11 20 -4 19 -9 55
-10 80 -2 25 -2 34 1 20 6 -30 31 -60 50 -60 11 0 10 6 -6 25 -11 14 -22 39
-26 55 -11 50 -30 56 -58 18z"/>
<path d="M786 241 c-4 -5 -9 -31 -12 -58 -7 -62 -20 -88 -51 -102 -24 -11 -24
-10 -18 19 4 19 3 30 -4 30 -6 0 -11 -4 -11 -10 0 -13 -37 -50 -51 -50 -6 0
-8 11 -5 28 3 15 2 41 -2 57 l-9 30 -7 -31 c-9 -40 -68 -110 -84 -100 -19 12
-14 42 14 75 19 22 22 31 11 31 -15 0 -56 -42 -89 -90 -14 -21 -17 -22 -17 -7
-1 17 -3 17 -27 -2 -29 -22 -59 -27 -69 -11 -4 6 5 10 20 10 14 0 28 6 31 14
3 8 21 17 40 20 36 7 42 21 21 51 -11 14 -21 16 -43 11 -83 -20 -87 -20 -75 3
7 12 8 21 2 21 -5 0 -15 -16 -22 -35 -17 -46 -29 -40 -44 18 -18 71 -25 68
-25 -9 0 -38 -3 -79 -6 -92 -6 -19 -10 -14 -34 35 -15 32 -35 67 -45 78 l-17
20 8 -20 c4 -11 15 -49 24 -85 l18 -65 148 -2 c82 -2 313 -7 514 -12 l365 -10
33 32 c19 18 45 51 59 74 13 24 38 54 55 68 22 18 25 25 13 25 -10 0 -47 -31
-84 -69 -82 -85 -98 -91 -140 -52 -27 26 -31 33 -21 51 16 29 3 25 -41 -15
-22 -19 -42 -35 -47 -35 -26 1 -37 24 -42 87 l-5 68 -18 -32 c-9 -18 -17 -44
-17 -58 0 -31 -22 -76 -46 -96 -16 -13 -17 -11 -11 25 6 40 -11 97 -34 111 -9
6 -11 -1 -6 -29 11 -67 -18 -100 -76 -88 -16 3 -18 13 -15 93 2 49 2 89 1 89
-1 0 -4 -4 -7 -9z"/>
</g>
</svg>
