<?xml version="1.0" standalone="no"?>
<!DOCTYPE svg PUBLIC "-//W3C//DTD SVG 20010904//EN"
 "http://www.w3.org/TR/2001/REC-SVG-20010904/DTD/svg10.dtd">
<svg version="1.0" xmlns="http://www.w3.org/2000/svg"
 width="70.000000pt" height="70.000000pt" viewBox="0 0 70.000000 70.000000"
 preserveAspectRatio="xMidYMid meet">
<metadata>
Created by potrace 1.16, written by Peter Selinger 2001-2019
</metadata>
<g transform="translate(0.000000,70.000000) scale(0.100000,-0.100000)"
fill="#000000" stroke="none">
<path d="M275 691 c3 -5 -58 -72 -136 -148 l-140 -138 3 -80 c7 -133 71 -229
198 -296 39 -21 59 -24 150 -24 101 0 108 1 168 34 67 36 114 85 153 161 21
39 24 59 24 150 0 101 -1 108 -34 168 -36 67 -86 114 -161 153 -36 19 -63 24
-138 26 -52 1 -90 -1 -87 -6z m42 -232 l32 -32 36 32 c20 17 42 31 50 31 20 0
55 -36 55 -56 0 -9 -40 -58 -90 -108 -71 -72 -99 -94 -132 -103 -24 -7 -46 -9
-50 -5 -11 11 13 84 36 110 l20 22 -32 33 c-18 18 -32 37 -32 42 0 12 52 65
64 65 5 0 25 -14 43 -31z"/>
</g>
</svg>
