<?xml version="1.0" standalone="no"?>
<!DOCTYPE svg PUBLIC "-//W3C//DTD SVG 20010904//EN"
 "http://www.w3.org/TR/2001/REC-SVG-20010904/DTD/svg10.dtd">
<svg version="1.0" xmlns="http://www.w3.org/2000/svg"
 width="693.000000pt" height="745.000000pt" viewBox="0 0 693.000000 745.000000"
 preserveAspectRatio="xMidYMid meet">
<metadata>
Created by potrace 1.16, written by Peter Selinger 2001-2019
</metadata>
<g transform="translate(0.000000,745.000000) scale(0.100000,-0.100000)"
fill="#000000" stroke="none">
<path d="M1816 7269 l-26 -31 0 -704 c0 -387 3 -704 5 -704 3 0 24 12 48 27
66 43 166 100 237 134 36 18 73 36 83 41 11 5 20 8 21 6 2 -2 10 -33 20 -69
24 -90 65 -158 144 -238 37 -37 64 -63 60 -57 -12 16 -9 38 4 30 7 -4 8 -3 4
4 -4 7 -15 12 -25 12 -9 0 -33 16 -52 36 l-34 35 30 -7 c17 -4 38 -11 47 -15
21 -11 68 -12 67 -1 -5 32 6 30 41 -7 22 -23 42 -40 44 -39 8 4 56 -64 56 -79
0 -8 12 -13 31 -13 25 0 29 3 24 19 -4 14 2 21 24 30 25 11 32 10 50 -5 24
-21 28 -64 6 -64 -9 0 -12 6 -8 17 4 11 3 14 -5 9 -12 -7 -13 -56 -2 -56 11 0
2 -60 -10 -76 -11 -12 -10 -13 3 -8 25 9 83 103 108 172 21 60 22 69 11 169
-7 59 -10 108 -8 110 2 2 19 -9 37 -24 61 -52 155 -111 226 -141 151 -64 175
-90 237 -262 21 -58 42 -114 47 -125 5 -12 8 55 7 173 -1 147 -4 192 -14 192
-7 0 -16 5 -20 12 -5 8 0 9 14 6 18 -5 22 -2 22 18 0 17 -7 25 -24 30 -49 12
-61 2 -64 -49 l-3 -49 -20 23 c-10 12 -19 28 -19 36 0 10 -9 12 -33 8 -38 -7
-63 13 -54 44 7 28 -9 49 -25 33 -17 -17 -26 -15 -38 9 -11 19 -9 20 27 17 70
-6 45 16 -56 50 -91 30 -101 36 -101 58 0 29 -25 42 -50 26 -13 -8 -23 -7 -41
6 -38 25 -39 33 -13 84 17 34 27 73 31 128 3 44 9 80 14 80 16 0 39 32 39 55
0 18 4 22 20 18 11 -3 35 4 55 16 l35 20 20 -21 c16 -17 22 -19 35 -8 8 7 21
10 29 7 38 -15 47 43 16 103 -24 48 -25 78 -3 102 18 20 17 25 -12 30 -14 2
-19 -2 -17 -15 2 -9 -9 -33 -23 -52 -28 -35 -27 -75 0 -75 28 0 25 -20 -4 -38
-21 -13 -49 -18 -88 -18 l-58 1 3 88 c3 57 0 93 -8 102 -12 15 -5 55 11 55 5
0 9 12 9 26 0 14 -4 23 -9 20 -13 -9 -22 21 -30 100 -7 72 -7 72 16 63 32 -12
38 6 13 41 -19 27 -20 33 -8 60 15 34 23 37 36 14 5 -9 23 -17 41 -18 21 -1
37 -9 49 -27 9 -14 32 -40 50 -59 17 -18 32 -36 32 -40 0 -4 11 -20 25 -36 14
-16 23 -35 20 -42 -3 -8 -5 -20 -5 -28 0 -8 -11 -19 -25 -24 -34 -13 -41 -36
-19 -61 12 -14 25 -18 41 -14 30 7 90 -21 109 -50 8 -13 28 -25 44 -27 28 -4
30 -2 30 29 0 20 -5 33 -13 33 -7 0 -24 8 -37 18 -14 9 -41 22 -60 27 -39 12
-49 40 -31 88 l11 28 30 -23 c17 -12 30 -31 30 -43 0 -31 9 -36 35 -19 22 14
24 14 28 -8 2 -13 5 99 6 249 l1 271 -31 26 -31 26 -733 0 -733 0 -26 -31z
m759 -449 c4 -6 11 -8 16 -4 6 3 33 -16 60 -43 49 -47 50 -49 45 -95 -4 -38
-2 -48 9 -48 8 0 15 -4 15 -8 0 -9 -24 -22 -76 -42 -25 -9 -31 -16 -27 -31 3
-11 11 -18 17 -16 42 16 116 29 131 23 31 -12 0 -31 -56 -34 -29 -2 -61 -8
-71 -13 -22 -12 -24 -49 -3 -49 8 0 13 6 11 13 -1 6 -1 9 1 5 3 -5 26 -8 53
-8 27 0 50 -5 52 -11 2 -7 19 -17 38 -23 38 -12 39 -15 21 -100 -6 -27 -18
-57 -26 -65 -9 -11 -13 -35 -12 -74 1 -42 -2 -60 -13 -67 -18 -12 -27 7 -11
23 14 14 14 52 1 77 -8 14 -19 17 -50 14 -40 -4 -40 -3 -40 31 0 18 -5 37 -10
40 -6 3 -19 27 -31 53 -11 26 -25 57 -31 69 -6 11 -7 27 -3 34 5 8 4 10 -4 5
-18 -12 -9 -126 13 -159 11 -15 25 -26 32 -23 7 3 15 -2 18 -10 3 -9 -1 -17
-12 -20 -26 -8 -55 -22 -74 -36 -13 -9 -25 -7 -62 13 -25 13 -46 28 -46 32 0
5 4 6 9 3 5 -3 18 10 30 30 28 46 29 142 3 174 -18 22 -18 22 -16 -31 1 -30
-4 -66 -12 -81 -8 -16 -21 -42 -30 -58 -8 -17 -12 -35 -9 -40 9 -15 -14 -40
-37 -40 -15 0 -18 5 -14 17 6 15 5 15 -12 -1 -34 -30 -38 -106 -6 -106 16 0
16 -2 8 -24 -18 -47 -57 20 -49 84 2 18 -3 38 -15 53 -11 13 -21 36 -24 51 -3
15 -9 33 -14 39 -5 7 -12 27 -14 44 -5 37 14 50 59 39 22 -6 24 -4 18 15 -6
18 -4 21 10 15 23 -8 86 3 79 15 -10 17 9 9 22 -8 8 -11 13 -13 14 -5 0 6 -10
22 -21 33 -19 19 -30 21 -79 16 -54 -5 -80 3 -80 25 0 11 85 10 134 -2 22 -5
47 -5 55 0 15 8 -11 23 -103 59 -23 10 -26 14 -16 26 7 9 14 30 16 48 9 79 12
91 25 96 7 2 20 11 28 18 11 11 16 12 21 2 6 -8 14 -6 31 10 13 12 35 24 49
27 14 3 30 7 35 9 18 6 24 5 30 -5z m55 -648 c0 -4 -6 -14 -12 -21 -11 -11
-10 -13 4 -8 32 11 28 -11 -5 -32 -22 -14 -26 -21 -14 -21 9 0 17 -6 17 -13 0
-25 -25 -37 -77 -37 -50 0 -53 1 -53 25 0 14 6 25 13 25 6 0 0 8 -15 18 -40
24 -34 34 17 28 24 -2 57 -1 72 3 23 7 18 8 -22 8 -73 -1 -94 16 -30 24 79 9
105 10 105 1z"/>
<path d="M6214 7140 c-152 -60 -232 -251 -205 -493 13 -110 20 -128 74 -186
20 -22 37 -44 36 -48 -5 -27 4 -56 21 -73 29 -29 29 -136 -1 -174 -11 -14 -27
-26 -35 -26 -8 0 -23 -9 -34 -20 -11 -11 -28 -20 -39 -20 -10 0 -24 -6 -30
-14 -6 -7 -87 -49 -179 -91 -92 -43 -179 -86 -194 -97 -15 -11 -49 -47 -75
-80 l-47 -62 -4 -116 -4 -116 32 -27 32 -27 684 0 684 0 0 253 0 253 -136 43
c-127 39 -244 98 -244 121 0 6 -7 10 -16 10 -8 0 -12 -5 -9 -10 12 -19 -24
-59 -62 -69 -69 -20 -157 -5 -135 22 5 6 15 31 21 55 9 33 16 42 34 42 12 0
29 5 37 10 13 8 13 10 -2 10 -11 0 -21 12 -26 33 -13 47 -5 57 42 57 l41 0
-24 19 -23 18 31 12 c17 8 37 11 46 8 8 -4 17 -2 20 2 6 11 -38 41 -59 41 -10
0 -13 6 -9 18 6 15 5 15 -10 4 -9 -8 -21 -11 -26 -8 -11 7 -3 37 11 47 15 10
19 115 8 192 -8 56 -17 78 -37 100 l-27 28 18 34 c10 18 17 36 15 38 -2 3 4
14 13 24 14 15 15 22 6 31 -10 10 -8 17 9 33 38 38 126 20 154 -32 5 -11 16
-19 23 -19 20 0 46 -62 46 -111 0 -41 0 -42 -20 -24 -16 15 -30 17 -76 11 -31
-4 -61 -9 -65 -12 -17 -10 -9 -34 12 -34 20 0 21 -1 5 -25 -22 -34 -20 -50 10
-63 18 -9 31 -9 45 -2 11 6 23 8 28 6 5 -3 19 2 31 12 30 24 21 61 -13 55 -13
-3 -29 2 -36 11 -11 13 -9 16 12 21 51 13 76 -21 78 -109 1 -32 21 46 38 147
10 60 -19 214 -50 264 -30 49 -91 89 -145 98 -25 3 -56 9 -67 12 -12 4 -58 8
-102 10 -62 2 -92 -2 -131 -17z"/>
<path d="M700 6749 c-19 -6 -49 -10 -67 -9 -44 1 -94 -45 -126 -117 -24 -55
-42 -132 -66 -288 -14 -88 -16 -315 -3 -376 12 -60 4 -70 -94 -116 -88 -41
-183 -109 -212 -151 -34 -50 -75 -156 -89 -232 -10 -48 -16 -160 -18 -308 -3
-227 -3 -233 18 -247 19 -13 121 -15 751 -15 l729 0 -7 42 c-4 23 -12 48 -18
56 -7 8 -8 16 -2 20 5 4 10 50 11 102 2 52 6 107 9 123 9 42 27 32 22 -13 -4
-48 -1 -50 14 -10 9 26 12 29 26 18 15 -12 15 -11 0 13 -9 14 -18 54 -21 90
-15 212 -41 353 -74 408 -9 14 -57 67 -108 116 -94 92 -154 182 -158 235 -1
15 -6 26 -11 23 -5 -3 -6 0 -4 8 3 8 1 22 -4 31 -5 10 -9 35 -10 55 0 21 -3
43 -7 48 -3 6 -7 18 -8 28 -2 10 -9 30 -17 45 -7 15 -17 45 -21 67 -9 55 -88
204 -135 257 -74 85 -201 126 -300 97z m147 -169 c59 -14 128 -91 132 -145 1
-5 -21 -10 -48 -11 -27 0 -57 -6 -65 -13 -20 -17 -21 -61 -2 -61 7 0 19 -7 26
-15 18 -22 57 -18 82 7 l21 21 -29 24 c-18 14 -23 23 -14 23 39 0 60 -47 60
-136 0 -71 -18 -84 -65 -48 -41 31 -54 27 -30 -10 22 -33 12 -46 -36 -46 -45
0 -49 10 -16 41 l22 22 -28 -7 c-47 -11 -70 1 -63 34 3 16 2 52 -1 80 -5 44
-10 53 -36 66 -18 10 -47 14 -73 12 -46 -3 -50 2 -38 48 4 16 11 20 31 16 34
-6 46 15 25 46 -15 24 -15 25 18 52 29 24 38 26 64 18 17 -5 46 -13 63 -18z
m153 -415 c0 -39 -45 -118 -82 -147 -46 -35 -107 -36 -159 -1 -22 14 -39 31
-38 37 3 24 -1 36 -12 36 -15 0 -38 31 -38 50 0 8 19 -7 43 -33 38 -42 48 -48
77 -45 38 3 53 32 20 41 -14 3 -18 11 -14 25 3 15 16 23 46 28 27 4 42 3 45
-5 5 -16 23 -13 62 14 45 30 50 30 50 0z m-466 -306 c15 -7 31 -28 41 -58 20
-52 42 -81 61 -81 23 0 123 -41 139 -57 9 -8 22 -12 30 -9 19 7 62 -12 69 -31
3 -7 8 -46 12 -86 5 -60 3 -75 -10 -86 -40 -34 -176 40 -240 130 -59 81 -154
289 -133 289 4 0 17 -5 31 -11z"/>
<path d="M4266 5937 c-44 -25 -64 -66 -65 -133 -1 -44 19 -72 40 -58 9 5 10 2
6 -9 -3 -9 2 -26 11 -39 30 -40 52 -97 41 -104 -6 -3 -8 -16 -5 -28 9 -40 -39
-93 -122 -133 -19 -9 -40 -26 -49 -39 -11 -17 -73 -272 -73 -301 0 -1 -8 -3
-17 -4 -11 0 -13 -3 -5 -6 14 -5 16 -71 2 -93 -14 -22 -20 -9 -22 48 l-2 52
-183 0 c-172 0 -183 -1 -183 -19 0 -23 25 -47 35 -31 6 9 -1 14 -17 11 -5 0
-8 4 -8 10 0 7 29 9 85 7 47 -2 85 0 85 5 0 4 20 7 45 7 44 0 44 0 35 -26 -6
-14 -8 -29 -5 -33 2 -5 -2 -17 -10 -27 -13 -18 -14 -17 -15 14 0 37 -23 41
-28 4 -2 -15 5 -25 27 -37 23 -12 31 -22 31 -43 -1 -26 -1 -26 -15 -8 -15 20
-15 20 -15 0 0 -16 -2 -17 -10 -4 -8 13 -11 13 -19 1 -7 -11 -10 -9 -16 8 -5
16 -12 20 -30 15 -22 -5 -24 -3 -22 25 2 35 5 37 22 14 15 -21 35 -9 35 22 0
18 -4 23 -15 19 -8 -4 -15 -1 -15 6 0 9 -3 10 -14 1 -11 -9 -15 -7 -19 9 -7
28 -27 25 -27 -4 0 -21 -6 -25 -52 -32 -31 -5 -44 -10 -30 -12 27 -4 29 -32 2
-32 -17 0 -20 -7 -20 -45 0 -45 0 -45 35 -45 28 0 35 4 35 19 0 12 11 23 31
30 51 18 59 15 59 -25 0 -31 2 -35 15 -24 11 9 15 9 15 1 0 -8 17 -12 48 -11
26 0 66 -1 90 -3 35 -4 40 -2 31 9 -9 11 -7 15 5 20 9 3 16 15 16 25 0 10 5
19 10 19 6 0 10 -11 10 -24 0 -13 9 -35 21 -50 18 -23 27 -26 85 -26 58 0 65
-2 60 -17 -10 -34 -15 -76 -22 -183 l-7 -109 -66 5 c-36 3 -155 14 -264 26
-109 11 -201 17 -205 14 -15 -16 29 -34 98 -41 41 -3 107 -10 147 -15 40 -5
244 -10 453 -10 349 0 380 1 380 17 0 9 7 24 16 34 11 12 14 25 9 36 -5 10 -9
52 -11 93 -2 41 -5 92 -8 112 -6 36 -6 37 36 47 l43 9 -37 -1 c-21 -1 -40 1
-42 4 -8 8 -9 186 -1 198 3 6 24 11 45 11 31 0 40 -4 46 -22 5 -13 7 -26 6
-30 -1 -5 3 -8 8 -8 6 0 10 5 10 10 0 6 4 10 9 10 15 0 20 -27 11 -62 -4 -18
-10 -55 -13 -82 l-5 -48 32 5 c18 3 51 2 75 -3 23 -4 39 -4 34 1 -7 7 -46 16
-80 18 -9 1 -12 23 -11 75 2 80 -8 103 -44 108 -12 2 -23 9 -26 16 -3 9 16 12
73 12 73 0 76 -1 70 -21 -5 -14 -1 -25 12 -34 15 -11 16 -14 3 -19 -8 -2 -26
-4 -40 -3 -15 1 -24 -3 -22 -11 4 -24 5 -77 1 -92 -2 -9 4 -16 19 -18 12 -2
22 1 22 7 0 6 -4 11 -10 11 -5 0 -10 15 -10 34 0 30 2 33 28 30 15 -2 51 -4
80 -6 39 -2 52 -7 51 -18 -2 -28 1 -31 24 -19 12 7 41 11 65 10 l42 -3 0 36
c0 35 -1 36 -40 36 -22 0 -40 -4 -40 -9 0 -5 -20 -9 -45 -9 -25 -1 -50 -4 -54
-7 -9 -5 -21 17 -21 38 0 18 119 61 163 59 26 -1 37 3 37 14 0 12 -39 14 -251
14 l-251 0 7 23 c4 12 10 93 12 180 7 216 6 218 -124 258 -38 12 -87 32 -110
46 -39 23 -43 29 -43 64 0 28 -5 41 -20 49 -12 6 -17 16 -13 26 5 12 -1 15
-28 12 -25 -2 -33 -7 -31 -19 1 -9 -4 -19 -13 -23 -8 -3 -15 -1 -15 4 0 6 -9
10 -20 10 -11 0 -20 3 -20 8 0 4 -10 12 -22 17 -32 14 -33 37 -6 79 44 68 131
81 167 26 15 -23 15 -24 -1 -11 -22 17 -48 8 -48 -17 0 -22 27 -49 37 -38 4 4
1 11 -7 16 -11 7 -5 8 18 5 31 -3 32 -3 32 34 0 21 -7 53 -16 70 -30 61 -126
79 -198 38z"/>
<path d="M5705 5065 c-35 -29 -52 -31 -77 -8 -17 15 -18 15 -18 -15 0 -21 -8
-37 -25 -50 -13 -11 -22 -22 -19 -25 3 -3 -10 -4 -30 -2 l-36 3 0 -128 c0 -99
3 -130 15 -140 8 -6 19 -9 25 -5 19 12 40 -16 40 -52 0 -19 -4 -32 -8 -29 -4
2 -14 1 -22 -4 -13 -8 -11 -13 8 -32 l22 -22 1 24 c0 14 8 47 17 73 15 42 23
51 62 68 30 13 39 14 26 4 -17 -13 -18 -15 -3 -15 16 0 22 12 18 34 -1 4 6 14
15 21 14 10 16 22 11 67 -5 53 2 135 18 221 8 43 1 45 -40 12z"/>
<path d="M2894 4978 c-28 -33 -44 -65 -44 -87 0 -22 -26 -36 -33 -18 -3 7 -11
-3 -18 -20 -14 -35 -31 -44 -28 -15 1 9 1 28 0 41 l-1 24 -26 -24 c-40 -37
-110 -140 -123 -181 -7 -20 -25 -53 -42 -74 -30 -39 -32 -57 -2 -33 15 13 16
12 8 -6 -4 -11 -15 -40 -23 -65 -9 -25 -26 -67 -39 -94 -13 -28 -23 -60 -23
-73 0 -13 -12 -41 -26 -62 -21 -32 -24 -43 -15 -60 7 -13 8 -22 1 -26 -5 -3
-10 2 -10 12 -1 17 -1 17 -11 -1 -9 -14 -8 -20 2 -27 11 -7 11 -9 -2 -9 -16 0
-29 -19 -29 -43 0 -6 7 -2 15 9 11 14 14 15 14 4 0 -21 -24 -51 -34 -42 -4 4
-5 0 -3 -8 3 -8 -5 -42 -17 -75 -23 -62 -48 -165 -42 -171 2 -2 77 -7 168 -10
90 -4 171 -10 180 -15 11 -5 23 -44 38 -121 12 -62 38 -194 57 -293 19 -99 37
-190 39 -202 5 -22 8 -21 63 21 55 42 59 44 107 37 28 -4 64 -15 82 -24 37
-20 55 -21 122 -6 48 10 50 12 53 47 l3 37 55 5 55 5 3 408 c2 365 1 407 -14
407 -8 0 -38 7 -66 16 -42 14 -51 15 -60 3 -8 -11 -9 -10 -4 3 3 10 -1 23 -8
30 -7 8 -11 30 -9 58 3 25 5 57 6 71 1 17 7 25 14 22 16 -6 16 -14 3 -47 -12
-33 2 -34 20 -2 10 19 10 34 1 69 -6 25 -8 60 -5 79 4 24 -5 11 -35 -47 -41
-82 -47 -113 -32 -177 5 -22 5 -38 0 -38 -5 0 -9 -9 -9 -20 0 -11 -7 -37 -17
-58 -9 -20 -15 -41 -14 -46 2 -11 -44 -90 -63 -105 -9 -7 -14 -17 -11 -20 6
-10 -100 -196 -110 -194 -17 4 -37 100 -39 185 -1 77 -4 89 -22 102 -26 18
-40 61 -18 52 8 -3 14 -1 14 5 0 6 4 8 9 5 18 -11 33 26 43 104 l11 81 -30 37
c-48 61 -84 131 -85 165 -3 67 5 104 21 103 9 -1 23 13 31 31 15 31 41 43 97
43 20 0 24 4 21 23 -3 19 -8 22 -41 20 -32 -2 -37 1 -37 19 0 19 4 20 45 15
25 -4 45 -3 45 2 0 11 -54 31 -82 31 -16 0 -19 6 -16 38 2 20 6 36 11 35 4 -2
16 5 26 15 37 32 47 39 76 47 l30 8 -37 10 c-38 11 -52 27 -22 27 14 0 14 3 4
15 -7 8 -9 15 -4 15 5 0 2 5 -6 10 -28 18 -85 12 -106 -12z"/>
<path d="M6276 4904 c6 -29 6 -29 -10 -7 -15 20 -23 21 -139 19 -101 -2 -129
-6 -163 -24 -48 -24 -112 -92 -118 -124 -18 -96 -40 -182 -61 -233 -30 -73
-37 -219 -10 -209 12 5 15 -5 15 -57 0 -35 -7 -86 -15 -114 -13 -44 -13 -48 0
-31 8 11 15 17 15 13 0 -17 -48 -113 -63 -125 -9 -8 -13 -20 -11 -27 9 -22
-14 -54 -34 -48 -24 6 -78 -57 -94 -109 -9 -31 -13 -35 -22 -23 -8 12 -10 0
-7 -47 3 -62 3 -62 16 -33 13 30 13 30 15 5 1 -23 2 -23 10 -5 6 13 7 2 3 -30
-3 -27 -2 -47 2 -43 5 4 14 3 22 -3 10 -9 13 -4 14 27 1 26 3 31 6 14 8 -51
13 -57 29 -36 11 16 17 17 26 8 16 -16 45 -15 51 1 3 7 6 5 6 -5 1 -10 -9 -23
-21 -29 -28 -15 -48 -35 -48 -47 0 -5 -8 -9 -17 -9 -24 -1 -113 27 -139 44
-11 7 -24 10 -27 6 -4 -3 -7 -84 -7 -179 l0 -172 31 -27 c44 -37 86 -31 117
15 20 28 23 30 17 10 -4 -14 -12 -31 -17 -37 -8 -10 8 -13 76 -13 l86 0 -16
25 c-26 40 -15 146 25 230 17 37 31 76 31 86 0 21 28 39 50 31 19 -7 40 -28
40 -40 0 -5 9 -12 21 -15 13 -4 19 -10 14 -19 -3 -7 0 -5 8 5 18 22 23 22 30
-3 3 -12 1 -18 -5 -14 -6 4 -8 -2 -3 -17 9 -29 3 -25 48 -33 24 -5 37 -3 37 4
0 6 12 23 28 38 15 16 28 35 30 43 6 25 56 68 80 69 23 0 30 14 12 25 -5 3
-10 17 -10 30 0 13 5 27 10 30 6 3 10 1 10 -6 0 -31 29 -46 80 -39 l50 6 -17
-25 c-32 -50 -201 -247 -254 -297 -30 -28 -73 -63 -97 -79 -23 -15 -42 -29
-42 -31 0 -2 216 -4 480 -4 l480 0 0 801 c0 636 -3 800 -12 796 -7 -2 -12 -13
-10 -23 1 -10 5 -35 8 -56 5 -29 3 -38 -14 -47 -10 -6 -22 -7 -26 -4 -7 7 -46
-26 -46 -39 0 -5 13 -13 28 -19 26 -9 29 -16 41 -91 11 -74 11 -83 -4 -94 -9
-7 -25 -10 -36 -7 -10 3 -25 1 -32 -4 -6 -6 -33 -11 -59 -11 -40 0 -51 4 -68
25 l-20 26 6 -34 c7 -42 34 -120 47 -136 5 -7 7 -13 4 -13 -3 0 2 -19 12 -42
15 -36 19 -71 19 -206 1 -169 8 -206 38 -181 8 6 14 18 14 25 0 8 6 11 16 7 9
-3 11 -9 6 -12 -5 -3 -6 -15 -2 -25 4 -14 9 -16 14 -8 10 16 34 15 51 -2 16
-16 10 -27 -11 -19 -17 6 -18 -9 -2 -25 14 -14 -12 -47 -44 -58 -13 -4 -16 -9
-9 -18 13 -15 1 -34 -21 -31 -15 3 -15 0 2 -31 11 -19 15 -36 10 -39 -17 -10
-50 -14 -50 -6 0 5 -12 20 -27 35 -14 14 -24 28 -22 29 78 53 96 77 59 77 -24
0 -42 32 -33 57 6 17 5 17 -13 2 -17 -15 -106 -59 -118 -59 -4 0 -6 7 -6 16 0
27 -65 45 -157 43 -67 -1 -88 2 -101 15 -19 18 -26 83 -10 92 10 6 78 -62 78
-78 0 -4 7 -8 15 -8 15 0 15 14 0 126 -6 45 -5 48 9 30 9 -11 17 -18 19 -15
22 34 52 101 57 129 3 19 11 34 17 33 13 -3 57 110 51 129 -3 7 -14 -7 -26
-32 -35 -75 -186 -206 -204 -177 -4 7 -1 21 8 32 8 11 17 27 21 35 3 8 28 39
55 67 75 81 117 197 104 288 -6 34 -10 44 -17 34 -7 -11 -9 -11 -9 -1 0 7 -12
38 -26 68 -19 40 -43 69 -93 109 -67 54 -68 55 -68 105 0 35 4 47 11 40 13
-13 36 -13 36 1 0 13 -40 48 -56 49 -6 0 -23 9 -38 21 l-27 21 7 -28z m-50
-91 c19 -5 48 -28 74 -58 23 -27 58 -68 77 -90 33 -38 34 -43 28 -90 -4 -27
-6 -68 -4 -90 12 -143 -6 -254 -53 -332 -40 -67 -129 -153 -158 -153 -12 0
-34 -7 -49 -15 -48 -24 -205 7 -229 45 -12 20 -42 147 -42 178 1 16 2 16 14 0
7 -10 16 -18 20 -18 19 0 56 -57 51 -77 -3 -13 -2 -23 2 -24 5 0 32 -2 60 -4
46 -4 52 -2 50 13 -1 9 -6 23 -10 30 -6 8 0 12 18 12 14 0 24 4 20 9 -3 6 -15
8 -27 6 -26 -5 -106 14 -114 27 -14 23 5 37 38 28 18 -5 51 -11 73 -14 54 -6
75 -15 75 -32 0 -11 4 -12 19 -4 27 14 31 13 32 -7 0 -15 2 -14 11 3 8 18 15
21 39 14 54 -16 64 37 10 59 -15 7 -47 32 -71 57 -37 38 -45 43 -50 28 -10
-26 -137 -32 -156 -7 -7 10 -11 27 -7 38 5 18 5 19 -18 2 -30 -21 -65 -37
-103 -44 l-29 -6 7 44 c4 24 9 57 11 73 4 36 22 56 34 37 11 -18 150 -9 162
11 11 16 11 79 1 94 -13 20 -82 36 -123 30 -44 -7 -48 -2 -18 30 11 12 22 37
23 55 1 18 8 35 14 37 7 2 12 14 12 26 0 45 26 60 150 84 42 9 93 7 136 -5z"/>
<path d="M6123 4553 c-7 -2 -13 -22 -13 -43 0 -31 4 -39 23 -44 18 -5 19 -8 7
-15 -22 -15 68 -52 93 -39 10 5 35 8 55 6 29 -2 37 1 40 15 2 10 -2 24 -8 32
-6 8 -9 18 -6 23 8 13 -41 53 -78 63 -33 10 -93 11 -113 2z"/>
<path d="M3640 4735 c0 -37 4 -65 10 -65 6 0 10 5 10 11 0 6 8 8 18 5 10 -4
36 0 58 8 21 7 54 11 73 8 25 -3 32 -1 26 8 -4 6 -16 10 -26 7 -11 -3 -19 -1
-19 4 0 4 18 13 40 19 22 6 40 15 40 20 0 5 8 10 18 13 16 3 -34 10 -180 22
l-68 6 0 -66z"/>
<path d="M3957 4763 c-4 -3 -7 -28 -7 -55 l0 -49 -49 7 c-31 4 -51 2 -55 -5
-14 -22 114 -12 196 15 77 26 78 27 78 60 0 24 -5 34 -15 34 -8 0 -15 -7 -15
-15 0 -8 -7 -15 -15 -15 -9 0 -18 7 -21 15 -6 15 -84 22 -97 8z"/>
<path d="M710 4455 c0 -33 -42 -45 -70 -20 -11 10 -17 22 -13 28 4 6 1 7 -6 3
-7 -5 -10 -14 -7 -21 3 -8 0 -16 -7 -19 -9 -5 -9 -7 1 -12 16 -8 16 -24 -1
-24 -7 0 -23 -11 -35 -25 -12 -14 -28 -22 -36 -19 -8 3 -26 -2 -40 -11 -24
-16 -26 -16 -26 -1 0 16 -19 24 -21 9 0 -5 -2 -34 -4 -65 -4 -50 -9 -62 -36
-86 -28 -25 -31 -34 -31 -82 0 -60 -11 -90 -32 -90 -17 0 -6 -61 15 -86 7 -9
12 -31 11 -50 -3 -36 22 -94 39 -94 8 0 7 5 -1 15 -8 9 -8 15 -2 15 6 0 14 -9
17 -20 3 -11 13 -20 21 -20 18 0 18 -14 -2 -30 -29 -25 -35 -47 -16 -61 14
-11 15 -11 5 1 -10 11 -6 20 25 47 l37 33 3 -35 c2 -20 7 -33 13 -30 5 4 9 -9
9 -28 0 -23 8 -41 25 -57 23 -22 24 -25 8 -42 -11 -12 -12 -18 -3 -18 6 0 10
-7 7 -14 -3 -8 1 -29 9 -45 9 -17 13 -35 9 -40 -7 -12 4 -61 15 -61 4 0 10 25
13 56 3 31 9 59 12 63 7 6 72 -61 113 -115 18 -24 23 -27 32 -14 9 13 14 11
31 -12 11 -16 27 -28 34 -28 16 0 40 38 31 48 -3 3 -6 0 -6 -6 0 -24 -30 -11
-45 19 -9 17 -15 32 -13 33 2 2 33 11 70 20 67 18 90 34 136 95 13 17 28 29
33 25 5 -3 9 5 9 18 0 19 10 28 50 45 35 15 56 32 72 59 19 32 23 35 29 18 4
-10 8 -13 8 -6 1 17 -31 72 -41 72 -4 0 -8 6 -8 14 0 9 7 12 19 9 26 -7 36 14
12 27 -19 10 -19 12 14 46 40 41 58 97 53 165 -1 26 0 45 5 42 14 -9 7 8 -13
29 -23 25 -26 43 -6 35 10 -4 13 -1 9 9 -3 7 -16 14 -30 14 -17 0 -23 4 -20
14 3 7 -8 24 -24 37 -17 13 -35 30 -42 38 -50 56 -143 141 -152 138 -5 -2 -41
7 -80 20 -38 13 -80 21 -92 18 -13 -3 -32 0 -43 7 -17 11 -22 10 -31 -2 -9
-12 -10 -10 -6 8 3 12 1 22 -4 22 -5 0 -9 -11 -9 -25z m212 -159 c50 -21 57
-33 94 -161 9 -33 21 -64 26 -70 12 -14 10 -25 -7 -25 -8 0 -15 4 -15 10 0 5
-10 15 -22 21 -19 10 -24 9 -36 -10 -8 -11 -18 -21 -23 -21 -5 0 -2 11 7 25
19 29 19 29 -37 10 -24 -9 -53 -28 -65 -42 -31 -39 -93 -43 -128 -8 -14 14
-32 25 -40 25 -19 0 -38 34 -30 54 7 17 7 17 43 21 13 1 26 7 30 13 3 6 19 14
34 17 38 10 44 31 18 59 -11 12 -21 25 -21 29 0 3 18 11 39 17 25 6 42 18 46
30 8 24 39 26 87 6z m144 -365 c-19 -119 -39 -168 -89 -224 -58 -64 -68 -78
-62 -87 4 -6 -3 -10 -14 -10 -11 0 -25 -8 -30 -17 -6 -10 -11 -14 -11 -9 0 5
-7 3 -15 -4 -12 -10 -15 -10 -15 2 0 11 -7 14 -26 10 -20 -4 -25 -2 -19 7 4 7
18 11 31 8 21 -4 65 26 53 37 -5 4 -119 14 -119 10 0 -14 14 -33 21 -28 10 6
12 -9 3 -19 -9 -9 -34 3 -34 17 0 12 -60 56 -78 56 -6 0 -16 9 -22 20 -10 18
-8 20 19 20 16 0 42 -5 58 -11 19 -7 29 -7 31 0 2 6 16 11 30 12 l27 1 -25 7
c-22 6 -23 8 -7 14 10 4 40 6 65 6 43 -1 45 -2 17 -10 -22 -5 -13 -7 30 -4 33
3 68 5 77 5 23 2 29 25 13 47 -12 15 -16 15 -24 4 -5 -8 -11 -9 -15 -3 -3 5
-18 10 -33 10 -15 0 -29 5 -31 11 -5 14 -55 14 -69 0 -9 -9 -19 -8 -38 5 -21
14 -25 23 -20 39 4 12 10 40 12 62 8 64 42 88 50 34 1 -13 19 -39 39 -58 32
-29 41 -33 77 -28 24 3 48 15 61 28 20 23 20 23 0 6 -65 -54 -153 -16 -154 67
0 14 5 17 24 12 15 -4 26 -1 29 7 4 9 8 8 16 -3 8 -12 14 -13 29 -3 26 16 64
-4 72 -37 l6 -25 8 29 c4 17 15 35 24 42 24 17 36 -7 28 -55z m-342 10 c11
-13 15 -27 11 -44 -8 -30 -18 -40 -60 -56 -25 -9 -26 -11 -5 -7 14 2 33 7 43
11 15 6 16 4 8 -18 -5 -14 -7 -28 -4 -31 3 -3 -6 -10 -21 -16 -35 -13 -39 -13
-31 3 4 6 -1 3 -9 -7 -9 -11 -16 -27 -16 -35 0 -30 -30 13 -37 52 -5 32 -3 37
13 37 18 1 18 2 -2 18 -21 18 -39 92 -22 92 4 0 8 -4 8 -9 0 -5 8 -12 17 -15
10 -4 14 -4 10 0 -12 12 12 32 32 27 10 -3 22 0 25 6 10 16 21 14 40 -8z"/>
<path d="M4455 4121 c-11 -5 -42 -10 -68 -10 -61 -1 -112 -27 -164 -84 -50
-54 -57 -68 -93 -171 l-28 -81 -114 -1 c-62 -1 -166 -2 -230 -3 l-118 -1 0
-573 c0 -621 0 -618 56 -729 17 -33 20 -46 10 -42 -8 3 -26 29 -40 57 l-25 52
0 -117 -1 -116 31 -26 31 -26 443 0 443 0 12 48 c6 26 15 63 20 82 4 19 23 77
40 129 l33 94 13 -38 c20 -59 18 -233 -4 -265 -17 -25 -17 -24 -22 65 l-5 90
-31 -80 c-17 -44 -34 -90 -38 -102 l-7 -23 289 0 290 0 26 31 26 31 0 760 0
760 -37 -6 c-91 -14 -178 -18 -267 -11 l-95 7 -40 82 c-22 45 -58 100 -80 122
-71 72 -201 120 -256 95z m0 -261 c52 -44 82 -79 88 -101 6 -21 4 -21 -66 -15
-100 10 -134 8 -165 -9 -24 -13 -25 -14 -6 -15 19 0 18 -3 -13 -37 l-35 -37
43 -35 c63 -53 95 -62 149 -42 27 10 49 26 55 39 5 12 17 21 25 20 23 -5 27
-144 4 -169 -11 -12 -22 -16 -32 -10 -8 5 -24 6 -35 3 -17 -4 -19 -1 -15 22 8
42 -33 47 -84 10 -67 -47 -80 -72 -72 -133 8 -59 27 -75 50 -42 16 22 46 23
67 1 6 -7 7 -10 1 -7 -7 4 -11 -5 -11 -24 0 -25 7 -34 34 -47 41 -20 40 -46
-2 -50 -63 -6 -75 -11 -75 -37 0 -15 -6 -25 -14 -25 -17 0 -29 31 -21 53 4 10
-8 26 -34 48 -63 50 -100 116 -115 201 -10 62 -15 73 -30 70 -11 -2 -30 9 -45
25 -24 27 -26 34 -23 110 4 100 22 125 49 69 9 -20 20 -36 23 -36 4 0 15 18
25 40 10 22 38 57 63 77 65 55 72 63 72 79 0 14 10 18 43 15 9 -1 17 3 17 9 0
7 7 10 15 6 8 -3 15 -1 15 5 0 12 14 4 55 -31z m-460 -872 c3 -18 10 -73 15
-123 6 -49 13 -106 15 -125 3 -19 -12 26 -32 100 -36 127 -39 135 -63 135 -24
0 -25 -2 -24 -60 1 -33 8 -81 17 -107 23 -65 31 -151 14 -146 -6 3 -13 15 -15
29 -2 13 -12 44 -23 68 -26 56 -63 205 -52 209 4 1 28 13 53 26 67 35 88 33
95 -6z"/>
<path d="M1790 3497 l0 -366 33 -6 c279 -47 280 -48 600 -52 l318 -5 -15 36
c-17 42 -64 106 -77 106 -5 0 -9 7 -9 15 0 8 -3 15 -8 15 -4 0 -19 11 -33 24
-14 13 -44 33 -66 45 -86 44 -173 136 -222 236 -6 11 -31 42 -56 70 -25 27
-43 55 -40 63 2 7 -2 15 -10 18 -8 3 -17 14 -20 25 -4 10 -13 19 -21 19 -8 0
-14 5 -14 10 0 6 -7 10 -15 10 -9 0 -18 7 -21 15 -4 8 -15 15 -26 15 -10 0
-33 7 -50 16 -39 20 -123 42 -193 50 l-55 7 0 -366z"/>
<path d="M1532 3206 c6 -32 -15 -58 -40 -49 -13 4 -11 0 6 -16 23 -23 29 -37
11 -25 -7 4 -10 1 -7 -7 2 -7 -5 -22 -16 -32 l-21 -19 23 5 c17 4 22 1 20 -10
-2 -9 -9 -18 -17 -21 -9 -3 -11 0 -6 9 6 11 5 11 -4 3 -7 -6 -13 -22 -14 -35
0 -13 -8 -31 -17 -39 -8 -8 -15 -21 -15 -29 0 -8 -6 -16 -12 -18 -18 -6 -16
35 2 71 14 26 14 31 -1 47 -13 14 -21 16 -35 8 -11 -5 -19 -16 -19 -24 0 -8
-5 -15 -12 -15 -6 0 -26 -12 -45 -26 -31 -23 -33 -29 -27 -62 8 -46 10 -48 30
-31 14 12 16 11 13 -6 -2 -11 -14 -24 -26 -30 -36 -18 -53 -37 -53 -57 0 -17
4 -19 32 -12 29 6 31 5 19 -9 -7 -9 -10 -20 -8 -25 3 -4 2 -14 -3 -22 -7 -12
-12 -12 -28 3 -23 21 -39 22 -58 3 -33 -33 -17 -37 163 -34 l178 3 11 35 c6
19 16 106 21 193 10 156 4 248 -17 255 -6 2 -10 10 -10 17 0 8 -5 17 -11 21
-8 5 -10 -1 -7 -20z"/>
<path d="M61 3102 c-1 -7 -5 -11 -10 -7 -5 3 -12 1 -16 -5 -3 -6 1 -13 9 -16
12 -4 16 -20 16 -56 0 -40 -3 -49 -15 -44 -8 3 -15 1 -15 -4 0 -5 -7 -7 -15
-4 -26 10 -16 -16 10 -28 14 -6 25 -15 25 -20 0 -5 -11 -1 -25 8 -24 16 -25
16 -25 -8 0 -19 5 -24 22 -24 30 1 34 -26 7 -42 -12 -8 -18 -9 -15 -3 4 5 2
12 -4 16 -5 3 -10 -3 -10 -14 0 -11 9 -25 20 -31 24 -13 26 -46 3 -58 -15 -9
-14 -12 9 -35 25 -25 29 -25 171 -26 80 -1 148 2 150 6 3 5 -1 26 -8 47 -12
35 -12 43 3 68 14 24 15 30 3 38 -9 5 -22 4 -33 -3 -15 -10 -21 -9 -28 3 -5 8
-10 10 -10 5 0 -17 -57 -17 -74 1 -15 14 -16 13 -17 -13 -1 -15 -1 -46 0 -67
2 -34 0 -38 -13 -27 -12 10 -16 9 -24 -5 -12 -21 -33 -9 -25 14 6 15 5 15 -10
3 -15 -12 -19 -9 -32 22 -20 48 -19 74 3 86 9 6 13 11 7 11 -6 0 -11 35 -13
78 -2 67 -18 169 -21 134z"/>
<path d="M6110 2943 c-22 -7 -79 -32 -128 -56 -31 -15 -42 -26 -39 -38 6 -23
-38 -63 -85 -78 -70 -23 -140 -139 -137 -227 8 -226 29 -333 87 -434 l30 -52
-4 53 c-6 84 -6 260 0 267 3 3 14 -2 24 -11 10 -10 24 -17 30 -17 6 0 15 -7
20 -16 14 -25 111 -13 146 17 16 14 37 23 51 21 16 -2 25 3 30 18 6 17 12 20
41 14 19 -3 34 -2 34 3 0 11 -38 53 -48 53 -10 0 -34 41 -28 47 3 3 16 -1 28
-9 13 -8 46 -22 73 -33 28 -10 52 -19 54 -21 1 -1 -11 -21 -29 -43 -33 -40
-34 -77 -1 -47 9 8 46 29 83 46 58 27 72 30 102 21 20 -5 47 -18 61 -30 26
-19 26 -20 6 -31 -11 -6 -32 -8 -46 -4 -15 4 -25 2 -25 -5 0 -6 -9 -11 -20
-11 -11 0 -19 -5 -18 -12 2 -7 -1 -12 -7 -13 -20 -2 -70 -34 -94 -59 -20 -22
-22 -26 -7 -26 9 0 21 11 26 25 6 16 17 25 30 25 12 0 19 -4 16 -9 -9 -15 21
-32 56 -33 18 0 40 -7 49 -15 16 -14 49 -9 49 8 0 5 8 9 18 9 11 0 27 9 36 19
10 10 26 21 38 24 18 5 19 2 14 -31 -4 -20 -16 -66 -28 -102 -41 -132 -48
-155 -48 -171 0 -20 -23 -31 -65 -33 -25 -1 -31 -6 -33 -28 -2 -15 4 -38 12
-50 23 -32 20 -45 -16 -62 -17 -9 -32 -16 -34 -16 -1 0 0 18 3 39 6 40 -2 48
-57 57 -8 2 -34 8 -57 15 -34 9 -46 8 -70 -4 -15 -9 -36 -18 -46 -21 -10 -3
-16 -10 -13 -15 3 -5 -3 -7 -13 -4 -13 3 -25 -4 -37 -22 -10 -15 -27 -31 -38
-36 -17 -7 -15 -8 9 -4 91 18 96 18 102 -4 5 -20 10 -21 80 -17 40 3 78 8 82
11 10 6 23 -23 16 -35 -3 -5 -1 -19 4 -33 7 -17 6 -28 -2 -36 -6 -6 -10 -29
-8 -52 1 -22 -3 -47 -9 -55 -15 -17 -3 -18 34 -4 21 7 26 6 26 -5 0 -8 4 -15
8 -15 5 0 15 -23 22 -50 7 -28 17 -50 21 -50 4 0 21 11 37 25 17 14 40 25 52
25 11 0 18 4 15 10 -3 6 1 7 9 4 25 -10 30 -44 10 -64 -11 -10 -61 -33 -113
-50 -83 -29 -102 -32 -165 -27 -87 7 -171 32 -196 57 -19 19 -20 19 -26 -5 -4
-18 -16 -28 -44 -35 -21 -6 -43 -17 -50 -25 -11 -14 -134 -57 -196 -70 -30 -6
-32 -9 -38 -67 -3 -33 -6 -105 -6 -159 l0 -99 186 0 186 0 -6 23 c-24 78 -66
260 -62 264 2 3 9 -12 14 -33 5 -22 22 -87 37 -146 l28 -108 394 0 393 0 -2
192 -3 191 -45 15 c-25 8 -57 23 -72 33 -14 11 -33 19 -42 19 -8 0 -23 12 -33
26 -10 14 -26 34 -35 44 -9 10 -20 44 -23 75 -6 45 -4 59 10 75 13 15 16 29
10 67 -5 38 -1 66 20 128 14 44 34 96 44 116 13 26 16 41 8 54 -7 12 -6 16 1
11 7 -4 14 4 18 21 3 15 15 55 26 88 27 83 33 181 19 332 -16 160 -37 212
-122 295 -77 75 -175 148 -200 148 -10 0 -26 11 -35 25 l-16 25 -167 -1 c-91
0 -173 -3 -181 -6z"/>
<path d="M1816 2769 l-26 -31 0 -709 0 -710 28 16 c15 9 63 38 107 65 86 52
207 115 241 125 19 5 23 0 34 -47 21 -90 65 -169 138 -248 63 -68 70 -72 68
-48 0 18 -7 28 -17 28 -8 0 -30 16 -49 35 -37 38 -30 43 27 20 38 -16 84 -20
82 -7 -5 33 5 33 37 -1 20 -20 41 -37 48 -37 13 -1 56 -65 56 -84 0 -8 13 -13
30 -14 25 -1 30 3 25 17 -3 11 4 22 23 33 25 15 29 15 50 -2 26 -22 31 -70 6
-70 -10 0 -14 6 -10 15 3 8 1 15 -4 15 -6 0 -9 -14 -8 -30 1 -17 5 -30 8 -30
17 0 -1 -65 -22 -82 -33 -25 -57 -22 -71 10 -6 15 -19 32 -27 39 -13 11 -13
12 1 13 12 0 15 7 11 28 -3 15 -7 21 -10 14 -2 -6 -8 -9 -13 -6 -6 3 -22 3
-35 0 -20 -5 -23 -10 -15 -20 8 -9 7 -13 -4 -13 -10 0 -13 11 -12 35 1 22 -3
37 -11 40 -11 3 -12 0 -3 -17 15 -27 0 -27 -24 -1 -31 34 -38 22 -9 -15 33
-43 153 -135 176 -135 53 0 124 81 165 189 26 67 27 123 7 251 -8 47 5 52 42
15 40 -40 143 -105 232 -146 147 -68 163 -87 226 -259 21 -58 42 -114 47 -125
5 -12 8 55 7 173 -1 147 -4 192 -14 192 -15 0 -29 19 -20 27 3 3 13 0 22 -8
14 -11 15 -9 12 17 -3 27 -6 29 -43 29 l-40 0 -3 -48 -3 -49 -20 23 c-10 12
-19 28 -19 36 0 11 -8 13 -30 8 -38 -8 -62 14 -58 52 3 26 1 28 -28 25 -22 -2
-33 2 -38 14 -6 14 -1 16 33 11 22 -3 42 -2 45 1 9 8 -15 32 -33 32 -9 0 -50
13 -91 28 -60 22 -75 32 -80 52 -5 22 -12 25 -48 25 -26 0 -48 6 -59 18 -16
16 -16 19 1 65 23 60 35 116 36 168 0 33 5 45 25 58 16 11 25 26 25 42 0 18 4
24 13 21 8 -3 34 4 58 15 l44 19 18 -22 c13 -17 21 -19 29 -11 7 7 22 12 34
12 39 0 45 45 14 105 -24 47 -26 81 -5 101 22 23 18 34 -11 34 -20 0 -25 -4
-20 -16 3 -9 -5 -29 -19 -48 -32 -42 -32 -63 0 -78 14 -6 25 -15 25 -19 0 -16
-63 -41 -89 -36 -14 3 -34 1 -44 -5 -13 -6 -23 -6 -33 3 -11 9 -13 29 -8 95 5
60 3 88 -5 98 -13 16 -6 56 10 56 5 0 9 12 9 26 0 14 -4 23 -9 20 -14 -9 -23
22 -30 100 -6 71 -6 72 16 63 32 -12 38 6 13 40 -17 25 -18 33 -9 55 14 30 22
32 39 11 7 -8 28 -15 46 -15 19 0 34 -4 34 -9 0 -4 20 -30 45 -57 25 -26 45
-54 45 -61 0 -6 11 -22 24 -35 33 -32 26 -80 -15 -95 -16 -6 -29 -18 -29 -26
0 -22 34 -47 61 -45 36 3 93 -27 109 -57 10 -18 19 -24 33 -19 11 4 23 1 28
-7 6 -9 9 -2 9 23 0 27 -5 38 -18 42 -10 4 -27 14 -38 24 -10 10 -35 22 -54
28 -40 11 -49 38 -30 84 l11 27 30 -26 c16 -14 29 -33 29 -42 0 -25 11 -29 35
-13 22 14 24 14 28 -8 2 -13 5 99 6 249 l1 271 -31 26 -31 26 -733 0 -733 0
-26 -31z m843 -505 c42 -39 44 -44 38 -85 -4 -33 -2 -46 11 -55 17 -13 6 -20
-70 -47 -20 -7 -25 -47 -6 -47 6 0 35 7 64 16 55 18 87 14 78 -9 -3 -10 -26
-16 -66 -19 -44 -3 -64 -10 -74 -23 -21 -28 -17 -44 7 -38 16 5 18 8 7 15 -8
6 -4 7 12 1 14 -4 40 -7 58 -6 30 1 37 -6 34 -37 0 -3 14 -4 33 -2 27 3 34 0
40 -18 4 -12 2 -27 -4 -33 -6 -6 -11 -25 -11 -43 0 -17 -10 -43 -21 -58 -17
-21 -20 -35 -15 -66 7 -42 -7 -90 -25 -90 -7 0 -8 7 -4 18 17 40 17 73 -1 93
-9 11 -20 15 -23 10 -3 -5 -18 -7 -34 -4 -20 4 -27 11 -27 29 0 13 -11 45 -24
72 -45 85 -58 121 -50 133 4 8 3 9 -5 5 -17 -11 -9 -123 12 -162 9 -18 24 -31
33 -30 29 2 26 -21 -3 -29 -15 -3 -35 -13 -43 -20 -8 -7 -22 -15 -30 -16 -18
-4 -99 32 -100 44 0 5 4 6 10 2 5 -3 18 12 30 34 26 52 27 146 2 179 -17 23
-18 22 -16 -37 1 -41 -2 -64 -12 -72 -8 -6 -14 -17 -14 -24 0 -7 -7 -26 -15
-41 -8 -16 -12 -37 -9 -46 4 -13 -2 -21 -21 -28 -35 -13 -38 -13 -31 8 6 14 4
14 -13 -3 -28 -29 -34 -82 -11 -95 20 -11 17 -50 -4 -50 -16 0 -34 59 -30 96
1 16 -6 43 -16 60 -11 17 -21 39 -23 50 -2 10 -8 28 -14 39 -5 11 -13 35 -16
53 -7 35 -2 37 57 33 23 -2 27 1 23 13 -5 14 3 16 58 16 68 0 73 3 51 33 -10
13 -28 17 -77 17 -68 0 -96 10 -84 30 8 13 127 4 157 -11 21 -11 34 7 18 25
-6 8 -23 17 -38 21 -66 16 -99 39 -69 50 7 3 13 22 14 43 4 68 10 97 22 97 6
0 16 6 20 14 5 8 16 11 30 6 12 -4 21 -2 21 4 0 6 6 11 14 11 8 0 16 5 18 11
2 6 16 13 32 14 15 2 30 5 32 8 11 11 73 -22 113 -59z"/>
<path d="M6226 2312 c-14 -17 -17 -32 -13 -84 3 -35 12 -82 20 -104 13 -35 13
-44 2 -55 -29 -30 -16 -87 25 -109 15 -8 24 -5 45 16 15 15 30 36 34 48 8 21
-14 102 -47 176 -9 19 -17 40 -18 45 -1 9 -5 22 -23 68 -6 18 -7 18 -25 -1z"/>
<path d="M4110 1954 c-6 -14 -17 -27 -27 -31 -28 -11 -61 -54 -100 -131 -34
-68 -37 -79 -37 -165 0 -84 3 -97 33 -156 22 -43 35 -84 38 -125 8 -79 9 -136
3 -161 -4 -15 0 -20 13 -18 15 1 17 -4 13 -22 -5 -19 -2 -22 17 -18 28 6 53
-34 44 -69 -4 -13 0 -37 9 -53 11 -21 13 -49 10 -104 -3 -42 -3 -68 0 -58 9
28 27 19 54 -24 27 -44 31 -67 15 -85 -12 -14 -35 1 -35 22 0 7 -5 16 -10 19
-10 6 -2 -16 69 -185 22 -52 38 -97 35 -99 -10 -10 -29 21 -30 50 -1 16 -5 33
-8 37 -10 9 -39 -11 -52 -36 -8 -17 -13 -19 -24 -9 -10 10 -11 9 -8 -3 3 -8 0
-29 -7 -47 -12 -29 -12 -31 6 -28 10 2 22 -1 25 -7 4 -6 3 -8 -3 -5 -6 4 -16
0 -23 -8 -10 -12 -9 -15 5 -15 12 0 16 -6 12 -20 -3 -12 -1 -18 5 -14 5 3 8
14 5 24 -4 15 10 30 27 30 1 0 2 -15 2 -33 -1 -37 -17 -62 -28 -43 -5 7 -8 6
-8 -3 0 -10 -12 -3 -33 17 -24 23 -38 30 -55 26 -12 -4 -20 -10 -17 -14 3 -5
1 -11 -4 -14 -12 -8 -16 0 -25 39 -6 27 -5 28 7 12 18 -21 49 -23 41 -2 -4 9
0 15 8 15 19 0 48 52 48 87 0 16 -11 56 -24 89 -31 77 -41 153 -26 199 7 20
10 38 8 40 -2 2 -17 -3 -33 -11 -170 -89 -233 -119 -247 -116 -5 1 -8 -2 -8
-8 0 -5 -6 -7 -14 -4 -8 3 -17 1 -21 -5 -3 -6 -16 -11 -29 -11 -13 0 -37 -5
-55 -11 l-31 -11 0 -100 c0 -76 3 -98 13 -92 10 6 10 4 0 -7 -10 -9 -13 -68
-13 -220 l0 -207 31 -26 31 -26 738 0 738 0 26 31 26 31 0 525 c0 509 -1 526
-18 510 -10 -10 -32 -17 -48 -18 -16 0 -23 -3 -16 -6 8 -3 -4 -22 -35 -53 -85
-84 -168 -174 -169 -182 -1 -4 -2 -15 -3 -23 0 -8 -5 -15 -11 -15 -19 0 -160
73 -160 83 0 5 -10 29 -22 53 -20 41 -21 46 -6 77 8 17 19 48 23 66 4 19 15
42 25 50 17 15 52 185 52 251 0 14 6 32 12 40 7 8 18 35 25 60 8 25 17 56 21
70 9 30 -11 113 -40 170 -11 21 -20 47 -20 56 0 25 -59 124 -99 167 l-36 38
-293 -1 -293 -2 -9 -24z m282 -118 c52 -4 131 -45 191 -98 31 -27 39 -42 43
-78 3 -25 9 -49 15 -54 5 -6 9 -25 9 -43 0 -35 0 -35 -80 -47 -19 -4 -47 -16
-62 -29 -25 -20 -27 -29 -30 -112 -2 -61 0 -89 8 -88 13 2 16 -85 3 -93 -8 -5
-43 -8 -128 -13 -10 -1 -9 -7 5 -28 27 -42 55 -62 99 -70 36 -6 38 -7 15 -14
-14 -4 -55 -7 -92 -8 -56 -1 -72 3 -88 19 -22 22 -37 25 -59 11 -10 -6 -10
-13 -2 -29 13 -24 51 -31 184 -34 53 -2 97 -6 97 -10 0 -19 -48 -30 -111 -26
-63 3 -67 2 -53 -13 8 -9 14 -23 12 -30 -4 -18 76 -39 123 -33 21 3 40 1 43
-5 12 -19 -41 -41 -117 -47 -72 -6 -79 -5 -102 16 -13 13 -22 27 -19 31 6 11
-11 43 -53 98 -33 43 -42 84 -23 96 6 3 10 11 10 16 0 6 -4 7 -10 4 -14 -8
-69 44 -90 85 -29 57 -45 161 -32 200 7 18 12 44 12 57 0 13 4 22 9 19 10 -6
10 -6 15 134 4 105 21 150 73 194 26 22 91 37 128 29 6 -1 31 -4 57 -7z m171
-518 c12 -6 51 -14 87 -17 62 -6 65 -7 62 -31 -6 -44 -36 -75 -73 -76 -38 0
-59 18 -90 78 -29 57 -26 68 14 46z m193 -629 c-9 -33 -16 -73 -16 -87 0 -32
-10 -47 -30 -47 -8 0 -18 -17 -25 -41 -11 -46 -64 -99 -111 -110 -16 -4 -49
-20 -74 -37 l-45 -29 60 60 c33 33 76 77 96 98 41 44 94 146 130 247 21 60 24
65 27 38 2 -17 -4 -58 -12 -92z m-736 4 c3 3 5 -11 4 -31 -1 -22 6 -43 17 -56
22 -23 26 -44 6 -27 -8 6 -18 7 -22 3 -5 -4 -5 1 -2 11 4 11 3 16 -3 12 -6 -3
-10 1 -10 9 0 18 -39 18 -58 -1 -9 -9 -9 -13 0 -19 6 -4 14 -2 16 4 2 7 10 12
18 12 9 0 12 -5 8 -12 -4 -7 -3 -8 4 -4 11 6 17 -6 13 -27 -1 -4 6 -10 14 -13
8 -3 12 -10 9 -15 -3 -5 0 -9 5 -9 6 0 11 -4 11 -8 0 -5 -7 -9 -15 -9 -8 0
-15 9 -15 19 0 11 -5 16 -11 13 -6 -4 -8 -13 -5 -21 3 -8 0 -11 -9 -7 -8 3
-12 9 -9 14 3 5 -2 6 -11 2 -9 -3 -13 -9 -7 -12 5 -3 14 -15 20 -26 8 -14 12
-16 12 -5 0 13 2 13 9 1 5 -8 20 -15 33 -17 12 -1 24 -3 25 -3 2 -1 -5 -10
-14 -21 -10 -12 -21 -16 -26 -11 -5 5 -15 7 -22 5 -7 -3 -16 0 -21 7 -4 8 -3
10 4 5 7 -4 12 -3 12 3 0 5 -16 15 -35 21 -21 7 -32 16 -29 22 4 7 2 8 -4 4
-8 -5 -8 -15 -2 -32 7 -17 7 -23 0 -19 -6 3 -10 -1 -10 -10 0 -11 7 -14 24
-11 16 3 27 -1 30 -10 3 -8 2 -13 -2 -10 -5 3 -27 6 -50 7 -27 2 -42 8 -42 16
0 7 -5 13 -11 13 -6 0 -3 7 6 16 12 13 13 19 4 31 -7 8 -8 13 -3 12 19 -3 35
1 30 9 -2 4 -1 14 5 22 6 11 9 11 9 2 0 -10 4 -10 23 0 12 7 25 12 29 13 3 0
10 4 15 8 4 5 -3 7 -17 5 -14 -1 -28 -7 -32 -13 -13 -16 -3 48 11 73 12 22 11
23 -8 13 -16 -9 -23 -7 -36 11 -10 13 -15 16 -13 8 3 -9 -9 -21 -29 -32 -41
-22 -39 -22 -39 2 0 11 8 23 18 26 10 3 18 12 18 20 0 8 5 14 10 14 6 0 10 7
10 15 0 24 27 29 55 11 35 -23 48 -21 35 5 -9 16 -8 26 6 47 l18 27 11 -53 c5
-30 12 -51 15 -49z"/>
<path d="M4193 1507 c-51 -15 -53 -17 -58 -58 -5 -36 16 -69 44 -69 9 0 22 -9
28 -19 7 -11 26 -22 42 -26 40 -9 104 12 97 31 -3 8 1 14 9 14 8 0 15 5 15 11
0 5 5 7 11 3 34 -21 30 80 -5 108 -25 21 -117 23 -183 5z"/>
</g>
</svg>
