<?xml version="1.0" standalone="no"?>
<!DOCTYPE svg PUBLIC "-//W3C//DTD SVG 20010904//EN"
 "http://www.w3.org/TR/2001/REC-SVG-20010904/DTD/svg10.dtd">
<svg version="1.0" xmlns="http://www.w3.org/2000/svg"
 width="1339.000000pt" height="422.000000pt" viewBox="0 0 1339.000000 422.000000"
 preserveAspectRatio="xMidYMid meet">
<metadata>
Created by potrace 1.16, written by Peter Selinger 2001-2019
</metadata>
<g transform="translate(0.000000,422.000000) scale(0.100000,-0.100000)"
fill="#000000" stroke="none">
<path d="M2728 4208 c-19 -6 -28 -17 -28 -31 0 -12 -9 -28 -19 -34 -32 -20
-63 -119 -59 -186 3 -32 9 -62 15 -65 5 -4 12 -14 15 -22 3 -11 10 -6 21 17
20 39 46 48 92 33 22 -7 40 -8 51 -2 16 9 15 11 -4 21 -46 25 -11 109 39 96
38 -9 69 -85 35 -85 -34 0 -45 -52 -34 -163 l4 -47 -40 -12 -41 -12 45 -7 c25
-3 37 -7 27 -7 -24 -2 -11 -22 14 -22 21 0 25 -20 8 -37 -9 -9 -8 -18 5 -37 9
-14 16 -32 16 -41 0 -8 4 -15 8 -15 18 0 102 32 108 41 3 6 -6 21 -20 35 -29
30 -36 69 -19 104 7 14 13 33 13 43 0 9 6 17 14 17 8 0 21 25 32 63 l18 62 6
-40 c6 -38 6 -39 11 -10 5 36 -4 92 -36 211 -3 11 -22 38 -42 60 -20 21 -36
46 -34 55 1 10 -8 19 -21 23 -36 9 -170 6 -200 -6z"/>
<path d="M4555 4047 c-95 -32 -158 -87 -199 -177 -31 -66 -35 -170 -10 -243
22 -64 92 -140 162 -174 104 -51 262 -33 339 39 13 12 23 30 23 39 0 10 13 28
30 40 16 12 36 39 45 61 20 50 19 162 -1 221 -21 63 -92 140 -160 173 -65 32
-167 41 -229 21z"/>
<path d="M6705 3990 c-3 -5 -13 -10 -22 -10 -9 0 -25 -7 -35 -17 -10 -9 -18
-11 -18 -5 0 6 -7 9 -15 6 -8 -4 -15 -12 -15 -19 0 -10 -19 -21 -51 -29 -25
-6 -52 -76 -29 -76 6 0 10 5 10 12 0 6 3 9 6 6 3 -3 -6 -30 -20 -59 -14 -29
-26 -59 -26 -66 0 -7 -4 -13 -9 -13 -5 0 -13 -18 -19 -41 l-10 -41 33 4 c29 3
33 1 30 -17 -4 -33 -16 -55 -27 -49 -6 4 -7 -2 -3 -17 17 -54 25 -70 34 -65 5
4 12 0 14 -6 3 -7 6 0 6 15 1 34 21 26 21 -7 0 -29 21 -36 111 -36 85 0 147
22 204 72 36 32 46 46 42 65 -2 12 -1 23 2 23 4 0 7 11 7 24 0 14 -4 22 -10
19 -5 -4 -6 -1 0 8 11 18 6 48 -12 73 -16 24 -19 60 -4 51 6 -4 8 -11 4 -16
-3 -5 0 -8 8 -7 7 2 12 -3 11 -9 -2 -7 4 -13 12 -13 9 0 15 9 15 23 0 17 2 19
9 8 6 -9 6 -22 0 -32 -15 -28 -10 -35 7 -11 14 20 13 25 -2 57 -9 19 -23 35
-30 35 -8 0 -14 8 -14 18 0 22 -48 82 -66 82 -7 0 -22 12 -33 27 -15 18 -32
27 -54 27 -17 1 -37 5 -44 9 -6 4 -14 3 -18 -3z"/>
<path d="M11000 3980 c-63 -12 -121 -59 -126 -103 -1 -12 -18 -57 -38 -98 -32
-67 -40 -77 -69 -84 -28 -6 -29 -8 -12 -15 11 -4 24 -5 28 -3 8 5 1 -34 -14
-75 -15 -39 -10 -121 8 -150 25 -41 43 -52 86 -52 21 0 45 -6 53 -14 34 -34 4
-90 -53 -99 -31 -5 -109 -27 -192 -53 -20 -6 28 -55 103 -105 61 -41 167 -79
219 -79 l31 0 -35 38 c-20 20 -48 53 -63 74 -32 43 -30 44 79 47 54 2 80 8
112 27 23 13 53 24 67 24 14 0 26 4 26 9 0 5 16 12 36 16 51 9 143 107 131
139 -3 6 -1 35 4 64 6 39 4 61 -7 87 -20 49 -19 95 4 95 39 -1 95 -20 116 -39
12 -12 30 -21 40 -21 16 0 17 5 11 37 -8 46 -41 134 -58 157 -11 16 -18 17
-53 7 -21 -6 -55 -11 -76 -11 -20 0 -39 -6 -41 -12 -4 -10 -6 -10 -6 0 -1 7
-6 10 -13 6 -7 -5 -8 -3 -3 6 5 8 1 18 -10 27 -11 7 -15 13 -10 13 5 0 0 7
-11 16 -10 8 -13 12 -5 9 9 -5 8 1 -4 18 -23 36 -100 85 -144 92 -20 4 -45 8
-56 9 -11 2 -36 0 -55 -4z m74 -135 c40 -17 61 -44 71 -93 6 -27 2 -37 -19
-59 -29 -29 -28 -53 6 -90 25 -27 41 -96 33 -144 -6 -37 -36 -78 -58 -80 -69
-6 -137 55 -162 146 -25 92 -26 90 25 90 l45 0 -2 -47 c-3 -54 7 -59 66 -35
29 13 35 32 6 20 -26 -9 -40 17 -37 69 5 58 -6 74 -58 88 -50 14 -62 54 -30
100 37 52 58 58 114 35z"/>
<path d="M9530 3653 c-29 -11 -66 -38 -106 -77 -71 -72 -94 -126 -94 -226 0
-100 23 -154 94 -226 73 -73 126 -94 234 -94 l74 0 -6 38 c-17 89 -27 113 -59
132 -18 11 -41 20 -51 20 -18 0 -18 1 -1 20 23 25 35 25 35 1 0 -14 11 -22 44
-30 54 -13 67 -29 74 -86 6 -61 23 -73 61 -46 50 36 109 110 125 158 32 94 15
234 -37 295 -30 36 -259 138 -307 137 -19 0 -55 -8 -80 -16z"/>
<path d="M8310 3349 c-80 -22 -197 -53 -260 -70 -63 -17 -119 -35 -124 -40 -5
-5 2 -25 17 -48 15 -22 27 -49 28 -58 0 -10 5 -4 10 13 9 32 39 67 39 46 0 -6
-4 -14 -10 -17 -5 -3 -10 -19 -10 -34 0 -16 -7 -34 -15 -41 -19 -16 -46 -106
-44 -151 0 -19 -4 -68 -10 -109 l-11 -74 38 -39 c40 -41 120 -92 130 -83 3 4
5 42 4 86 -1 44 2 80 7 80 10 0 35 -65 35 -90 0 -18 33 -39 62 -40 12 0 25 -7
28 -16 3 -8 10 -13 15 -9 5 3 12 1 15 -4 4 -5 2 -12 -4 -16 -6 -4 -8 -10 -5
-15 3 -5 29 2 58 15 54 26 111 32 122 15 10 -16 81 30 135 87 45 47 49 54 40
78 -6 14 -10 41 -10 58 0 18 -6 50 -13 72 -20 66 -126 264 -164 305 l-34 39
43 11 c76 20 123 34 127 37 3 2 -6 14 -19 28 -30 32 -44 31 -220 -16z m47
-181 c8 -9 18 -31 22 -49 7 -31 5 -35 -23 -45 -23 -8 -31 -17 -31 -35 0 -17 5
-24 18 -23 10 1 16 -3 14 -9 -2 -7 6 -20 18 -29 20 -15 22 -23 14 -60 -27
-145 -83 -174 -215 -111 -51 24 -61 34 -72 68 -16 46 -11 141 9 178 34 60 71
107 96 122 35 19 127 15 150 -7z"/>
<path d="M1660 3267 c0 -7 -9 -18 -20 -25 -18 -11 -20 -10 -20 8 0 11 -7 20
-16 20 -8 0 -13 -4 -10 -9 10 -16 -21 -32 -57 -29 -63 4 -168 -80 -238 -190
-97 -153 -93 -380 9 -538 94 -145 243 -224 422 -224 287 0 500 213 500 500 0
181 -78 325 -230 426 -21 14 -43 23 -48 20 -6 -3 -12 0 -15 7 -13 35 -277 68
-277 34z m184 -320 c28 -9 44 -22 60 -50 18 -32 19 -39 6 -47 -8 -5 -23 -10
-32 -10 -26 0 -114 -42 -100 -47 10 -4 10 -8 1 -19 -8 -9 -8 -14 -1 -14 6 0
14 5 18 11 4 8 9 7 15 -2 7 -12 12 -12 29 -1 22 14 44 7 34 -10 -4 -6 -1 -9 6
-6 7 2 17 14 21 27 5 12 5 20 1 17 -4 -2 -23 -1 -42 3 l-35 8 33 7 c28 7 38 4
59 -16 22 -20 24 -29 19 -68 -5 -44 -48 -164 -87 -246 -10 -22 -19 -45 -19
-52 0 -18 -43 -42 -77 -42 -22 0 -37 7 -47 22 -23 33 -20 38 22 38 20 0 44 5
52 10 10 6 4 8 -21 4 -27 -5 -38 -2 -42 9 -5 14 27 27 86 33 44 4 26 15 -23
13 -83 -3 -109 -9 -103 -25 7 -20 -11 -17 -31 4 -28 32 -96 171 -102 212 -6
38 6 55 21 30 10 -17 35 -12 28 6 -4 12 0 14 20 9 14 -4 28 -2 32 4 4 8 12 8
27 0 18 -10 20 -17 14 -68 -3 -31 -8 -65 -12 -77 -6 -24 18 -54 44 -54 15 0
15 2 2 10 -12 7 -15 30 -15 101 0 65 -4 94 -13 97 -6 2 -10 8 -6 13 3 5 -11
16 -32 25 -49 20 -69 40 -49 48 8 3 18 20 23 38 9 37 51 66 64 45 6 -9 8 -9 8
0 0 22 84 28 144 10z"/>
<path d="M3087 2915 c-87 -32 -154 -99 -197 -199 -18 -40 -21 -63 -18 -135 4
-100 26 -156 87 -219 84 -86 252 -136 263 -78 3 15 -1 27 -13 34 -13 9 -16 20
-12 54 l5 43 -23 -35 -24 -35 -3 30 c-2 17 -15 42 -29 57 -14 14 -22 31 -19
37 4 7 1 8 -8 5 -11 -4 -19 3 -27 22 l-12 29 -7 -30 c-3 -17 -5 -46 -4 -65 4
-44 -5 -90 -17 -90 -5 0 -9 9 -9 20 0 11 -4 20 -10 20 -5 0 -10 17 -10 38 l1
37 15 -27 c8 -16 16 -28 19 -28 5 0 -2 37 -10 49 -3 5 0 13 6 16 6 4 8 18 5
31 -10 37 3 69 34 87 36 22 62 22 35 0 -19 -15 -19 -15 10 -8 17 4 45 9 63 11
29 4 32 2 32 -23 l0 -28 15 29 c8 15 15 36 15 45 -1 14 -2 14 -14 -2 -13 -16
-15 -16 -30 -2 -17 18 -22 40 -6 30 5 -3 18 3 29 14 19 19 19 19 -1 24 -17 5
-19 11 -12 52 4 31 2 55 -6 70 -7 13 -10 31 -7 39 9 22 64 21 75 -1 17 -33 23
-92 12 -114 -20 -36 -4 -65 48 -87 80 -35 87 -47 88 -173 1 -61 5 -113 9 -117
11 -11 53 46 87 116 28 57 30 69 26 150 -2 65 -9 99 -26 134 -33 66 -94 125
-165 159 -53 25 -73 29 -142 28 -44 0 -97 -7 -118 -14z"/>
<path d="M4558 2920 c-78 -23 -167 -111 -194 -192 -25 -75 -16 -191 19 -251
35 -60 107 -122 164 -141 53 -18 209 -22 161 -4 -38 13 -35 28 5 28 18 0 43 8
56 17 23 16 24 16 19 -5 -10 -39 21 -25 81 36 74 74 95 131 89 242 -4 60 -10
87 -31 123 -37 63 -110 124 -170 142 -54 16 -154 19 -199 5z m232 -152 c35
-58 35 -84 1 -124 -33 -36 -35 -43 -25 -68 8 -20 28 -21 44 -1 9 10 9 15 1 15
-6 0 -11 8 -11 18 1 14 4 13 20 -7 25 -30 26 -81 1 -129 -16 -31 -27 -40 -65
-50 -61 -16 -86 -15 -86 3 0 10 -10 15 -28 15 -38 0 -124 57 -120 80 2 9 -2
23 -9 31 -10 12 -9 21 2 43 18 33 24 124 10 134 -23 16 -12 39 19 40 17 1 47
8 67 14 20 7 64 14 98 16 59 2 62 1 81 -30z"/>
<path d="M11640 2736 c-7 -14 -18 -26 -25 -26 -6 0 -16 -15 -23 -33 -15 -40
-16 -167 -2 -167 6 0 10 6 10 13 0 21 35 88 42 81 4 -3 47 -7 95 -8 l88 -1 -1
-45 -1 -45 18 40 c29 64 25 87 -27 134 -50 47 -107 75 -135 68 -10 -3 -20 0
-21 5 -2 5 -10 -2 -18 -16z"/>
<path d="M12772 2753 c-27 -5 -55 -47 -78 -117 l-16 -49 -83 7 -83 7 -41 -62
c-81 -121 -105 -290 -61 -433 20 -63 32 -78 45 -56 11 18 25 11 25 -12 1 -57
28 -113 75 -154 48 -42 143 -100 151 -92 2 3 -2 20 -10 39 -19 48 -30 103 -19
96 6 -4 20 -38 32 -76 21 -66 24 -71 59 -81 41 -11 182 -14 230 -4 25 5 31 12
36 40 9 45 23 51 31 14 4 -16 10 -30 14 -30 15 0 127 73 159 103 171 164 203
443 74 643 -50 77 -58 82 -121 86 l-53 3 -23 51 c-21 48 -25 51 -82 67 -56 16
-201 21 -261 10z m145 -114 c17 -14 33 -34 37 -45 5 -18 2 -19 -47 -14 -58 6
-118 -7 -95 -21 9 -6 9 -9 1 -9 -7 0 -17 -9 -23 -20 -9 -17 -5 -23 29 -46 46
-30 91 -27 116 9 12 17 15 18 20 5 4 -9 5 -35 3 -59 -3 -40 -5 -44 -30 -44
-20 -1 -28 4 -28 17 0 27 -31 22 -69 -12 -28 -26 -32 -35 -28 -66 6 -42 13
-52 29 -36 22 22 46 15 41 -12 -4 -18 0 -26 17 -31 28 -9 20 -29 -14 -33 -15
-2 -30 -10 -33 -18 -7 -19 -23 -18 -23 2 0 9 -18 36 -40 61 -24 28 -42 60 -46
82 -9 58 -15 71 -28 71 -7 0 -21 8 -30 19 -15 17 -15 22 -2 62 12 33 12 45 3
51 -9 6 -9 8 0 8 7 0 16 -7 21 -16 10 -18 32 -11 32 10 0 14 69 81 110 107 27
18 32 16 77 -22z"/>
<path d="M6900 2739 c0 -5 -5 -7 -11 -3 -8 5 -8 1 0 -14 15 -27 15 -27 -14
-46 -18 -12 -24 -13 -23 -4 2 7 12 18 23 25 17 10 17 12 3 13 -18 0 -31 -15
-35 -40 -1 -8 -7 -16 -13 -18 -5 -2 -7 -9 -4 -14 4 -7 2 -8 -4 -4 -7 4 -12 1
-12 -7 0 -18 -38 -57 -56 -57 -8 0 -12 4 -9 10 3 5 0 7 -9 4 -20 -8 -29 -35
-16 -48 8 -8 11 -7 8 3 -2 7 4 16 12 18 12 4 12 3 2 -5 -8 -5 -13 -12 -13 -16
1 -3 -2 -6 -6 -7 -5 0 -13 -5 -20 -10 -7 -7 -13 -5 -16 3 -4 9 -6 7 -6 -4 -1
-9 5 -19 12 -21 9 -4 9 -6 -1 -6 -7 -1 -10 -6 -6 -13 4 -6 3 -8 -4 -4 -6 3
-19 -4 -29 -17 -23 -30 -68 -56 -61 -35 3 7 10 13 16 13 14 0 56 44 49 52 -3
3 -16 -2 -29 -11 -12 -9 -18 -16 -13 -16 5 0 0 -6 -11 -14 -10 -8 -19 -25 -19
-38 0 -12 -5 -23 -12 -23 -6 0 -15 -4 -20 -8 -4 -5 -3 -7 2 -5 16 5 100 -58
145 -109 65 -74 91 -141 97 -250 5 -80 3 -101 -18 -155 -57 -155 -189 -261
-342 -276 l-58 -5 3 64 3 64 48 7 c91 13 164 65 209 150 18 34 23 59 23 123 0
142 -56 216 -207 274 -21 8 -29 6 -41 -7 -8 -9 -12 -24 -9 -32 4 -13 3 -13
-10 -2 -10 8 -19 9 -22 4 -3 -6 2 -13 12 -17 16 -6 16 -7 1 -18 -13 -10 -18
-42 -25 -147 l-9 -135 -125 -3 c-69 -1 -132 -5 -140 -8 -8 -3 -17 -5 -19 -4
-9 4 -19 -25 -10 -30 5 -4 6 -60 2 -143 -7 -152 -9 -155 -73 -122 -38 20 -50
43 -50 99 0 53 -8 57 -34 19 -9 -16 -15 -20 -12 -10 14 44 -49 -8 -66 -55 -6
-17 -15 -25 -24 -21 -8 3 -14 0 -14 -6 0 -6 -3 -10 -7 -10 -30 5 -35 -2 -18
-21 10 -11 13 -20 7 -20 -6 0 -14 5 -17 10 -4 6 -11 7 -17 4 -7 -5 -4 -12 8
-21 18 -13 17 -14 -7 -8 -15 4 -30 2 -33 -4 -4 -7 -1 -8 8 -5 29 11 17 -20
-18 -48 -33 -26 -35 -27 -31 -7 4 21 4 21 -15 4 -21 -19 -27 -30 -11 -21 5 3
11 -1 15 -9 3 -8 1 -17 -4 -20 -4 -3 -11 1 -13 7 -4 9 -6 7 -6 -3 -1 -21 137
-153 212 -202 143 -95 279 -137 468 -144 154 -6 253 9 377 57 264 102 473 333
552 610 31 107 39 317 15 431 -37 184 -114 330 -245 462 -81 82 -110 102 -110
76z m-729 -879 l39 0 0 -75 0 -75 -65 0 -65 0 0 74 c0 74 7 90 38 80 8 -2 31
-4 53 -4z m189 -140 l0 -140 -65 0 -65 0 0 140 0 140 65 0 65 0 0 -140z"/>
<path d="M9917 2568 c-29 -8 -41 -18 -49 -39 -9 -27 -11 -27 -32 -14 -20 13
-26 12 -74 -20 l-51 -35 6 -64 c5 -60 4 -66 -20 -90 -20 -20 -36 -26 -70 -26
l-44 0 -17 -58 c-23 -82 -21 -214 4 -294 65 -212 253 -348 480 -348 149 0 286
59 374 161 57 66 61 80 42 140 -10 28 -15 53 -13 56 10 9 37 -30 37 -53 0 -45
19 -25 40 42 28 92 27 226 -3 314 -16 47 -27 66 -42 69 -31 5 -55 32 -55 61 0
24 -5 28 -41 34 -50 8 -115 44 -127 71 -5 11 -6 30 -1 42 8 21 3 24 -57 43
-73 22 -218 26 -287 8z m150 -33 c78 -20 99 -46 108 -130 10 -92 2 -156 -25
-200 -15 -24 -25 -57 -26 -88 -3 -59 -9 -67 -61 -74 -28 -4 -51 1 -80 15 -44
23 -53 37 -53 87 0 18 -10 54 -22 81 -25 56 -32 123 -18 174 5 19 12 51 15 70
13 75 56 92 162 65z m-250 -333 c-3 -15 -2 -34 3 -42 5 -9 4 -20 -3 -29 -9
-12 -9 -13 1 -7 7 4 12 2 12 -8 0 -8 8 -19 17 -24 15 -9 12 -13 -18 -31 -19
-12 -52 -27 -74 -33 -47 -14 -99 -65 -115 -114 -10 -30 -14 -33 -27 -22 -22
18 -12 155 14 200 19 33 156 136 182 137 10 1 12 -7 8 -27z m612 -6 c56 -30
66 -51 66 -145 0 -79 -2 -86 -20 -89 -17 -2 -20 3 -21 38 -1 30 -8 45 -26 60
-17 13 -27 33 -31 61 -3 22 -15 51 -26 63 -12 12 -21 25 -21 28 0 10 49 -1 79
-16z"/>
<path d="M11617 2543 c-16 -15 -5 -34 28 -50 41 -20 43 -30 10 -62 -19 -18
-25 -19 -25 -8 0 23 -21 65 -34 70 -7 3 -21 -2 -31 -10 -16 -11 -17 -15 -6
-22 15 -10 8 -41 -8 -41 -6 0 -8 7 -5 15 4 9 -5 19 -28 28 -34 15 -48 13 -48
-5 0 -5 7 -8 15 -4 11 4 14 -1 13 -20 -2 -19 -7 -24 -23 -22 -13 2 -19 9 -17
21 2 11 -4 17 -18 17 -12 0 -20 -7 -20 -17 0 -15 -2 -16 -10 -3 -8 13 -10 13
-10 -1 0 -9 9 -19 19 -22 14 -3 18 -11 14 -25 -8 -30 -33 -37 -33 -8 0 13 -6
23 -15 23 -9 0 -15 -10 -15 -24 0 -13 7 -26 15 -29 8 -4 15 -15 15 -25 0 -26
-26 -14 -39 19 l-11 27 4 -28 c2 -21 0 -25 -9 -17 -9 8 -14 4 -18 -17 -7 -35
1 -53 23 -53 11 0 17 -7 16 -17 0 -10 5 -18 12 -19 6 -1 17 -2 22 -3 6 0 10
-6 10 -12 0 -5 -5 -7 -12 -3 -7 4 -8 3 -4 -4 12 -20 21 -14 35 23 7 19 17 35
22 35 6 0 8 9 4 19 -5 16 -2 18 15 14 21 -6 29 -43 8 -43 -7 0 -5 -7 5 -17 8
-10 17 -34 18 -53 4 -39 14 -50 46 -50 16 0 21 4 17 15 -7 18 -31 20 -36 3 -3
-7 -7 -5 -11 6 -4 9 -3 15 2 11 5 -3 11 -1 13 3 5 14 68 -7 68 -23 0 -8 5 -15
11 -15 5 0 7 5 4 10 -3 6 3 10 14 10 12 0 21 -4 21 -8 0 -5 7 -9 15 -9 8 0 15
4 15 9 0 5 5 6 10 3 25 -16 29 9 5 37 -27 32 -30 49 -14 79 9 17 13 18 26 7
13 -10 13 -8 -1 15 -23 34 -7 35 33 1 44 -37 38 -22 -10 28 -40 42 -40 43 -21
58 20 17 20 17 -4 48 -15 18 -20 33 -14 37 5 3 10 24 10 45 0 29 -5 42 -19 50
-22 11 -54 13 -64 3z"/>
<path d="M11805 2430 c-10 -22 -31 -52 -46 -67 -16 -16 -29 -31 -29 -34 0 -4
13 -12 30 -19 16 -7 41 -24 55 -37 28 -29 33 -14 10 27 -8 14 -14 37 -15 51 0
20 5 25 22 24 14 -1 22 -9 23 -23 1 -12 -2 -22 -7 -22 -14 0 -9 -17 13 -41 17
-20 19 -21 12 -4 -11 25 -1 105 10 88 5 -7 5 -17 2 -23 -3 -5 1 -10 9 -10 9 0
18 11 22 25 8 31 -3 45 -17 25 -9 -12 -10 -10 -6 7 4 16 1 20 -11 16 -11 -5
-14 -2 -9 10 5 14 2 16 -21 11 -21 -4 -24 -3 -12 5 11 8 12 11 2 11 -7 0 -10
5 -7 10 3 6 2 10 -3 10 -5 0 -17 -18 -27 -40z"/>
<path d="M340 2281 c-190 -60 -339 -251 -340 -433 l0 -58 143 -2 c184 -2 237
-5 243 -11 11 -11 -19 -43 -56 -61 -22 -10 -38 -22 -38 -25 5 -18 -15 -52 -28
-47 -8 3 -14 1 -14 -4 0 -6 -5 -10 -11 -10 -21 0 -41 -32 -47 -78 -7 -46 -8
-47 -46 -52 l-40 -5 33 -33 c46 -46 110 -88 169 -111 59 -23 62 -20 55 54 -4
38 1 67 20 117 15 38 24 77 20 90 -14 59 -15 91 -3 83 8 -5 11 0 10 16 -1 13
-2 38 -1 54 1 23 3 27 11 15 5 -8 10 -29 10 -46 0 -45 39 -76 80 -64 l32 9 -6
-37 c-11 -65 -26 -225 -26 -274 0 -48 0 -48 33 -48 77 0 225 64 265 115 11 13
22 22 24 19 3 -2 13 6 21 20 16 24 16 25 -15 28 -30 3 -33 7 -44 53 -13 61
-35 106 -42 86 -2 -7 -11 2 -21 24 -13 29 -28 42 -76 63 -69 31 -85 40 -85 50
0 4 92 6 205 4 l205 -3 0 59 c0 189 -136 370 -329 438 -84 30 -227 32 -311 5z
m191 -271 c13 -7 19 -21 19 -45 0 -18 5 -37 10 -40 6 -3 10 -15 10 -25 0 -10
6 -20 13 -23 9 -3 9 -7 -1 -19 -7 -9 -15 -40 -19 -69 -6 -53 -17 -79 -34 -79
-15 0 -10 37 6 50 8 7 15 17 15 23 0 7 -4 7 -12 -1 -7 -7 -31 -12 -54 -12 -37
0 -42 2 -37 20 3 11 10 20 15 20 5 0 6 -4 3 -10 -3 -5 3 -10 14 -10 12 0 21 5
21 10 0 6 8 10 18 10 14 0 15 2 2 10 -8 5 -15 15 -15 22 0 7 -9 14 -21 16 -16
2 -20 8 -16 28 5 25 22 34 22 10 0 -24 26 -39 49 -26 24 12 27 42 7 59 -14 12
-115 9 -136 -4 -19 -12 -11 -57 10 -62 11 -3 20 -10 20 -15 0 -5 5 -6 10 -3
15 9 12 -14 -3 -30 -12 -11 -19 -9 -47 15 -18 16 -27 29 -20 32 7 2 12 27 12
63 1 76 16 95 75 95 24 0 53 -5 64 -10z"/>
<path d="M8358 2110 c-78 -23 -167 -111 -194 -192 -25 -75 -16 -191 19 -251
36 -62 108 -123 169 -143 75 -25 191 -16 251 19 62 36 123 108 143 169 25 75
16 191 -19 251 -35 60 -107 122 -164 141 -49 17 -159 20 -205 6z m122 -129
c14 -10 27 -29 28 -42 2 -13 8 -29 13 -36 7 -8 1 -13 -20 -18 -17 -4 -33 -11
-36 -16 -4 -5 -15 -4 -28 3 -12 7 -41 15 -65 18 l-42 5 22 45 c12 25 29 50 38
57 18 14 56 7 90 -16z"/>
<path d="M4070 1805 c0 -8 -8 -15 -17 -16 -11 0 -7 -4 10 -11 29 -10 32 -34 3
-32 -9 1 -16 -2 -16 -7 0 -5 9 -9 19 -9 23 0 36 -16 21 -25 -15 -9 -12 -25 5
-25 18 0 19 -12 4 -27 -8 -8 -8 -13 0 -17 12 -8 15 -36 3 -36 -4 0 -32 45 -62
100 -39 71 -60 100 -74 100 -18 0 -18 -1 0 -27 10 -16 33 -55 52 -88 19 -33
38 -67 43 -75 22 -38 41 -81 38 -85 -3 -2 -23 -1 -45 2 l-41 5 -59 119 c-32
65 -63 119 -70 119 -18 0 -127 -75 -162 -113 -21 -22 -30 -37 -23 -41 6 -4 11
-16 11 -27 0 -24 16 -25 29 -2 8 15 11 15 25 4 13 -11 22 -11 42 -2 28 12 44
7 44 -15 0 -8 7 -14 15 -14 8 0 15 -5 15 -11 0 -8 -36 -10 -125 -7 -112 4
-127 3 -135 -12 -10 -20 11 -30 63 -30 23 0 27 -4 27 -30 0 -36 27 -42 32 -7
3 20 9 22 80 25 68 2 77 1 83 -16 3 -11 0 -32 -7 -47 l-12 -28 -163 5 c-154 5
-163 4 -163 -13 0 -17 9 -19 74 -19 79 0 86 -5 86 -56 0 -13 5 -24 10 -24 6 0
10 15 10 33 l0 33 71 2 c51 1 70 -2 66 -11 -2 -7 -10 -34 -18 -61 l-14 -49
-152 6 c-126 6 -153 4 -153 -7 0 -22 29 -28 96 -21 38 5 64 3 68 -3 3 -6 9
-32 12 -58 3 -27 7 -51 10 -55 2 -3 -5 -14 -16 -24 -15 -14 -29 -16 -67 -10
-26 4 -56 14 -66 22 -22 20 -30 13 -21 -21 6 -25 9 -26 75 -26 76 0 82 -7 57
-67 -11 -24 -18 -29 -45 -27 -40 2 -41 -6 -4 -60 76 -110 214 -206 346 -241
63 -16 250 -21 259 -6 3 4 -3 16 -14 26 -15 14 -20 31 -20 72 0 29 4 53 8 53
10 0 9 -4 13 115 1 50 -1 100 -5 111 -4 14 -1 27 9 37 8 9 15 28 15 43 0 22 2
25 15 14 13 -11 15 -6 15 35 0 46 1 47 19 31 10 -9 42 -60 71 -112 43 -78 50
-98 39 -105 -8 -5 -24 -7 -36 -4 l-23 5 24 -52 c13 -29 39 -84 58 -121 l34
-68 43 38 43 38 -29 50 c-17 28 -56 93 -88 145 -121 197 -222 389 -228 432 -3
23 -11 44 -16 46 -6 2 -9 7 -6 11 2 5 -7 14 -20 21 -23 12 -25 19 -25 85 0 39
3 75 7 78 3 4 24 -21 46 -56 21 -34 68 -105 102 -157 114 -172 285 -459 285
-479 0 -4 -19 -8 -42 -9 -23 -1 -43 -4 -46 -6 -6 -6 68 -136 78 -136 11 0 60
58 73 87 8 19 1 34 -56 110 -68 92 -130 192 -333 538 -99 170 -121 215 -117
238 5 25 3 27 -31 27 -25 0 -36 -4 -36 -15z m67 -367 c11 -13 23 -31 26 -40 5
-15 1 -16 -23 -11 -18 3 -30 1 -30 -5 0 -6 12 -12 27 -14 36 -4 45 -42 26
-110 -21 -74 -50 -103 -97 -94 -42 8 -67 45 -59 91 10 64 14 74 34 80 12 4 18
12 15 21 -3 8 -2 14 3 14 4 0 8 13 8 29 0 32 18 61 37 61 7 0 22 -10 33 -22z"/>
<path d="M2155 1689 c-21 -7 -36 -22 -52 -54 l-22 -44 35 -11 c41 -14 43 -23
7 -39 -34 -15 -100 -58 -130 -85 -13 -11 -25 -18 -27 -15 -2 2 -13 29 -23 60
l-19 57 -40 -54 c-65 -89 -87 -154 -92 -270 -6 -152 33 -263 127 -361 100
-104 214 -152 357 -153 141 0 249 41 341 129 104 100 152 214 153 357 0 141
-41 249 -129 341 -102 106 -214 153 -361 152 -52 0 -108 -5 -125 -10z m179
-143 c5 -25 9 -28 16 -16 7 11 10 4 10 -25 0 -22 3 -50 6 -63 4 -13 3 -22 -2
-21 -30 5 -47 -7 -74 -53 -16 -29 -30 -48 -30 -43 0 6 -4 4 -9 -3 -6 -10 -15
-6 -35 18 -40 49 -35 62 39 89 36 14 66 32 68 40 2 9 -3 36 -10 61 -7 25 -13
45 -13 46 0 0 6 1 14 1 8 0 17 -14 20 -31z m-226 -123 c5 -10 12 -39 16 -64 5
-37 3 -50 -14 -71 -21 -28 -18 -60 6 -51 8 3 14 1 14 -4 0 -6 10 -15 23 -21
15 -7 17 -11 6 -11 -9 -1 -21 -11 -26 -23 l-11 -23 -12 26 c-8 17 -18 25 -29
22 -23 -6 -51 27 -57 68 -5 31 -2 35 28 49 32 14 33 17 31 68 -2 52 8 67 25
35z"/>
<path d="M11205 1560 c-73 -24 -158 -78 -161 -103 -3 -22 -14 -36 -14 -19 0 7
-3 12 -7 12 -8 0 -13 -27 -15 -92 -1 -25 -7 -38 -16 -38 -7 0 -10 5 -6 12 5 8
2 9 -9 5 -10 -4 -20 0 -26 11 -9 15 -10 15 -11 -5 0 -22 52 -73 75 -73 7 0 16
-7 19 -16 8 -20 -11 -54 -29 -54 -8 0 -15 -5 -15 -11 0 -8 12 -10 34 -6 30 5
35 3 41 -20 3 -15 0 -34 -10 -49 -8 -13 -15 -31 -15 -41 1 -23 23 -53 41 -53
8 0 6 -6 -7 -16 -18 -15 -12 -15 28 1 13 5 15 2 11 -15 -3 -13 -11 -19 -19
-16 -24 9 -15 -10 9 -21 30 -14 49 -3 49 28 -1 43 -26 144 -39 157 -7 7 -13
19 -14 25 0 7 -2 23 -3 36 -3 22 -2 23 11 6 12 -17 13 -16 13 16 0 53 28 126
50 132 16 4 18 11 13 41 -4 29 -2 36 10 36 21 0 32 19 18 33 -12 12 13 47 35
47 7 0 14 5 16 12 2 6 13 13 24 15 35 8 128 3 138 -7 6 -6 21 -10 36 -10 44 0
88 -35 100 -79 6 -22 17 -52 25 -68 8 -15 15 -46 15 -67 0 -35 -2 -38 -13 -22
-8 11 -32 19 -72 23 -33 3 -68 10 -77 14 -24 13 -27 1 -16 -63 8 -49 13 -57
36 -64 58 -17 127 5 117 37 -5 14 -1 16 16 12 20 -6 21 -10 14 -57 -4 -28 -8
-60 -9 -72 -1 -11 -6 -26 -10 -33 -26 -41 62 -12 115 38 21 21 39 46 39 55 0
10 14 23 34 31 19 8 37 24 41 35 9 28 -13 88 -36 101 -11 5 -17 14 -14 20 4 5
2 9 -3 9 -6 0 -18 16 -29 35 -22 44 -119 117 -193 146 -80 32 -251 37 -335 9z"/>
<path d="M11224 1331 c-26 -11 -40 -31 -23 -31 10 0 10 -3 1 -12 -18 -18 -15
-25 13 -32 14 -4 25 -13 25 -20 0 -19 50 -29 83 -17 29 11 69 67 64 91 -1 8
-11 16 -22 16 -11 1 -42 5 -70 8 -27 3 -60 2 -71 -3z"/>
<path d="M7463 1105 c-54 -16 -121 -56 -152 -89 -23 -24 -25 -34 -24 -124 0
-54 -4 -100 -9 -103 -14 -9 6 -174 23 -195 7 -9 21 -39 31 -67 18 -52 14 -66
-19 -67 -22 0 -14 -17 20 -46 65 -55 207 -104 207 -71 0 9 -5 19 -10 22 -10 6
15 63 34 76 4 4 2 10 -5 15 -16 10 42 23 109 23 23 1 42 6 42 11 0 6 -4 10 -9
10 -5 0 -17 7 -26 16 -21 21 -85 36 -85 20 0 -6 9 -17 20 -24 13 -8 20 -8 20
-1 0 5 5 7 10 4 35 -22 -31 -36 -71 -15 -18 10 -18 13 -4 47 11 26 12 39 4 49
-7 9 -8 39 -4 88 9 91 2 122 -28 131 -12 4 -37 14 -54 22 -36 17 -38 24 -47
155 l-6 78 38 16 c20 9 53 20 72 24 l35 8 -35 0 c-19 0 -54 -5 -77 -13z"/>
<path d="M9142 1070 c-57 -23 -92 -62 -108 -119 -9 -31 -20 -60 -24 -66 -12
-16 -23 -95 -12 -95 11 0 34 -49 27 -60 -3 -4 2 -13 10 -20 11 -9 13 -24 9
-54 -4 -33 -3 -38 6 -23 7 11 12 69 13 140 2 116 3 122 25 133 13 6 37 8 55 5
23 -5 35 -3 43 8 16 21 44 6 44 -24 0 -14 -5 -25 -11 -25 -8 0 -8 -4 1 -15 11
-13 16 -13 42 1 24 12 32 13 44 3 13 -11 9 -15 -28 -29 -30 -11 -42 -21 -40
-33 2 -9 -2 -17 -8 -17 -6 0 -9 -14 -8 -32 2 -24 9 -34 30 -42 30 -11 37 -26
13 -26 -7 0 -18 -6 -22 -14 -4 -8 -24 -17 -43 -19 -19 -3 -37 -6 -40 -7 -18
-5 99 -38 119 -34 20 4 19 2 -8 -11 -44 -20 -78 -19 -90 2 -5 10 -13 15 -17
11 -4 -5 -13 -3 -21 3 -10 9 -13 8 -13 -4 0 -28 12 -50 20 -37 6 9 16 9 44 -1
34 -12 36 -16 32 -49 -2 -23 2 -42 13 -54 15 -18 15 -19 -17 -14 -22 3 -29 1
-22 -6 5 -5 36 -10 69 -10 37 -1 57 -5 53 -11 -14 -22 -9 -32 11 -27 14 3 18
1 13 -6 -4 -7 -3 -12 1 -12 5 0 10 -11 11 -25 1 -19 -7 -29 -36 -45 l-37 -21
39 6 c22 4 56 13 76 21 32 13 36 19 38 53 2 22 -2 42 -8 46 -13 8 -13 119 -1
163 6 18 24 49 40 68 34 38 42 93 17 114 -11 8 -14 28 -11 72 3 41 -1 71 -11
89 -15 29 -73 79 -92 79 -6 0 -19 14 -27 30 -9 17 -27 35 -41 40 -32 12 -131
12 -162 0z"/>
<path d="M11237 1044 c-11 -11 -8 -36 3 -29 6 4 34 4 63 0 l51 -7 -23 -19
c-31 -25 -21 -46 26 -51 21 -3 46 -8 56 -12 14 -7 17 -3 17 28 0 24 5 36 14
36 17 0 31 -33 17 -38 -19 -6 -12 -22 9 -22 32 0 45 41 26 79 -17 32 -30 39
-41 21 -4 -6 -21 -8 -38 -5 -18 3 -57 7 -87 9 -30 3 -62 7 -71 11 -8 3 -18 2
-22 -1z"/>
<path d="M4292 907 c0 -36 -4 -71 -8 -79 -10 -15 -22 -188 -13 -188 9 0 111
36 141 50 l27 13 -66 126 c-36 69 -70 130 -74 135 -4 5 -7 -21 -7 -57z"/>
<path d="M11453 878 c-16 -15 -25 -19 -35 -11 -7 6 -26 13 -41 15 -23 5 -36
-1 -63 -29 -19 -18 -34 -41 -34 -49 0 -27 -19 -5 -31 36 -18 59 -31 48 -27
-22 2 -40 -1 -63 -9 -65 -6 -2 5 -21 26 -43 37 -39 38 -39 92 -33 30 3 62 10
71 14 10 5 18 5 20 -1 6 -19 50 22 69 64 22 50 24 86 4 112 -13 17 -14 16 -8
-18 3 -24 2 -38 -5 -38 -17 0 -24 35 -13 64 13 32 11 32 -16 4z"/>
<path d="M5553 806 c-104 -34 -197 -117 -249 -221 -27 -56 -29 -68 -29 -175 0
-110 1 -118 33 -183 18 -37 37 -67 41 -67 14 0 66 70 67 90 3 37 4 40 19 40 8
0 15 5 15 11 0 5 5 7 12 3 6 -4 8 -3 4 4 -3 6 0 26 9 44 8 18 13 25 10 15 -3
-11 -1 -15 6 -12 14 9 39 -14 32 -31 -3 -8 0 -14 6 -14 6 0 11 -5 11 -10 0 -7
-6 -7 -19 0 -29 15 -38 12 -15 -5 17 -13 17 -17 4 -28 -25 -21 -40 -55 -39
-89 1 -33 1 -33 16 10 8 24 21 46 29 49 8 3 14 12 14 20 0 8 5 11 11 7 8 -5
10 -30 4 -83 -4 -42 -7 -83 -7 -91 -1 -18 -17 -40 -29 -40 -5 0 -9 10 -9 21 0
16 -5 20 -20 16 -12 -3 -31 4 -46 16 -17 13 -25 15 -22 7 15 -46 150 -110 232
-110 l45 0 3 42 3 43 41 -38 c23 -20 48 -37 55 -37 8 0 38 11 67 25 75 35 153
113 193 193 33 64 34 71 34 182 0 104 -3 121 -27 173 -38 80 -114 157 -196
198 -60 30 -77 34 -167 36 -65 2 -115 -2 -142 -11z m159 -98 c27 -29 28 -33
11 -39 -10 -4 -29 -8 -42 -8 -17 -1 -22 -5 -17 -17 3 -9 6 -19 6 -23 0 -4 14
-8 30 -9 36 -3 43 24 8 31 -21 4 -20 4 3 6 15 0 32 -5 38 -13 14 -17 4 -121
-14 -151 -19 -32 19 -92 83 -131 l53 -31 -33 -36 c-22 -22 -47 -38 -71 -42
-43 -8 -135 11 -134 28 1 7 -3 45 -7 85 -8 65 -12 74 -37 89 -15 9 -33 29 -40
45 -15 35 -3 97 19 104 9 3 23 8 31 10 10 3 11 7 2 18 -9 11 -9 15 1 19 7 3 1
6 -14 6 -26 1 -26 3 -16 31 23 66 91 80 140 28z"/>
</g>
</svg>
