<?xml version="1.0" standalone="no"?>
<!DOCTYPE svg PUBLIC "-//W3C//DTD SVG 20010904//EN"
 "http://www.w3.org/TR/2001/REC-SVG-20010904/DTD/svg10.dtd">
<svg version="1.0" xmlns="http://www.w3.org/2000/svg"
 width="65.000000pt" height="65.000000pt" viewBox="0 0 65.000000 65.000000"
 preserveAspectRatio="xMidYMid meet">
<metadata>
Created by potrace 1.16, written by Peter Selinger 2001-2019
</metadata>
<g transform="translate(0.000000,65.000000) scale(0.100000,-0.100000)"
fill="#000000" stroke="none">
<path d="M185 622 c-65 -31 -122 -87 -156 -154 -17 -32 -24 -66 -27 -129 -4
-78 -2 -92 23 -148 42 -93 145 -177 226 -183 32 -3 33 -1 41 41 8 49 29 71 40
43 4 -9 7 -11 7 -4 1 6 8 12 17 12 15 0 15 -2 2 -22 -8 -13 -18 -35 -22 -50
-5 -23 -3 -28 13 -28 21 0 31 18 31 58 0 15 5 34 11 42 8 11 9 5 6 -25 -3 -22
-8 -48 -12 -57 -10 -26 10 -23 80 10 65 31 121 87 156 154 17 32 24 66 27 129
4 78 2 92 -23 148 -30 67 -87 126 -157 162 -33 17 -64 24 -133 26 -83 4 -95 2
-150 -25z m214 -71 c10 -6 23 -29 30 -53 7 -24 17 -53 22 -66 12 -30 11 -45
-1 -37 -5 3 -10 1 -10 -4 0 -6 5 -11 10 -11 14 0 12 -24 -2 -39 -8 -7 -13 -39
-14 -79 0 -84 -10 -118 -29 -102 -8 7 -19 9 -25 5 -16 -10 -12 5 11 33 11 15
16 28 11 30 -6 2 -5 14 4 30 8 16 10 28 4 30 -6 2 -10 14 -10 27 0 13 -5 27
-10 30 -14 9 -5 66 11 76 22 13 1 39 -32 39 -27 0 -31 3 -26 21 3 12 0 28 -9
36 -19 19 -18 31 4 36 29 8 43 7 61 -2z"/>
</g>
</svg>
