<?xml version="1.0" standalone="no"?>
<!DOCTYPE svg PUBLIC "-//W3C//DTD SVG 20010904//EN"
 "http://www.w3.org/TR/2001/REC-SVG-20010904/DTD/svg10.dtd">
<svg version="1.0" xmlns="http://www.w3.org/2000/svg"
 width="70.000000pt" height="70.000000pt" viewBox="0 0 70.000000 70.000000"
 preserveAspectRatio="xMidYMid meet">
<metadata>
Created by potrace 1.16, written by Peter Selinger 2001-2019
</metadata>
<g transform="translate(0.000000,70.000000) scale(0.100000,-0.100000)"
fill="#000000" stroke="none">
<path d="M275 691 c3 -5 -58 -72 -136 -148 l-140 -138 3 -80 c7 -133 71 -229
198 -296 39 -21 59 -24 150 -24 101 0 108 1 168 34 67 36 114 85 153 161 21
39 24 59 24 150 0 101 -1 108 -34 168 -36 67 -86 114 -161 153 -36 19 -63 24
-138 26 -52 1 -90 -1 -87 -6z m127 -218 c24 -22 24 -77 -2 -103 -24 -24 -67
-26 -98 -4 -27 19 -30 78 -5 106 20 23 80 24 105 1z m63 -173 c16 -49 -38 -90
-117 -90 -49 0 -62 4 -89 28 -26 23 -31 33 -25 55 l6 27 110 0 c99 0 109 -2
115 -20z"/>
</g>
</svg>
