<?xml version="1.0" standalone="no"?>
<!DOCTYPE svg PUBLIC "-//W3C//DTD SVG 20010904//EN"
 "http://www.w3.org/TR/2001/REC-SVG-20010904/DTD/svg10.dtd">
<svg version="1.0" xmlns="http://www.w3.org/2000/svg"
 width="119.000000pt" height="119.000000pt" viewBox="0 0 119.000000 119.000000"
 preserveAspectRatio="xMidYMid meet">
<metadata>
Created by potrace 1.16, written by Peter Selinger 2001-2019
</metadata>
<g transform="translate(0.000000,119.000000) scale(0.100000,-0.100000)"
fill="#000000" stroke="none">
<path d="M797 1163 c-5 -4 -46 -14 -64 -15 -7 -1 -13 -5 -13 -10 0 -4 -5 -8
-11 -8 -5 0 -7 5 -3 11 4 8 -1 9 -17 4 -13 -4 -25 -11 -27 -15 -2 -4 -11 -6
-21 -3 -10 2 -25 -2 -33 -10 -9 -10 -20 -12 -28 -7 -8 5 -28 3 -48 -6 -19 -7
-38 -11 -43 -8 -5 3 -9 1 -9 -3 0 -8 -17 -12 -62 -14 -10 0 -18 -4 -18 -8 0
-5 -12 -6 -26 -3 -21 4 -25 2 -19 -9 6 -11 5 -12 -6 -1 -17 16 -32 15 -26 -2
4 -10 -2 -13 -28 -9 -18 2 -36 -1 -40 -7 -5 -8 -11 -8 -21 1 -11 9 -14 9 -14
0 0 -7 -4 -9 -10 -6 -5 3 -10 2 -10 -4 0 -5 -9 -8 -20 -6 -11 2 -20 -2 -20 -8
0 -8 -3 -7 -9 2 -7 11 -10 11 -17 -2 -9 -15 -12 -17 -35 -17 -6 0 -9 -6 -6
-14 5 -13 -8 -23 -31 -26 -12 -2 -24 -29 -17 -40 3 -6 2 -10 -3 -10 -5 0 -9
-6 -10 -12 0 -7 -3 -26 -5 -43 -3 -16 2 -52 10 -80 8 -27 14 -60 14 -73 -1
-13 3 -21 8 -17 6 3 8 -6 5 -21 -3 -18 -1 -23 7 -18 8 4 9 3 5 -4 -4 -6 -2
-20 4 -31 5 -11 6 -22 1 -25 -4 -3 -6 -17 -4 -31 3 -13 10 -22 15 -19 6 4 7
-2 3 -16 -6 -17 -4 -21 6 -14 11 6 12 5 2 -7 -9 -11 -9 -19 -2 -26 6 -6 12
-33 13 -59 1 -28 7 -49 14 -52 10 -3 10 -7 0 -20 -10 -13 -11 -14 0 -8 9 6 11
1 8 -18 -3 -15 0 -25 6 -23 6 1 12 -9 13 -23 1 -14 5 -34 9 -45 6 -16 6 -17
-3 -5 -6 9 -11 10 -11 3 0 -6 8 -19 17 -28 9 -9 16 -30 16 -46 0 -19 5 -29 15
-29 11 0 12 -3 3 -14 -9 -11 -8 -15 4 -20 11 -4 14 -2 9 6 -4 7 -3 8 4 4 6 -4
9 -12 7 -19 -3 -7 6 -17 20 -24 14 -6 23 -7 20 -3 -3 5 12 0 32 -10 27 -13 43
-15 55 -9 12 6 18 6 18 0 0 -7 8 -7 23 -2 12 5 55 15 95 21 39 7 70 15 68 19
-4 6 31 10 121 11 12 0 25 5 28 10 3 6 15 10 26 10 11 0 18 3 16 7 -3 5 15 8
40 9 27 0 48 7 54 15 6 9 9 10 9 2 0 -7 7 -10 15 -7 8 4 12 10 9 15 -3 5 17 8
43 7 29 -1 47 2 46 8 -1 6 4 11 12 11 8 0 12 -5 8 -10 -3 -5 4 -6 18 -2 50 16
65 24 91 48 15 14 30 22 34 18 4 -3 5 1 2 10 -4 9 2 21 14 28 17 11 18 15 7
22 -12 8 -12 10 0 18 7 5 11 13 7 19 -3 6 -1 14 5 18 8 4 7 9 -2 15 -11 7 -11
9 1 9 13 0 13 1 0 10 -11 7 -12 10 -2 10 10 0 9 4 -3 16 -9 9 -14 23 -11 30 3
8 0 14 -7 14 -8 0 -8 3 2 9 11 7 11 9 0 14 -10 4 -10 6 -2 6 9 1 6 12 -7 37
-11 19 -16 33 -10 29 7 -5 9 3 4 22 -4 15 -11 30 -16 31 -5 2 -4 10 3 18 9 11
8 15 -5 20 -9 3 -16 10 -16 16 0 5 6 6 13 2 9 -6 9 -5 0 8 -7 8 -10 18 -6 21
3 4 1 12 -4 19 -6 7 -9 21 -8 30 2 9 -3 22 -11 29 -11 9 -11 15 -3 25 6 8 7
14 2 14 -5 0 -10 6 -10 13 0 34 -14 121 -22 135 -4 10 -6 23 -4 30 3 6 -1 12
-7 12 -7 0 -10 7 -6 15 3 8 1 15 -5 15 -6 0 -9 7 -5 15 3 8 2 15 -3 15 -5 0
-7 11 -6 24 2 16 -4 28 -21 36 -13 7 -21 17 -18 22 5 8 -8 11 -41 9 -14 -1
-16 1 -7 7 9 6 6 12 -13 20 -16 8 -25 8 -25 1 0 -6 -5 -7 -12 -2 -14 8 -65 13
-71 6z m-275 -343 c55 -16 88 -61 88 -120 0 -66 -33 -104 -106 -126 -58 -17
-59 -17 -43 -83 11 -49 3 -61 -38 -61 -15 0 -24 7 -28 23 -15 60 -74 342 -72
343 3 2 141 32 152 33 6 0 27 -4 47 -9z m318 -34 c0 -8 3 -21 6 -30 5 -13 -2
-16 -44 -16 -31 0 -54 -5 -62 -15 -17 -21 -5 -32 43 -40 79 -14 107 -37 107
-91 0 -60 -51 -94 -139 -94 -47 0 -49 1 -53 30 -5 30 -4 30 46 30 28 0 57 4
65 9 24 15 4 40 -38 47 -55 9 -101 39 -102 66 -3 62 8 83 56 104 42 18 115 18
115 0z"/>
</g>
</svg>
