<?xml version="1.0" standalone="no"?>
<!DOCTYPE svg PUBLIC "-//W3C//DTD SVG 20010904//EN"
 "http://www.w3.org/TR/2001/REC-SVG-20010904/DTD/svg10.dtd">
<svg version="1.0" xmlns="http://www.w3.org/2000/svg"
 width="112.000000pt" height="112.000000pt" viewBox="0 0 112.000000 112.000000"
 preserveAspectRatio="xMidYMid meet">
<metadata>
Created by potrace 1.16, written by Peter Selinger 2001-2019
</metadata>
<g transform="translate(0.000000,112.000000) scale(0.100000,-0.100000)"
fill="#000000" stroke="none">
<path d="M780 1087 c0 -6 -3 -7 -6 -4 -4 3 -15 2 -25 -4 -13 -6 -19 -6 -19 0
0 7 -9 7 -26 1 -16 -7 -23 -7 -19 0 10 16 -11 12 -25 -5 -10 -12 -16 -13 -26
-4 -11 9 -14 8 -14 -2 0 -11 -2 -11 -10 1 -8 13 -11 12 -25 -5 -9 -11 -14 -14
-10 -7 3 6 0 12 -7 12 -8 0 -20 -6 -27 -12 -11 -10 -13 -10 -7 0 8 14 -10 17
-18 3 -3 -5 -22 -7 -42 -4 -25 3 -34 1 -30 -6 4 -6 2 -11 -3 -11 -6 0 -11 5
-11 11 0 8 -4 8 -14 0 -11 -9 -15 -9 -18 0 -3 8 -11 10 -24 4 -10 -4 -27 -7
-38 -6 -10 2 -23 -3 -27 -11 -7 -10 -9 -10 -9 0 0 6 -9 12 -21 12 -11 0 -18
-4 -15 -8 3 -5 -17 -8 -44 -6 -28 1 -50 -2 -50 -7 0 -4 -7 -5 -17 -2 -12 5
-14 3 -8 -7 5 -9 4 -11 -3 -6 -7 4 -18 4 -24 -1 -7 -4 -17 -8 -22 -8 -5 0 -10
-10 -11 -22 -1 -13 -5 -26 -10 -30 -4 -5 -5 1 -1 12 7 20 7 20 -12 0 -15 -15
-17 -23 -8 -34 7 -10 7 -13 0 -8 -6 3 -16 -10 -24 -31 -8 -23 -9 -37 -3 -39 6
-2 9 -23 7 -46 -3 -32 -1 -38 7 -27 9 12 9 11 3 -5 -4 -11 -7 -31 -7 -45 4
-97 7 -129 14 -125 4 3 6 -25 4 -62 -2 -52 1 -72 13 -87 10 -11 12 -16 5 -13
-8 5 -11 -4 -10 -33 1 -22 5 -40 9 -40 5 0 8 -5 8 -11 0 -5 -6 -7 -12 -3 -7 4
-4 -3 7 -15 16 -19 17 -24 5 -31 -12 -8 -12 -10 -1 -10 9 0 10 -4 4 -12 -9
-12 -9 -27 -3 -45 2 -5 4 -26 5 -48 2 -59 16 -100 26 -83 6 9 9 7 9 -9 0 -17
4 -21 17 -16 12 5 15 2 10 -9 -6 -16 23 -32 52 -28 7 1 10 -3 7 -8 -3 -5 3
-12 14 -15 12 -3 18 -1 14 5 -4 6 2 6 14 -1 15 -8 22 -8 25 2 4 9 6 9 6 0 1
-7 8 -13 17 -13 8 0 13 4 10 9 -5 8 53 5 81 -4 7 -2 15 0 18 5 4 6 17 7 31 4
18 -5 29 -1 38 11 9 13 15 15 20 7 4 -7 12 -12 17 -12 6 0 7 5 3 12 -5 8 -2 9
12 3 10 -4 26 -8 34 -7 16 1 130 10 143 11 5 1 5 7 1 14 -6 9 -4 9 7 1 18 -14
50 -14 68 0 12 8 13 8 7 -2 -6 -10 -1 -11 21 -6 15 3 57 8 93 10 52 4 69 9 83
27 10 12 16 16 12 10 -3 -7 -1 -13 4 -13 6 0 11 5 11 11 0 6 7 8 16 5 13 -5
15 -2 11 13 -3 13 0 18 8 15 19 -8 37 23 38 66 1 22 4 40 8 40 4 0 10 7 13 16
3 8 2 13 -3 9 -13 -7 -20 17 -10 36 5 9 2 27 -6 43 -8 14 -10 24 -5 21 9 -6 7
41 -2 51 -3 3 -4 18 -2 33 3 15 0 40 -6 55 -5 15 -6 25 -1 22 11 -7 1 46 -13
63 -8 11 -8 15 2 18 6 3 12 9 12 14 0 6 -4 7 -10 4 -6 -4 -7 6 -4 24 4 20 1
37 -7 48 -10 11 -10 14 -1 9 8 -5 12 2 12 23 0 17 -3 31 -7 31 -5 0 -6 25 -5
55 2 30 0 55 -5 55 -5 0 -8 19 -6 42 2 48 -8 72 -53 114 -18 18 -31 34 -29 38
3 3 -1 2 -7 -4 -17 -14 -28 -12 -22 4 3 9 -4 15 -20 18 -14 3 -26 1 -26 -4 0
-5 -6 -6 -12 -1 -19 11 -88 11 -88 0z m152 -55 l28 -27 31 -345 c20 -226 28
-357 22 -379 -16 -67 -22 -69 -415 -103 -336 -29 -358 -30 -382 -14 -50 32
-53 46 -84 406 -29 327 -29 347 -14 380 10 19 28 40 42 47 29 13 670 73 715
67 17 -3 42 -17 57 -32z"/>
</g>
</svg>
