<?xml version="1.0" standalone="no"?>
<!DOCTYPE svg PUBLIC "-//W3C//DTD SVG 20010904//EN"
 "http://www.w3.org/TR/2001/REC-SVG-20010904/DTD/svg10.dtd">
<svg version="1.0" xmlns="http://www.w3.org/2000/svg"
 width="50.000000pt" height="50.000000pt" viewBox="0 0 50.000000 50.000000"
 preserveAspectRatio="xMidYMid meet">
<metadata>
Created by potrace 1.16, written by Peter Selinger 2001-2019
</metadata>
<g transform="translate(0.000000,50.000000) scale(0.100000,-0.100000)"
fill="#000000" stroke="none">
<path d="M195 403 c-8 -35 -22 -44 -53 -32 -29 11 -32 9 -56 -36 l-20 -36 22
-15 c28 -19 28 -48 1 -66 l-22 -14 22 -42 c19 -38 23 -41 46 -32 34 13 53 4
60 -31 6 -27 10 -29 51 -29 41 0 45 2 50 29 7 35 25 44 59 31 21 -8 27 -5 44
24 26 42 26 53 1 68 -26 17 -25 42 2 60 20 13 21 17 9 46 -18 44 -35 56 -60
43 -28 -15 -48 -4 -55 30 -5 27 -9 29 -50 29 -39 0 -45 -3 -51 -27z"/>
</g>
</svg>
