<?xml version="1.0" standalone="no"?>
<!DOCTYPE svg PUBLIC "-//W3C//DTD SVG 20010904//EN"
 "http://www.w3.org/TR/2001/REC-SVG-20010904/DTD/svg10.dtd">
<svg version="1.0" xmlns="http://www.w3.org/2000/svg"
 width="1052.000000pt" height="1032.000000pt" viewBox="0 0 1052.000000 1032.000000"
 preserveAspectRatio="xMidYMid meet">
<metadata>
Created by potrace 1.16, written by Peter Selinger 2001-2019
</metadata>
<g transform="translate(0.000000,1032.000000) scale(0.100000,-0.100000)"
fill="#000000" stroke="none">
<path d="M0 6835 c0 -2000 3 -2835 11 -2835 6 0 19 5 30 10 12 7 19 7 19 1 0
-5 13 -9 29 -9 15 1 33 -2 39 -6 6 -3 14 -1 18 5 3 6 19 9 35 5 15 -3 31 -1
34 4 3 5 15 6 28 3 12 -3 34 -7 50 -10 15 -3 30 -9 33 -14 3 -5 10 -9 15 -9 6
0 7 5 4 10 -3 6 -1 10 4 10 6 0 11 -5 11 -11 0 -8 4 -8 14 0 8 7 17 8 20 3 3
-5 41 -9 84 -9 42 0 87 -5 98 -11 12 -6 26 -7 35 -2 7 5 22 7 31 4 10 -3 23
-2 30 3 18 10 38 13 38 4 0 -4 23 -7 50 -7 28 0 50 3 50 7 0 4 13 1 29 -7 22
-11 35 -12 57 -4 17 7 30 7 32 2 3 -9 71 -6 80 3 3 2 13 0 24 -6 10 -5 24 -6
31 -2 6 4 28 8 47 9 19 1 43 5 53 9 9 4 17 3 17 -3 0 -7 126 20 136 30 1 2
-17 73 -42 158 -166 587 -196 1182 -88 1770 97 525 309 1026 621 1467 225 318
543 640 855 864 87 63 149 95 133 68 -4 -5 -10 -7 -15 -4 -4 3 -13 -1 -19 -9
-9 -10 -8 -15 4 -20 8 -3 15 0 16 7 0 7 4 2 9 -11 8 -19 13 -21 29 -12 26 13
28 13 35 -6 5 -13 4 -14 -7 -6 -10 9 -18 8 -33 -3 -20 -15 -20 -15 26 -19 8 0
15 -6 15 -13 0 -14 13 -28 26 -28 17 0 10 -18 -12 -29 -12 -6 -24 -18 -27 -26
-3 -9 2 -7 12 5 14 19 15 19 16 1 0 -16 2 -16 21 5 11 13 18 18 14 12 -4 -8 4
-18 20 -25 18 -8 22 -14 13 -19 -9 -6 -3 -16 20 -38 17 -17 37 -31 44 -30 10
0 10 2 1 6 -7 2 -13 10 -13 16 0 6 10 1 23 -10 12 -11 28 -18 36 -15 12 4 12
3 0 -11 -12 -12 -15 -13 -22 -1 -9 17 -37 7 -37 -13 0 -13 2 -13 17 -2 14 12
16 12 8 0 -5 -9 -4 -12 3 -7 12 7 32 -24 32 -51 0 -14 -2 -15 -9 -4 -5 7 -11
9 -14 5 -3 -5 6 -17 19 -27 21 -15 24 -16 24 -2 0 8 7 15 16 15 13 0 14 -3 5
-14 -10 -12 -8 -13 8 -9 16 4 21 1 21 -16 0 -25 0 -25 36 -6 21 10 31 11 41 3
11 -9 12 -13 1 -19 -9 -6 -7 -9 9 -9 12 0 23 6 26 13 3 9 8 8 22 -3 17 -14 18
-13 13 8 -9 33 1 27 14 -9 9 -27 12 -29 20 -15 6 10 19 16 31 14 12 -1 28 1
34 5 9 6 11 3 7 -7 -4 -9 -15 -14 -28 -12 -11 2 -15 1 -7 -1 12 -4 12 -6 0
-15 -10 -7 -9 -8 6 -3 11 4 30 7 43 6 13 0 20 3 17 9 -3 6 -1 10 4 10 14 0 14
-23 1 -36 -7 -7 -6 -11 5 -11 8 0 15 4 15 8 0 3 9 9 20 12 11 3 18 1 14 -4 -3
-5 -2 -9 3 -10 4 0 18 -2 30 -3 14 -2 20 2 16 8 -4 6 1 5 10 -3 15 -12 17 -11
17 3 0 16 1 16 16 2 12 -13 20 -14 37 -5 l22 12 -20 -24 c-13 -16 -14 -19 -3
-11 9 7 34 14 55 15 21 1 44 8 51 15 8 7 18 10 23 6 5 -3 53 13 107 34 188 78
442 144 677 179 88 12 187 17 371 18 228 0 250 2 247 16 -3 10 0 25 5 35 5 11
6 28 1 39 -4 11 -8 14 -8 7 -1 -7 -6 -10 -13 -6 -7 5 -2 13 15 26 37 27 66 79
69 121 2 21 5 37 8 37 3 0 5 12 6 28 0 15 4 50 8 77 5 28 9 73 11 101 1 27 5
67 9 87 5 28 4 37 -7 37 -9 0 -23 -47 -46 -152 -18 -84 -39 -164 -46 -178 -14
-27 -52 -50 -83 -50 -38 0 -679 144 -700 157 -13 8 -30 29 -37 47 -12 29 -10
51 30 232 72 333 105 475 115 495 16 28 52 49 86 49 40 0 668 -136 694 -150
45 -24 57 -83 34 -166 -5 -20 1 -21 98 -33 282 -34 655 -130 924 -239 51 -21
52 -21 47 -1 -3 11 2 28 12 39 14 15 15 20 4 20 -11 0 -11 2 1 10 13 8 13 10
1 10 -11 0 -9 4 5 15 10 8 14 15 9 15 -6 0 -10 14 -10 30 -1 21 3 29 12 26 8
-4 13 3 13 19 0 14 5 25 10 25 6 0 10 5 10 11 0 5 -6 7 -12 3 -10 -6 -10 -5
-1 8 7 8 10 18 6 21 -3 4 0 7 8 7 12 0 12 2 0 9 -18 11 -24 41 -8 38 7 -1 10
7 9 17 -2 11 2 25 10 31 20 16 55 59 41 52 -6 -4 -14 -3 -18 3 -3 5 1 10 10
10 9 0 15 6 13 13 -1 6 3 21 9 33 7 11 10 33 8 50 -1 16 0 34 3 39 10 17 11
36 1 29 -5 -3 -6 -10 -3 -16 4 -6 2 -8 -4 -5 -15 10 -3 45 21 62 20 14 16 20
-8 15 -5 -1 -1 8 9 19 15 16 16 24 7 35 -10 11 -8 17 6 25 11 6 13 11 5 11 -7
0 -10 5 -6 11 3 6 0 15 -7 20 -9 6 -10 9 -2 9 12 0 9 42 -4 63 -4 7 1 8 13 3
10 -4 15 -4 11 0 -4 4 0 16 10 26 9 10 12 18 7 18 -5 0 -9 16 -9 35 l2 35
-3269 0 -3268 0 0 -2835z"/>
<path d="M4520 8952 c0 -10 43 -97 96 -193 53 -96 93 -165 90 -155 -10 29 -86
322 -86 330 0 7 -29 19 -72 30 -23 5 -28 3 -28 -12z"/>
<path d="M4900 8734 c-58 -71 -107 -132 -109 -137 -4 -12 291 212 301 227 10
16 -2 24 -47 31 l-40 7 -105 -128z"/>
<path d="M2565 7694 c-16 -8 -128 -113 -248 -232 -164 -163 -221 -227 -233
-259 -31 -80 -27 -85 239 -351 l243 -242 45 0 c68 0 110 33 335 261 166 168
204 212 215 247 23 78 14 92 -221 333 -118 122 -228 230 -245 240 -37 23 -90
24 -130 3z m240 -404 l100 -100 -28 -27 -27 -28 -102 102 -102 102 24 26 c13
14 26 25 29 25 4 0 51 -45 106 -100z m-37 -161 c23 -10 42 -22 42 -27 0 -5
-11 -19 -25 -32 l-25 -24 -44 21 -43 21 -49 -49 -48 -49 21 -44 22 -44 -25
-23 c-13 -12 -26 -20 -28 -18 -3 2 -43 83 -91 178 l-86 174 32 33 31 32 137
-65 c75 -36 155 -73 179 -84z"/>
<path d="M6990 7579 c-151 -32 -287 -64 -303 -70 -43 -18 -87 -74 -87 -113 0
-61 130 -649 148 -669 26 -29 67 -47 108 -47 34 0 508 96 596 120 20 6 51 22
67 36 58 49 58 56 -18 412 -73 342 -77 352 -138 378 -48 21 -73 17 -373 -47z
m40 -252 c37 -19 70 -74 70 -118 0 -55 -44 -102 -112 -121 -29 -9 -52 -20 -51
-25 1 -5 5 -32 9 -60 l6 -50 -33 -7 c-17 -3 -33 -5 -34 -4 -7 11 -75 361 -71
365 10 10 111 31 151 32 22 0 51 -5 65 -12z m294 -23 c14 -36 7 -51 -21 -47
-36 6 -83 -12 -83 -32 0 -8 12 -17 28 -21 82 -18 103 -27 117 -47 18 -25 19
-60 4 -89 -15 -27 -85 -58 -135 -58 -35 0 -43 4 -48 23 -10 39 -7 42 49 42 93
0 100 46 8 60 -115 17 -127 131 -18 170 54 19 91 19 99 -1z"/>
<path d="M4908 6954 c-9 -8 -184 -54 -233 -60 -101 -14 -297 -59 -369 -85
-102 -37 -206 -103 -281 -178 -33 -33 -63 -58 -66 -55 -4 2 -3 20 2 40 16 57
6 61 -43 16 -51 -47 -83 -112 -93 -187 -12 -95 -19 -102 -87 -107 -53 -4 -65
-9 -89 -36 -40 -45 -38 -59 12 -59 55 0 72 -18 39 -44 -124 -97 -169 -188
-177 -366 -10 -201 23 -388 123 -701 18 -55 19 -81 2 -64 -18 18 -38 14 -38
-8 0 -11 13 -29 29 -41 24 -17 31 -32 36 -73 14 -120 16 -125 38 -128 19 -3
24 -15 39 -108 17 -96 17 -106 2 -117 -9 -6 -23 -9 -32 -6 -11 5 -13 3 -7 -6
5 -8 19 -11 39 -8 30 5 31 3 50 -54 41 -130 165 -305 286 -405 36 -30 72 -61
81 -69 9 -8 20 -15 26 -15 5 0 18 -9 28 -20 10 -11 24 -20 32 -20 7 0 13 -4
13 -8 0 -13 122 -70 188 -88 77 -21 263 -29 344 -15 36 6 92 20 124 32 32 11
68 22 79 23 13 2 22 13 26 32 3 16 14 44 23 63 l18 34 -43 -35 c-95 -77 -161
-93 -374 -93 -166 1 -243 14 -304 53 -51 33 -267 221 -302 264 -83 102 -158
242 -207 388 -24 73 -25 85 -28 383 -1 207 1 307 8 307 7 0 9 23 6 63 -11 143
27 351 80 437 71 115 123 150 224 152 189 3 398 -110 546 -296 45 -56 57 -67
60 -51 2 11 8 30 14 43 11 21 3 68 -39 251 -5 21 -3 22 18 16 43 -12 130 -69
186 -119 52 -47 153 -187 153 -213 0 -7 -12 -15 -27 -19 -110 -25 -133 -35
-133 -59 0 -22 29 -25 97 -9 98 22 104 19 148 -83 61 -143 78 -147 74 -14 l-3
86 24 -4 c27 -3 59 -19 132 -66 42 -27 48 -35 53 -75 14 -110 37 -136 76 -86
36 46 42 33 35 -66 -3 -51 -7 -145 -7 -208 0 -63 -5 -137 -10 -165 -6 -27 -12
-67 -14 -87 -2 -21 -11 -73 -19 -115 -9 -43 -16 -87 -16 -98 0 -11 -3 -59 -6
-107 -4 -49 -3 -88 2 -88 10 0 54 65 54 79 0 5 3 11 8 13 4 2 22 34 40 72 32
65 34 68 62 62 31 -6 42 7 14 18 -13 5 -15 16 -9 59 4 28 13 65 21 81 8 16 14
34 14 41 0 7 6 25 14 41 8 16 17 54 21 84 9 71 17 85 65 115 22 14 40 32 40
40 0 26 -30 29 -59 7 l-28 -21 13 68 c16 86 27 129 72 271 34 110 36 121 36
260 0 269 -66 452 -253 704 -52 72 -104 146 -115 165 -87 163 -239 337 -338
385 -75 37 -117 33 -132 -12 -19 -54 -93 -119 -114 -98 -3 4 3 40 13 82 12 49
15 78 9 84 -6 6 -13 8 -16 4z m402 -1082 c50 -56 77 -133 95 -267 19 -146 20
-141 -16 -110 -18 14 -54 37 -81 51 -27 14 -51 30 -53 37 -2 7 -6 62 -10 122
-3 61 -10 126 -15 145 -5 19 -11 50 -13 68 l-5 32 30 -17 c17 -10 47 -37 68
-61z"/>
<path d="M7630 5820 c-42 -7 -69 -22 -92 -47 -15 -17 -148 -611 -148 -664 0
-31 32 -83 65 -105 14 -9 85 -29 158 -45 512 -113 513 -113 567 -76 18 12 37
29 42 37 5 8 39 159 77 335 52 242 66 326 59 345 -14 39 -69 89 -108 100 -28
7 -288 63 -550 119 -19 4 -51 4 -70 1z m180 -255 c4 -2 10 -33 14 -67 4 -35
15 -123 25 -196 l18 -133 -31 6 c-39 9 -56 30 -56 72 0 27 -4 34 -27 39 -16 3
-46 10 -67 16 -36 9 -41 7 -58 -14 -10 -12 -20 -31 -24 -40 -6 -18 -22 -21
-62 -10 -21 7 -18 15 80 175 l102 169 40 -6 c21 -4 42 -9 46 -11z m206 -135
c8 0 14 -6 14 -13 0 -10 13 -13 53 -9 60 5 101 -19 110 -64 4 -22 -29 -221
-38 -232 -2 -2 -19 0 -38 3 l-35 7 19 86 c24 111 24 118 -6 138 -20 13 -31 14
-48 7 -19 -9 -26 -27 -42 -107 -18 -91 -20 -96 -44 -96 -49 0 -50 7 -25 130
35 170 33 163 50 156 9 -3 22 -6 30 -6z"/>
<path d="M4140 5591 c-91 -13 -230 -98 -230 -142 0 -27 15 -24 58 11 90 71
201 94 331 66 80 -17 91 -15 91 14 0 35 -147 65 -250 51z"/>
<path d="M4099 5250 c-66 -20 -137 -91 -152 -152 -11 -42 10 -43 30 -1 24 52
50 80 99 109 52 31 129 41 187 24 60 -16 135 -76 163 -130 26 -48 33 -40 10
13 -18 44 -105 121 -154 135 -44 13 -143 15 -183 2z"/>
<path d="M5036 5250 c-75 -24 -167 -123 -166 -179 1 -23 4 -21 22 17 94 195
367 201 462 10 l26 -52 0 36 c0 47 -46 109 -106 144 -39 23 -61 28 -128 31
-45 1 -94 -2 -110 -7z"/>
<path d="M4141 5201 c-46 -24 -81 -85 -81 -139 0 -48 -7 -45 115 -65 179 -31
160 -32 180 13 57 127 -89 258 -214 191z"/>
<path d="M5040 5202 c-52 -26 -80 -74 -80 -137 0 -36 6 -60 18 -75 l17 -21
102 20 c55 12 115 21 132 21 31 0 31 0 31 54 0 89 -64 156 -150 156 -19 0 -51
-8 -70 -18z"/>
<path d="M4491 4652 c-1 -35 5 -49 27 -72 92 -92 292 -47 292 66 0 42 -10 43
-32 4 -22 -39 -72 -60 -140 -60 -65 0 -112 26 -132 72 l-14 33 -1 -43z"/>
<path d="M5040 4485 c-203 -85 -585 -84 -767 3 -18 9 -35 13 -39 10 -11 -11
35 -85 76 -122 31 -28 48 -36 64 -32 11 3 37 6 56 6 l35 1 -30 14 c-27 13 -6
14 185 9 118 -4 217 -10 218 -15 2 -5 19 -9 37 -9 19 0 45 -5 59 -11 21 -10
30 -7 67 17 44 30 92 91 104 132 8 27 5 27 -65 -3z"/>
<path d="M2197 4431 c-38 -41 -118 -165 -186 -290 -48 -86 -60 -116 -51 -125
9 -8 16 -5 31 13 25 30 54 22 45 -14 -13 -52 32 -21 53 36 l16 43 60 -2 c115
-5 115 -5 115 -77 0 -40 5 -67 13 -74 11 -8 13 -5 9 19 -2 17 0 30 6 30 6 0
17 3 26 6 12 5 16 0 16 -19 0 -37 10 -57 28 -57 13 0 14 14 8 108 -7 120 -30
282 -49 356 -13 49 -14 50 -65 61 -49 12 -52 11 -75 -14z"/>
<path d="M5910 4020 c0 -5 -17 -21 -38 -35 -22 -15 -43 -39 -50 -59 -7 -20
-29 -45 -54 -62 -58 -41 -127 -39 -226 5 -89 39 -121 37 -211 -17 l-62 -36 7
-41 c3 -22 8 -42 10 -44 7 -8 36 24 54 59 30 58 118 83 179 51 120 -64 188
-55 300 37 l39 32 22 -30 c49 -69 156 -91 210 -43 34 30 40 49 11 33 -48 -25
-145 -1 -176 44 -18 25 -20 87 -3 104 9 9 9 12 0 12 -7 0 -12 -4 -12 -10z"/>
<path d="M5005 3887 c-4 -22 -5 -81 -2 -133 13 -209 123 -358 314 -425 32 -12
67 -23 78 -25 100 -20 157 -26 209 -21 160 16 263 89 340 243 40 79 31 77 -22
-6 -27 -41 -67 -91 -90 -111 -90 -77 -219 -103 -374 -76 -114 20 -180 51 -255
121 -122 113 -156 182 -169 346 -9 110 -19 140 -29 87z"/>
<path d="M8301 3185 c-17 -10 -30 -11 -43 -4 -13 7 -18 6 -18 -2 0 -9 -3 -9
-14 0 -9 8 -16 8 -20 2 -7 -11 -119 -8 -148 4 -13 5 -18 2 -18 -11 -1 -18 -1
-18 -14 -2 -11 16 -18 10 -64 -55 -28 -40 -57 -79 -65 -85 -10 -8 -125 -12
-418 -12 -263 -1 -398 -4 -387 -11 15 -9 16 -13 1 -57 -19 -56 -28 -69 -30
-42 -1 11 2 20 6 20 4 0 13 16 19 36 9 30 8 33 -4 23 -8 -6 -14 -20 -14 -30 0
-10 -5 -21 -11 -24 -6 -4 -8 -13 -5 -20 3 -8 -1 -18 -8 -24 -8 -6 -13 -24 -13
-39 0 -15 2 -21 4 -15 8 23 33 -13 33 -46 0 -24 -4 -31 -19 -31 -11 0 -23 -5
-27 -11 -5 -8 -9 -8 -14 1 -4 7 -13 -4 -24 -30 -14 -36 -14 -43 -2 -56 9 -9
17 -10 21 -4 3 5 1 10 -4 10 -6 0 -11 4 -11 10 0 5 16 1 35 -10 19 -11 35 -15
35 -10 0 6 31 9 78 8 73 -3 77 -4 80 -27 4 -27 -15 -43 -37 -32 -9 5 -22 6
-28 4 -8 -3 -13 4 -13 16 0 12 -4 21 -10 21 -5 0 -10 -9 -10 -20 0 -11 -4 -20
-10 -20 -5 0 -10 9 -10 20 0 11 -4 20 -10 20 -5 0 -10 -9 -10 -21 0 -14 -5
-19 -13 -16 -8 3 -20 1 -27 -3 -8 -5 -22 -5 -31 0 -12 7 -21 5 -30 -6 -9 -11
-14 -12 -19 -3 -4 6 -17 -17 -29 -54 -24 -74 -25 -80 -12 -73 5 3 12 -1 15
-10 3 -8 2 -12 -4 -9 -5 3 -12 -6 -16 -20 -3 -13 -10 -23 -14 -20 -4 3 -10 -2
-14 -10 -3 -8 0 -15 6 -15 7 0 6 -5 -2 -15 -8 -9 -8 -15 -2 -15 6 0 5 -12 -4
-30 -9 -16 -16 -38 -17 -49 0 -10 -7 -17 -14 -14 -14 6 -46 -63 -40 -87 3 -8
8 -1 12 17 5 22 12 30 22 26 12 -5 12 -7 1 -14 -7 -5 -9 -9 -4 -9 5 0 3 -7 -4
-15 -10 -12 1 -15 79 -17 l92 -3 -128 -81 c-468 -298 -898 -457 -1516 -561
-51 -9 -62 -22 -30 -38 11 -6 18 -16 15 -24 -3 -9 0 -11 9 -6 8 5 11 5 7 0 -4
-4 -2 -15 5 -24 10 -13 6 -12 -16 2 l-28 18 7 -28 c4 -15 10 -35 14 -43 4 -8
6 -23 5 -32 -2 -10 2 -18 7 -18 6 0 3 -9 -7 -20 -18 -20 -8 -29 12 -9 7 7 12
6 17 -6 3 -9 2 -14 -3 -10 -5 3 -16 2 -25 -1 -13 -5 -14 -9 -4 -21 6 -8 12
-27 13 -41 1 -15 5 -34 10 -41 5 -10 4 -12 -3 -7 -8 5 -10 2 -6 -8 3 -9 11
-13 18 -9 6 4 5 -1 -3 -11 -12 -15 -12 -17 0 -14 9 2 13 -4 11 -15 -2 -10 1
-24 6 -30 15 -20 22 -47 12 -47 -6 0 -10 6 -10 13 0 7 -9 20 -20 30 -25 21
-27 2 -3 -32 9 -14 11 -21 5 -17 -17 10 -15 -3 4 -21 14 -15 14 -17 0 -25 -13
-7 -13 -12 -3 -22 6 -8 15 -12 18 -10 3 2 5 -17 4 -41 -2 -31 2 -45 12 -49 9
-4 13 -14 10 -26 -3 -11 -2 -18 3 -15 4 3 10 -6 12 -20 3 -14 1 -25 -3 -25 -5
0 -8 -5 -6 -12 1 -7 -4 -13 -10 -14 -7 -1 -16 -2 -20 -3 -3 0 2 -11 13 -23 10
-12 14 -18 8 -15 -7 4 -15 0 -18 -9 -4 -10 -2 -13 6 -8 7 5 9 2 5 -9 -3 -9 0
-18 9 -21 8 -3 1038 -6 2288 -6 2242 0 2275 0 2338 20 155 48 280 173 328 329
19 61 20 97 20 960 0 848 -1 898 -17 898 -10 0 -21 -5 -25 -11 -5 -7 -8 -3 -8
9 0 15 -3 16 -12 7 -15 -15 -32 -16 -23 -1 4 6 -2 5 -14 -3 -17 -10 -25 -10
-41 0 -24 15 -33 16 -25 2 8 -12 -27 0 -36 12 -3 5 -22 10 -42 11 -20 1 -38 7
-41 12 -2 6 -24 10 -50 9 -30 -1 -46 3 -46 11 0 8 -17 12 -46 12 -33 0 -49 5
-56 17 -7 12 -13 14 -29 6 -18 -10 -23 -6 -20 13 1 4 -7 3 -18 -3 -25 -13 -32
-13 -28 2 1 7 -2 12 -8 13 -5 0 -16 4 -24 9 -10 6 -12 5 -7 -2 10 -17 -46 -11
-59 6 -14 18 -47 22 -64 8 -12 -9 -13 -8 -6 3 6 11 4 13 -7 8 -9 -3 -21 0 -27
6 -6 6 -11 8 -11 4 0 -4 -9 -3 -20 3 -15 8 -20 8 -20 -2 0 -8 -5 -6 -11 5 -6
9 -14 15 -19 12 -5 -3 -22 2 -37 12 -22 15 -26 15 -21 3 8 -21 -39 -21 -52 0
-8 13 -10 12 -10 -4 0 -15 -3 -16 -15 -6 -8 6 -18 9 -24 6 -5 -3 -11 -1 -13 4
-2 6 -21 13 -43 15 -24 3 -32 2 -19 -3 19 -6 20 -9 8 -20 -8 -7 -14 -9 -14 -5
0 15 -48 31 -59 20 -8 -8 -11 -7 -11 2 0 7 -10 11 -22 10 -13 -1 -31 1 -40 6
-10 4 -25 5 -33 1 -8 -3 -18 2 -23 10 -8 14 -11 14 -25 -1 -15 -15 -17 -15
-17 -1 0 9 -3 15 -7 14 -5 -1 -18 2 -31 6 -14 5 -28 3 -37 -4 -10 -8 -15 -9
-15 -2 0 6 -10 16 -21 23 -17 9 -20 8 -13 -3 6 -11 5 -11 -9 1 -9 7 -17 9 -17
3 0 -5 -7 -13 -16 -16 -12 -5 -15 -2 -10 10 5 13 3 14 -6 7 -7 -6 -28 -9 -45
-7 -22 3 -33 -1 -33 -9 -1 -6 -7 0 -15 15 -11 20 -22 26 -42 24 -16 -1 -34 -5
-41 -9 -6 -5 -12 -4 -12 2 0 5 -11 8 -25 5 -15 -3 -25 0 -25 8 0 6 -6 4 -13
-6 -13 -17 -14 -17 -30 -1 -19 18 -64 27 -72 15 -5 -9 -20 -7 -48 5 -10 4 -23
2 -31 -4 -10 -9 -16 -9 -21 -1 -7 11 -95 7 -116 -5 -8 -6 -8 -2 0 14 7 11 10
21 9 20 -2 -1 -14 -7 -27 -14z m-1173 -730 c26 -8 28 -18 6 -35 -9 -8 -14 -25
-12 -44 2 -26 0 -30 -17 -28 -35 6 -60 5 -78 -3 -16 -7 -18 -4 -16 23 2 20 -3
38 -16 52 -16 18 -17 23 -5 30 8 6 22 10 31 10 9 0 21 12 28 28 l13 27 21 -26
c12 -15 32 -30 45 -34z m246 -5 c21 0 21 -29 1 -37 -11 -4 -15 -16 -13 -37 2
-24 -1 -30 -12 -27 -8 3 -26 5 -40 5 -14 0 -32 -2 -40 -5 -11 -3 -14 3 -12 25
2 20 -3 33 -17 43 -29 20 -26 30 10 38 18 4 35 16 41 31 l11 25 28 -31 c15
-16 35 -30 43 -30z"/>
</g>
</svg>
