<?xml version="1.0" standalone="no"?>
<!DOCTYPE svg PUBLIC "-//W3C//DTD SVG 20010904//EN"
 "http://www.w3.org/TR/2001/REC-SVG-20010904/DTD/svg10.dtd">
<svg version="1.0" xmlns="http://www.w3.org/2000/svg"
 width="443.000000pt" height="490.000000pt" viewBox="0 0 443.000000 490.000000"
 preserveAspectRatio="xMidYMid meet">
<metadata>
Created by potrace 1.16, written by Peter Selinger 2001-2019
</metadata>
<g transform="translate(0.000000,490.000000) scale(0.100000,-0.100000)"
fill="#000000" stroke="none">
<path d="M2212 4510 c-18 -4 -43 -5 -55 -2 -19 5 -19 4 -6 -10 7 -9 17 -14 22
-11 4 2 7 -1 7 -6 0 -6 -4 -12 -10 -12 -20 -3 -25 -4 -40 -13 -9 -6 -6 1 5 14
l20 23 -22 -5 c-13 -4 -23 -2 -23 2 0 4 -9 6 -20 3 -11 -3 -17 -9 -14 -14 3
-5 9 -7 13 -5 3 3 7 -4 7 -15 0 -17 -3 -15 -24 8 -20 24 -23 25 -20 8 1 -11 8
-23 13 -27 6 -5 6 -8 -1 -8 -6 0 -17 7 -24 15 -13 15 -64 11 -87 -8 -7 -5 -13
-6 -13 -1 0 4 -12 -3 -26 -17 -14 -13 -27 -23 -30 -21 -4 2 -6 2 -21 -3 -51
-13 -63 -18 -63 -24 0 -4 -7 -16 -16 -27 -15 -18 -15 -18 -5 3 8 16 8 24 -1
29 -6 4 -8 3 -4 -4 11 -18 -11 -23 -27 -7 -18 17 -37 20 -37 4 0 -5 -4 -7 -10
-4 -5 3 -10 2 -10 -4 0 -5 6 -12 13 -14 7 -3 5 -6 -5 -6 -16 -1 -23 10 -19 32
1 5 -3 6 -9 2 -6 -3 -9 -9 -6 -13 2 -4 -6 -16 -18 -27 -20 -19 -22 -19 -38 -3
-9 9 -12 19 -7 22 5 2 4 3 -3 2 -7 -2 -12 -9 -10 -15 1 -6 -3 -11 -9 -11 -5 0
-8 -4 -5 -8 2 -4 -4 -8 -14 -8 -14 0 -16 3 -8 13 6 8 8 16 4 20 -3 3 -6 1 -6
-5 0 -7 -7 -12 -15 -12 -14 0 -38 -33 -30 -42 2 -2 -5 -4 -15 -5 -11 -1 -20 3
-20 8 0 6 5 7 12 3 7 -5 8 -3 3 6 -6 10 -11 9 -21 -5 -8 -10 -17 -16 -20 -12
-4 3 -15 2 -26 -4 -14 -7 -17 -16 -12 -32 6 -18 4 -20 -7 -10 -12 10 -15 8
-15 -7 0 -10 4 -16 8 -14 4 3 8 1 8 -5 0 -5 -6 -12 -12 -14 -9 -4 -8 -6 2 -6
9 -1 16 -11 17 -22 2 -18 0 -19 -10 -7 -7 8 -21 20 -32 28 -14 10 -13 7 5 -14
l25 -28 -33 19 c-31 17 -33 17 -43 0 -6 -9 -15 -14 -21 -11 -7 5 -8 2 -4 -5 5
-7 15 -10 23 -7 8 3 11 1 8 -4 -3 -6 -1 -11 4 -11 6 -1 16 -2 21 -3 6 0 10 -5
9 -11 0 -5 -7 -9 -15 -7 -12 3 -19 -9 -15 -30 0 -5 -4 -8 -10 -8 -7 0 -8 7 -4
18 11 30 10 36 -7 40 -10 2 -18 -2 -18 -8 0 -6 5 -8 10 -5 6 3 10 2 10 -4 0
-5 -9 -13 -20 -16 -20 -6 -22 -9 -23 -42 -1 -10 -5 -21 -10 -24 -4 -3 -9 -15
-10 -27 0 -11 -5 -18 -9 -16 -5 3 -6 10 -3 15 4 5 1 9 -4 9 -6 0 -11 -9 -11
-20 0 -11 -7 -23 -15 -26 -8 -4 -13 -10 -10 -14 3 -5 1 -11 -5 -15 -5 -3 -10
-2 -10 4 0 5 -9 9 -19 8 -11 0 -17 -5 -14 -11 4 -5 -1 -7 -11 -3 -10 4 -15 3
-11 -4 4 -5 15 -7 25 -4 10 3 22 0 26 -6 5 -8 3 -9 -6 -4 -8 5 -21 -3 -36 -21
-18 -23 -23 -25 -24 -11 0 9 5 17 11 17 6 0 3 7 -6 16 -13 14 -19 14 -28 4 -9
-10 -9 -11 1 -5 11 6 12 3 3 -12 -7 -14 -7 -23 0 -30 7 -7 5 -12 -5 -16 -13
-5 -15 -1 -12 17 3 16 -1 27 -11 30 -11 4 -13 2 -9 -9 3 -8 0 -14 -7 -12 -7 1
-11 -3 -10 -9 1 -7 -5 -10 -15 -7 -22 5 -67 -41 -59 -61 4 -9 2 -16 -2 -16 -5
0 -12 6 -14 13 -4 9 -6 9 -6 -1 -1 -7 -4 -11 -9 -9 -4 3 -14 -2 -22 -11 -13
-14 -12 -15 2 -9 12 4 15 2 11 -9 -3 -8 -13 -14 -22 -13 -33 3 -43 -1 -37 -16
3 -9 -3 -19 -14 -25 -11 -6 -20 -17 -20 -25 0 -8 -5 -15 -11 -15 -15 0 -39
-26 -32 -34 4 -3 2 -6 -4 -6 -6 0 -13 -11 -15 -25 -3 -14 -2 -25 2 -25 4 0 11
-8 15 -17 5 -15 4 -16 -6 -5 -18 17 -32 15 -25 -4 3 -9 2 -12 -5 -9 -6 4 -8
13 -5 21 9 24 -11 24 -22 0 -9 -20 -7 -25 15 -35 13 -6 30 -8 36 -4 7 3 4 -3
-6 -14 -9 -11 -15 -23 -12 -26 3 -4 -1 -2 -8 3 -6 6 -13 15 -13 21 -1 5 -2 12
-3 16 0 4 -7 -2 -15 -12 -8 -11 -12 -30 -10 -43 6 -31 -19 -57 -35 -38 -8 10
-9 16 -1 21 5 3 10 1 10 -5 0 -6 5 -8 10 -5 18 11 11 21 -14 21 -19 0 -23 -5
-21 -23 2 -19 0 -21 -12 -11 -11 9 -13 8 -11 -3 2 -8 -4 -13 -14 -11 -9 1 -20
-3 -24 -9 -4 -7 -3 -9 4 -5 6 3 14 2 17 -4 5 -8 11 -8 20 0 11 9 12 7 8 -11
-3 -12 -14 -24 -25 -26 -10 -3 -18 -9 -18 -14 0 -5 -9 -9 -20 -9 -13 0 -18 -5
-14 -15 4 -8 9 -13 13 -11 3 2 7 -7 8 -21 0 -15 -2 -22 -5 -17 -11 14 -51 12
-56 -3 -3 -7 -1 -13 4 -13 6 0 10 -7 10 -15 0 -8 -5 -15 -11 -15 -5 0 -7 6 -3
13 5 8 2 8 -9 -2 -18 -14 -24 -26 -8 -17 4 3 13 -6 20 -20 8 -19 8 -24 -1 -18
-8 5 -9 2 -5 -10 4 -11 3 -15 -4 -11 -6 4 -8 14 -5 22 4 9 1 13 -6 11 -7 -3
-15 -15 -16 -27 -2 -14 0 -21 6 -17 6 4 8 -2 5 -14 -3 -12 0 -20 7 -20 9 0 9
-4 3 -12 -6 -7 -9 -21 -7 -31 1 -11 0 -16 -4 -13 -3 4 -7 20 -8 37 -2 17 -6
34 -10 37 -4 4 -4 -3 -1 -15 3 -13 2 -23 -2 -23 -4 0 -8 -6 -8 -12 -1 -7 -6
-28 -12 -46 -8 -28 -8 -33 4 -28 8 3 17 0 21 -6 4 -6 3 -8 -3 -5 -6 4 -20 -4
-31 -16 -16 -17 -20 -30 -16 -57 7 -38 19 -51 43 -43 14 4 14 4 1 -6 -8 -6
-22 -8 -31 -6 -13 4 -16 -1 -15 -27 0 -18 7 -40 15 -48 13 -13 12 -15 -1 -18
-12 -2 -16 -14 -15 -48 1 -24 5 -44 10 -44 4 0 7 5 7 10 0 6 8 10 17 10 15 0
15 -2 2 -12 -8 -7 -20 -25 -27 -40 -9 -21 -8 -27 4 -32 9 -3 14 -14 13 -23 -4
-28 10 -61 39 -91 24 -23 25 -27 9 -30 -10 -2 -14 -8 -11 -15 4 -7 3 -8 -1 -4
-13 11 -15 38 -3 31 6 -4 9 -1 6 6 -2 8 -9 15 -15 17 -8 3 -10 -14 -6 -54 3
-32 6 -73 6 -91 1 -30 4 -33 27 -30 22 3 26 0 25 -22 0 -16 -6 -25 -17 -25 -9
0 -20 -4 -25 -9 -4 -5 -3 -6 5 -2 7 4 12 1 12 -8 0 -9 -6 -15 -12 -14 -7 2
-14 -7 -16 -19 -2 -13 2 -23 8 -23 6 0 8 4 5 10 -3 5 -1 10 4 10 16 0 13 -20
-4 -26 -12 -5 -14 -29 -5 -54 2 -3 2 -9 1 -14 -1 -5 4 -4 11 2 11 8 14 7 15
-8 1 -11 -3 -23 -9 -26 -7 -4 -8 -2 -4 4 4 7 1 12 -7 12 -10 0 -13 -8 -9 -26
3 -19 1 -25 -7 -20 -6 4 -11 3 -11 -3 0 -5 9 -13 20 -16 11 -4 18 -11 14 -16
-3 -5 -11 -6 -17 -3 -8 5 -8 3 1 -7 17 -19 15 -29 -8 -29 -11 0 -20 -5 -20
-10 0 -6 5 -9 11 -8 6 2 13 -10 15 -27 4 -30 4 -30 -10 -6 -7 14 -16 19 -20
13 -3 -6 0 -13 6 -15 10 -4 10 -6 1 -6 -16 -1 -17 -33 -1 -49 8 -8 8 -15 -2
-27 -10 -12 -10 -15 0 -15 10 0 10 -3 1 -14 -8 -10 -9 -16 -1 -21 6 -3 8 -11
4 -16 -3 -6 3 -13 15 -16 12 -3 21 -9 21 -15 0 -5 -8 -4 -19 2 -13 7 -22 7
-26 0 -6 -9 1 -14 16 -12 4 1 4 -9 1 -21 -5 -21 -5 -22 15 -4 14 12 23 15 28
8 6 -10 -1 -15 -17 -12 -5 0 -8 -2 -9 -6 0 -5 -2 -18 -5 -30 -2 -12 2 -23 11
-27 8 -3 12 -12 9 -21 -7 -17 24 -58 37 -49 5 3 9 0 9 -5 0 -6 -8 -11 -17 -11
-16 -1 -16 -2 -2 -13 9 -7 17 -16 18 -22 2 -5 5 -12 8 -15 4 -3 3 0 -1 7 -3 6
-2 14 4 18 5 3 10 1 10 -4 0 -6 5 -11 11 -11 5 0 7 5 4 10 -3 6 0 10 8 10 10
0 13 -7 10 -21 -4 -13 -11 -18 -22 -14 -8 3 -12 3 -8 -2 5 -4 23 -8 40 -9 18
-1 26 1 20 3 -20 7 -15 23 6 23 27 0 51 -10 51 -21 0 -6 -7 -6 -18 0 -14 7
-21 5 -29 -8 -8 -13 -6 -19 12 -28 20 -9 22 -8 17 6 -5 13 -3 14 10 3 12 -10
17 -10 20 -1 3 9 10 8 26 -2 29 -18 58 -1 55 34 -1 17 4 27 15 30 15 4 15 5
-1 6 -10 0 -15 6 -12 11 4 6 12 7 18 3 21 -13 39 -12 33 2 -7 20 16 36 34 23
12 -8 12 -9 -2 -4 -12 3 -18 0 -18 -10 0 -9 5 -13 13 -9 6 4 4 0 -5 -8 -10 -8
-18 -19 -18 -24 0 -6 -7 -16 -16 -23 -12 -11 -15 -11 -12 0 2 7 -2 14 -9 17
-7 3 -10 -3 -6 -16 6 -23 33 -36 43 -20 9 13 108 20 116 7 3 -4 -1 -8 -8 -8
-8 -1 -6 -6 6 -15 14 -11 23 -12 33 -4 7 6 10 15 7 20 -3 5 0 9 5 9 14 0 14
-13 0 -27 -8 -8 -6 -13 9 -17 15 -5 20 -15 18 -39 -1 -26 3 -33 20 -35 16 -2
20 -8 17 -23 -3 -10 -1 -19 4 -19 5 0 16 -12 23 -28 9 -19 14 -23 18 -12 3 8
10 18 16 22 8 5 7 8 -1 8 -7 0 -13 4 -13 9 0 5 9 7 20 4 20 -5 20 -7 4 -31 -9
-14 -12 -27 -7 -31 5 -3 12 -14 16 -23 3 -10 12 -15 20 -12 17 6 61 -49 49
-61 -4 -5 -2 -5 5 -1 6 3 15 1 18 -4 5 -7 11 -5 19 6 10 13 15 14 20 5 5 -7 5
-15 2 -18 -3 -4 3 -13 14 -20 11 -8 18 -19 15 -24 -4 -5 4 -8 17 -6 15 1 22
-3 20 -11 -2 -9 2 -11 10 -6 23 15 39 13 36 -4 -2 -10 4 -18 12 -18 32 -3 34
-5 20 -14 -13 -8 -12 -10 4 -10 14 0 17 5 13 21 -3 12 -3 18 0 15 4 -3 13 0
22 7 14 10 14 10 5 -3 -6 -8 -14 -25 -16 -37 -4 -16 -2 -20 10 -16 10 4 13 2
8 -5 -4 -7 -4 -12 1 -13 32 -3 58 -11 64 -21 4 -7 11 -3 18 11 7 12 21 21 34
21 22 0 22 0 -2 -13 -31 -16 -32 -31 -3 -35 14 -2 22 2 22 11 0 8 8 21 17 28
9 8 14 9 10 2 -4 -6 -4 -13 0 -16 5 -2 2 -2 -4 -1 -8 2 -12 -6 -11 -21 3 -30
5 -30 31 -8 19 18 19 17 6 -4 -17 -29 -5 -41 20 -19 16 15 19 15 24 2 4 -11 1
-13 -11 -10 -14 5 -15 4 -2 -5 19 -14 63 -14 55 -1 -7 11 15 13 39 4 9 -3 12
-12 8 -22 -5 -14 -4 -15 10 -2 15 14 15 17 0 35 -15 17 -15 18 -1 7 9 -7 25
-10 35 -6 15 5 16 4 5 -4 -12 -8 -12 -14 -3 -25 16 -19 71 -14 120 10 24 11
38 15 35 8 -2 -7 6 -15 19 -18 29 -8 28 -8 28 -2 0 3 5 12 12 19 14 15 32 11
23 -5 -9 -13 19 -11 33 3 9 9 12 8 12 -5 0 -18 9 -21 34 -11 9 3 13 10 10 15
-3 5 0 9 6 9 7 0 10 -7 7 -15 -4 -8 -2 -17 3 -20 16 -10 11 -25 -5 -19 -8 4
-12 10 -9 15 3 5 1 9 -4 9 -6 0 -12 -7 -16 -15 -3 -9 0 -15 9 -15 8 0 15 -5
15 -11 0 -7 10 -5 25 5 30 20 35 20 35 0 0 -9 -5 -12 -11 -8 -7 4 -10 1 -7 -7
3 -8 11 -13 17 -11 7 1 10 -2 7 -7 -10 -15 5 -40 20 -34 8 3 14 0 14 -6 0 -6
7 -11 15 -11 8 0 15 6 15 13 0 8 4 7 10 -3 14 -22 -31 -33 -47 -12 -7 9 -13
12 -13 6 0 -5 -7 0 -15 10 -8 11 -15 15 -15 9 0 -7 5 -15 10 -18 6 -4 7 -12 4
-18 -4 -7 -4 -9 0 -5 11 9 79 -60 71 -72 -4 -6 1 -7 11 -3 13 5 15 3 9 -7 -5
-8 -4 -11 3 -6 6 3 16 -3 22 -14 7 -13 17 -19 28 -16 11 4 23 -2 32 -14 8 -11
22 -20 32 -20 9 0 19 -4 23 -10 3 -5 13 -6 22 -3 12 5 14 3 9 -8 -4 -8 0 -5 8
5 9 11 16 14 16 7 0 -7 5 -9 11 -5 9 5 10 -2 6 -22 -3 -16 -4 -23 -1 -16 8 17
24 15 24 -4 0 -8 5 -12 10 -9 6 4 8 10 5 15 -3 5 -1 11 4 14 5 4 7 -7 5 -23
-4 -23 -1 -31 16 -36 11 -3 25 -15 30 -26 8 -13 18 -18 35 -15 19 4 25 0 25
-14 0 -10 5 -22 12 -26 7 -5 9 -2 6 7 -4 10 1 15 13 16 11 1 17 -2 15 -6 -8
-12 10 -32 30 -35 10 -2 28 4 39 13 17 14 18 14 7 0 -6 -9 -8 -19 -4 -24 4 -4
-3 -5 -16 -2 -15 3 -22 1 -19 -6 2 -7 13 -12 24 -12 10 0 27 -8 37 -18 21 -21
33 -23 16 -2 -11 13 -10 14 3 9 9 -3 22 -2 29 2 20 13 37 13 45 2 3 -7 1 -8
-5 -4 -7 4 -12 1 -12 -6 0 -10 -2 -10 -8 -1 -6 9 -11 7 -19 -7 -11 -17 -10
-18 20 -9 40 11 40 11 32 -1 -3 -5 0 -10 7 -11 7 0 22 -3 33 -5 18 -5 32 -5
72 -2 7 1 10 5 7 10 -10 16 9 8 22 -9 12 -16 13 -14 4 11 -6 16 -8 31 -6 33 8
8 27 -8 25 -20 -3 -24 1 -37 11 -37 5 0 9 3 8 8 0 4 4 18 10 32 6 14 11 19 11
12 1 -7 7 -10 14 -7 6 4 4 0 -5 -8 -10 -8 -18 -18 -18 -23 0 -4 5 -3 11 3 6 6
18 9 27 6 10 -4 13 -2 8 5 -4 7 1 20 10 29 13 13 19 14 22 5 2 -6 8 -12 13
-12 6 0 7 5 4 10 -9 15 18 7 31 -9 14 -18 55 -6 47 14 -3 8 -9 12 -14 9 -5 -3
-9 0 -9 5 0 17 21 13 35 -6 11 -15 14 -14 32 4 16 16 25 18 38 10 15 -8 17 -7
12 7 -4 10 -1 16 8 16 17 0 55 35 55 50 0 5 -10 18 -22 30 -12 11 -18 20 -14
20 4 0 19 -13 34 -30 l27 -30 33 20 c18 11 30 25 27 30 -3 6 -1 10 5 10 6 0 8
5 4 12 -4 7 -3 8 4 4 6 -4 10 -12 8 -19 -1 -7 -1 -9 1 -4 3 4 11 7 19 7 8 0
14 6 14 13 0 8 4 7 11 -3 8 -12 9 -10 7 9 -2 14 3 26 11 29 9 3 11 0 6 -8 -6
-10 -4 -12 9 -7 10 4 19 7 22 7 2 0 1 6 -2 14 -3 8 -12 12 -20 9 -8 -3 -14 0
-14 6 0 6 6 11 13 11 8 0 7 4 -3 10 -9 6 -10 10 -3 10 7 0 17 -8 23 -17 8 -13
13 -14 16 -6 4 10 9 10 20 -1 7 -8 23 -12 34 -9 15 4 19 11 15 32 -4 25 -4 25
12 6 15 -20 15 -20 10 2 -4 17 -1 20 12 15 13 -5 14 -3 5 9 -10 12 -6 49 6 51
3 1 15 -4 27 -11 22 -11 23 -10 19 33 -2 29 1 47 9 50 13 4 13 -31 0 -56 -3
-7 0 -5 8 4 8 10 16 15 19 12 3 -3 4 11 2 30 -1 20 2 36 7 36 6 0 8 -4 5 -9
-3 -5 2 -15 11 -22 15 -12 16 -12 10 4 -20 50 -20 52 -6 40 16 -16 29 -17 29
-2 0 5 -6 7 -12 4 -7 -4 -3 2 10 12 18 15 20 21 10 31 -10 10 -10 15 2 23 13
9 13 10 0 6 -8 -2 -17 -12 -18 -23 -6 -30 -17 -36 -18 -10 -1 16 6 28 22 37
13 7 24 19 24 26 0 9 -5 11 -12 7 -9 -5 -8 -2 1 10 11 13 16 14 22 4 5 -7 9
-8 9 -3 0 6 -6 17 -12 24 -11 11 -10 12 0 6 10 -5 12 0 9 25 -5 26 -3 29 9 19
11 -9 14 -8 14 5 0 9 -5 16 -11 16 -5 0 -7 5 -4 10 4 6 10 8 15 5 4 -3 10 10
12 29 3 28 0 33 -16 32 -10 -1 -21 5 -24 13 -3 9 0 11 8 6 10 -6 12 -2 7 14
-4 18 -3 20 9 10 11 -9 14 -8 15 2 0 8 2 24 3 37 2 13 -2 26 -7 29 -6 4 -7 1
-2 -8 8 -12 6 -12 -8 -1 -9 8 -21 11 -26 8 -5 -4 -13 -1 -17 5 -4 7 -3 9 4 5
6 -3 18 2 28 11 16 17 16 18 -7 24 -18 5 -19 7 -5 8 17 1 17 2 -2 19 -15 13
-18 22 -11 37 9 19 9 18 5 -3 -2 -12 0 -20 4 -17 5 3 10 -1 13 -7 2 -7 4 -1 3
14 0 16 -5 28 -9 28 -4 0 -7 8 -5 17 2 12 -3 17 -14 15 -10 -2 -18 2 -18 8 0
5 5 9 11 8 6 -2 14 3 17 11 3 9 0 11 -8 6 -10 -6 -12 -4 -7 8 5 12 0 15 -23
12 -16 -2 -33 1 -36 7 -4 6 -3 8 4 4 6 -3 13 -2 17 4 4 6 11 8 16 5 12 -8 11
16 -1 35 -9 13 -11 13 -19 0 -5 -8 -7 -18 -5 -22 3 -4 0 -8 -5 -8 -14 0 -14 6
0 31 9 17 7 21 -10 26 -23 6 -27 18 -9 29 6 4 8 3 5 -3 -4 -6 0 -14 9 -17 21
-8 24 -8 24 5 0 5 -4 7 -10 4 -5 -3 -12 7 -16 22 -13 54 -51 73 -94 49 -12 -7
-13 -6 -2 5 17 18 15 30 -3 23 -22 -9 -19 18 5 49 17 21 17 26 5 31 -8 3 -12
12 -9 21 4 9 0 15 -10 15 -10 0 -13 -6 -10 -17 5 -15 4 -16 -5 -3 -9 13 -11
13 -11 -2 0 -10 -4 -18 -10 -18 -18 0 -11 19 18 46 18 17 23 28 15 31 -9 3
-10 10 -3 24 7 13 7 19 0 19 -5 0 -10 5 -10 11 0 5 4 8 9 4 5 -3 13 5 17 17 4
13 12 26 18 30 8 5 7 8 -2 8 -10 0 -10 5 -2 20 9 16 8 22 -5 26 -8 3 -12 10
-9 15 3 5 9 7 14 4 5 -3 12 0 16 6 4 8 3 9 -4 5 -7 -4 -12 -2 -12 3 0 6 4 11
10 11 5 0 8 10 6 23 -3 12 -5 26 -5 30 -1 5 -11 6 -23 3 -13 -3 -17 -3 -11 0
10 4 10 11 2 27 -9 20 -9 20 4 5 20 -25 22 -23 21 20 -2 56 -3 57 -19 36 -8
-10 -15 -14 -15 -7 0 6 5 15 10 18 8 5 8 11 1 19 -8 9 -6 18 5 32 8 10 12 12
8 4 -5 -12 -4 -13 6 -3 11 10 10 17 -4 37 -19 30 -20 36 -5 36 5 0 7 -5 3 -12
-4 -6 -3 -8 3 -5 17 11 3 66 -18 69 -19 3 -19 4 2 16 15 10 19 10 14 1 -5 -8
-4 -10 3 -5 18 11 14 26 -7 26 -10 0 -29 9 -42 21 l-24 20 32 -17 c38 -21 54
-12 29 15 -12 13 -14 21 -6 26 7 4 8 11 1 19 -5 6 -9 27 -9 46 1 63 -1 69 -21
67 -11 0 -17 -5 -15 -9 3 -5 11 -5 17 -2 9 5 9 4 0 -6 -9 -10 -14 -10 -26 2
-13 13 -13 16 4 26 23 15 24 35 4 56 -19 19 -19 26 1 26 8 0 12 5 9 10 -3 6
-15 10 -26 10 -11 0 -18 -4 -15 -8 7 -12 -12 -38 -21 -28 -4 5 -2 11 4 13 10
4 10 10 2 25 -6 11 -7 18 -2 15 15 -9 36 10 30 27 -4 10 -13 14 -24 10 -17 -5
-17 -5 0 6 9 6 17 19 17 28 0 15 -2 15 -10 2 -8 -13 -10 -12 -11 5 -1 11 -1
26 0 33 1 6 -3 12 -9 12 -5 0 -10 9 -10 20 0 11 -5 20 -11 20 -5 0 -7 5 -3 11
4 7 1 10 -7 7 -8 -3 -13 -11 -11 -17 1 -7 -2 -9 -9 -5 -9 5 -6 12 9 25 17 13
19 18 7 23 -8 3 -17 1 -20 -5 -4 -5 -11 -7 -16 -3 -5 3 -7 10 -3 15 3 5 9 7
14 4 4 -3 13 1 19 8 8 10 6 19 -9 34 -10 12 -16 24 -13 27 4 3 1 6 -6 6 -7 0
-9 5 -5 12 4 6 3 8 -3 5 -6 -4 -8 -18 -6 -32 3 -14 10 -22 16 -18 6 4 7 1 2
-6 -9 -15 -21 -4 -27 24 -2 11 -10 19 -17 17 -7 -1 -10 2 -6 8 3 6 11 7 17 4
8 -5 9 -1 5 10 -4 9 -3 14 2 11 5 -3 12 -1 16 4 3 5 0 13 -7 18 -15 9 -20 53
-7 53 5 0 9 9 9 20 0 13 -7 20 -19 20 -20 0 -36 36 -20 46 5 3 9 -4 9 -15 0
-12 4 -21 9 -21 16 0 -1 40 -21 51 -10 5 -16 14 -13 20 4 5 2 9 -4 9 -6 0 -8
7 -5 15 5 11 10 13 19 5 10 -8 13 -4 13 17 0 26 -25 56 -39 47 -4 -2 -5 12 -2
32 3 24 1 34 -5 30 -6 -3 -13 -2 -17 4 -3 5 1 10 9 10 20 0 29 17 15 26 -8 4
-9 3 -5 -4 4 -7 3 -12 -3 -12 -17 0 -18 25 -2 38 14 12 14 13 -2 8 -10 -3 -15
-2 -12 3 3 5 1 12 -4 16 -6 3 -8 13 -5 23 5 14 3 14 -10 -2 -16 -19 -16 -19
-16 3 0 15 -4 20 -12 15 -10 -6 -10 -4 0 7 15 16 16 39 1 39 -5 0 -7 -6 -4
-12 3 -7 -2 -3 -11 10 -19 25 -39 30 -30 6 3 -8 2 -13 -3 -10 -13 9 -20 45
-10 52 5 3 7 9 4 14 -3 5 0 12 6 16 7 4 9 3 6 -3 -3 -5 0 -10 8 -10 9 0 5 12
-13 36 -14 20 -28 38 -30 41 -2 2 -7 -2 -12 -10 -8 -12 -10 -10 -11 10 -1 14
-1 29 0 33 1 5 -8 11 -19 14 -11 3 -17 9 -14 14 3 5 -6 13 -20 19 -15 5 -28
20 -32 35 -3 14 -10 25 -15 25 -5 0 -6 -7 -3 -15 4 -8 2 -15 -3 -15 -5 0 -10
6 -11 13 -3 35 -10 51 -26 57 -10 3 -18 10 -19 15 -1 6 -6 9 -12 7 -5 -1 -1 5
10 14 15 13 16 15 3 11 -9 -3 -19 0 -22 8 -3 8 -12 12 -21 9 -11 -5 -14 -2 -9
10 3 9 11 13 17 9 6 -4 8 0 4 10 -3 10 -2 17 4 17 6 0 7 5 3 12 -5 8 -11 6
-19 -6 -11 -14 -13 -15 -18 -1 -4 8 -1 14 5 12 6 -1 13 4 15 11 6 17 -17 15
-37 -3 -16 -14 -17 -14 -13 10 3 13 9 22 14 19 5 -3 9 -1 9 5 0 6 -11 13 -25
17 -29 7 -32 19 -7 33 14 8 11 10 -15 7 -19 -2 -34 2 -37 9 -2 7 -16 13 -31
13 -37 0 -41 8 -22 47 9 19 12 35 7 35 -5 0 -23 13 -39 29 -16 16 -32 27 -35
24 -3 -3 -8 1 -12 10 -4 12 -14 15 -33 11 -20 -4 -23 -3 -11 5 13 9 13 11 -2
11 -9 0 -19 -6 -22 -12 -4 -9 -5 -8 -5 2 2 29 -1 40 -12 40 -5 0 -7 -5 -3 -12
4 -7 3 -8 -4 -4 -8 5 -12 0 -12 -14 0 -13 9 -24 25 -30 14 -5 25 -15 25 -22 1
-8 7 -5 15 6 13 17 15 18 15 3 0 -9 -5 -17 -11 -17 -5 0 -7 -4 -4 -10 3 -6 -1
-7 -9 -4 -9 3 -16 11 -16 18 0 15 -48 37 -52 24 -2 -6 -10 -3 -17 6 -12 14
-12 16 1 11 9 -4 15 0 15 10 0 9 -6 14 -13 11 -7 -3 -15 1 -17 9 -8 19 4 27
20 13 7 -6 16 -8 19 -5 11 11 -6 25 -36 32 -17 4 -30 11 -30 16 0 6 -4 8 -10
4 -5 -3 -7 -12 -3 -20 3 -8 1 -15 -5 -15 -6 0 -9 11 -8 25 2 13 -1 22 -5 19
-5 -3 -9 1 -9 8 0 11 -2 10 -9 0 -7 -11 -9 -10 -15 3 -3 9 -10 13 -16 10 -6
-4 -8 -10 -5 -15 3 -5 -3 -8 -14 -7 -16 1 -18 5 -9 20 9 18 6 19 -41 16 -38
-3 -50 -1 -46 8 2 7 1 12 -3 12 -4 -1 -9 0 -12 1 -19 7 -41 7 -46 -1 -3 -5 0
-9 5 -9 6 0 11 -5 11 -11 0 -8 -4 -8 -12 -2 -15 11 -28 11 -44 0 -7 -4 -14 -1
-17 7 -4 10 1 13 19 11 19 -2 22 0 13 11 -6 8 -16 11 -21 8 -6 -4 -14 0 -19 7
-6 10 -9 8 -9 -10 0 -20 -4 -22 -22 -16 -13 3 -29 7 -35 7 -7 1 -13 5 -13 10
0 10 3 10 33 -1 18 -7 24 -6 24 4 0 10 -11 13 -34 11 -19 -1 -36 1 -39 6 -3 4
-13 4 -23 -2 -10 -5 -21 -6 -25 -3 -3 3 -6 2 -6 -4 0 -6 -7 -13 -15 -17 -13
-4 -14 -2 -5 14 6 11 9 20 8 19 -2 -1 -18 -5 -36 -9z m-396 -1138 c131 -35
284 -136 390 -258 62 -72 77 -94 71 -101 -3 -3 -43 -9 -88 -14 -51 -6 -109
-21 -155 -40 -41 -17 -74 -32 -74 -34 0 -2 -3 -10 -6 -18 -3 -9 2 -20 14 -26
15 -8 35 -3 93 22 68 29 83 32 181 32 l107 0 58 -59 c32 -32 96 -84 143 -114
47 -31 111 -83 143 -115 54 -56 73 -86 45 -72 -7 4 -6 1 2 -7 15 -13 19 -45 8
-63 -3 -6 -9 -48 -12 -95 -5 -77 -20 -147 -70 -323 -9 -32 -21 -68 -27 -79 -6
-11 -13 -32 -15 -46 -6 -31 -68 -163 -99 -207 -71 -105 -240 -292 -320 -354
-80 -62 -170 -108 -225 -115 -60 -7 -183 18 -234 47 -22 14 -68 39 -101 57
-33 18 -87 52 -120 75 -33 23 -78 54 -100 69 -116 79 -194 167 -284 318 -90
152 -116 238 -136 448 -8 80 -21 192 -30 250 -26 183 -28 216 -15 287 25 134
70 227 164 335 39 44 151 139 189 159 14 8 162 35 282 52 72 10 156 6 221 -11z
m1179 -638 c36 -38 47 -84 52 -211 9 -203 -45 -375 -114 -361 -21 4 -21 8 1
149 9 59 16 145 16 191 0 81 1 86 30 113 31 30 40 65 17 65 -8 0 -22 -9 -32
-20 -10 -11 -21 -17 -25 -15 -10 6 -23 93 -15 105 11 18 46 10 70 -16z m575
-439 c22 -12 31 -25 39 -66 10 -45 8 -58 -15 -122 -37 -102 -54 -166 -54 -204
0 -45 33 -126 85 -208 143 -227 171 -301 163 -433 -10 -169 -113 -310 -291
-397 -51 -25 -102 -45 -112 -44 -12 0 -3 7 20 15 71 25 202 100 192 110 -2 3
-24 -2 -48 -11 -134 -49 -215 -75 -234 -75 -11 0 -25 -4 -31 -9 -15 -14 -228
-44 -270 -37 -111 17 -313 104 -328 142 -11 29 -6 71 9 84 13 11 33 8 113 -15
53 -16 106 -34 117 -42 23 -16 118 -18 113 -2 -5 16 -126 75 -193 94 -161 46
-215 80 -215 135 0 17 5 40 10 50 21 40 42 41 143 5 53 -19 106 -39 116 -45
26 -13 78 -13 86 1 14 22 -63 65 -218 120 -61 22 -120 47 -129 56 -46 42 5
143 71 143 12 0 69 -13 128 -30 58 -16 108 -28 111 -26 15 16 -16 44 -70 65
-101 39 -182 86 -198 115 -14 24 -13 29 5 63 31 58 54 65 175 59 58 -4 139
-15 179 -26 81 -23 117 -18 171 20 57 41 65 70 61 240 -1 47 3 100 8 117 15
50 71 122 116 149 47 28 129 33 175 9z"/>
<path d="M1232 2859 c-81 -14 -232 -110 -232 -148 0 -24 31 -22 65 4 20 14 61
38 93 53 52 25 68 27 175 27 96 0 120 3 127 15 15 26 -6 43 -62 51 -66 9 -99
9 -166 -2z"/>
<path d="M2180 2718 c-92 -26 -172 -122 -185 -220 -7 -49 -2 -45 46 40 16 28
34 52 39 52 5 0 7 -6 4 -14 -8 -22 14 -93 39 -122 l23 -26 105 36 c58 20 113
36 122 36 39 0 42 90 5 143 -17 23 -17 27 -3 27 28 0 79 -26 114 -59 18 -17
35 -31 37 -31 1 0 -2 13 -7 30 -14 38 -80 86 -143 105 -56 17 -144 18 -196 3z"/>
<path d="M1234 2579 c-91 -26 -186 -135 -166 -190 9 -23 9 -23 27 11 20 41 74
100 90 100 8 0 10 -18 7 -52 -2 -29 1 -64 6 -78 9 -24 13 -25 111 -28 64 -2
109 2 123 9 16 9 23 9 26 0 14 -42 48 50 37 100 -10 43 15 37 63 -15 29 -31
43 -41 51 -33 16 16 14 40 -5 63 -8 10 -13 14 -10 7 15 -28 -21 -15 -63 24
-69 65 -132 93 -205 92 -34 0 -75 -5 -92 -10z"/>
<path d="M1647 2100 c-19 -69 12 -133 71 -150 83 -23 181 -2 225 48 20 22 36
102 21 102 -5 0 -17 -14 -26 -30 -36 -63 -168 -91 -235 -51 -24 15 -34 30 -40
63 -8 39 -10 40 -16 18z"/>
<path d="M2245 1959 c-72 -28 -355 -95 -455 -108 -47 -6 -142 -14 -212 -17
-87 -5 -128 -11 -128 -19 0 -17 48 -59 108 -94 196 -115 448 -84 650 80 63 51
112 119 112 157 0 27 -11 27 -75 1z"/>
</g>
</svg>
