<?xml version="1.0" standalone="no"?>
<!DOCTYPE svg PUBLIC "-//W3C//DTD SVG 20010904//EN"
 "http://www.w3.org/TR/2001/REC-SVG-20010904/DTD/svg10.dtd">
<svg version="1.0" xmlns="http://www.w3.org/2000/svg"
 width="276.000000pt" height="105.000000pt" viewBox="0 0 276.000000 105.000000"
 preserveAspectRatio="xMidYMid meet">
<metadata>
Created by potrace 1.16, written by Peter Selinger 2001-2019
</metadata>
<g transform="translate(0.000000,105.000000) scale(0.100000,-0.100000)"
fill="#000000" stroke="none">
<path d="M477 1034 c-3 -4 -25 -8 -48 -9 -23 -2 -45 -7 -48 -12 -3 -4 -17 -10
-31 -12 -40 -5 -82 -30 -73 -44 4 -7 0 -7 -10 2 -15 12 -17 11 -17 -3 0 -9 -7
-16 -16 -16 -11 0 -14 -5 -10 -16 5 -14 4 -15 -9 -4 -15 12 -20 4 -16 -22 1
-8 -15 -12 -33 -9 -5 1 -6 -6 -2 -15 5 -14 4 -15 -9 -4 -10 8 -15 9 -15 1 0
-21 -3 -26 -21 -39 -20 -14 -49 -59 -31 -48 6 3 5 -4 -1 -18 -8 -16 -14 -21
-19 -13 -4 7 -8 -5 -8 -26 0 -21 -4 -36 -9 -33 -5 4 -8 -2 -7 -11 2 -10 -1
-20 -5 -23 -12 -8 -17 -82 -6 -104 6 -12 6 -16 -1 -12 -6 3 -10 -19 -10 -59 0
-50 4 -68 17 -75 13 -8 13 -9 1 -10 -12 0 -11 -3 3 -11 9 -5 17 -15 17 -20 0
-6 -5 -7 -11 -3 -7 4 -10 1 -7 -7 3 -8 10 -13 15 -12 6 1 9 -9 7 -22 -1 -14 2
-25 7 -25 5 0 9 -5 9 -11 0 -7 8 -18 18 -26 9 -8 11 -12 4 -8 -19 10 -14 -2
15 -32 14 -15 23 -22 18 -14 -5 9 -4 12 3 7 6 -4 9 -13 6 -20 -3 -8 3 -17 15
-21 11 -3 23 -15 26 -26 4 -10 11 -19 16 -19 6 0 7 5 3 12 -4 7 -3 8 4 4 7 -4
12 -14 12 -22 0 -8 6 -13 13 -11 6 1 11 -3 10 -10 -1 -6 4 -14 13 -17 8 -3 12
-2 9 4 -12 19 10 9 34 -15 12 -14 26 -23 31 -20 4 2 26 -4 48 -15 45 -22 66
-26 42 -9 -12 9 -11 10 5 4 11 -4 31 -9 44 -11 14 -3 28 -7 33 -10 4 -3 8 -2
8 3 0 4 16 8 35 9 19 0 32 -3 29 -8 -3 -4 -1 -8 5 -8 5 0 13 5 16 10 5 8 11 8
20 0 9 -8 15 -8 20 0 3 6 11 8 16 4 17 -10 99 -16 99 -6 0 9 83 7 99 -2 5 -4
12 0 14 6 4 10 6 10 6 0 1 -10 6 -10 22 -1 15 8 19 8 15 0 -9 -14 0 -14 25 -1
13 8 19 7 19 0 0 -6 17 -10 40 -8 22 1 40 5 40 8 0 9 87 7 96 -2 4 -4 14 -2
22 5 13 9 14 9 8 0 -4 -7 -2 -13 3 -13 6 0 11 5 11 11 0 8 5 8 15 -1 8 -7 15
-8 15 -3 0 5 9 9 19 9 11 0 17 -4 15 -8 -3 -4 2 -8 10 -8 9 0 16 4 16 8 0 5
29 9 65 10 39 0 65 -4 65 -10 0 -7 5 -6 14 1 11 9 15 9 19 -1 4 -8 8 -9 14 -3
11 13 36 18 28 5 -6 -10 51 -7 62 4 3 3 12 1 20 -5 10 -9 13 -8 13 2 0 11 2
11 9 0 8 -12 12 -12 24 -2 12 9 16 9 20 -1 4 -10 6 -10 6 1 1 11 4 11 16 1 10
-9 15 -9 15 -1 0 6 7 11 15 11 8 0 15 -6 15 -12 0 -9 3 -9 9 1 6 9 15 11 27 6
27 -11 64 -12 64 -2 0 5 7 4 15 -3 12 -10 15 -10 15 1 0 11 2 11 10 -1 7 -11
10 -11 10 -2 0 8 5 10 12 6 21 -13 89 -16 103 -4 9 8 15 8 20 0 3 -6 12 -7 18
-3 15 10 67 10 67 1 0 -9 62 -5 79 6 8 5 16 4 20 -1 3 -6 15 -8 26 -6 11 2 52
6 90 8 85 5 95 7 95 14 0 4 14 7 31 7 17 1 34 6 38 10 3 5 30 20 58 34 31 14
53 32 53 41 0 10 8 15 23 15 12 -1 21 4 20 10 -1 6 9 17 23 25 16 8 24 19 21
30 -3 11 2 19 15 23 13 3 19 10 15 20 -4 10 -1 13 9 9 10 -4 14 3 14 23 0 15
10 38 21 50 14 15 22 37 23 63 0 23 4 41 9 41 5 0 7 16 4 35 -3 19 -1 35 5 35
5 0 7 4 4 8 -9 15 -17 66 -18 114 -1 37 -4 45 -16 40 -12 -4 -14 0 -9 16 3 13
-1 28 -9 37 -8 8 -15 17 -14 20 2 28 -4 40 -32 67 -18 17 -27 27 -19 23 7 -4
-8 14 -35 41 -26 27 -54 49 -62 49 -8 0 -20 9 -26 20 -15 28 -28 36 -48 31
-10 -2 -15 1 -12 9 4 9 -5 12 -30 10 -23 -1 -36 2 -36 10 0 17 -33 25 -55 12
-13 -7 -21 -6 -29 4 -11 14 -68 21 -60 7 3 -4 1 -8 -5 -8 -5 0 -11 5 -13 11
-2 7 -12 7 -28 1 -15 -5 -35 -6 -48 -1 -16 6 -21 5 -16 -3 5 -7 3 -8 -5 -4
-21 14 -69 17 -76 6 -4 -7 -12 -7 -25 0 -13 7 -20 6 -23 -3 -4 -9 -6 -9 -6 1
-1 6 -8 12 -17 12 -8 0 -12 -5 -9 -10 3 -5 1 -10 -4 -10 -6 0 -11 5 -11 11 0
8 -4 8 -14 0 -10 -9 -16 -9 -21 -1 -7 11 -54 8 -74 -5 -6 -3 -11 -1 -11 5 0 8
-6 8 -21 0 -15 -8 -24 -8 -34 0 -10 9 -19 8 -36 0 -14 -8 -19 -8 -15 -1 5 8
-1 8 -20 1 -21 -8 -29 -8 -36 2 -5 9 -8 7 -8 -7 0 -15 -2 -17 -9 -6 -5 7 -14
10 -20 7 -6 -4 -11 -2 -11 3 0 6 -9 11 -21 11 -13 0 -18 -4 -13 -12 4 -7 4
-10 -1 -6 -4 4 -14 3 -22 -4 -11 -8 -12 -7 -7 6 4 11 1 16 -10 16 -9 0 -16 -4
-16 -9 0 -8 -28 -8 -37 -1 -8 7 -30 5 -47 -3 -10 -5 -16 -5 -13 0 3 4 -23 8
-58 9 -35 0 -62 -2 -60 -5 2 -4 -8 -7 -21 -7 -13 -1 -22 1 -20 5 3 4 -10 6
-27 4 -59 -5 -142 -5 -172 0 -16 3 -40 1 -52 -4 -15 -5 -23 -5 -23 2 0 6 -6 6
-19 -1 -26 -13 -52 -14 -31 0 13 8 12 10 -2 10 -10 0 -18 -4 -18 -10 0 -5 -7
-10 -15 -10 -8 0 -15 4 -15 8 0 6 -139 8 -147 1 -9 -6 -30 -4 -40 4 -7 5 -20
4 -32 -2 -14 -8 -20 -8 -23 1 -3 8 -10 8 -27 -2 -15 -7 -21 -8 -17 -1 4 6 3
11 -3 11 -5 0 -13 -5 -16 -10 -5 -7 -11 -8 -18 -1 -8 6 -18 5 -30 -4 -19 -14
-61 -9 -51 6 6 10 -9 12 -19 3z m938 -45 c-4 -5 -10 -7 -15 -4 -5 3 -14 -3
-20 -14 -7 -13 -7 -22 0 -26 5 -3 10 -1 10 6 0 7 3 10 6 6 3 -3 1 -14 -5 -24
-6 -10 -11 -12 -11 -5 0 6 -5 12 -10 12 -6 0 -10 -6 -9 -12 2 -14 -7 -42 -22
-70 -7 -13 -4 -23 11 -38 30 -30 26 -72 -7 -87 -19 -9 -29 -10 -34 -2 -6 10
-22 -29 -23 -56 -1 -5 -5 -14 -11 -18 -6 -5 -4 -7 5 -4 8 2 16 9 16 15 1 7 2
20 3 30 1 14 3 15 11 2 5 -8 6 -17 2 -20 -4 -3 -8 -13 -10 -22 -2 -12 2 -16
13 -12 8 4 22 1 30 -6 11 -9 15 -9 15 -1 0 8 24 11 78 9 73 -3 77 -4 80 -27 4
-27 -15 -43 -37 -32 -9 5 -22 6 -28 4 -8 -3 -13 4 -13 16 0 12 -4 21 -10 21
-5 0 -10 -9 -10 -20 0 -11 -4 -20 -10 -20 -5 0 -10 9 -10 20 0 11 -4 20 -10
20 -5 0 -10 -9 -10 -21 0 -14 -5 -19 -13 -16 -8 3 -20 1 -27 -3 -8 -5 -22 -5
-31 0 -12 7 -21 5 -30 -6 -10 -12 -14 -12 -20 -2 -7 10 -9 10 -9 1 0 -20 4
-28 13 -26 4 2 7 -6 7 -18 0 -12 -5 -19 -12 -17 -7 3 -19 -2 -27 -9 -11 -12
-11 -16 5 -28 18 -14 18 -14 -3 -15 -13 0 -23 -2 -23 -4 0 -2 -3 -13 -6 -23
-6 -17 -6 -17 8 1 14 17 15 18 21 2 8 -20 0 -39 -12 -31 -5 2 -7 -8 -5 -23 2
-26 2 -26 -12 -8 -8 11 -15 16 -15 10 -6 -40 -5 -55 2 -60 10 -6 0 -34 -13
-34 -5 0 -6 6 -3 13 4 6 -3 1 -15 -12 -12 -14 -19 -33 -17 -42 3 -10 1 -20 -4
-23 -5 -2 -4 -3 3 -2 7 2 14 9 14 17 1 8 3 19 4 24 1 6 2 14 1 18 -1 5 3 6 9
2 8 -5 7 -11 -1 -21 -9 -11 -9 -14 1 -14 10 0 10 -3 0 -15 -6 -8 -9 -19 -5
-25 3 -5 1 -10 -4 -10 -6 0 -11 -5 -11 -11 0 -5 6 -7 13 -4 6 4 3 -1 -8 -10
-11 -9 -18 -19 -15 -23 3 -4 -146 -8 -330 -10 -380 -4 -415 1 -518 68 -70 45
-122 105 -159 186 -25 53 -28 70 -28 169 0 102 2 114 31 175 55 115 139 190
259 232 45 16 100 18 538 17 316 0 486 -3 482 -10z m13 -554 c26 -8 28 -18 6
-36 -10 -8 -14 -23 -12 -41 6 -36 -3 -42 -37 -26 -19 9 -28 9 -37 0 -22 -22
-40 -14 -36 17 1 18 -5 37 -17 51 -16 18 -17 23 -5 30 8 6 22 10 31 10 9 0 21
12 28 28 l13 27 21 -26 c12 -15 32 -30 45 -34z m246 -5 c21 0 21 -29 1 -37
-11 -4 -15 -16 -13 -37 2 -24 -1 -30 -12 -27 -19 6 -61 6 -80 0 -11 -3 -14 3
-12 25 2 20 -3 33 -17 43 -29 20 -26 30 10 38 18 4 35 16 41 31 l11 25 28 -31
c15 -16 35 -30 43 -30z"/>
</g>
</svg>
