<?xml version="1.0" standalone="no"?>
<!DOCTYPE svg PUBLIC "-//W3C//DTD SVG 20010904//EN"
 "http://www.w3.org/TR/2001/REC-SVG-20010904/DTD/svg10.dtd">
<svg version="1.0" xmlns="http://www.w3.org/2000/svg"
 width="70.000000pt" height="70.000000pt" viewBox="0 0 70.000000 70.000000"
 preserveAspectRatio="xMidYMid meet">

<g transform="translate(0.000000,70.000000) scale(0.100000,-0.100000)"
fill="#000000" stroke="none">
<path d="M313 690 c-13 -5 -23 -7 -23 -4 0 4 -64 -57 -142 -135 l-142 -141 1
-67 c3 -161 99 -283 257 -329 158 -44 332 39 404 194 36 77 38 202 4 275 -56
124 -154 194 -292 211 -25 3 -55 1 -67 -4z m-5 -222 c15 -15 15 -51 0 -66 -28
-28 -78 -7 -78 33 0 27 18 45 45 45 12 0 26 -5 33 -12z m143 2 c29 -16 25 -58
-7 -72 -31 -14 -57 -1 -62 31 -6 42 28 62 69 41z m-107 -102 c5 -10 7 -10 12
0 9 20 123 16 131 -4 11 -29 -11 -49 -60 -52 -37 -2 -48 1 -61 19 l-15 22 -19
-23 c-14 -17 -30 -24 -55 -24 -43 0 -67 18 -67 50 0 23 3 24 64 24 42 0 66 -4
70 -12z m-40 -98 c16 0 26 -5 26 -15 0 -10 -11 -15 -35 -15 -19 0 -34 -3 -34
-7 4 -23 -4 -24 -26 -3 l-25 24 22 23 c20 21 24 22 34 9 6 -9 23 -16 38 -16z
m165 -36 c-20 -22 -46 -24 -34 -3 4 5 -10 9 -29 9 -25 0 -36 4 -36 15 0 10 11
15 35 15 19 0 34 3 34 8 -4 22 4 23 26 2 l25 -24 -21 -22z"/>
<path d="M260 435 c0 -8 7 -15 15 -15 8 0 15 7 15 15 0 8 -7 15 -15 15 -8 0
-15 -7 -15 -15z"/>
<path d="M410 435 c0 -8 7 -15 15 -15 8 0 15 7 15 15 0 8 -7 15 -15 15 -8 0
-15 -7 -15 -15z"/>
<path d="M397 354 c-11 -12 3 -24 27 -24 13 0 29 7 36 15 11 13 7 15 -22 15
-19 0 -38 -3 -41 -6z"/>
<path d="M250 340 c20 -13 47 -13 55 0 4 6 -9 10 -32 10 -28 0 -34 -3 -23 -10z"/>
</g>
</svg>
