<?xml version="1.0" standalone="no"?>
<!DOCTYPE svg PUBLIC "-//W3C//DTD SVG 20010904//EN"
 "http://www.w3.org/TR/2001/REC-SVG-20010904/DTD/svg10.dtd">
<svg version="1.0" xmlns="http://www.w3.org/2000/svg"
 width="500.000000pt" height="350.000000pt" viewBox="0 0 500.000000 350.000000"
 preserveAspectRatio="xMidYMid meet">
<metadata>
Created by potrace 1.16, written by Peter Selinger 2001-2019
</metadata>
<g transform="translate(0.000000,350.000000) scale(0.100000,-0.100000)"
fill="#000000" stroke="none">
<path d="M1268 3453 c-5 -55 4 -79 32 -88 26 -8 17 -22 -23 -38 l-31 -13 49
-18 c28 -9 68 -21 91 -26 22 -5 71 -23 108 -39 36 -17 82 -31 101 -31 22 0 37
-6 43 -17 9 -15 13 -14 46 11 21 15 36 35 35 44 -1 10 -1 23 0 29 1 17 48 40
91 46 95 13 122 40 53 51 -50 8 -232 0 -308 -13 -67 -12 -155 -14 -179 -5 -13
5 -16 22 -16 80 l0 74 -44 0 -44 0 -4 -47z"/>
<path d="M2916 3485 c50 -16 86 -34 96 -49 4 -6 8 -39 8 -74 0 -75 12 -102 45
-102 19 0 28 -10 45 -46 23 -54 25 -89 5 -124 -8 -14 -14 -30 -15 -36 0 -7 35
-17 81 -25 78 -13 121 -30 107 -44 -4 -4 -21 -2 -39 4 -47 16 -99 13 -139 -8
-19 -10 -54 -28 -77 -39 -24 -12 -43 -25 -43 -30 0 -5 -18 -28 -40 -51 -58
-60 -53 -109 12 -102 14 1 39 -4 55 -12 15 -8 45 -17 65 -21 41 -7 68 -37 68
-74 0 -24 -2 -25 -65 -42 -60 -15 -68 -24 -75 -82 -4 -29 -10 -60 -14 -69 -5
-13 0 -19 23 -27 49 -17 36 -52 -20 -52 -15 0 -19 -7 -19 -34 0 -19 5 -38 11
-42 6 -3 26 -29 44 -58 46 -70 100 -126 123 -126 11 0 24 13 33 32 9 20 26 37
47 45 31 13 32 12 32 -11 0 -14 -4 -28 -10 -31 -13 -8 -13 -35 0 -35 5 0 13
12 17 28 3 15 15 41 25 57 22 36 23 56 3 49 -19 -8 -19 -1 0 60 20 64 19 121
-1 152 -16 23 -16 26 3 47 45 51 56 82 66 182 13 139 12 152 -26 209 l-33 51
7 180 c4 99 7 222 8 273 l1 92 -227 -1 c-203 -1 -223 -2 -187 -14z"/>
<path d="M4580 3420 c-17 -16 -36 -30 -43 -30 -7 -1 -21 -15 -32 -33 -17 -27
-21 -48 -20 -134 0 -106 5 -124 29 -104 17 14 26 -4 26 -54 0 -37 15 -45 93
-45 52 0 54 -3 31 -49 -11 -22 -14 -44 -9 -71 9 -52 -17 -89 -61 -90 -45 0
-55 16 -42 66 14 52 7 71 -31 78 -17 3 -45 9 -61 12 -42 8 -85 55 -127 137
-71 142 -211 249 -327 251 -41 0 -65 -7 -122 -38 -65 -36 -76 -46 -118 -115
-43 -72 -46 -81 -46 -146 0 -39 7 -119 15 -180 9 -66 12 -136 8 -174 -5 -55
-11 -68 -44 -103 -20 -22 -50 -58 -66 -81 -15 -23 -34 -47 -42 -53 -23 -18 -8
-37 54 -69 68 -35 89 -61 63 -76 -11 -6 -18 -22 -18 -38 0 -30 -33 -80 -90
-140 -20 -20 -42 -51 -49 -68 -16 -38 -26 -42 -34 -12 -7 24 -14 21 -76 -33
l-43 -37 32 -16 c61 -31 20 -77 -52 -58 -39 11 -45 10 -66 -10 -19 -18 -20
-23 -9 -35 15 -15 70 -19 105 -7 17 6 22 4 22 -9 0 -23 -58 -46 -113 -46 -27
0 -49 -6 -57 -15 -18 -22 -36 -18 -60 13 -19 23 -20 27 -6 30 12 3 16 15 16
48 0 24 -5 44 -11 44 -19 0 -49 -21 -49 -34 0 -17 -47 -49 -60 -41 -5 3 -14
24 -20 45 -13 48 -28 51 -43 9 -13 -34 -25 -35 -102 -6 -33 12 -45 24 -70 73
-27 53 -34 60 -67 65 -42 6 -45 0 -27 -48 9 -25 7 -30 -20 -53 -16 -14 -31
-34 -33 -45 -2 -12 -20 -28 -45 -40 -22 -11 -51 -32 -63 -47 -12 -16 -31 -28
-42 -28 -18 0 -20 -5 -15 -40 5 -38 4 -40 -18 -34 -21 5 -25 1 -31 -31 -5 -29
-2 -40 15 -59 11 -12 21 -28 21 -34 0 -19 -28 -14 -40 8 -16 30 -37 24 -44
-12 -5 -27 -2 -35 21 -53 30 -25 18 -41 -22 -31 -32 8 -38 -6 -18 -42 22 -38
10 -52 -20 -25 -12 11 -37 28 -54 37 -23 12 -33 24 -33 40 0 13 -9 34 -20 47
l-20 24 -23 -26 c-27 -33 -101 -46 -131 -23 -30 21 -42 17 -64 -20 l-21 -35
33 -35 c18 -20 42 -36 54 -36 12 0 29 -11 38 -25 16 -24 15 -27 -1 -44 -16
-19 -15 -20 8 -36 23 -15 25 -21 22 -81 -2 -51 -8 -71 -25 -89 -21 -22 -22
-34 -24 -175 l-1 -151 33 -27 32 -27 0 -107 c0 -81 -3 -108 -13 -108 -16 0
-151 147 -195 212 -18 26 -51 94 -73 150 -55 142 -65 163 -102 213 l-32 43
-62 -5 c-59 -6 -63 -5 -63 15 0 38 -37 38 -74 0 -40 -41 -125 -87 -236 -128
-141 -52 -203 -31 -148 50 16 24 58 53 143 99 67 36 134 75 149 87 26 19 27
23 16 45 -8 13 -16 37 -19 53 -8 34 -31 47 -31 17 0 -79 -93 -122 -200 -91
-31 9 -37 8 -52 -12 -44 -60 -44 -59 -88 -42 -23 9 -44 14 -47 10 -10 -10 59
-65 82 -66 40 0 44 -18 19 -78 -25 -63 -27 -140 -3 -168 20 -25 -14 -44 -78
-44 -64 0 -167 49 -188 90 -15 29 -85 89 -155 134 -25 16 -63 43 -84 60 -22
17 -54 36 -70 41 -22 7 -33 19 -40 43 -7 26 -14 32 -37 32 -23 0 -32 -8 -48
-38 -28 -54 -79 -110 -136 -148 -27 -19 -72 -50 -100 -70 -49 -36 -51 -36
-121 -30 -57 4 -74 2 -85 -10 -7 -8 -18 -13 -26 -10 -11 4 -13 -80 -13 -489
l0 -495 193 0 c185 0 194 1 247 26 30 14 97 41 149 60 51 19 120 47 153 62 77
38 120 31 256 -37 56 -28 107 -51 113 -51 6 0 30 -13 54 -30 l44 -30 465 0
466 0 0 23 c1 56 164 136 280 138 36 0 100 4 144 8 53 4 83 3 94 -5 9 -6 11
-13 5 -17 -18 -11 -97 -29 -143 -32 -109 -8 -135 -17 -125 -42 3 -10 -3 -22
-15 -30 -11 -8 -20 -21 -20 -29 0 -12 26 -14 150 -14 138 0 150 1 150 18 0 10
-6 24 -12 30 -16 16 5 31 42 32 14 0 34 7 44 15 29 22 43 18 50 -12 3 -16 9
-39 12 -53 7 -25 7 -25 -14 -7 -22 20 -52 17 -72 -8 -11 -13 48 -15 469 -15
l481 0 0 23 c0 13 3 27 7 30 10 11 33 -13 33 -34 0 -14 7 -19 26 -19 20 0 24
4 19 19 -8 27 -25 132 -25 159 0 20 5 22 48 22 l48 0 -7 -67 c-5 -38 -8 -83
-8 -101 l-1 -32 430 0 c345 1 435 4 457 15 15 8 57 18 92 24 82 13 99 29 83
74 -7 18 -12 40 -12 49 0 16 30 48 46 48 5 0 8 -45 6 -105 l-4 -105 51 0 51 0
0 80 c0 52 -4 80 -11 80 -8 0 -9 12 -4 38 5 20 10 439 12 930 l3 894 -28 -20
c-15 -11 -53 -46 -82 -77 -34 -35 -92 -77 -151 -111 -65 -37 -110 -70 -138
-104 -22 -27 -41 -52 -41 -56 0 -3 16 -25 35 -48 74 -86 83 -91 92 -56 17 65
49 -30 34 -101 -8 -34 -8 -56 -1 -69 18 -33 11 -49 -26 -65 -53 -22 -73 -19
-103 15 -14 17 -55 58 -89 93 -35 34 -71 75 -79 91 -15 28 -14 29 9 23 23 -6
23 -5 21 55 -3 83 -27 98 -86 54 -52 -39 -146 -82 -242 -111 -191 -58 -345
-112 -358 -124 -4 -5 12 -6 37 -4 36 4 46 2 46 -10 0 -23 -105 -222 -140 -268
-23 -28 -39 -39 -53 -37 -26 4 -35 32 -36 114 -1 52 4 70 32 117 17 31 41 60
52 64 28 10 -97 23 -157 16 -35 -4 -54 -1 -72 11 -16 10 -46 16 -80 16 -52 0
-55 -1 -58 -27 -4 -35 -37 -45 -45 -14 -3 12 -11 21 -19 21 -7 0 -21 11 -29
24 -9 13 -25 26 -35 29 -11 3 -20 12 -20 21 0 19 -1 19 -34 6 -14 -5 -26 -16
-26 -25 0 -8 -4 -23 -9 -33 -5 -9 -14 -30 -20 -46 -11 -26 -15 -28 -47 -22
-28 6 -40 3 -60 -16 -14 -13 -29 -33 -34 -45 -6 -15 -18 -23 -35 -23 -36 0
-33 35 5 55 37 19 38 30 4 52 -28 18 -84 129 -84 165 0 11 8 22 18 25 14 3 22
20 29 61 13 69 7 75 -60 67 -54 -6 -87 7 -87 35 0 15 10 20 45 26 53 7 63 18
40 40 -9 9 -14 23 -11 31 3 8 6 17 6 19 0 2 9 4 19 4 13 0 23 -11 31 -36 7
-20 18 -48 26 -62 8 -15 14 -33 14 -41 0 -26 45 -111 59 -111 8 0 34 -21 57
-46 42 -45 43 -45 69 -28 29 19 87 14 115 -11 21 -19 54 -19 69 -1 10 12 8 23
-11 55 -23 41 -54 52 -52 18 2 -23 -19 -22 -41 3 -25 27 -35 25 -35 -7 l0 -26
-33 34 c-44 44 -81 113 -74 133 4 9 17 20 30 25 14 5 27 19 30 31 5 19 10 21
39 15 18 -4 38 -13 44 -21 6 -8 21 -14 32 -14 11 0 24 -5 28 -11 4 -6 21 -9
43 -5 74 12 114 11 118 -1 3 -8 -5 -13 -21 -13 -13 0 -28 -4 -31 -10 -3 -5
-17 -10 -29 -10 -29 0 -49 -22 -40 -44 8 -21 -1 -20 159 -13 34 2 40 -1 40
-18 0 -11 3 -25 8 -32 11 -18 97 -63 119 -63 17 0 19 5 14 33 -29 150 -31 179
-13 192 10 7 26 11 35 8 9 -2 51 7 92 21 93 30 104 25 94 -51 -3 -29 -4 -53 0
-53 3 0 15 18 26 41 25 48 41 46 56 -7 6 -21 17 -40 25 -42 8 -1 42 16 74 39
33 23 86 58 119 77 l58 34 -7 54 c-6 53 -6 54 20 54 15 0 36 11 50 26 21 22
27 25 40 14 8 -7 15 -19 15 -26 0 -33 76 -9 136 44 23 20 57 46 75 57 27 16
35 28 37 55 5 63 12 80 32 80 10 0 22 -4 25 -10 12 -20 26 -9 81 66 31 41 62
78 69 80 15 6 115 139 115 153 0 18 -43 62 -56 57 -24 -9 -64 12 -64 33 0 32
22 71 39 71 9 0 22 -9 29 -20 9 -15 23 -20 56 -20 40 0 45 -3 55 -31 9 -25 8
-38 -5 -65 -15 -32 -15 -35 6 -69 22 -35 20 -55 -6 -55 -8 0 -14 -6 -14 -14 0
-22 29 -46 56 -46 l24 0 0 514 c0 481 -1 515 -17 520 -10 3 -49 10 -88 16 -89
15 -179 37 -228 55 -50 20 -52 20 -87 -15z m212 -607 c22 -21 30 -24 42 -14
25 21 35 5 24 -36 -7 -25 -6 -43 1 -60 6 -14 9 -28 6 -33 -9 -15 -101 19 -117
44 -10 14 -10 110 -1 119 10 11 15 9 45 -20z m-780 -390 c9 -16 46 -53 81 -83
53 -44 72 -69 97 -125 18 -38 35 -87 38 -108 4 -34 1 -41 -36 -76 -50 -48
-174 -100 -196 -82 -7 6 -17 37 -21 68 -10 78 -19 99 -52 115 -33 16 -32 39 3
81 21 25 24 36 18 77 -7 54 19 160 39 160 7 0 20 -12 29 -27z m-784 -1122 c56
-28 86 -32 108 -16 24 18 53 19 105 3 40 -13 41 -13 35 -53 -5 -37 -2 -44 47
-95 l52 -55 -36 -3 c-55 -5 -142 33 -201 87 -29 27 -79 65 -110 85 -57 36 -65
46 -51 59 9 9 9 9 51 -12z m-1385 -655 c125 -134 144 -168 111 -201 -9 -9 -14
-18 -11 -21 3 -3 42 -12 87 -20 96 -16 132 -38 154 -94 21 -54 12 -70 -67
-114 -77 -43 -137 -61 -172 -52 -27 7 -27 7 -20 71 6 56 4 66 -14 84 -27 27
-61 27 -68 0 -5 -19 -7 -19 -34 10 -15 17 -33 31 -39 31 -16 0 -25 -31 -10
-40 7 -4 9 -13 5 -20 -5 -8 -10 -9 -18 -1 -11 11 -57 16 -57 6 0 -3 8 -14 18
-24 9 -11 23 -27 30 -35 18 -22 24 -20 63 14 39 34 46 36 77 14 27 -19 28 -41
3 -49 -11 -3 -26 -16 -34 -29 -23 -34 -62 -38 -148 -15 -139 37 -184 101 -116
167 56 54 139 85 245 90 50 2 92 8 92 13 0 11 -26 16 -112 24 -51 5 -68 11
-72 23 -10 36 -18 282 -9 282 5 0 57 -51 116 -114z m2145 46 c2 -13 -3 -31
-11 -40 -8 -9 -22 -42 -30 -72 -18 -66 -33 -110 -58 -167 l-19 -43 -105 0
c-58 0 -105 3 -105 6 0 11 45 45 80 61 42 18 50 29 50 69 0 48 28 130 56 163
44 52 136 67 142 23z m-2549 -53 c6 -39 18 -87 26 -106 8 -20 15 -41 15 -48 0
-17 -151 -28 -166 -12 -7 8 -9 45 -5 107 l6 95 35 17 c65 33 76 27 89 -53z"/>
<path d="M2205 3410 c-107 -8 -188 -25 -220 -47 -11 -7 -27 -13 -37 -13 -10 0
-18 -7 -18 -16 0 -14 8 -16 43 -12 23 3 58 -1 77 -8 32 -12 33 -13 9 -13 -27
-1 -39 -17 -39 -51 0 -21 -63 -93 -73 -83 -15 14 -14 -79 1 -95 21 -23 14 -82
-14 -119 l-26 -34 23 -44 c29 -54 19 -69 -52 -84 -70 -15 -91 -3 -89 52 3 76
3 77 -34 77 -46 0 -56 -16 -53 -86 1 -32 -6 -97 -15 -144 -9 -47 -24 -128 -32
-180 -9 -52 -23 -126 -31 -165 -8 -38 -14 -87 -15 -107 0 -38 0 -38 39 -38
l40 0 3 -52 c3 -49 5 -53 31 -56 23 -3 27 -8 27 -37 0 -29 -4 -34 -27 -37 -25
-3 -28 -8 -31 -42 -5 -60 5 -89 28 -83 15 4 22 -1 27 -21 l6 -27 9 30 c5 17 8
77 7 135 0 58 0 142 0 188 l1 82 50 0 50 0 0 -105 0 -105 25 16 c18 12 38 15
72 11 63 -7 103 -49 103 -108 0 -38 2 -41 23 -35 12 4 47 11 77 15 30 5 98 20
151 34 53 14 124 29 158 33 55 6 62 9 67 33 4 14 12 33 19 41 6 8 26 40 44 70
49 83 178 215 220 225 56 13 61 24 50 106 -13 99 -13 99 -33 62 -17 -33 -57
-46 -71 -23 -3 6 -15 10 -26 10 -11 0 -18 -4 -15 -8 3 -5 -4 -25 -14 -45 -13
-23 -18 -46 -14 -65 9 -45 -24 -59 -163 -73 -65 -7 -130 -18 -145 -25 -15 -8
-46 -14 -69 -14 -24 0 -69 -7 -101 -16 -43 -12 -65 -14 -81 -7 -21 10 -22 16
-20 124 2 120 10 186 25 205 11 15 48 6 48 -12 0 -8 8 -14 18 -13 10 0 12 3 5
6 -7 2 -13 9 -13 14 0 6 5 7 10 4 6 -3 13 0 16 9 5 13 63 40 70 33 9 -9 -15
-107 -29 -122 -21 -20 -21 -28 -2 -66 9 -16 14 -45 13 -64 -4 -44 14 -50 23
-7 8 41 45 82 74 82 21 0 55 -45 55 -73 0 -12 12 -16 53 -15 28 0 55 5 59 11
8 14 -9 37 -28 37 -36 0 -17 54 33 93 22 17 22 20 8 48 -12 21 -13 34 -5 48 5
11 10 33 10 49 0 21 9 38 31 56 37 32 80 33 121 5 l29 -21 28 26 c15 14 37 26
48 26 16 0 28 14 47 53 14 28 31 60 38 69 21 30 -1 33 -70 11 -59 -19 -131
-32 -352 -63 -74 -11 -253 -11 -220 0 14 4 42 8 63 9 48 1 77 30 77 76 0 19
-9 92 -21 162 -15 94 -20 153 -16 221 l5 92 -36 -2 c-20 0 -82 -4 -137 -8z"/>
<path d="M0 2492 l0 -873 31 -94 c24 -75 28 -98 19 -115 -7 -14 -8 -26 0 -39
5 -11 10 -40 10 -65 0 -32 6 -52 19 -65 10 -10 21 -25 23 -32 9 -25 40 4 54
51 12 41 12 50 -7 95 -20 47 -20 53 -6 87 9 22 32 48 56 63 l40 27 -19 39
c-50 98 4 179 120 179 81 0 119 -28 140 -99 7 -23 8 -24 15 -8 4 10 2 28 -5
42 -25 48 27 63 77 21 15 -12 38 -28 51 -35 13 -7 22 -21 22 -36 0 -43 10 -55
46 -55 l34 0 0 50 0 50 50 0 50 0 0 -55 c0 -54 0 -55 29 -55 16 0 31 -4 33
-10 2 -5 32 0 72 12 64 19 70 20 102 5 18 -9 39 -15 46 -13 7 3 25 7 41 10 24
6 27 11 27 46 0 44 15 90 29 90 6 0 17 -13 25 -28 25 -48 112 -99 179 -105 61
-6 70 6 13 17 -19 4 -37 13 -40 21 -7 18 -125 95 -146 95 -8 0 -36 21 -62 47
-45 44 -50 47 -97 44 -157 -8 -240 145 -139 256 19 20 19 22 2 50 -10 15 -34
46 -55 68 -20 22 -40 50 -44 63 -4 15 -14 22 -32 22 -14 0 -38 9 -54 21 -26
18 -28 24 -23 62 l6 42 -24 -35 c-13 -19 -32 -52 -43 -72 -11 -21 -23 -38 -27
-38 -11 0 -10 44 2 76 10 25 9 26 -12 19 -48 -14 -117 -17 -151 -6 -78 26
-124 121 -94 193 15 36 65 81 103 92 16 5 23 17 27 49 3 24 1 47 -6 55 -12 15
-40 442 -32 480 5 20 2 22 -37 22 -27 0 -67 11 -108 31 -110 52 -109 52 -121
23 -8 -23 -14 -26 -39 -21 -20 4 -47 -2 -86 -20 -67 -30 -76 -24 -67 48 3 26
1 55 -5 65 -8 14 -11 -217 -12 -854z m372 110 c8 -8 8 -19 -2 -42 -12 -28 -17
-31 -42 -26 -60 12 -99 -28 -84 -87 7 -29 47 -48 84 -41 25 5 30 2 42 -26 15
-37 8 -45 -47 -56 -74 -14 -151 26 -179 93 -19 44 -18 69 6 118 29 59 79 87
153 82 31 -2 62 -8 69 -15z m94 -494 c8 -7 20 -18 27 -24 10 -9 18 -8 32 2 30
22 89 17 122 -10 l28 -24 28 24 c41 35 97 33 139 -5 l33 -29 3 -116 4 -116
-51 0 -51 0 0 83 c0 88 -15 127 -49 127 -33 0 -41 -21 -41 -117 l0 -93 -55 0
-54 0 -3 96 c-2 79 -6 99 -20 108 -13 8 -23 8 -35 0 -14 -9 -18 -27 -20 -83
-2 -116 -5 -121 -63 -121 l-51 0 3 143 c3 139 4 142 26 145 12 2 22 8 22 13 0
12 8 11 26 -3z m-105 -25 c8 -8 6 -19 -5 -41 -15 -29 -18 -30 -46 -20 -31 10
-60 6 -60 -10 0 -5 18 -15 41 -22 44 -15 89 -60 89 -90 0 -62 -50 -100 -130
-100 -46 0 -120 23 -120 37 0 3 9 21 21 39 19 32 22 33 42 19 24 -17 63 -20
72 -6 3 5 -18 22 -47 38 -57 30 -76 61 -64 107 11 44 60 68 133 64 35 -2 68
-9 74 -15z"/>
<path d="M1264 3195 c-17 -9 -37 -27 -44 -40 -11 -20 -10 -28 10 -54 25 -37
61 -57 115 -66 67 -11 73 -15 84 -46 12 -34 22 -34 93 2 21 11 44 19 52 19 42
0 50 -104 12 -145 -25 -27 -25 -34 1 -93 18 -42 9 -70 -25 -78 -15 -3 -37 -11
-50 -17 -17 -8 -31 -8 -53 0 -44 17 -38 -8 13 -52 l42 -36 19 37 c10 20 27 39
38 41 29 8 57 62 74 142 22 107 20 157 -9 184 -12 12 -26 38 -30 57 -3 19 -10
40 -14 46 -4 6 -50 31 -102 57 -110 53 -179 66 -226 42z"/>
<path d="M1271 2615 c-17 -30 -26 -35 -56 -35 l-35 0 0 -125 0 -125 -55 0
c-34 0 -55 4 -55 11 0 8 -4 8 -14 0 -8 -7 -27 -16 -43 -20 -26 -7 -24 -9 37
-32 64 -25 65 -26 88 -84 30 -80 48 -115 78 -148 l24 -29 35 31 c20 18 52 33
74 37 37 6 38 7 37 48 -1 59 21 106 50 106 14 0 25 8 29 20 4 11 18 33 31 50
43 51 47 210 5 210 -11 0 -21 6 -24 14 -3 7 -20 16 -39 19 -18 2 -48 11 -65
18 -30 12 -34 11 -53 -9 -23 -24 -35 -27 -46 -11 -3 6 6 21 20 33 19 14 25 27
21 39 -10 25 -21 21 -44 -18z m48 -186 c19 -18 22 -29 18 -62 -6 -41 -48 -111
-79 -131 -31 -19 -40 5 -18 48 l19 39 -24 19 c-31 24 -32 54 -3 85 27 29 57
29 87 2z"/>
<path d="M1888 2009 c-15 -8 -18 -25 -18 -103 l0 -93 -105 -7 c-71 -4 -112 -3
-126 4 -28 16 -49 69 -49 127 -1 34 -3 43 -10 32 -23 -40 -40 -112 -38 -168
l2 -61 35 -10 c100 -28 151 -34 184 -22 18 7 43 12 54 12 11 0 41 11 67 25 61
32 72 31 80 -5 7 -37 30 -39 52 -5 18 28 54 34 54 9 0 -12 7 -14 30 -9 19 4
37 1 51 -9 20 -14 24 -13 47 4 14 11 39 20 56 20 33 0 106 59 106 85 0 25 -31
45 -70 45 -22 0 -59 6 -82 14 -45 15 -77 20 -115 18 -21 -2 -23 -7 -23 -52 l0
-50 -50 0 -50 0 0 93 c0 59 -4 97 -12 105 -15 15 -47 15 -70 1z"/>
<path d="M1912 1398 c-5 -7 -19 -33 -31 -58 -19 -41 -19 -48 -7 -85 15 -41 36
-48 63 -22 9 9 53 128 53 143 0 4 -57 34 -63 34 -3 0 -9 -6 -15 -12z"/>
</g>
</svg>
