<?xml version="1.0" standalone="no"?>
<!DOCTYPE svg PUBLIC "-//W3C//DTD SVG 20010904//EN"
 "http://www.w3.org/TR/2001/REC-SVG-20010904/DTD/svg10.dtd">
<svg version="1.0" xmlns="http://www.w3.org/2000/svg"
 width="512.000000pt" height="512.000000pt" viewBox="0 0 512.000000 512.000000"
 preserveAspectRatio="xMidYMid meet">
<metadata>
Created by potrace 1.16, written by Peter Selinger 2001-2019
</metadata>
<g transform="translate(0.000000,512.000000) scale(0.100000,-0.100000)"
fill="#000000" stroke="none">
<path d="M880 4613 c-131 -22 -272 -131 -325 -250 -49 -109 -228 -610 -233
-649 -5 -47 23 -112 60 -136 43 -28 1579 -581 1588 -572 14 15 411 1114 405
1123 -2 5 -17 12 -32 16 -41 10 -746 266 -758 275 -13 10 -387 146 -485 177
-71 22 -152 28 -220 16z"/>
<path d="M3028 3258 c-113 -310 -209 -562 -214 -562 -5 1 -19 5 -31 9 l-23 6
0 -1355 0 -1356 563 0 c599 0 600 0 697 50 58 30 144 112 176 169 61 109 58
53 61 1039 2 496 6 902 8 902 2 0 30 -10 62 -22 102 -38 185 -20 226 49 20 35
199 522 228 623 45 155 2 325 -114 442 -72 72 -113 92 -407 198 -140 51 -427
155 -638 231 -211 76 -385 139 -386 139 -2 0 -95 -253 -208 -562z"/>
<path d="M419 2687 c-74 -49 -69 34 -69 -1183 0 -689 4 -1111 10 -1145 25
-135 120 -255 250 -318 l75 -36 583 -3 582 -3 0 1356 0 1355 -699 0 -698 0
-34 -23z"/>
</g>
</svg>
